<svg viewBox="0 0 310.24 309.81" xmlns="http://www.w3.org/2000/svg"><path d="m145.76.29c-75.88 4.56-138.07 65-144.76 140.71a154.73 154.73 0 0 0 11.64 74.26 13.18 13.18 0 0 1 .75 8.15l-13.39 59.99a.49.49 0 0 0 .49.6l57.71-5.19a11.25 11.25 0 0 1 7.09 2.19 154.17 154.17 0 0 0 91.94 28.85c85.18-1 154.4-72.33 153-157.5a154.91 154.91 0 0 0 -164.47-152.06z" fill="#4bb3fd" fill-rule="evenodd"/><g fill="#fff"><path d="m251.94 223.82-52.41 21.17-70.27-175.13 52.42-21.17z"/><path d="m148.46 143.72-61.79 24.79 36.89-86.88z"/><path d="m190.52 248.57-100.88-70.16 62.66-25.12z"/><path d="m118.67 211.12-60.37 24.23 21.71-51.12z"/></g></svg>