<svg xmlns="http://www.w3.org/2000/svg" width="24" height="24" viewBox="0 0 24 24">
  <path d="M11.8596118,14 L5.5,14 C5.09135661,14 4.85527948,13.5363988 5.09563196,13.2059142 L13.095632,2.20591415 C13.4188917,1.76143205 14.1183691,2.08807659 13.9850713,2.62126781 L12.1403882,10 L18.5,10 C18.9086434,10 19.1447205,10.4636012 18.904368,10.7940858 L10.904368,21.7940858 C10.5811083,22.238568 9.88163095,21.9119234 10.0149287,21.3787322 L11.8596118,14 Z M12.390802,4.87523914 L6.48188502,13 L12.5,13 C12.8252856,13 13.0639646,13.3056944 12.9850713,13.6212678 L11.609198,19.1247609 L17.518115,11 L11.5,11 C11.1747144,11 10.9360354,10.6943056 11.0149287,10.3787322 L12.390802,4.87523914 Z"/>
</svg>
