<svg viewBox="0 0 18 18" fill="none" xmlns="http://www.w3.org/2000/svg">
<path d="M0 2.5C0 1.11929 1.11929 0 2.5 0H5.5C6.88071 0 8 1.11929 8 2.5V5.5C8 6.88071 6.88071 8 5.5 8H2.5C1.11929 8 0 6.88071 0 5.5V2.5ZM1 2.5V5.5C1 6.32843 1.67157 7 2.5 7H5.5C6.32843 7 7 6.32843 7 5.5V2.5C7 1.67157 6.32843 1 5.5 1H2.5C1.67157 1 1 1.67157 1 2.5ZM10 2.5C10 1.11929 11.1193 0 12.5 0H15.5C16.8807 0 18 1.11929 18 2.5V5.5C18 6.88071 16.8807 8 15.5 8H12.5C11.1193 8 10 6.88071 10 5.5V2.5ZM11 2.5V5.5C11 6.32843 11.6716 7 12.5 7H15.5C16.3284 7 17 6.32843 17 5.5V2.5C17 1.67157 16.3284 1 15.5 1H12.5C11.6716 1 11 1.67157 11 2.5ZM0 12.5C0 11.1193 1.11929 10 2.5 10H5.5C6.88071 10 8 11.1193 8 12.5V15.5C8 16.8807 6.88071 18 5.5 18H2.5C1.11929 18 0 16.8807 0 15.5V12.5ZM1 12.5V15.5C1 16.3284 1.67157 17 2.5 17H5.5C6.32843 17 7 16.3284 7 15.5V12.5C7 11.6716 6.32843 11 5.5 11H2.5C1.67157 11 1 11.6716 1 12.5ZM10 12.5C10 11.1193 11.1193 10 12.5 10H15.5C16.8807 10 18 11.1193 18 12.5V15.5C18 16.8807 16.8807 18 15.5 18H12.5C11.1193 18 10 16.8807 10 15.5V12.5ZM11 12.5V15.5C11 16.3284 11.6716 17 12.5 17H15.5C16.3284 17 17 16.3284 17 15.5V12.5C17 11.6716 16.3284 11 15.5 11H12.5C11.6716 11 11 11.6716 11 12.5Z" fill="#737373"/>
</svg>