<svg xmlns="http://www.w3.org/2000/svg" width="24" height="24" viewBox="0 0 24 24">
  <path d="M5.7898124,15.0400458 C5.92222516,15.0022135 6.06437918,15.0206689 6.18274191,15.0910584 C7.17821446,15.6830589 8.31529906,16 9.5,16 C13.0898509,16 16,13.0898509 16,9.5 C16,5.91014913 13.0898509,3 9.5,3 C5.91014913,3 3,5.91014913 3,9.5 C3,10.6847009 3.31694108,11.8217855 3.90894164,12.8172581 C3.97933113,12.9356208 3.99778647,13.0777748 3.95995425,13.2101876 L3.22801099,15.771989 L5.7898124,15.0400458 Z M16.6787004,7.32146597 C19.8088582,8.2695726 22,11.1682874 22,14.5 C22,15.791292 21.6727837,17.0357461 21.0596438,18.1387259 L21.980762,21.3626394 C22.0885265,21.7398154 21.7398154,22.0885265 21.3626394,21.980762 L18.1387259,21.0596438 C17.0357461,21.6727837 15.791292,22 14.5,22 C11.1714936,22 8.27116719,19.8126453 7.32145812,16.6786102 C6.81438749,16.5249459 6.32531045,16.3175988 5.86127413,16.0596438 L2.63736056,16.980762 C2.26018462,17.0885265 1.91147347,16.7398154 2.01923803,16.3626394 L2.94035619,13.1387259 C2.32721633,12.0357461 2,10.791292 2,9.5 C2,5.35786438 5.35786438,2 9.5,2 C12.8844665,2 15.7453349,4.24179021 16.6787004,7.32146597 L16.6787004,7.32146597 Z M16.9296994,8.46886327 C16.9760497,8.80594809 17,9.1501771 17,9.5 C17,13.6421356 13.6421356,17 9.5,17 C9.15228938,17 8.8079749,16.9762741 8.46890428,16.9296286 C9.44418788,19.352582 11.8110214,21 14.5,21 C15.6847009,21 16.8217855,20.6830589 17.8172581,20.0910584 C17.9356208,20.0206689 18.0777748,20.0022135 18.2101876,20.0400458 L20.771989,20.771989 L20.0400458,18.2101876 C20.0022135,18.0777748 20.0206689,17.9356208 20.0910584,17.8172581 C20.6830589,16.8217855 21,15.6847009 21,14.5 C21,11.8086534 19.3499538,9.44299439 16.9296994,8.46886327 L16.9296994,8.46886327 Z"/>
</svg>
