<svg viewBox="0 0 18 11" fill="none" xmlns="http://www.w3.org/2000/svg">
<path d="M3.79521 6.3H0.45C0.201472 6.3 0 6.09853 0 5.85C0 5.60147 0.201472 5.4 0.45 5.4H4.05C4.20807 5.4 4.35455 5.48294 4.43587 5.61848L6.69496 9.38362L10.8403 0.263791C10.997 -0.0808183 11.4832 -0.0898192 11.6525 0.248756L14.2281 5.4H17.55C17.7985 5.4 18 5.60147 18 5.85C18 6.09853 17.7985 6.3 17.55 6.3H13.95C13.7796 6.3 13.6237 6.2037 13.5475 6.05125L11.2693 1.49492L7.15966 10.5362C7.00961 10.8663 6.5507 10.8925 6.36413 10.5815L3.79521 6.3Z" fill="black"/>
</svg>