<svg xmlns="http://www.w3.org/2000/svg" width="24" height="24" viewBox="0 0 24 24">
  <path d="M7.0597759,18.1245371 C5.68775672,17.6051511 4.37994398,16.8615767 3.19176595,15.8938141 C3.18911701,15.8917453 3.18649306,15.8896528 3.18389425,15.887537 C2.99644475,15.7344993 2.94869773,15.4737124 3.0572124,15.2675412 L5.0527864,11.2763932 C5.18863681,11.0046924 5.53338515,10.9159092 5.7835751,11.0881928 C6.74010856,11.7468726 7.77515843,12.2372446 8.84859925,12.5593089 L10.4521785,7.57039564 C9.5819144,7.04522028 9,6.09056683 9,5 C9,3.34314575 10.3431458,2 12,2 C13.6568542,2 15,3.34314575 15,5 C15,6.09056683 14.4180856,7.04522028 13.5478215,7.57039564 L15.1514008,12.5593089 C16.2248416,12.2372446 17.2598914,11.7468726 18.2164249,11.0881928 C18.4666148,10.9159092 18.8113632,11.0046924 18.9472136,11.2763932 L20.9427876,15.2675412 C21.0513023,15.4737124 21.0035553,15.7344993 20.8160377,15.8874534 C20.8135069,15.8896528 20.810883,15.8917453 20.8082341,15.8938141 C19.620056,16.8615767 18.3122433,17.6051511 16.9402241,18.1245371 L17.9760143,21.3469954 C18.0605164,21.6098908 17.9159,21.8915122 17.6530046,21.9760143 C17.3901092,22.0605164 17.1084878,21.9159 17.0239857,21.6530046 L15.9927548,18.4447307 C13.3904506,19.2210881 10.6095494,19.2210881 8.00724518,18.4447307 L6.97601428,21.6530046 C6.89151218,21.9159 6.60989084,22.0605164 6.34699541,21.9760143 C6.08409998,21.8915122 5.93948362,21.6098908 6.02398572,21.3469954 L7.0597759,18.1245371 Z M9.82064306,12.8030484 C11.2583205,13.0943464 12.7416795,13.0943464 14.1793569,12.8030484 L12.6152241,7.93685748 C12.4166452,7.97824515 12.2108632,8 12,8 C11.7891368,8 11.5833548,7.97824515 11.3847759,7.93685748 L9.82064306,12.8030484 Z M4.12901956,15.3599949 C8.77063779,18.916 15.2293622,18.916 19.8709804,15.3599949 L18.3037899,12.2256138 C14.4448119,14.6201579 9.55518815,14.6201579 5.6962101,12.2256138 L4.12901956,15.3599949 Z M12,7 C13.1045695,7 14,6.1045695 14,5 C14,3.8954305 13.1045695,3 12,3 C10.8954305,3 10,3.8954305 10,5 C10,6.1045695 10.8954305,7 12,7 Z"/>
</svg>