<svg xmlns="http://www.w3.org/2000/svg" width="32" height="32" viewBox="0 0 32 32">
	<path d="M20.364 10.244l1.025 0.018 2.785 -2.785 0.135 -1.18C22.1 4.329 19.183 3.13 15.997 3.13c-5.77 0 -10.64 3.926 -12.082 9.244 0.304 -0.212 0.954 -0.053 0.954 -0.053l5.565 -0.915s0.286 -0.474 0.431 -0.45A6.94 6.94 0 0 1 16 8.687c1.65 0.003 3.17 0.586 4.364 1.551z" fill="#ea4335"/>
	<path d="M28.085 12.385c-0.646 -2.385 -1.979 -4.491 -3.778 -6.089l-3.943 3.943c1.58 1.275 2.594 3.226 2.594 5.41v0.696c1.918 0 3.477 1.562 3.477 3.477 0 1.918 -1.562 3.477 -3.477 3.477H16.003L15.307 24v4.173l0.696 0.693h6.954A9.055 9.055 0 0 0 32 19.823c-0.003 -3.078 -1.55 -5.8 -3.915 -7.438z" fill="#4285f4"/>
	<path d="M9.042 28.87h6.95V23.3h-6.95a3.445 3.445 0 0 1 -1.431 -0.311l-1.003 0.307 -2.785 2.785 -0.244 0.94a9 9 0 0 0 5.463 1.845z" fill="#34a853"/>
	<path d="M9.042 10.785A9.055 9.055 0 0 0 0 19.827c0 2.937 1.406 5.547 3.583 7.202l4.032 -4.032a3.48 3.48 0 0 1 -2.05 -3.17c0 -1.918 1.562 -3.477 3.477 -3.477 1.41 0 2.622 0.85 3.17 2.05l4.032 -4.032c-1.654 -2.177 -4.265 -3.583 -7.202 -3.583z" fill="#fbbc05"/>
</svg>