<svg xmlns="http://www.w3.org/2000/svg" width="24" height="24" viewBox="0 0 24 24">
  <path d="M5.5,3 C5.22385763,3 5,3.22385763 5,3.5 L5,6.5 C5,6.77614237 5.22385763,7 5.5,7 L14.5,7 C14.7761424,7 15,6.77614237 15,6.5 L15,3.5 C15,3.22385763 14.7761424,3 14.5,3 L5.5,3 Z M5.5,2 L14.5,2 C15.3284271,2 16,2.67157288 16,3.5 L16,6.5 C16,7.32842712 15.3284271,8 14.5,8 L5.5,8 C4.67157288,8 4,7.32842712 4,6.5 L4,3.5 C4,2.67157288 4.67157288,2 5.5,2 Z M6.5,4 L7.5,4 C7.77614237,4 8,4.22385763 8,4.5 L8,5.5 C8,5.77614237 7.77614237,6 7.5,6 L6.5,6 C6.22385763,6 6,5.77614237 6,5.5 L6,4.5 C6,4.22385763 6.22385763,4 6.5,4 Z M9.5,4 L10.5,4 C10.7761424,4 11,4.22385763 11,4.5 L11,5.5 C11,5.77614237 10.7761424,6 10.5,6 L9.5,6 C9.22385763,6 9,5.77614237 9,5.5 L9,4.5 C9,4.22385763 9.22385763,4 9.5,4 Z M17,16 L17,15 L14.5,15 C13.6715729,15 13,14.3284271 13,13.5 L13,12.5 C13,11.6715729 13.6715729,11 14.5,11 L17,11 L17,10.5 C17,10.2238576 16.7761424,10 16.5,10 L7.5,10 C7.22385763,10 7,10.2238576 7,10.5 L7,11 L9.5,11 C10.3284271,11 11,11.6715729 11,12.5 L11,13.5 C11,14.3284271 10.3284271,15 9.5,15 L3.5,15 C2.67157288,15 2,14.3284271 2,13.5 L2,12.5 C2,11.6715729 2.67157288,11 3.5,11 L6,11 L6,10.5 C6,9.67157288 6.67157288,9 7.5,9 L10,9 L10,7.5 C10,7.22385763 10.2238576,7 10.5,7 C10.7761424,7 11,7.22385763 11,7.5 L11,9 L16.5,9 C17.3284271,9 18,9.67157288 18,10.5 L18,11 L20.5,11 C21.3284271,11 22,11.6715729 22,12.5 L22,13.5 C22,14.3284271 21.3284271,15 20.5,15 L18,15 L18,16.0853529 C18.5825962,16.2912711 19,16.8468906 19,17.5 L19,18 L19.5,18 C20.3284271,18 21,18.6715729 21,19.5 L21,20.5 C21,21.3284271 20.3284271,22 19.5,22 L17.5,22 C16.6715729,22 16,21.3284271 16,20.5 L16,19.5 C16,18.6715729 16.6715729,18 17.5,18 L18,18 L18,17.5 C18,17.2238576 17.7761424,17 17.5,17 L12,17 L12,18 L12.5,18 C13.3284271,18 14,18.6715729 14,19.5 L14,20.5 C14,21.3284271 13.3284271,22 12.5,22 L10.5,22 C9.67157288,22 9,21.3284271 9,20.5 L9,19.5 C9,18.6715729 9.67157288,18 10.5,18 L11,18 L11,17 L5.5,17 C5.22385763,17 5,17.2238576 5,17.5 L5,18 L5.5,18 C6.32842712,18 7,18.6715729 7,19.5 L7,20.5 C7,21.3284271 6.32842712,22 5.5,22 L3.5,22 C2.67157288,22 2,21.3284271 2,20.5 L2,19.5 C2,18.6715729 2.67157288,18 3.5,18 L4,18 L4,17.5 C4,16.6715729 4.67157288,16 5.5,16 L17,16 Z M12.5,4 L13.5,4 C13.7761424,4 14,4.22385763 14,4.5 L14,5.5 C14,5.77614237 13.7761424,6 13.5,6 L12.5,6 C12.2238576,6 12,5.77614237 12,5.5 L12,4.5 C12,4.22385763 12.2238576,4 12.5,4 Z M14.5,12 C14.2238576,12 14,12.2238576 14,12.5 L14,13.5 C14,13.7761424 14.2238576,14 14.5,14 L20.5,14 C20.7761424,14 21,13.7761424 21,13.5 L21,12.5 C21,12.2238576 20.7761424,12 20.5,12 L14.5,12 Z M3.5,12 C3.22385763,12 3,12.2238576 3,12.5 L3,13.5 C3,13.7761424 3.22385763,14 3.5,14 L9.5,14 C9.77614237,14 10,13.7761424 10,13.5 L10,12.5 C10,12.2238576 9.77614237,12 9.5,12 L3.5,12 Z M3.5,19 C3.22385763,19 3,19.2238576 3,19.5 L3,20.5 C3,20.7761424 3.22385763,21 3.5,21 L5.5,21 C5.77614237,21 6,20.7761424 6,20.5 L6,19.5 C6,19.2238576 5.77614237,19 5.5,19 L3.5,19 Z M10.5,19 C10.2238576,19 10,19.2238576 10,19.5 L10,20.5 C10,20.7761424 10.2238576,21 10.5,21 L12.5,21 C12.7761424,21 13,20.7761424 13,20.5 L13,19.5 C13,19.2238576 12.7761424,19 12.5,19 L10.5,19 Z M17.5,19 C17.2238576,19 17,19.2238576 17,19.5 L17,20.5 C17,20.7761424 17.2238576,21 17.5,21 L19.5,21 C19.7761424,21 20,20.7761424 20,20.5 L20,19.5 C20,19.2238576 19.7761424,19 19.5,19 L17.5,19 Z"/>
</svg>
