<svg height="31" viewBox="0 0 31 31" width="31" xmlns="http://www.w3.org/2000/svg"><g fill="none" fill-rule="evenodd" transform="translate(0)"><path d="m15.5295238.83636364c-.4292004.00428294-.8525022.09900963-1.2414762.27781818l-10.14290474 4.77963636c-.79347205.36627208-1.37053845 1.0734041-1.56328572 1.91563637l-2.50952381 10.72436365c-.20201406.8454039.00577611 1.7353122.56242857 2.4087273l7.01485715 8.592c.54011978.6657646 1.35960863 1.0515513 2.22461905 1.0473079h11.245619c.8650105.0042434 1.6844993-.3815433 2.2246191-1.0473079l7.0178095-8.589091c.5587447-.6724052.7667724-1.5633306.5624286-2.4087272l-2.5095238-10.72436366c-.1927473-.84223227-.7698137-1.54936429-1.5632857-1.91563637l-10.1015715-4.77963636c-.3820197-.18072503-.7999991-.27561463-1.2237619-.27781818m0 .9294504c.283927-.00057683.5645529.05998755.8222381.17745869l10.1429048 4.75927273c.5250294.25278269.9074678.72408813 1.0421905 1.28436363l2.5095238 10.72436362c.1407088.5686137-.0006029 1.169287-.3808572 1.6189091l-7.0148571 8.592c-.3651075.4506987-.9189848.7125973-1.5042381.7112777h-11.25300001c-.58525333.0013196-1.13913064-.260579-1.50423809-.7112777l-7.01485715-8.592c-.36180841-.4584652-.50105271-1.0503508-.38085714-1.6189091l2.50952381-10.72436362c.13039488-.56234353.5141614-1.03528564 1.04219048-1.28436363l10.1429048-4.77963637c.2687126-.10142802.5536849-.15463106.8414285-.15709505" fill="#326de6"/><path d="m9.66166667 27.1258182c.35475723.4376265.89300313.6915534 1.46142853.6894674l8.8246667-.0145583c.5657604-.0054114 1.0997337-.2586214 1.457-.6909091l5.3792381-6.6734546c.1317597-.3027461.1796426-.6345174.1387619-.9614545v-9.3192727l-11.5585714 6.5570909-11.54676193-6.5454546v9.3090909c.00257436.355717.12805362.6999578.35576191.976z" fill="#1fbfcf"/><path d="m15.3641905 16.7127273 11.5585714-6.5570909-11.5689048-6.55272731-11.53642853 6.55854541z" fill="#c9e9ec"/><path d="m18.1217143 21.7789091c-.3464943.2136149-.8004768.1372879-1.0554762-.1774546-.0782197-.0940013-.1292219-.2070734-.1476191-.3272727l-.2730952-4.8378182c2.0520801.2327349 3.9637196 1.1432659 5.4235238 2.5832728zm-4.0979048-.624c-.0217788.4286175-.3778775.7667588-.8133809.7723636-.1264151.0026138-.2512537-.0280127-.3616667-.0887272l-4.00785714-2.8203637c1.23199234-1.2146465 2.78875424-2.0595468 4.48909524-2.4363636.3321429-.0596364.6332857-.1192727.9654286-.1774546zm11.2692381-1.9883636.2952381-.2676364v-.0596364c-.0069415-.1610585.0454922-.319153.1476191-.4450909.4216395-.3473841.8753296-.6551487 1.3551428-.9192727.0900476-.0596364.1815714-.0901818.2716191-.1454546.177161-.0855645.3482919-.1827528.5122381-.290909.0295238-.029091.0900476-.0581819.147619-.1178182.0295238-.0305455.0605238-.0305455.0605238-.0596364.4156128-.3218684.5078023-.9056443.2110953-1.3367273-.1660258-.2105308-.4232817-.3313401-.6938096-.3258181-.2410749.0066822-.4735274.0898319-.6628095.2370909l-.0605238.0596363c-.0590476.0290909-.0900476.0887273-.147619.1192728-.1382156.1308128-.2688205.2692151-.3911905.4145454-.0627693.0764342-.1335236.1461511-.2110953.208-.3624111.3969538-.7661517.7552849-1.2045714 1.0690909-.0795247.0556216-.1741219.0865228-.271619.0887273-.0620078.0046061-.1242392-.0053645-.1815715-.0290909h-.0590476l-.3483809.2341818c-.3896059-.3992208-.8021412-.7760827-1.2355715-1.1287273-1.8165099-1.3983437-4.0021986-2.2535399-6.2974285-2.464l-.0295238-.3854545-.0605239-.0596364c-.1268825-.0940396-.2132871-.2316097-.2420952-.3854545-.0110508-.5348546.0195469-1.0697566.0915238-1.6v-.0305455c.0056378-.0993631.0260292-.1973749.0605238-.2909091.0295238-.1774545.0590476-.3563636.0900476-.5643636v-.2661818c.0322695-.3867407-.1889504-.75080295-.550164-.90540655-.3612137-.15460361-.7822401-.06543025-1.0470741.22177016-.1808797.18215622-.2789119.42889269-.271619.68363639v.2370909c-.0012721.1916902.0291417.3823055.0900476.5643636.031.0887273.031.1774546.0605238.2909091v.0290909c.0865183.5287862.11719 1.0649834.0915238 1.6-.0292156.1536895-.1155356.2911248-.2420952.3854546l-.0605238.0596363-.0295238.3854546c-.5451531.0506075-1.0871885.1297496-1.6238095.2370909-2.283062.4918026-4.36252403 1.6506221-5.96676195 3.3250909l-.29523809-.208h-.06052381c-.05904762 0-.11957143.0305454-.18009524.0305454-.09737448-.0028948-.19177421-.0337315-.27161905-.0887272-.43873614-.3248685-.84238528-.6933541-1.20457143-1.0996364-.06282399-.0759481-.13357801-.1451771-.21109523-.2065454-.12234581-.1458117-.25295054-.2846995-.39119048-.416-.031-.0305455-.09152381-.0596364-.14761905-.1192728-.031-.0290909-.06052381-.0290909-.06052381-.0596363-.18815523-.1560768-.42572114-.2425073-.67166666-.2443637-.27073459-.0049439-.52793853.1163802-.69380953.3272728-.29652838.4306271-.20431467 1.0139205.21109524 1.3352727.031 0 .031.0290909.06052381.0290909.06052381.0305454.09004762.0901818.14761905.1192727.16394614.1081563.33507702.2053446.51223809.2909091.09630402.0372134.18754255.0860725.27161905.1454546.47987769.2645786.9335705.5728319 1.35514286.9207272.11462126.1189472.16883341.282404.14761904.4450909v.0596364l.2952381.2676364c-.05905145.072653-.10864314.1523022-.14761905.2370909-.3488813.5454569-.65106789 1.118588-.90342857 1.7134545l1.71828571 2.0887273c.23270919-.8145267.57686905-1.5940474 1.023-2.3170909l3.5856667 3.1461818c.3266631.2815503.3671955.7678935.0915238 1.0981818-.0864672.1208502-.2153199.2058379-.3616667.2385455l-2.06666665.592 1.03333333 1.2509091c.35475722.4376265.89300322.6915534 1.46142862.6894674l8.8246666-.0145583c.5657604-.0054114 1.0997337-.2586214 1.457-.6909091l.9654286-1.1985455-2.1227619-.592c-.4162996-.1168983-.6676143-.5336566-.5727619-.9498182.0299679-.1230379.0926377-.2359968.1815714-.3272727l3.6447143-3.232c.4592233.7511513.8095239 1.5619202 1.0407143 2.4087273l1.7522381-2.1730909c-.2838786-.650129-.6231391-1.2753947-1.0141429-1.8690909z" fill="#326de6"/></g></svg>