<svg xmlns="http://www.w3.org/2000/svg" width="24" height="24" viewBox="0 0 24 24">
  <path d="M20,9.5962912 L20,19.5 C20,19.7761424 19.7761424,20 19.5,20 L4.5,20 C4.22385763,20 4,19.7761424 4,19.5 L4,9.5962912 L2.03576165,4.68569534 C1.90438878,4.35726314 2.1462677,4 2.5,4 L12.5,4 C12.7044523,4 12.8883067,4.12447547 12.9642383,4.31430466 L14.5,8.1537088 L16.0357617,4.31430466 C16.1116933,4.12447547 16.2955477,4 16.5,4 L21.5,4 C21.8537323,4 22.0956112,4.35726314 21.9642383,4.68569534 L20,9.5962912 L20,9.5962912 Z M15,10 L15,19 L19,19 L19,10 L15,10 Z M14,10 L5,10 L5,19 L14,19 L14,10 Z M4.83851648,9 L13.7614835,9 L12.1614835,5 L3.23851648,5 L4.83851648,9 Z M19.1614835,9 L20.7614835,5 L16.8385165,5 L15.2385165,9 L19.1614835,9 Z M13,15.5 L13,17.5 C13,17.7761424 12.7761424,18 12.5,18 L9.5,18 C9.22385763,18 9,17.7761424 9,17.5 L9,15.5 C9,15.2238576 9.22385763,15 9.5,15 L12.5,15 C12.7761424,15 13,15.2238576 13,15.5 Z M12,16 L10,16 L10,17 L12,17 L12,16 Z"/>
</svg>
