<svg xmlns="http://www.w3.org/2000/svg" width="24" height="24" viewBox="0 0 24 24">
  <path d="M5,9 L5,12 L9,12 L9,9 L5,9 Z M3,6 L17,6 L17,4.5 C17,3.67157288 16.3284271,3 15.5,3 L4.5,3 C3.67157288,3 3,3.67157288 3,4.5 L3,6 Z M13.4998169,7 L3,7 L3,16.5 C3,17.3284271 3.67157288,18 4.5,18 L13,18 L13,17 L11.5,17 C11.2238576,17 11,16.7761424 11,16.5 C11,16.2238576 11.2238576,16 11.5,16 L13,16 L13,15 L11.5,15 C11.2238576,15 11,14.7761424 11,14.5 C11,14.2238576 11.2238576,14 11.5,14 L13,14 L13,13 L11.5,13 C11.2238576,13 11,12.7761424 11,12.5 L11,8.5 C11,8.22385763 11.2238576,8 11.5,8 L13.0500091,8 C13.1250012,7.63056119 13.2814597,7.29070532 13.4998169,7 Z M18,6 L19.5,6 C20.8807119,6 22,7.11928813 22,8.5 L22,19.5 C22,20.8807119 20.8807119,22 19.5,22 L15.5,22 C14.1192881,22 13,20.8807119 13,19.5 L13,19 L4.5,19 C3.11928813,19 2,17.8807119 2,16.5 L2,4.5 C2,3.11928813 3.11928813,2 4.5,2 L15.5,2 C16.8807119,2 18,3.11928813 18,4.5 L18,6 Z M13,12 L13,9 L12,9 L12,12 L13,12 Z M4.5,8 L9.5,8 C9.77614237,8 10,8.22385763 10,8.5 L10,12.5 C10,12.7761424 9.77614237,13 9.5,13 L4.5,13 C4.22385763,13 4,12.7761424 4,12.5 L4,8.5 C4,8.22385763 4.22385763,8 4.5,8 Z M14,8.5 L14,19.5 C14,20.3284271 14.6715729,21 15.5,21 L19.5,21 C20.3284271,21 21,20.3284271 21,19.5 L21,8.5 C21,7.67157288 20.3284271,7 19.5,7 L15.5,7 C14.6715729,7 14,7.67157288 14,8.5 Z M4.5,15 C4.22385763,15 4,14.7761424 4,14.5 C4,14.2238576 4.22385763,14 4.5,14 L9.5,14 C9.77614237,14 10,14.2238576 10,14.5 C10,14.7761424 9.77614237,15 9.5,15 L4.5,15 Z M4.5,17 C4.22385763,17 4,16.7761424 4,16.5 C4,16.2238576 4.22385763,16 4.5,16 L7.5,16 C7.77614237,16 8,16.2238576 8,16.5 C8,16.7761424 7.77614237,17 7.5,17 L4.5,17 Z M15.5,9 L19.5,9 C19.7761424,9 20,9.22385763 20,9.5 L20,11.5 C20,11.7761424 19.7761424,12 19.5,12 L15.5,12 C15.2238576,12 15,11.7761424 15,11.5 L15,9.5 C15,9.22385763 15.2238576,9 15.5,9 Z M16,10 L16,11 L19,11 L19,10 L16,10 Z M15.5,14 C15.2238576,14 15,13.7761424 15,13.5 C15,13.2238576 15.2238576,13 15.5,13 L19.5,13 C19.7761424,13 20,13.2238576 20,13.5 C20,13.7761424 19.7761424,14 19.5,14 L15.5,14 Z M15.5,16 C15.2238576,16 15,15.7761424 15,15.5 C15,15.2238576 15.2238576,15 15.5,15 L18.5,15 C18.7761424,15 19,15.2238576 19,15.5 C19,15.7761424 18.7761424,16 18.5,16 L15.5,16 Z M4,4 L5,4 L5,5 L4,5 L4,4 Z M6,4 L7,4 L7,5 L6,5 L6,4 Z M8,4 L9,4 L9,5 L8,5 L8,4 Z M16.5,20 C16.2238576,20 16,19.7761424 16,19.5 C16,19.2238576 16.2238576,19 16.5,19 L18.5,19 C18.7761424,19 19,19.2238576 19,19.5 C19,19.7761424 18.7761424,20 18.5,20 L16.5,20 Z"/>
</svg>
