<svg viewBox="0 0 72 72" xmlns="http://www.w3.org/2000/svg"><g fill="none" stroke="#000" stroke-miterlimit="2" stroke-width="2"><path d="m34 16.0109v-2.5109c0-1.3807 1.1193-2.5 2.5-2.5 1.3807 0 2.5 1.1193 2.5 2.5v2.5" stroke-linecap="round" stroke-linejoin="round"/><path d="m47.4505 56h-22.901c-4.7022 0-8.5495-3.8473-8.5495-8.5495v-22.901c0-4.7022 3.8473-8.5495 8.5495-8.5495h22.901c4.7022 0 8.5495 3.8473 8.5495 8.5495v22.901c0 4.7022-3.8473 8.5495-8.5495 8.5495z" stroke-linecap="round" stroke-linejoin="round"/><ellipse cx="44.8346" cy="29.0022" rx="2.8338" ry="2.8338" stroke-linecap="round" stroke-linejoin="round"/><ellipse cx="27.3342" cy="29.0017" rx="2.8338" ry="2.8338" stroke-linecap="round" stroke-linejoin="round"/><path d="m44.5 47.5h-17c-2.2 0-4-1.8-4-4 0-2.2 1.8-4 4-4h17c2.2 0 4 1.8 4 4 0 2.2-1.8 4-4 4z"/><g stroke-linecap="round" stroke-linejoin="round"><path d="m13.5 41c-1.3807 0-2.5-1.1193-2.5-2.5v-8c0-1.3807 1.1193-2.5 2.5-2.5 1.3807 0 2.5 1.1193 2.5 2.5v8c0 1.3807-1.1193 2.5-2.5 2.5z"/><path d="m58.5 41c1.3807 0 2.5-1.1193 2.5-2.5v-8c0-1.3807-1.1193-2.5-2.5-2.5-1.3807 0-2.5 1.1193-2.5 2.5v8c0 1.3807 1.1193 2.5 2.5 2.5z"/><path d="m28 40v7"/><path d="m33 40v7"/><path d="m38 40v7"/><path d="m43 40v7"/></g></g></svg>