<svg xmlns="http://www.w3.org/2000/svg" width="24" height="24" viewBox="0 0 24 24">
  <path d="M18.5,9 C19.3357785,9 20.0073514,8.32842712 20.0073514,7.5 L20.0073514,6.5 C20.0073514,5.67157288 19.3357785,5 18.5073514,5 L5.5,5 C4.67157288,5 4,5.67157288 4,6.5 L4,7.5 C4,8.32842712 4.67157288,9 5.5,9 L18.5000001,9 Z M3,16.5 C3,15.1192881 4.11928813,14 5.5,14 L18.5073514,14 C19.8880632,14 21.0073514,15.1192881 21.0073514,16.5 L21.0073514,17.5 C21.0073514,18.8807119 19.8880632,20 18.5073514,20 L5.5,20 C4.11928813,20 3,18.8807119 3,17.5 L3,16.5 Z M3.99975627,9.5 C3.39267155,9.0438856 3,8.31779948 3,7.5 L3,6.5 C3,5.11928813 4.11928813,4 5.5,4 L18.5073514,4 C19.8880632,4 21.0073514,5.11928813 21.0073514,6.5 L21.0073514,7.5 C21.0073514,8.31779948 20.6146798,9.0438856 20.0075951,9.5 C20.6146798,9.9561144 21.0073514,10.6822005 21.0073514,11.5 L21.0073514,12.5 C21.0073514,13.8807119 19.8880632,15 18.5073514,15 C18.2238576,15 18,14.7761424 18,14.5 C18,14.2238576 18.2238576,14 18.5,14 C19.3357785,14 20.0073514,13.3284271 20.0073514,12.5 L20.0073514,11.5 C20.0073514,10.6715729 19.3357785,10 18.5073514,10 L5.5,10 C4.67157288,10 4,10.6715729 4,11.5 L4,12.5 C4,13.3284271 4.67157288,14 5.5,14 C5.77614237,14 6,14.2238576 6,14.5 C6,14.7761424 5.77614237,15 5.5,15 C4.11928813,15 3,13.8807119 3,12.5 L3,11.5 C3,10.6822005 3.39267155,9.9561144 3.99975627,9.5 Z M4,16.5 L4,17.5 C4,18.3284271 4.67157288,19 5.5,19 L18.5073514,19 C19.3357785,19 20.0073514,18.3284271 20.0073514,17.5 L20.0073514,16.5 C20.0073514,15.6715729 19.3357785,15 18.5073514,15 L5.5,15 C4.67157288,15 4,15.6715729 4,16.5 Z M5.5,8 C5.22385763,8 5,7.77614237 5,7.5 C5,7.22385763 5.22385763,7 5.5,7 L7.5,7 C7.77614237,7 8,7.22385763 8,7.5 C8,7.77614237 7.77614237,8 7.5,8 L5.5,8 Z M5.5,13 C5.22385763,13 5,12.7761424 5,12.5 C5,12.2238576 5.22385763,12 5.5,12 L7.5,12 C7.77614237,12 8,12.2238576 8,12.5 C8,12.7761424 7.77614237,13 7.5,13 L5.5,13 Z M5.5,18 C5.22385763,18 5,17.7761424 5,17.5 C5,17.2238576 5.22385763,17 5.5,17 L7.5,17 C7.77614237,17 8,17.2238576 8,17.5 C8,17.7761424 7.77614237,18 7.5,18 L5.5,18 Z"/>
</svg>
