<svg width="24" height="24" xmlns="http://www.w3.org/2000/svg" fill-rule="evenodd" clip-rule="evenodd">
    <path fill="#755599" d="M12 0c-6.626 0-12 5.372-12 12 0 6.627 5.374 12 12 12 6.627 0 12-5.373 12-12 0-6.628-5.373-12-12-12zm5.42 7.058c-.367-.338-1.85-1.414-5.152-1.429 0 0-3.894-.235-5.792 1.507-1.056 1.057-1.428 2.602-1.467 4.52-.039 1.918-.09 5.51 3.373 6.485l.003.001-.002 1.486s-.021.602.375.725c.479.149.76-.309 1.218-.802.251-.27.598-.668.86-.972 2.368.198 4.19-.256 4.397-.324.478-.155 3.185-.502 3.625-4.094.454-3.704-.22-6.047-1.438-7.103zm.401 6.835c-.372 3-2.566 3.19-2.971 3.319-.172.056-1.773.454-3.785.322 0 0-1.499 1.809-1.967 2.279-.073.074-.159.104-.217.09-.08-.02-.102-.115-.101-.255l.012-2.47c-2.929-.814-2.758-3.873-2.725-5.474.033-1.601.334-2.913 1.227-3.796 1.606-1.454 4.913-1.237 4.913-1.237 2.794.013 4.132.854 4.442 1.136 1.031.882 1.556 2.993 1.172 6.086zm-5.272.181s.262.023.403-.152l.276-.347c.132-.172.454-.282.768-.107.416.235.954.604 1.322.948.203.171.25.423.112.689l-.002.006c-.142.251-.332.486-.573.706l-.005.004c-.271.226-.582.357-.915.249l-.006-.009c-.598-.169-2.032-.901-2.946-1.63-1.496-1.18-2.559-3.126-2.853-4.169l-.009-.006c-.108-.334.024-.646.249-.915l.004-.005c.219-.241.455-.431.706-.574l.005-.001c.266-.138.518-.091.69.112.226.233.65.794.947 1.322.175.314.066.635-.106.768l-.347.275c-.175.142-.152.404-.152.404s.513 1.942 2.432 2.432zm3.019-1.61c.103-.001.186-.085.186-.188-.01-1.229-.386-2.215-1.118-2.93-.731-.712-1.652-1.077-2.735-1.085h-.002c-.102 0-.186.083-.187.185 0 .103.083.188.186.188.984.007 1.817.337 2.477.98.658.642.997 1.539 1.005 2.665.001.102.084.185.187.185h.001zm-.982-.384h-.004c-.104-.002-.185-.087-.183-.191.015-.638-.168-1.155-.557-1.579-.388-.424-.92-.656-1.627-.708-.103-.007-.181-.097-.173-.199.008-.103.097-.18.2-.173.796.058 1.427.337 1.875.827.451.493.672 1.112.655 1.841-.002.102-.085.182-.186.182zm-.958-.321c-.099 0-.182-.077-.187-.177-.031-.634-.33-.944-.939-.977-.103-.006-.182-.094-.177-.197.006-.103.094-.182.197-.176.804.043 1.251.504 1.292 1.331.005.103-.074.191-.177.196h-.009z"/>
</svg>
