<svg viewBox="0 0 24 20" xmlns="http://www.w3.org/2000/svg"><g fill="#fff"><path d="m10.7792408 0c.6456456 0 1.2188539.41314514 1.4230249 1.02565835l.3826459 1.15058827c-.0371015.17722641-.0624728.35876407-.0752646.54376368l-.009647.2799897-.0002293.45940097c-.1209804-.04626941-.2434026-.08921189-.3671425-.1287442-.152014-.04856526-.2717143-.16677616-.3221789-.31817017l-.5568669-1.67060048c-.068057-.20417107-.2591264-.34188612-.4743416-.34188612h-1.55848158c-.2152152 0-.40628463.13771505-.47434165.34188612l-.55686683 1.67060048c-.05046467.15139401-.17016495.26960491-.32217891.31817017-.95589106.30538708-1.83314512.81427838-2.57454702 1.48829633-.1180625.10733213-.28026184.15187122-.43658101.11988285l-1.72759916-.35352712c-.21084584-.04314642-.42564528.05346702-.53325288.23984886l-.77924078 1.34968462c-.10760761.18638184-.08387759.42071033.05891123.58173498l1.16871625 1.31797515c.10573134.1192345.14829234.28172809.11458769.43748424-.10494726.4849829-.15836615.9828479-.15836615 1.48796332 0 .5051154.05341889 1.0029804.15836615 1.4879633.03370465.1557562-.00885635.3182498-.11458769.4374843l-1.16871625 1.3179751c-.14278882.1610247-.16651884.3953532-.05891123.581735l.77924078 1.3496846c.1076076.1863818.32240704.2829953.53325288.2398489l1.72759916-.3535272c.15631917-.0319883.31851851.0125508.43658101.1198829.7414019.6740179 1.61865596 1.1829092 2.57454702 1.4882963.15201396.0485653.27171424.1667762.32217891.3181702l.55686683 1.6706005c.06805702.2041711.25912645.3418861.47434165.3418861h1.55848158c.2152152 0 .4062846-.137715.4743416-.3418861l.5568669-1.6706005c.0504646-.151394.1701649-.2696049.3221789-.3181702.955891-.3053871 1.8331451-.8142784 2.574547-1.4882963.1180625-.1073321.2802618-.1518712.436581-.1198829l1.7275992.3535272c.2108458.0431464.4256452-.0534671.5332528-.2398489l.7792408-1.3496846c.1076076-.1863818.0838776-.4207103-.0589112-.581735l-.2157919-.2434227 1.2270611-.0001947c.1755043.4228037.1516458.9131618-.0863326 1.3253524l-.7792408 1.3496846c-.3228228.5591455-.9672211.8489859-1.5997586.7195466l-1.4838481-.3036472c-.7398067.6306302-1.5887023 1.1226684-2.5065632 1.449006l-.478198 1.4345939c-.204171.6125133-.7773793 1.0256584-1.4230249 1.0256584h-1.55848158c-.64564561 0-1.21885388-.4131451-1.42302495-1.0256584l-.47819799-1.4345939c-.91786089-.3263376-1.76675646-.8183758-2.50656315-1.449006l-1.48384812.3036472c-.63253753.1294393-1.27693585-.1604011-1.59975866-.7195466l-.77924078-1.3496846c-.3228228-.5591455-.25163275-1.262131.17673372-1.7452049l1.00390873-1.1321198c-.08675197-.474365-.13076802-.9583696-.13076802-1.447833s.04401605-.97346796.13076802-1.44783299l-1.00390873-1.13211977c-.42836647-.48307394-.49955652-1.18605943-.17673372-1.74520493l.77924078-1.34968462c.32282281-.5591455.96722113-.84898585 1.59975866-.71954658l1.48384812.30364715c.73980669-.63063011 1.58870226-1.1226684 2.50656315-1.44900593l.47819799-1.43459398c.20417107-.61251321.77737934-1.02565835 1.42302495-1.02565835zm-.7792408 6c.9460433 0 1.8153786.32842624 2.5002098.87748273l.0005178 1.46471451c-.5373587-.8089615-1.4567712-1.34219724-2.5007276-1.34219724-1.65685425 0-3 1.34314575-3 3 0 1.6568542 1.34314575 3 3 3 1.3970687 0 2.5710921-.9549708 2.9049065-2.2477487.1779179.3680416.4125052.7045848.691326.9987861-.6482143 1.3315625-2.0150883 2.2489626-3.5962325 2.2489626-2.209139 0-4-1.790861-4-4s1.790861-4 4-4z" transform="translate(-.5)"/><path d="m9.64644661 2h-1.39644661c-.13807119 0-.25-.11192881-.25-.25s.11192881-.25.25-.25h2c.1380712 0 .25.11192881.25.25v2c0 .13807119-.1119288.25-.25.25s-.25-.11192881-.25-.25v-1.39644661l-2.5732233 2.57322331c-.09763108.09763107-.25592232.09763107-.3535534 0-.09763107-.09763108-.09763107-.25592232 0-.3535534zm.35355339 3.75c0-.13807119.1119288-.25.25-.25s.25.11192881.25.25v3.5c0 .69035594-.55964406 1.25-1.25 1.25h-6.5c-.69035594 0-1.25-.55964406-1.25-1.25v-6.5c0-.69035594.55964406-1.25 1.25-1.25h3.5c.13807119 0 .25.11192881.25.25s-.11192881.25-.25.25h-3.5c-.41421356 0-.75.33578644-.75.75v6.5c0 .41421356.33578644.75.75.75h6.5c.41421356 0 .75-.33578644.75-.75z" transform="translate(13)"/></g></svg>
