<svg xmlns="http://www.w3.org/2000/svg" width="24" height="24" viewBox="0 0 24 24">
  <path d="M5.00170669,13.8298969 C3.83562289,13.4185428 3,12.3068565 3,11 C3,9.34314575 4.34314575,8 6,8 L10.5,8 C12.3903167,8 14.9801602,7.02880867 18.2427521,5.07125354 C18.5760144,4.87129618 19,5.11135276 19,5.5 L19,8.05000906 C20.1411202,8.28164422 21,9.29052104 21,10.5 L21,11.5 C21,12.709479 20.1411202,13.7183558 19,13.9499909 L19,16.5 C19,16.8886472 18.5760144,17.1287038 18.2427521,16.9287465 C14.9801602,14.9711913 12.3903167,14 10.5,14 L9.2201251,14 C9.0678017,14.1860246 9,14.3517684 9,14.5 C9,14.432231 9.02625595,14.454111 9.2236068,14.5527864 C9.77625595,14.829111 10,15.0155644 10,15.5 C10,15.8518546 9.88416309,16.0623037 9.6404906,16.3233813 L9.61552763,16.3500877 C9.51371265,16.4591752 9.50048722,16.4824574 9.50001372,16.5663905 C9.50024194,16.5254852 9.50665482,16.5279141 9.68282619,16.5971243 C9.70200403,16.6046464 9.70200403,16.6046464 9.72194333,16.6124567 C10.2536797,16.8209311 10.5,17.0060084 10.5,17.5 C10.5,17.980602 10.2734952,18.4336116 9.85355339,18.8535534 C8.32825811,20.3788487 6.96930232,20.6053413 6.08397485,19.2773501 C5.3781604,18.2186284 5.02876957,16.4109685 5.00170669,13.8298969 L5.00170669,13.8298969 Z M6.00416058,14 C6.04329261,16.3034606 6.35772274,17.8851963 6.91602515,18.7226499 C7.36403101,19.3946587 8.00507523,19.287818 9.14644661,18.1464466 C9.38007417,17.912819 9.48826385,17.7088417 9.49909193,17.5298657 C9.48801145,17.5934105 9.45814899,17.5831432 9.35693114,17.5434594 C9.33746965,17.5358364 9.33746965,17.5358364 9.31717381,17.5278757 C8.77230016,17.3138182 8.5,17.0966264 8.5,16.5714286 C8.5,16.180348 8.62432483,15.946499 8.88447237,15.6677694 L8.90943533,15.6410631 C8.98408603,15.5610802 8.99730229,15.5450097 8.99955413,15.5159481 C8.99414155,15.5633841 8.95658676,15.5373104 8.7763932,15.4472136 C8.22374405,15.170889 8,14.9844356 8,14.5 C8,14.3297914 8.02840987,14.1630437 8.0837607,14 L6.00416058,14 L6.00416058,14 Z M19,9.08535285 L19,12.9146471 C19.5825962,12.7087289 20,12.1531094 20,11.5 L20,10.5 C20,9.84689059 19.5825962,9.29127106 19,9.08535285 Z M11,8.98160857 L11,13.0183914 C12.8711319,13.1529593 15.1990309,14.0257092 18,15.627404 L18,6.37259596 C15.1990309,7.97429077 12.8711319,8.84704072 11,8.98160857 L11,8.98160857 Z M10,13 L10,9 L6,9 C4.8954305,9 4,9.8954305 4,11 C4,12.1045695 4.8954305,13 6,13 L10,13 Z"/>
</svg>
