<svg xmlns="http://www.w3.org/2000/svg" width="24" height="24" viewBox="0 0 24 24">
  <path d="M14.7928932,11.5 L11.6464466,8.35355339 C11.4511845,8.15829124 11.4511845,7.84170876 11.6464466,7.64644661 C11.8417088,7.45118446 12.1582912,7.45118446 12.3535534,7.64644661 L16.3535534,11.6464466 C16.5488155,11.8417088 16.5488155,12.1582912 16.3535534,12.3535534 L12.3535534,16.3535534 C12.1582912,16.5488155 11.8417088,16.5488155 11.6464466,16.3535534 C11.4511845,16.1582912 11.4511845,15.8417088 11.6464466,15.6464466 L14.7928932,12.5 L4,12.5 C3.72385763,12.5 3.5,12.2761424 3.5,12 C3.5,11.7238576 3.72385763,11.5 4,11.5 L14.7928932,11.5 Z M16,4.5 C15.7238576,4.5 15.5,4.27614237 15.5,4 C15.5,3.72385763 15.7238576,3.5 16,3.5 L19,3.5 C20.3807119,3.5 21.5,4.61928813 21.5,6 L21.5,18 C21.5,19.3807119 20.3807119,20.5 19,20.5 L16,20.5 C15.7238576,20.5 15.5,20.2761424 15.5,20 C15.5,19.7238576 15.7238576,19.5 16,19.5 L19,19.5 C19.8284271,19.5 20.5,18.8284271 20.5,18 L20.5,6 C20.5,5.17157288 19.8284271,4.5 19,4.5 L16,4.5 Z" transform="rotate(90 12.5 12)"/>
</svg>
