<?xml version="1.0" encoding="UTF-8"?>
<svg width="24px" height="24px" viewBox="0 0 24 24" version="1.1" xmlns="http://www.w3.org/2000/svg" xmlns:xlink="http://www.w3.org/1999/xlink">
    <!-- Generator: Sketch 60.1 (88133) - https://sketch.com -->
    <title>icon/interfaces/exclamation-mark</title>
    <desc>Created with Sketch.</desc>
    <g id="icon/interfaces/exclamation-mark" stroke="none" stroke-width="1" fill="none" fill-rule="evenodd">
        <path d="M12.0587914,3.26605614 C12.2465958,2.91131462 12.754775,2.91131462 12.9425794,3.26605614 L21.9425794,20.2660561 C22.1188736,20.5990564 21.8774729,21 21.5006854,21 L3.5006854,21 C3.12389793,21 2.88249721,20.5990564 3.05879144,20.2660561 L12.0587914,3.26605614 Z M4.33113787,20 L20.6702329,20 L12.5006854,4.56863245 L4.33113787,20 Z M12.2198039,10 L12.7801961,10 C13.3324808,10 13.7801961,10.4477153 13.7801961,11 C13.7801961,11.065852 13.7736914,11.131543 13.7607768,11.1961161 L13.0980581,14.5097097 C13.0410415,14.7947926 12.7907287,15 12.5,15 C12.2092713,15 11.9589585,14.7947926 11.9019419,14.5097097 L11.2392232,11.1961161 C11.1309113,10.6545564 11.482128,10.1277313 12.0236878,10.0194193 C12.088261,10.0065047 12.1539519,10 12.2198039,10 Z M12.5006854,18 C13.0529701,18 13.5006854,17.5522847 13.5006854,17 C13.5006854,16.4477153 13.0529701,16 12.5006854,16 C11.9484006,16 11.5006854,16.4477153 11.5006854,17 C11.5006854,17.5522847 11.9484006,18 12.5006854,18 Z" id="Shape" fill="#212428"></path>
    </g>
</svg>
