<?xml version="1.0" encoding="UTF-8"?>
<svg width="24px" height="24px" viewBox="0 0 24 24" version="1.1" xmlns="http://www.w3.org/2000/svg" xmlns:xlink="http://www.w3.org/1999/xlink">
    <!-- Generator: Sketch 55.2 (78181) - https://sketchapp.com -->
    <title>exclamation-point-24x24</title>
    <desc>Created with Sketch.</desc>
    <g id="exclamation-point-24x24" stroke="none" stroke-width="1" fill="none" fill-rule="evenodd">
        <path d="M12,22 C6.4771525,22 2,17.5228475 2,12 C2,6.4771525 6.4771525,2 12,2 C17.5228475,2 22,6.4771525 22,12 C22,17.5228475 17.5228475,22 12,22 Z M12,21.047619 C16.996862,21.047619 21.047619,16.996862 21.047619,12 C21.047619,7.00313798 16.996862,2.95238095 12,2.95238095 C7.00313798,2.95238095 2.95238095,7.00313798 2.95238095,12 C2.95238095,16.996862 7.00313798,21.047619 12,21.047619 Z M11,7 L13,7 L13,13 L11,13 L11,7 Z M11,15 L13,15 L13,17 L11,17 L11,15 Z" id="Shape" fill="#000000" fill-rule="nonzero"></path>
    </g>
</svg>