<?xml version="1.0" encoding="UTF-8"?>
<svg width="48px" height="60px" viewBox="0 0 48 60" version="1.1" xmlns="http://www.w3.org/2000/svg" xmlns:xlink="http://www.w3.org/1999/xlink">
    <!-- Generator: Sketch 57 (83077) - https://sketch.com -->
    <title>icon/file/file-empty</title>
    <desc>Created with Sketch.</desc>
    <g id="Page-1" stroke="none" stroke-width="1" fill="none" fill-rule="evenodd">
        <g id="icon/file/file-empty" transform="translate(-12.000000, -6.000000)" fill="#212428">
            <path d="M47.5606602,6.43933983 L59.5606602,18.4393398 C59.8924815,18.7711612 60.0252584,19.1856937 60,19.5839324 L60,58.5 C60,62.6421356 56.6421356,66 52.5,66 L19.5,66 C15.3578644,66 12,62.6421356 12,58.5 L12,13.5 C12,9.35786438 15.3578644,6 19.5,6 L46.4160676,6 C46.8143063,5.9747416 47.2288388,6.10751847 47.5606602,6.43933983 Z M45,9 L19.5,9 C17.0147186,9 15,11.0147186 15,13.5 L15,58.5 C15,60.9852814 17.0147186,63 19.5,63 L52.5,63 C54.9852814,63 57,60.9852814 57,58.5 L57,21 L46.5,21 C45.6715729,21 45,20.3284271 45,19.5 L45,9 Z M48,11.1213203 L48,18 L54.8786797,18 L48,11.1213203 Z" id="Combined-Shape"></path>
        </g>
    </g>
</svg>