<?xml version="1.0" encoding="UTF-8"?>
<svg width="24px" height="24px" viewBox="0 0 24 24" version="1.1" xmlns="http://www.w3.org/2000/svg" xmlns:xlink="http://www.w3.org/1999/xlink">
    <!-- Generator: Sketch 59 (86127) - https://sketch.com -->
    <title>icon/interfaces/home</title>
    <desc>Created with Sketch.</desc>
    <g id="icon/interfaces/home" stroke="none" stroke-width="1" fill="none" fill-rule="evenodd">
        <path d="M20,10.7359622 L20,18.5 C20,19.8807119 18.8807119,21 17.5,21 L14.5,21 C14.2238576,21 14,20.7761424 14,20.5 L14,14.5 C14,14.2238576 13.7761424,14 13.5,14 L10.5,14 C10.2238576,14 10,14.2238576 10,14.5 L10,20.5 C10,20.7761424 9.77614237,21 9.5,21 L6.5,21 C5.11928813,21 4,19.8807119 4,18.5 L4,10.7359622 L3.81785363,10.8859651 C3.60469098,11.0615108 3.28958059,11.0310163 3.11403488,10.8178536 C2.93848917,10.604691 2.96898373,10.2895806 3.18214637,10.1140349 L11.6821464,3.11403488 C11.8667743,2.96198837 12.1332257,2.96198837 12.3178536,3.11403488 L20.8178536,10.1140349 C21.0310163,10.2895806 21.0615108,10.604691 20.8859651,10.8178536 C20.7104194,11.0310163 20.395309,11.0615108 20.1821464,10.8859651 L20,10.7359622 Z M19.0066996,9.91795013 L12,4.14772693 L4.9933004,9.91795013 C4.99770753,9.94464611 5,9.97205534 5,10 L5,18.5 C5,19.3284271 5.67157288,20 6.5,20 L9,20 L9,14.5 C9,13.6715729 9.67157288,13 10.5,13 L13.5,13 C14.3284271,13 15,13.6715729 15,14.5 L15,20 L17.5,20 C18.3284271,20 19,19.3284271 19,18.5 L19,10 C19,9.97205534 19.0022925,9.94464611 19.0066996,9.91795013 L19.0066996,9.91795013 Z" id="Combined-Shape" fill="#212428"></path>
    </g>
</svg>