<?xml version="1.0" encoding="utf-8"?>
<!-- Svg Vector Icons : http://www.onlinewebfonts.com/icon -->
<!DOCTYPE svg PUBLIC "-//W3C//DTD SVG 1.1//EN" "http://www.w3.org/Graphics/SVG/1.1/DTD/svg11.dtd">
  <svg
    width="20"
    height="20"
    viewBox="0 0 20 20"
    version="1.1"
    xmlns="http://www.w3.org/2000/svg"
    xmlnsXlink="http://www.w3.org/1999/xlink">
    <title>Icon / Template / Static</title>
    <desc>Created with Sketch.</desc>
    <g id="Page-1" stroke="none" strokeWidth="1" fill="none" fillRule="evenodd">
      <path
        d="M3.15789474,1.05263158 C1.99519,1.05263158 1.05263158,1.99519 1.05263158,3.15789474 L1.05263158,16.8421053 C1.05263158,18.00481 1.99519,18.9473684 3.15789474,18.9473684 L16.8421053,18.9473684 C18.00481,18.9473684 18.9473684,18.00481 18.9473684,16.8421053 L18.9473684,3.15789474 C18.9473684,1.99519 18.00481,1.05263158 16.8421053,1.05263158 L3.15789474,1.05263158 Z M3.15789474,0 L16.8421053,0 C18.5861624,0 20,1.41383763 20,3.15789474 L20,16.8421053 C20,18.5861624 18.5861624,20 16.8421053,20 L3.15789474,20 C1.41383763,20 0,18.5861624 0,16.8421053 L0,3.15789474 C0,1.41383763 1.41383763,0 3.15789474,0 Z M4.73684211,6.31578947 C3.86481355,6.31578947 3.15789474,5.60887066 3.15789474,4.73684211 C3.15789474,3.86481355 3.86481355,3.15789474 4.73684211,3.15789474 C5.60887066,3.15789474 6.31578947,3.86481355 6.31578947,4.73684211 C6.31578947,5.60887066 5.60887066,6.31578947 4.73684211,6.31578947 Z M3.62214741,13.6842105 C3.33147123,13.6842105 3.09583162,13.4485709 3.09583162,13.1578947 C3.09583162,12.8672186 3.33147123,12.6315789 3.62214741,12.6315789 L16.3140227,12.6315789 C16.6046989,12.6315789 16.8403385,12.8672186 16.8403385,13.1578947 C16.8403385,13.4485709 16.6046989,13.6842105 16.3140227,13.6842105 L3.62214741,13.6842105 Z M3.68109699,16.8421053 C3.39214036,16.8421053 3.15789474,16.6064657 3.15789474,16.3157895 C3.15789474,16.0251133 3.39214036,15.7894737 3.68109699,15.7894737 L11.0557451,15.7894737 C11.3447017,15.7894737 11.5789474,16.0251133 11.5789474,16.3157895 C11.5789474,16.6064657 11.3447017,16.8421053 11.0557451,16.8421053 L3.68109699,16.8421053 Z M16.8421053,8.31751367 L16.8421053,9.73768321 C16.8421053,10.1730084 16.4937799,10.5263158 16.0645933,10.5263158 L3.66296651,10.5263158 C3.38430622,10.5263158 3.15789474,10.296666 3.15789474,10.0133892 L3.15789474,9.77679939 C3.15789474,9.49352257 3.38430622,9.26450367 3.66296651,9.26450367 L4.61712919,9.26450367 C4.94741627,9.26450367 5.26712919,9.14336971 5.51593301,8.92255259 L8.5507177,6.23552368 C8.74976077,6.05950089 9.07320574,6.06580995 9.25980861,6.24246364 L9.77047847,6.7269995 C9.86066986,6.81217181 10.001244,6.81091 10.0901914,6.72384497 L12.3698565,4.48223574 C12.7492823,4.10937025 13.3712919,4.12261928 13.7382775,4.50747198 L16.4807177,7.40585442 C16.7127273,7.65064597 16.8421053,7.97745531 16.8421053,8.31751367 Z"
        id="templates"
        fill="#808080"
        fillRule="nonzero"
      />
    </g>
  </svg>
