<svg height="12" viewBox="0 0 10 12" width="10" xmlns="http://www.w3.org/2000/svg"><path d="m11.0771004 6.66959476c-.0247473.00586013-.0505617.00896152-.0771004.00896152-.0306596 0-.0603524-.00413932-.08855-.01188961h-5.91145c-.55228475 0-1 .44771525-1 1v4.66666663c0 .5522848.44771525 1 1 1h6c.5522847 0 1-.4477152 1-1v-4.66666663c0-.52634203-.4066417-.9577078-.9228996-.99707191zm-5.74376707-.66959476h5.33333337v-.66666667c0-1.47275933-1.19390737-2.66666666-2.6666667-2.66666666s-2.66666667 1.19390733-2.66666667 2.66666666zm5.99999997.03333937c.7607468.15442345 1.3333334.82700799 1.3333334 1.6333273v4.66666663c0 .9204746-.7461921 1.6666667-1.6666667 1.6666667h-6c-.92047458 0-1.66666667-.7461921-1.66666667-1.6666667v-4.66666663c0-.80631931.57258656-1.47890385 1.33333334-1.6333273v-.70000604c0-1.84094916 1.49238416-3.33333333 3.33333333-3.33333333s3.3333333 1.49238417 3.3333333 3.33333333zm-3.99999997 3.29999396v.25464401c0 .43841916.10207538.87081746.2981424 1.26295146l.18426214.3685243c.03489667.0697933.10623079.1138802.18426213.1138802s.14936546-.0440869.18426213-.1138802l.18426214-.3685243c.19606702-.392134.2981424-.8245323.2981424-1.26295146v-.25464401c0-.36818983-.29847684-.66666666-.66666667-.66666666s-.66666667.29847683-.66666667.66666666zm-.66666666 0c0-.73637966.59695366-1.33333333 1.33333333-1.33333333s1.33333333.59695367 1.33333333 1.33333333v.25464401c0 .54191596-.1261721 1.07638956-.36852427 1.56109386l-.18426213.3685243c-.14782468.2956493-.45000089.4824045-.78054693.4824045s-.63272225-.1867552-.78054693-.4824045l-.18426213-.3685243c-.24235217-.4847043-.36852427-1.0191779-.36852427-1.56109386z" fill="#212428" fill-rule="evenodd" transform="translate(-3 -2)"/></svg>