<?xml version="1.0" encoding="UTF-8"?>
<svg width="21px" height="20px" viewBox="0 0 21 20" version="1.1" xmlns="http://www.w3.org/2000/svg" xmlnsXlink="http://www.w3.org/1999/xlink">
    <!-- Generator: Sketch 61 (89581) - https://sketch.com -->
    <title>icon/airyfont/socialmedia/messenger</title>
    <desc>Created with Sketch.</desc>
    <g id="Page-1" stroke="none" strokeWidth="1" fill="none" fillRule="evenodd">
        <g id="Artboard" transform="translate(-4.000000, -9.000000)" fill="#212428">
            <g id="icon/airyfont/socialmedia/messenger" transform="translate(2.000000, 7.000000)">
                <path d="M18.8618517,2 C20.6059088,2 22.0197465,3.41383763 22.0197465,5.15789474 L22.0197465,18.8421053 C22.0197465,20.5861624 20.6059088,22 18.8618517,22 L5.1776412,22 C3.4335841,22 2.01974647,20.5861624 2.01974647,18.8421053 L2.01974647,5.15789474 C2.01974647,3.41383763 3.4335841,2 5.1776412,2 L18.8618517,2 Z M12.0431361,5 C8.0935056,5.01311256 4.70340258,7.86948754 4.99134718,12.0168451 C5.07396083,13.2058824 5.21545517,14.0882517 5.89646543,15.2438947 C6.24465045,15.834759 6.5618028,16.2116866 7.05940806,16.6752981 C7.16545054,16.7741125 7.27200292,16.8877767 7.32811043,17.0257464 C7.38851188,17.1743079 7.39744865,17.6102235 7.40144739,17.9122039 C7.40609916,18.2647008 7.32617816,18.6506099 7.64445767,18.8929313 C7.98036917,19.1487608 8.33673953,18.8834668 8.67819738,18.7459354 C8.94224797,18.6326827 9.43237462,18.377864 9.68160217,18.3140185 C9.79914884,18.2838983 9.90099577,18.2984708 10.1038935,18.3487636 C10.8015786,18.4932279 11.3094356,18.5698838 12.0361853,18.5761279 C13.102881,18.5852704 14.0459828,18.3888941 15.0278821,17.9648226 C17.5167135,16.7382402 18.9241514,14.7562728 19.0204251,12.0016285 C19.1670991,7.80255572 16.2706741,4.98606968 12.0431361,5 Z M13.2938272,11.5454061 C13.080642,11.5454061 12.9426365,11.3912714 12.7907472,11.278296 L11.5253135,10.3270805 C11.2464936,10.1179119 11.1108318,10.0238119 10.701476,10.0238119 C10.384431,10.0238119 10.122098,10.1947108 9.93641185,10.4234169 C9.90279386,10.4648087 9.87326407,10.5245392 9.84117579,10.5723899 C9.80792458,10.621976 9.78530982,10.6561575 9.7508241,10.7074612 L9.29343876,11.4335489 C9.26314858,11.483949 9.24243031,11.5197319 9.20945641,11.5749895 L8.66476986,12.4391812 C8.45532389,12.7811489 8.22091044,13.1033645 8.02781723,13.4553247 C7.9469301,13.60275 7.7641513,13.7743646 7.75638642,13.9473389 C7.75203881,14.044051 7.7877322,14.1354046 7.85940525,14.1996258 C7.99945933,14.3251342 8.17445536,14.3108926 8.30744232,14.2045818 C8.3676738,14.156427 8.41318959,14.1334276 8.47051371,14.0858722 C8.5274979,14.0385941 8.56982901,14.006962 8.6315097,13.965105 L9.46983032,13.3193767 C9.47284502,13.3169166 9.47714791,13.3134099 9.48023418,13.3110035 L10.539335,12.5103711 C10.779751,12.3572474 10.9557937,12.4913973 11.1306108,12.6190884 L12.4940984,13.641315 C12.8578579,13.9132646 13.2959832,14.1553356 13.8210696,13.8384516 C14.0567892,13.6961969 14.2059142,13.4911522 14.3400015,13.2490544 C14.3873601,13.1635424 14.4319366,13.1085709 14.4785616,13.0307075 L15.4731012,11.4516729 C15.5209876,11.3797583 15.5590516,11.3058667 15.6080026,11.2296672 L16.101135,10.4453965 C16.1748208,10.3355253 16.277446,10.219571 16.3048825,10.0851437 C16.3597824,9.81616405 16.0431041,9.58076657 15.7624592,9.78737675 L15.6332026,9.88354316 C15.6301879,9.88601218 15.6259656,9.88960835 15.6229866,9.89211315 L15.6028677,9.90955729 C15.5461519,9.95769417 15.499178,9.98223226 15.4409861,10.0294656 C14.9869823,10.3979306 14.493993,10.7192695 14.045446,11.0947658 L13.680282,11.3683078 C13.5653833,11.4544282 13.4863032,11.5454061 13.2938272,11.5454061 L13.2938272,11.5454061 Z" id="Combined-Shape"></path>
            </g>
        </g>
    </g>
</svg>