<?xml version="1.0" encoding="UTF-8"?>
<svg width="4px" height="16px" viewBox="0 0 4 16" version="1.1" xmlns="http://www.w3.org/2000/svg" xmlns:xlink="http://www.w3.org/1999/xlink">
    <!-- Generator: Sketch 57.1 (83088) - https://sketch.com -->
    <title>icon/interfaces/more-h</title>
    <desc>Created with Sketch.</desc>
    <g id="Page-1" stroke="none" stroke-width="1" fill="none" fill-rule="evenodd">
        <g id="icon/interfaces/more-h" transform="translate(-10.000000, -4.000000)" fill="#212428">
            <path d="M11.5,5 C11.2238576,5 11,5.22385763 11,5.5 L11,6.5 C11,6.77614237 11.2238576,7 11.5,7 L12.5,7 C12.7761424,7 13,6.77614237 13,6.5 L13,5.5 C13,5.22385763 12.7761424,5 12.5,5 L11.5,5 Z M11.5,4 L12.5,4 C13.3284271,4 14,4.67157288 14,5.5 L14,6.5 C14,7.32842712 13.3284271,8 12.5,8 L11.5,8 C10.6715729,8 10,7.32842712 10,6.5 L10,5.5 C10,4.67157288 10.6715729,4 11.5,4 Z M11.5,11 C11.2238576,11 11,11.2238576 11,11.5 L11,12.5 C11,12.7761424 11.2238576,13 11.5,13 L12.5,13 C12.7761424,13 13,12.7761424 13,12.5 L13,11.5 C13,11.2238576 12.7761424,11 12.5,11 L11.5,11 Z M11.5,10 L12.5,10 C13.3284271,10 14,10.6715729 14,11.5 L14,12.5 C14,13.3284271 13.3284271,14 12.5,14 L11.5,14 C10.6715729,14 10,13.3284271 10,12.5 L10,11.5 C10,10.6715729 10.6715729,10 11.5,10 Z M11.5,17 C11.2238576,17 11,17.2238576 11,17.5 L11,18.5 C11,18.7761424 11.2238576,19 11.5,19 L12.5,19 C12.7761424,19 13,18.7761424 13,18.5 L13,17.5 C13,17.2238576 12.7761424,17 12.5,17 L11.5,17 Z M11.5,16 L12.5,16 C13.3284271,16 14,16.6715729 14,17.5 L14,18.5 C14,19.3284271 13.3284271,20 12.5,20 L11.5,20 C10.6715729,20 10,19.3284271 10,18.5 L10,17.5 C10,16.6715729 10.6715729,16 11.5,16 Z" id="Shape"></path>
        </g>
    </g>
</svg>