<?xml version="1.0" encoding="UTF-8"?>
<svg width="17px" height="18px" viewBox="0 0 17 18" version="1.1" xmlns="http://www.w3.org/2000/svg" xmlns:xlink="http://www.w3.org/1999/xlink">
    <title>icon/interfaces/paperclip</title>
    <g id="Page-1" stroke="none" stroke-width="1" fill="none" fill-rule="evenodd">
        <g id="icon/interfaces/paperclip" transform="translate(-4.000000, -3.000000)" fill="#212428">
            <path d="M20.0238748,11.0356607 L12.2523511,18.704059 C10.6202135,20.3145387 7.97251967,20.3170237 6.33205317,18.7081525 C4.69748591,17.1001823 4.70030885,14.4934516 6.34113028,12.8793547 L14.5126239,4.88465585 C15.6030483,3.81782326 17.3640918,3.82019112 18.4515538,4.88995821 C19.5396192,5.96031884 19.5398514,7.69702622 18.4520717,8.76766899 L10.1424043,16.9464252 C9.59230211,17.4878609 8.70159765,17.4879903 8.15098673,16.9466236 C7.59767417,16.4023144 7.59616441,15.5188215 8.1476332,14.9726126 L14.1116369,9.06549327 C14.2866474,8.89215201 14.285681,8.61343311 14.1094562,8.44125444 C13.9313987,8.26728508 13.6423667,8.26825491 13.4655354,8.44339964 L7.50153171,14.350519 C6.60081682,15.2426429 6.60342748,16.6819351 7.50749284,17.5712896 C8.41286948,18.4614657 9.88164126,18.4611027 10.786497,17.5705021 L19.0961645,9.39174593 C20.5350225,7.9755558 20.5347158,5.68153416 19.0954784,4.26571581 C17.6538116,2.84750749 15.3160581,2.84436419 13.8704496,4.25869629 L5.68911298,12.2630499 C3.70303367,14.2168113 3.70443585,17.3809799 5.69361634,19.3377857 C7.68571133,21.2915037 10.9114687,21.2867722 12.897249,19.3273425 L20.6687727,11.6589442 C20.8441199,11.4859238 20.8436882,11.2072036 20.6677986,11.0347025 C20.4900795,10.8604071 20.2010462,10.8608403 20.0238748,11.0356607 Z" id="paperclip"></path>
        </g>
    </g>
</svg>