<?xml version="1.0" encoding="UTF-8"?>
<svg width="24px" height="24px" viewBox="0 0 24 24" version="1.1" xmlns="http://www.w3.org/2000/svg" xmlns:xlink="http://www.w3.org/1999/xlink">
    <!-- Generator: Sketch 60.1 (88133) - https://sketch.com -->
    <title>icon/airyfont/interface/performance</title>
    <desc>Created with Sketch.</desc>
    <g id="icon/airyfont/interface/performance" stroke="none" stroke-width="1" fill="none" fill-rule="evenodd">
        <path d="M13.5977419,9.18989334 L13.68664,9.20537369 C13.9533731,9.2768446 14.1116643,9.55101307 14.0401934,9.81774613 L14.0401934,9.81774613 L12.8501711,14.2640282 C13.2427028,14.5345487 13.5,14.9872269 13.5,15.5 C13.5,16.3284271 12.8284271,17 12,17 C11.1715729,17 10.5,16.3284271 10.5,15.5 C10.5,14.6715729 11.1715729,14 12,14 L11.8828418,14.005 L13.0742676,9.55892708 C13.1377973,9.32183104 13.3614831,9.1704174 13.5977419,9.18989334 Z M12,6 C17.4292399,6 21.8479317,10.3266708 21.9961847,15.7200952 C21.9979521,15.8507923 21.9086397,15.9615249 21.7870629,15.9918134 L21.7200688,16 L19.5,16 C19.2238576,16 19,15.7761424 19,15.5 C19,15.2238576 19.2238576,15 19.5,15 L20.9450712,15 L20.9127095,14.7415146 C20.545324,12.1158241 19.0450306,9.85326184 16.9217774,8.46377577 L16.178894,9.75357056 C16.0408229,9.99271687 15.7350277,10.0746544 15.4958813,9.93658326 C15.256735,9.79851207 15.1747975,9.49271687 15.3128686,9.25357056 L16.0559791,7.96358305 C14.8371709,7.34723613 13.4591361,7 12,7 C10.5408836,7 9.1614758,7.34775592 7.94113222,7.96506221 L8.67242432,9.22840881 C8.8104955,9.46755513 8.72855793,9.77335033 8.48941161,9.91142152 C8.2502653,10.0494927 7.9444701,9.96755513 7.80639891,9.72840881 L7.80639891,9.72840881 L7.07454116,8.46581088 C4.8822754,9.90062671 3.35276939,12.265206 3.0538007,15 L4.5,15 C4.77614237,15 5,15.2238576 5,15.5 C5,15.7761424 4.77614237,16 4.5,16 L2.27993121,16 C2.14922178,16 2.03972535,15.9091763 2.0111082,15.7871953 L2.0038418,15.7200952 C2.15206828,10.3266708 6.57076009,6 12,6 Z M12,15 C11.7238576,15 11.5,15.2238576 11.5,15.5 C11.5,15.7761424 11.7238576,16 12,16 C12.2761424,16 12.5,15.7761424 12.5,15.5 C12.5,15.2238576 12.2761424,15 12,15 Z" id="Combined-Shape" fill="#212428"></path>
    </g>
</svg>