<?xml version="1.0" encoding="UTF-8"?>
<svg width="120px" height="120px" viewBox="0 0 120 120" version="1.1" xmlns="http://www.w3.org/2000/svg" xmlns:xlink="http://www.w3.org/1999/xlink">
    <!-- Generator: Sketch 61.2 (89653) - https://sketch.com -->
    <title>icon/media/play-alt</title>
    <desc>Created with Sketch.</desc>
    <g id="Page-1" stroke="none" stroke-width="1" fill="none" fill-rule="evenodd">
        <g id="icon/media/play-alt" transform="translate(-12.000000, -12.000000)" fill="#212428">
            <path d="M72,12 C105.137085,12 132,38.862915 132,72 C132,105.137085 105.137085,132 72,132 C38.862915,132 12,105.137085 12,72 C12,38.862915 38.862915,12 72,12 Z M72,18 C42.1766235,18 18,42.1766235 18,72 C18,101.823376 42.1766235,126 72,126 C101.823376,126 126,101.823376 126,72 C126,42.1766235 101.823376,18 72,18 Z M64.4316601,43.6923995 L97.3489062,63.8084944 C98.6484188,64.602641 99.7403452,65.6945673 100.534492,66.9940799 C103.299185,71.5181235 101.87295,77.4268123 97.3489062,80.1915056 L64.4316601,100.3076 C62.7359746,101.343853 60.7872513,101.892157 58.8,101.892157 C52.8353247,101.892157 48,97.056832 48,91.0921567 L48,52.9078433 C48,50.920592 48.548304,48.9718687 49.5845562,47.2761832 C52.6948362,42.1866342 59.342111,40.5821196 64.4316601,43.6923995 Z M54.7042472,50.4048833 C54.2436907,51.1585213 54,52.0246205 54,52.9078433 L54,91.0921567 C54,93.7431235 56.1490332,95.8921567 58.8,95.8921567 C59.6832228,95.8921567 60.5493221,95.648466 61.30296,95.1879095 L94.2202062,75.0718146 C95.9167225,74.0350546 96.4515607,71.8192963 95.4148007,70.12278 C95.1169958,69.6354627 94.7075234,69.2259904 94.2202062,68.9281854 L61.30296,48.8120905 C59.0409382,47.4297439 56.0865939,48.1428615 54.7042472,50.4048833 Z" id="Combined-Shape"></path>
        </g>
    </g>
</svg>