<?xml version="1.0" encoding="UTF-8"?>
<svg width="24px" height="24px" viewBox="0 0 24 24" version="1.1" xmlns="http://www.w3.org/2000/svg" xmlns:xlink="http://www.w3.org/1999/xlink">
    <!-- Generator: Sketch 59 (86127) - https://sketch.com -->
    <title>icon/interfaces/question</title>
    <desc>Created with Sketch.</desc>
    <g id="icon/interfaces/question" stroke="none" stroke-width="1" fill="none" fill-rule="evenodd">
        <path d="M9,7.23529412 C9.17639518,7.06722605 9.36964875,6.90756378 9.57976654,6.75630252 C9.78988432,6.60504126 10.01686,6.47338992 10.2607004,6.36134454 C10.5045408,6.24929916 10.7691296,6.16106475 11.0544747,6.09663866 C11.3398198,6.03221256 11.6485068,6 11.9805447,6 C12.4319089,6 12.8430591,6.06722622 13.2140078,6.20168067 C13.5849565,6.33613513 13.9027224,6.52800996 14.1673152,6.77731092 C14.4319079,7.02661189 14.6368346,7.32772933 14.7821012,7.68067227 C14.9273678,8.03361521 15,8.42856924 15,8.86554622 C15,9.29131866 14.9429318,9.65966231 14.8287938,9.97058824 C14.7146557,10.2815142 14.5706883,10.5518196 14.3968872,10.7815126 C14.223086,11.0112056 14.0350205,11.2100832 13.8326848,11.3781513 C13.6303492,11.5462193 13.4383926,11.7044811 13.2568093,11.8529412 C13.0752261,12.0014013 12.9182886,12.1470581 12.7859922,12.289916 C12.6536958,12.4327738 12.5745786,12.5938366 12.5486381,12.7731092 L12.3696498,14 L11.0544747,14 L10.922179,12.6302521 C10.9169909,12.6022408 10.9143969,12.5784315 10.9143969,12.5588235 L10.9143969,12.487395 C10.9143969,12.2408951 10.9714651,12.0266116 11.0856031,11.8445378 C11.1997412,11.6624641 11.3424116,11.4915974 11.5136187,11.3319328 C11.6848258,11.1722681 11.8690003,11.0168075 12.0661479,10.8655462 C12.2632954,10.714285 12.44747,10.5504211 12.618677,10.3739496 C12.7898841,10.1974781 12.9325546,9.9972 13.0466926,9.77310924 C13.1608307,9.54901849 13.2178988,9.2857158 13.2178988,8.98319328 C13.2178988,8.7815116 13.1828797,8.60084113 13.1128405,8.44117647 C13.0428012,8.28151181 12.9455259,8.14425828 12.8210117,8.02941176 C12.6964974,7.91456525 12.547342,7.82633084 12.3735409,7.76470588 C12.1997397,7.70308092 12.0116742,7.67226891 11.8093385,7.67226891 C11.5136172,7.67226891 11.2632954,7.70728256 11.0583658,7.77731092 C10.8534361,7.84733929 10.6796375,7.92576987 10.536965,8.01260504 C10.3942924,8.09944021 10.2736711,8.1778708 10.1750973,8.24789916 C10.0765235,8.31792752 9.98832724,8.35294118 9.91050584,8.35294118 C9.72373447,8.35294118 9.58884607,8.2689084 9.50583658,8.10084034 L9,7.23529412 Z M11,17.0033223 C11,16.8660015 11.0253023,16.7353273 11.0759076,16.6112957 C11.1265129,16.4872641 11.1969192,16.3809528 11.2871287,16.2923588 C11.3773382,16.2037648 11.4840478,16.1328906 11.6072607,16.0797342 C11.7304737,16.0265778 11.8624855,16 12.0033003,16 C12.1397147,16 12.2695263,16.0265778 12.3927393,16.0797342 C12.5159522,16.1328906 12.6215617,16.2037648 12.709571,16.2923588 C12.7975802,16.3809528 12.8679865,16.4872641 12.9207921,16.6112957 C12.9735976,16.7353273 13,16.8660015 13,17.0033223 C13,17.1450727 12.9735976,17.2768543 12.9207921,17.3986711 C12.8679865,17.5204879 12.7975802,17.6256917 12.709571,17.7142857 C12.6215617,17.8028797 12.5159522,17.8726465 12.3927393,17.923588 C12.2695263,17.9745296 12.1397147,18 12.0033003,18 C11.8624855,18 11.7304737,17.9745296 11.6072607,17.923588 C11.4840478,17.8726465 11.3773382,17.8028797 11.2871287,17.7142857 C11.1969192,17.6256917 11.1265129,17.5204879 11.0759076,17.3986711 C11.0253023,17.2768543 11,17.1450727 11,17.0033223 Z M12,22 C6.4771525,22 2,17.5228475 2,12 C2,6.4771525 6.4771525,2 12,2 C17.5228475,2 22,6.4771525 22,12 C22,17.5228475 17.5228475,22 12,22 Z M12,21 C16.9705627,21 21,16.9705627 21,12 C21,7.02943725 16.9705627,3 12,3 C7.02943725,3 3,7.02943725 3,12 C3,16.9705627 7.02943725,21 12,21 Z" id="Combined-Shape" fill="#212428"></path>
    </g>
</svg>