<svg height="34" viewBox="0 0 31 34" width="31" xmlns="http://www.w3.org/2000/svg"><path d="m35 28.3333333v5c0 1.8409492-1.4923842 3.3333334-3.3333333 3.3333334h-23.33333337c-1.84094916 0-3.33333333-1.4923842-3.33333333-3.3333334v-5zm-1.6666667 1.6666667h-26.66666663v3.3333333c0 .8547264.64340031 1.5591786 1.47229812 1.6554538l.19436854.0112129h23.33333337c.8547264 0 1.5591786-.6434003 1.6554537-1.4722981l.0112129-.1943686zm-1.6666666-26.66666667c1.8409491 0 3.3333333 1.49238417 3.3333333 3.33333334v18.33333333h-30v-18.33333333c0-1.84094917 1.49238417-3.33333334 3.33333333-3.33333334zm0 1.66666667h-23.33333337c-.8547264 0-1.5591786.64340032-1.65545378 1.47229812l-.01121288.19436855v16.66666663h26.66666663v-16.66666663c0-.8547264-.6434003-1.5591786-1.4722981-1.65545378z" fill="#212428" fill-rule="evenodd" transform="translate(-4.5 -3)"/></svg>