<svg height="20" viewBox="0 0 20 20" width="20" xmlns="http://www.w3.org/2000/svg"><path d="m16.0578447 2.84529858c2.7927112 1.23199703 4.8665815 3.68071664 5.6253245 6.64281547.6771832 2.62960355.2587527 5.42186655-1.158636 7.73580945-1.4163216 2.313361-3.7091969 3.9508999-6.3531528 4.5381877-2.6440278.5878277-5.41215449.0754278-7.66653116-1.4171006-.02375356-.0153106-.05249892-.0234811-.06960578-.0233024l-3.95091681.1803946c-.30639586.0141401-.54144303-.2722859-.47211432-.5753135l.88637154-3.8715111c-.75713699-1.6844566-1.02172557-3.5392601-.76872375-5.3580101l.06214653-.3891025c.58479564-3.21473211 2.33554328-5.63864839 5.18137397-7.13890539 2.69169238-1.43611532 5.89299588-1.55551016 8.68446408-.32396163zm-4.1697525 8.72133732 2.552631 6.3629639-6.73714354-4.685837zm1.9620284-6.98536211 4.6922325 11.69540631-3.5003938 1.4136738-4.6922324-11.69550178zm-6.78958593 9.05155951 2.58212624 1.7952989-4.03178618 1.6180408zm2.90809212-6.85135428 1.66338141 4.14604458-4.12638106 1.6554588z" fill="#212428" fill-rule="evenodd" transform="translate(-2 -2)"/></svg>