<svg xmlns="http://www.w3.org/2000/svg" width="24" height="24" viewBox="0 0 24 24">
  <path d="M12,11.7071068 L12,19.5 C12,19.7761424 11.7761424,20 11.5,20 C11.2238576,20 11,19.7761424 11,19.5 L11,11.7071068 L8.85355339,13.8535534 C8.65829124,14.0488155 8.34170876,14.0488155 8.14644661,13.8535534 C7.95118446,13.6582912 7.95118446,13.3417088 8.14644661,13.1464466 L11.1464466,10.1464466 C11.3417088,9.95118446 11.6582912,9.95118446 11.8535534,10.1464466 L14.8535534,13.1464466 C15.0488155,13.3417088 15.0488155,13.6582912 14.8535534,13.8535534 C14.6582912,14.0488155 14.3417088,14.0488155 14.1464466,13.8535534 L12,11.7071068 Z M15.7439414,7 L16.5,7 C18.9852814,7 21,9.01471863 21,11.5 C21,13.9852814 18.9852814,16 16.5,16 C16.2238576,16 16,15.7761424 16,15.5 C16,15.2238576 16.2238576,15 16.5,15 C18.4329966,15 20,13.4329966 20,11.5 C20,9.56700338 18.4329966,8 16.5,8 L15.9725356,8 C15.9906833,8.16416693 16,8.33099545 16,8.5 C16,8.77614237 15.7761424,9 15.5,9 C15.2238576,9 15,8.77614237 15,8.5 C15,6.56700338 13.4329966,5 11.5,5 L11,5 C8.790861,5 7,6.790861 7,9 L7,9.5 C7,9.77614237 6.77614237,10 6.5,10 C5.11928813,10 4,11.1192881 4,12.5 C4,13.8807119 5.11928813,15 6.5,15 C6.77614237,15 7,15.2238576 7,15.5 C7,15.7761424 6.77614237,16 6.5,16 C4.56700338,16 3,14.4329966 3,12.5 C3,10.736764 4.30385293,9.27805926 6,9.03544443 C6,6.23857625 8.23857625,4 11,4 L11.5,4 C13.4593282,4 15.1261868,5.25221144 15.7439414,7 L15.7439414,7 Z"/>
</svg>
