<svg height="24" viewBox="0 0 24 24" width="24" xmlns="http://www.w3.org/2000/svg"><g fill="none" fill-rule="evenodd"><circle cx="12" cy="12" fill="#f5f8fa" r="12"/><path d="m13.3333333 2c.7333334 0 1.3333334.6 1.3333334 1.33333333v7.99999997c0 .7333334-.6 1.3333334-1.3333334 1.3333334h-9.3333333l-2.66666667 2.6666666v-11.99999997c0-.73333333.6-1.33333333 1.33333334-1.33333333zm-5.24514988 1.48148148c-2.085687 0-3.79188712 1.70726074-3.79188712 3.7962963s1.70620012 3.79629632 3.79188712 3.79629632c2.05659558 0 3.61552028-1.6754415 3.61552028-3.79629632v-.61971972h-3.52733686v1.41591591l2.01097546-.00004104-.0038536.01282287c-.29324399.94155952-1.11008166 1.57140236-2.09530528 1.57140236-1.30055638 0-2.38095238-1.08106759-2.38095238-2.38038038s1.080396-2.38038038 2.38095238-2.38038038c.63612271 0 1.20952281.2622887 1.64104922.72729833l.18613562.20057835 1.01753444-1.01816697-.1892418-.18935949c-.7235046-.72395435-1.64572441-1.13626614-2.65547748-1.13626614z" fill="#29a979" transform="translate(4 4)"/></g></svg>