<?xml version="1.0" encoding="utf-8"?>
<!-- Svg Vector Icons : http://www.onlinewebfonts.com/icon -->
<!DOCTYPE svg PUBLIC "-//W3C//DTD SVG 1.1//EN" "http://www.w3.org/Graphics/SVG/1.1/DTD/svg11.dtd">
<svg width="12" height="12" viewBox="0 0 36 34" version="1.1" xmlns="http://www.w3.org/2000/svg">
  <defs />
  <g id="Symbols" stroke="none" strokeWidth="1" fill="none" fillRule="evenodd">
    <g id="Tag" transform="translate(-78.000000, 0.000000)" fill="#FFC600">
      <g id="Profile-Stars" transform="translate(0.750000, 0.250000)">
        <path d="M95.571717,29.1316281 C89.9708586,33.0323798 86.4411604,34.4621529 84.9826225,33.4209476 C83.5240846,32.3797422 83.7666106,28.5074399 85.7102004,21.8040407 C80.0780913,17.238485 77.5315686,14.1406431 78.0706324,12.5105151 C78.6096961,10.8803871 82.4294801,9.98677892 89.5299844,9.82969047 C91.7910654,3.27656349 93.8049763,9.52632221e-16 95.571717,0 C97.3384578,-5.71579332e-16 99.5081199,3.27656349 102.080703,9.82969047 C108.931793,9.96594602 112.630314,10.8595542 113.176267,12.5105151 C113.722219,14.161476 111.236328,17.2593179 105.718593,21.8040407 C107.487355,28.5456779 107.66925,32.4179802 106.264276,33.4209476 C104.859303,34.4239149 101.295116,32.9941418 95.571717,29.1316281 Z" />
      </g>
    </g>
  </g>
</svg>
