<svg height="37" viewBox="0 0 44 37" width="44" xmlns="http://www.w3.org/2000/svg"><g fill="#98a4ab" fill-rule="evenodd" transform="translate(-3.5 -8)"><path d="m20 15.2928932v-9.7928932c0-.82842712-.6715729-1.5-1.5-1.5h-13c-.82842712 0-1.5.67157288-1.5 1.5v6.7928932l3.14644661-3.14644659c.19526215-.19526215.51184463-.19526215.70710678 0l5.64644661 5.64644659 2.6464466-2.6464466c.1952622-.1952621.5118446-.1952621.7071068 0zm0 1.4142136-3.5-3.5-2.6464466 2.6464466c-.1952622.1952621-.5118446.1952621-.7071068 0l-5.6464466-5.6464466-3.5 3.5v4.7928932c0 .8284271.67157288 1.5 1.5 1.5h13c.8284271 0 1.5-.6715729 1.5-1.5zm-17-11.2071068c0-1.38071187 1.11928813-2.5 2.5-2.5h13c1.3807119 0 2.5 1.11928813 2.5 2.5v13c0 1.3807119-1.1192881 2.5-2.5 2.5h-13c-1.38071187 0-2.5-1.1192881-2.5-2.5zm12 .5h2c.5522847 0 1 .44771525 1 1v2c0 .55228475-.4477153 1-1 1h-2c-.5522847 0-1-.44771525-1-1v-2c0-.55228475.4477153-1 1-1zm0 1v2h2v-2z" transform="matrix(.99026807 -.1391731 .1391731 .99026807 .43759 20.362639)"/><path d="m14 13.5032816c0-.0023663 0-.004733 0-.0070999v-2.9923633c0-.002367 0-.0047337 0-.0071v-.9967184c0-.82842712-.6715729-1.5-1.5-1.5h-7c-.82842712 0-1.5.67157288-1.5 1.5v5c0 .8284271.67157288 1.5 1.5 1.5h7c.8284271 0 1.5-.6715729 1.5-1.5v-.9967171zm.9991251-4.0700733 2.2284508-1.85704234c.9758368-.81319739 2.4261357-.68135204 3.239333.29448482.3444538.41334451.5330911.93437016.5330911 1.47242412v5.3138502c0 1.2702549-1.0297451 2.3-2.3 2.3-.538054 0-1.0590796-.1886373-1.4724241-.5330911l-2.2284508-1.8570423c-.0354033 1.3498371-1.1407467 2.4332083-2.4991251 2.4332083h-7c-1.38071187 0-2.5-1.1192881-2.5-2.5v-5c0-1.38071187 1.11928813-2.5 2.5-2.5h7c1.3583784 0 2.4637218 1.08337121 2.4991251 2.4332083zm.0008749 1.3009792v2.531625l2.8677603 2.3898003c.2336295.1946912.5281222.3013123.8322397.3013123.7179702 0 1.3-.5820298 1.3-1.3v-5.3138502c0-.30411745-.1066211-.59861022-.3013123-.83223972-.4596333-.55155996-1.2793675-.62608125-1.8309274-.16644794z" transform="matrix(.99026807 .1391731 -.1391731 .99026807 20.807223 .43759)"/><path d="m18.5 3c1.3807119 0 2.5 1.11928813 2.5 2.5v13c0 1.3807119-1.1192881 2.5-2.5 2.5h-13c-1.38071187 0-2.5-1.1192881-2.5-2.5v-13c0-1.38071187 1.11928813-2.5 2.5-2.5zm0 1h-13c-.82842712 0-1.5.67157288-1.5 1.5v13c0 .8284271.67157288 1.5 1.5 1.5h13c.8284271 0 1.5-.6715729 1.5-1.5v-13c0-.82842712-.6715729-1.5-1.5-1.5zm-10.04032258 5c.69624004 0 1.24058943.1651053 1.63306448.49532086.3924751.33021555.6249997.81082574.6975807 1.44184494h-1.17741937c-.05376371-.3342263-.17271414-.5788763-.35685484-.7339572-.18414071-.155081-.43749839-.23262036-.76008065-.23262036-.41129238 0-.72446129.15374176-.93951613.46122996s-.32392471.7647028-.3266129 1.3716577v.3729947c0 .6123025.11693431 1.0748647.35080645 1.3877005s.57661065.4692514 1.02822581.4692514c.45430334 0 .77822484-.0962558.97177419-.2887701v-1.0066845h-1.10080645v-.8863636h2.31048389v2.3302139c-.217743.2593596-.5255357.4605608-.92338712.6036096-.39785145.1430489-.83870725.2145722-1.32258064.2145722-.50806706 0-.95362712-.110293-1.33669355-.3308824-.38306643-.2205893-.6787624-.5407733-.88709677-.9605615-.20833438-.4197881-.31518815-.9130987-.32056452-1.4799465v-.3970588c0-.5828906.09878933-1.0875647.29637097-1.5140374.19758163-.42647275.48252502-.7526727.85483871-.97860966s.80846524-.33890374 1.30846774-.33890374zm4.74999998 0v6h-1.2096774v-6zm4.7903226 0v1.0013736h-2.7341772v1.5494506h2.4303797v.9972527h-2.4303797v2.4519231h-1.2658228v-6z" transform="matrix(.99026807 .1391731 -.1391731 .99026807 26.684774 21.009018)"/></g></svg>
