<svg height="56" viewBox="0 0 56 56" width="56" xmlns="http://www.w3.org/2000/svg"><g fill="none" fill-rule="evenodd"><rect fill="#fff" height="55" rx="8" stroke="#cad5db" width="54.786925" x=".5" y=".5"/><path d="m8 0h39.7869249c4.418278 0 8 3.581722 8 8v32h-55.7869249v-32c0-4.418278 3.581722-8 8-8z" fill="#cad5db"/><path d="m12 2c5.5228475 0 10 4.4771525 10 10s-4.4771525 10-10 10-10-4.4771525-10-10 4.4771525-10 10-10zm0 1c-4.97056275 0-9 4.02943725-9 9 0 4.9705627 4.02943725 9 9 9 4.9705627 0 9-4.0294373 9-9 0-4.97056275-4.0294373-9-9-9zm-1.26139 4.28206659 5.4862077 3.35268251c.2165854.1323577.3985732.3143455.5309309.5309309.4607822.7540073.2230764 1.7387887-.5309309 2.1995709l-5.4862077 3.3526825c-.2826142.1727087-.6074014.2640927-.93861.2640927-.99411255 0-1.8-.8058874-1.8-1.8v-6.36405221c0-.33120856.09138399-.65599577.2640927-.93861002.51838-.84825818 1.62625914-1.11567728 2.4745173-.59729728zm-1.62123547 1.11874729c-.07675942.12560633-.11737453.26995621-.11737453.41716001v6.36405221c0 .4418278.3581722.8.8.8.1472038 0 .2915537-.0406151.41716-.1173745l5.4862077-3.3526825c.2827527-.1727933.3718924-.5420864.1990991-.8248391-.0496342-.0812195-.1178796-.1494649-.1990991-.1990991l-5.4862077-3.35268248c-.37700363-.23039111-.86939436-.11153817-1.09978547.26546546z" fill="#98a4ab" transform="translate(16 8)"/><path d="m14 46.333333h28v2.333333h-28z" fill="#1578d4"/><path d="m.697337 39.666667h54.25" stroke="#cad5db" stroke-linecap="square"/></g></svg>