<?xml version="1.0" encoding="utf-8"?>
<!-- Generator: Adobe Illustrator 25.0.1, SVG Export Plug-In . SVG Version: 6.00 Build 0)  -->
<svg version="1.1" id="Layer_1" xmlns="http://www.w3.org/2000/svg" xmlns:xlink="http://www.w3.org/1999/xlink" x="0px" y="0px"
	 viewBox="0 0 22 20" style="enable-background:new 0 0 22 20;" xml:space="preserve">
<style type="text/css">
	.st0{fill-rule:evenodd;clip-rule:evenodd;fill:#FFFFFF;}
</style>
<path class="st0" d="M0,0l21.6,9.7c0.2,0.1,0.3,0.2,0.4,0.4c0.1,0.3,0,0.7-0.3,0.9l-0.1,0L0,20l1.5-7.9C1.6,11.5,2.1,11,2.7,11
	l0.1,0l8.4-0.3c0.2-0.1,0.3-0.2,0.3-0.4c0-0.3-0.1-0.5-0.4-0.6l-0.1,0l0,0l0,0L2.8,9.1C2.2,9,1.6,8.5,1.5,7.9L0,0L0,0z"/>
</svg>
