<?xml version="1.0" encoding="UTF-8"?>
<svg width="13px" height="13px" viewBox="0 0 13 13" version="1.1" xmlns="http://www.w3.org/2000/svg" xmlns:xlink="http://www.w3.org/1999/xlink">
    <!-- Generator: Sketch 55.2 (78181) - https://sketchapp.com -->
    <title>icon/interfaces/plus</title>
    <desc>Created with Sketch.</desc>
    <g id="V3-–-Tag-button" stroke="none" stroke-width="1" fill="none" fill-rule="evenodd">
        <g id="04.0-Tags-settings" transform="translate(-811.000000, -121.000000)" fill="#167FAB">
            <g id="Group" transform="translate(746.000000, 115.000000)">
                <g id="icon/interfaces/plus" transform="translate(59.000000, 0.000000)">
                    <path d="M13,12 L18.5,12 C18.7761424,12 19,12.2238576 19,12.5 C19,12.7761424 18.7761424,13 18.5,13 L13,13 L13,18.5 C13,18.7761424 12.7761424,19 12.5,19 C12.2238576,19 12,18.7761424 12,18.5 L12,13 L6.5,13 C6.22385763,13 6,12.7761424 6,12.5 C6,12.2238576 6.22385763,12 6.5,12 L12,12 L12,6.5 C12,6.22385763 12.2238576,6 12.5,6 C12.7761424,6 13,6.22385763 13,6.5 L13,12 Z" id="Combined-Shape"></path>
                </g>
            </g>
        </g>
    </g>
</svg>