<svg xmlns="http://www.w3.org/2000/svg" width="24" height="24" viewBox="0 0 24 24">
  <path d="M5.20710678,12.5 L8.35355339,15.6464466 C8.54881554,15.8417088 8.54881554,16.1582912 8.35355339,16.3535534 C8.15829124,16.5488155 7.84170876,16.5488155 7.64644661,16.3535534 L3.64644661,12.3535534 C3.45118446,12.1582912 3.45118446,11.8417088 3.64644661,11.6464466 L7.64644661,7.64644661 C7.84170876,7.45118446 8.15829124,7.45118446 8.35355339,7.64644661 C8.54881554,7.84170876 8.54881554,8.15829124 8.35355339,8.35355339 L5.20710678,11.5 L16,11.5 C16.2761424,11.5 16.5,11.7238576 16.5,12 C16.5,12.2761424 16.2761424,12.5 16,12.5 L5.20710678,12.5 Z M16,4.5 C15.7238576,4.5 15.5,4.27614237 15.5,4 C15.5,3.72385763 15.7238576,3.5 16,3.5 L19,3.5 C20.3807119,3.5 21.5,4.61928813 21.5,6 L21.5,18 C21.5,19.3807119 20.3807119,20.5 19,20.5 L16,20.5 C15.7238576,20.5 15.5,20.2761424 15.5,20 C15.5,19.7238576 15.7238576,19.5 16,19.5 L19,19.5 C19.8284271,19.5 20.5,18.8284271 20.5,18 L20.5,6 C20.5,5.17157288 19.8284271,4.5 19,4.5 L16,4.5 Z" transform="rotate(90 12.5 12)"/>
</svg>
