<svg viewBox="0 0 27 27" fill="none" xmlns="http://www.w3.org/2000/svg">
<rect x="0.5" y="0.5" width="26" height="26" rx="13" fill="#F5F8FA" stroke="#4BB3FD"/>
<path fill-rule="evenodd" clip-rule="evenodd" d="M6.70253 16.5902C6.71383 16.5158 6.70356 16.4395 6.67261 16.3707C6.06648 15.0456 5.88278 13.5708 6.14478 12.1402C6.58124 9.77595 7.87632 7.98347 10.031 6.86422C12.05 5.80277 14.4518 5.71449 16.5459 6.62483C18.6399 7.53509 20.1941 9.34359 20.7627 11.5306C21.27 13.472 20.9563 15.533 19.8944 17.2412C18.8326 18.9501 17.1131 20.1603 15.1296 20.5944C13.1455 21.029 11.0684 20.6501 9.37371 19.5446C9.29467 19.4944 9.20175 19.4683 9.10765 19.4701C8.1152 19.5137 6 19.6099 6 19.6099C6.12934 19.0529 6.59934 17.0593 6.70253 16.5902Z" fill="#4BB3FD"/>
<path fill-rule="evenodd" clip-rule="evenodd" d="M18.4366 16.6765L15.7279 17.7697L12.097 8.72503L14.8057 7.63184L18.4366 16.6765Z" fill="white"/>
<path fill-rule="evenodd" clip-rule="evenodd" d="M13.0892 12.5403L9.89612 13.8206L11.8021 9.33398L13.0892 12.5403Z" fill="white"/>
<path fill-rule="evenodd" clip-rule="evenodd" d="M15.2626 17.955L10.0492 14.3312L13.2873 13.0342L15.2626 17.955Z" fill="white"/>
<path fill-rule="evenodd" clip-rule="evenodd" d="M11.8893 15.697L8.76938 16.9483L9.89117 14.3086L11.8893 15.697Z" fill="white"/>
</svg>
