<svg viewBox="0 0 30 30" fill="none" xmlns="http://www.w3.org/2000/svg">
<path fill-rule="evenodd" clip-rule="evenodd" d="M14.095 0.0287196C6.75805 0.470246 0.744773 6.32242 0.0979025 13.6531C-0.122834 16.1061 0.263737 18.5757 1.2234 20.8434C1.33058 21.0921 1.35598 21.3685 1.29592 21.6326L0.00120806 27.4412C-0.000417277 27.4482 -0.000408941 27.4556 0.00123243 27.4626C0.00287381 27.4697 0.00610469 27.4763 0.0106777 27.4819C0.0152506 27.4875 0.0210444 27.492 0.0276153 27.495C0.0341862 27.498 0.0413599 27.4995 0.0485871 27.4993L5.62868 26.9968C5.87457 26.9878 6.11624 27.0625 6.31423 27.2088C8.90334 29.0672 12.0189 30.0462 15.2041 30.0022C23.4403 29.9054 30.1333 22.9988 29.998 14.7521C29.9646 12.7253 29.5213 10.7263 28.6949 8.8759C27.8685 7.02545 26.6762 5.36194 25.1898 3.98585C23.7035 2.60975 21.954 1.54962 20.0471 0.869493C18.1402 0.189364 16.1154 -0.0966521 14.095 0.0287196Z" fill="#4BB3FD"/>
<path d="M24.1135 22.0744L19.0459 24.1242L12.2513 7.167L17.3199 5.11719L24.1135 22.0744Z" fill="white"/>
<path d="M14.1078 14.3186L8.13318 16.7189L11.7001 8.30664L14.1078 14.3186Z" fill="white"/>
<path d="M18.1746 24.4702L8.42029 17.6769L14.479 15.2446L18.1746 24.4702Z" fill="white"/>
<path d="M11.2273 20.8446L5.39001 23.1907L7.4892 18.241L11.2273 20.8446Z" fill="white"/>
</svg>
