<svg xmlns="http://www.w3.org/2000/svg">
    <path d="M14.058.845a9.96 9.96 0 0 1 5.625 6.643c.677 2.63.259 5.422-1.158 7.736a9.99 9.99 0 0 1-6.354 4.538 9.97 9.97 0 0 1-7.666-1.417.143.143 0 0 0-.07-.023l-3.95.18a.468.468 0 0 1-.473-.575L.9 14.055a9.776 9.776 0 0 1-.77-5.358l.063-.389C.777 5.093 2.528 2.67 5.373 1.17a9.931 9.931 0 0 1 8.685-.324zm-4.17 8.722 2.553 6.363-6.737-4.686zM11.85 2.58l4.692 11.696-3.5 1.413L8.35 3.995zm-6.79 9.052 2.583 1.795-4.032 1.618zM7.97 4.78l1.663 4.147-4.126 1.655z" fill="#212428" fill-rule="evenodd"/>
</svg>