<svg xmlns="http://www.w3.org/2000/svg" xmlns:xlink="http://www.w3.org/1999/xlink" viewBox="0 0 79.688 85" fill="#fff" fill-rule="evenodd" stroke="#000" stroke-linecap="round" stroke-linejoin="round"><use xlink:href="#A" x="2.344" y="2.5"/><symbol id="A" overflow="visible"><g stroke="none"><path d="M63.265 70.595L22.456 57.899l-.044-11.562 49.677 5.47-8.823 18.788z" fill="#2e73b8"/><path d="M71.845 38.155l-40.224.589v9.239l40.224 3.802v-13.63z" fill="#19486f"/><path d="M11.835 9.35l40.809 12.696-.055 11.618-49.566-5.525L11.835 9.35z" fill="#2e73b8"/><path d="M3.265 41.779l40.213-.578v-9.239L3.265 28.16v13.619z" fill="#99bce3"/><path d="M27.684 40.934l-22.919.222v16.242l22.919-3.235v-13.23z" fill="#5294cf"/><path d="M70.147 34.13l-22.665 1.078v-9.516l22.665-3.224V34.13z" fill="#205b99"/><path d="M26.261 0h22.533v18.132H26.261zm.077 62.312h22.456V80H26.338z" fill="#2e73b8"/><path d="M75 13.252L48.794.033 37.489 12.584h0l32.658 9.883V34.13l-32.658-3.302v18.355l23.846-2.424v-6.737l4.798 6.259 4.015 5.225.099.122-.099.145-4.004 6.848-4.809 8.216v-6.759l-23.846 7.182h0l11.449 12.596L75 66.715V56.042 23.913 13.252z" fill="#5294cf"/><path d="M4.765 45.859l32.724 3.324V30.828l-23.603 2.39v6.826l-4.919-6.337-4.202-5.414 4.224-7.082 4.897-8.227v6.748l23.603-7.115v-.033L26.261 0 0 13.241v10.673 32.04 10.773L26.338 80l11.151-12.74-32.724-9.861v-11.54z" fill="#205b99"/><path d="M70.147 22.468l-22.665 3.224-33.596-5.959 23.603-7.148 32.658 9.883z" fill="#19486f"/><path d="M61.335 60.077l-33.651-5.914-22.919 3.235 32.724 9.861 23.846-7.182z" fill="#99bce3"/></g></symbol></svg>