<svg xmlns="http://www.w3.org/2000/svg" style="background-color:#000" viewBox="0 0 187.1 39" xml:space="preserve"><style>.st2{fill-rule:evenodd;clip-rule:evenodd}.st14,.st2{fill:#fff}</style><g id="shadow" style="opacity:.6"><path id="register_1_" d="M183.1 3.4c0-.4.1-.9.4-1.2.3-.3.8-.5 1.2-.5.2 0 .5 0 .7.1.4.1.7.5.9.9.2.4.2.9 0 1.4-.1.2-.2.4-.3.5-.2.1-.3.3-.5.3-.2.1-.5.1-.7.1-.5 0-1-.2-1.2-.5-.4-.2-.5-.6-.5-1.1zm.3 0c0 .5.1.8.4 1.1.3.3.7.4 1 .4.4 0 .7-.1 1-.4.3-.2.4-.6.4-1.1s-.1-.8-.4-1.1c-.3-.2-.6-.4-1-.4s-.8.1-1 .4c-.3.4-.4.7-.4 1.1zm.7-.8h.7c.2 0 .3 0 .5.1.1.1.2.2.2.4 0 .1 0 .2-.1.3l-.2.2.3.6h-.3l-.3-.5h-.4v.5h-.3l-.1-1.6zm.3.2v.6h.3c.1 0 .2 0 .3-.1.1-.1.1-.1.1-.2 0-.2-.1-.3-.3-.3h-.4z"/><defs><filter id="Adobe_OpacityMaskFilter" filterUnits="userSpaceOnUse" x="155.6" y="1.8" width="30.8" height="36.4"><feColorMatrix values="1 0 0 0 0 0 1 0 0 0 0 0 1 0 0 0 0 0 1 0"/></filter></defs><mask maskUnits="userSpaceOnUse" x="155.6" y="1.8" width="30.8" height="36.4" id="mask-13_1_"><g style="filter:url(#Adobe_OpacityMaskFilter)"><path id="path-12_2_" class="st2" d="M1.5 38.1h184.8V1.8H1.5z"/></g></mask><path id="A_3_" style="mask:url(#mask-13_1_)" d="m170.9 1.8-15.3 36.3h3l12.3-29.5 12.3 29.5h3.1z"/><defs><filter id="Adobe_OpacityMaskFilter_1_" filterUnits="userSpaceOnUse" x="146" y="3.3" width="3.1" height="34.8"><feColorMatrix values="1 0 0 0 0 0 1 0 0 0 0 0 1 0 0 0 0 0 1 0"/></filter></defs><mask maskUnits="userSpaceOnUse" x="146" y="3.3" width="3.1" height="34.8" id="mask-11_1_"><g style="filter:url(#Adobe_OpacityMaskFilter_1_)"><path id="path-10_2_" class="st2" d="M1.5 38.1h184.8V1.8H1.5z"/></g></mask><path id="I_1_" style="mask:url(#mask-11_1_)" d="M146 38.1h3.1V3.3H146z"/><defs><filter id="Adobe_OpacityMaskFilter_2_" filterUnits="userSpaceOnUse" x="115.3" y="3.3" width="21.7" height="34.8"><feColorMatrix values="1 0 0 0 0 0 1 0 0 0 0 0 1 0 0 0 0 0 1 0"/></filter></defs><mask maskUnits="userSpaceOnUse" x="115.3" y="3.3" width="21.7" height="34.8" id="mask-9_1_"><g style="filter:url(#Adobe_OpacityMaskFilter_2_)"><path id="path-8_2_" class="st2" d="M1.5 38.1h184.8V1.8H1.5z"/></g></mask><path id="L_1_" style="mask:url(#mask-9_1_)" d="M115.3 38.1V3.3h3.1v31.9H137v2.9z"/><g id="E_1_"><defs><filter id="Adobe_OpacityMaskFilter_3_" filterUnits="userSpaceOnUse" x="88.5" y="35.2" width="18.7" height="2.9"><feColorMatrix values="1 0 0 0 0 0 1 0 0 0 0 0 1 0 0 0 0 0 1 0"/></filter></defs><mask maskUnits="userSpaceOnUse" x="88.5" y="35.2" width="18.7" height="2.9" id="mask-7_1_"><g style="filter:url(#Adobe_OpacityMaskFilter_3_)"><path id="path-6_2_" class="st2" d="M1.5 38.1h184.8V1.8H1.5z"/></g></mask><path id="bottom_1_" style="mask:url(#mask-7_1_)" d="M88.5 38.1h18.7v-2.9H88.5z"/><defs><filter id="Adobe_OpacityMaskFilter_4_" filterUnits="userSpaceOnUse" x="88.6" y="19.1" width="13.5" height="2.9"><feColorMatrix values="1 0 0 0 0 0 1 0 0 0 0 0 1 0 0 0 0 0 1 0"/></filter></defs><mask maskUnits="userSpaceOnUse" x="88.6" y="19.1" width="13.5" height="2.9" id="mask-5_1_"><g style="filter:url(#Adobe_OpacityMaskFilter_4_)"><path id="path-4_2_" class="st2" d="M1.5 38.1h184.8V1.8H1.5z"/></g></mask><path id="middle_1_" style="mask:url(#mask-5_1_)" d="M88.6 22.1h13.5v-3H88.6z"/><path id="top_1_" d="M106.5 3.3H88.6v3h17.9z"/></g><defs><filter id="Adobe_OpacityMaskFilter_5_" filterUnits="userSpaceOnUse" x="40.2" y="1.8" width="36.3" height="36.4"><feColorMatrix values="1 0 0 0 0 0 1 0 0 0 0 0 1 0 0 0 0 0 1 0"/></filter></defs><mask maskUnits="userSpaceOnUse" x="40.2" y="1.8" width="36.3" height="36.4" id="mask-3_1_"><g style="filter:url(#Adobe_OpacityMaskFilter_5_)"><path id="path-2_2_" class="st2" d="M40.2 1.8h36.3v36.3H40.2z"/></g></mask><path id="M_1_" d="M40.2 1.8c3 3.9 18.2 23.6 18.2 23.6s15-19.7 18.1-23.6v36.4h-3.1V11.3c0-.3 0-.6.1-.9-2.4 3.4-12.6 16.6-15.2 20-2.2-3-14.4-18.9-14.4-18.9-.1-.2-.3-.4-.4-.5-.1-.2-.2-.4-.4-.5 0 .3.1.6.1.9v26.9h-3.1l.1-36.5z" style="mask:url(#mask-3_1_)"/><path id="A_2_" d="M16.7 1.8 1.5 38.1h3L16.7 8.6l12 29.5h3.1z"/></g><g id="amelia-white"><path id="register" class="st14" d="M182.6 2.7c0-.4.1-.9.4-1.2.3-.3.8-.5 1.2-.5.2 0 .5 0 .7.1.4.1.7.5.9.9.2.4.2.9 0 1.4-.1.2-.2.4-.3.5-.2.1-.3.3-.5.3-.2.1-.5.1-.7.1-.5 0-1-.2-1.2-.5-.4-.2-.5-.7-.5-1.1zm.3 0c0 .5.1.8.4 1.1.3.3.7.4 1 .4.4 0 .7-.1 1-.4.3-.2.4-.6.4-1.1s-.1-.8-.4-1.1c-.3-.2-.6-.4-1-.4s-.8.1-1 .4c-.3.3-.4.7-.4 1.1zm.7-.9h.7c.2 0 .3 0 .5.1.1.1.2.2.2.4 0 .1 0 .2-.1.3l-.2.2.3.6h-.3l-.3-.5h-.4v.5h-.3l-.1-1.6zm.3.3v.6h.3c.1 0 .2 0 .3-.1.1-.1.1-.1.1-.2 0-.2-.1-.3-.3-.3h-.4z"/><defs><filter id="Adobe_OpacityMaskFilter_6_" filterUnits="userSpaceOnUse" x="155.1" y="1" width="30.8" height="36.4"><feColorMatrix values="1 0 0 0 0 0 1 0 0 0 0 0 1 0 0 0 0 0 1 0"/></filter></defs><mask maskUnits="userSpaceOnUse" x="155.1" y="1" width="30.8" height="36.4" id="mask-13_2_"><g style="filter:url(#Adobe_OpacityMaskFilter_6_)"><path id="path-12_1_" class="st2" d="M1 37.4h184.8V1H1z"/></g></mask><path id="A" style="mask:url(#mask-13_2_);fill:#fff" d="m170.4 1-15.3 36.4h3l12.3-29.5 12.3 29.5h3.1z"/><defs><filter id="Adobe_OpacityMaskFilter_7_" filterUnits="userSpaceOnUse" x="145.5" y="2.6" width="3.1" height="34.8"><feColorMatrix values="1 0 0 0 0 0 1 0 0 0 0 0 1 0 0 0 0 0 1 0"/></filter></defs><mask maskUnits="userSpaceOnUse" x="145.5" y="2.6" width="3.1" height="34.8" id="mask-11_2_"><g style="filter:url(#Adobe_OpacityMaskFilter_7_)"><path id="path-10_1_" class="st2" d="M1 37.4h184.8V1H1z"/></g></mask><path id="I" style="mask:url(#mask-11_2_);fill:#fff" d="M145.5 37.4h3.1V2.6h-3.1z"/><defs><filter id="Adobe_OpacityMaskFilter_8_" filterUnits="userSpaceOnUse" x="114.8" y="2.6" width="21.7" height="34.8"><feColorMatrix values="1 0 0 0 0 0 1 0 0 0 0 0 1 0 0 0 0 0 1 0"/></filter></defs><mask maskUnits="userSpaceOnUse" x="114.8" y="2.6" width="21.7" height="34.8" id="mask-9_2_"><g style="filter:url(#Adobe_OpacityMaskFilter_8_)"><path id="path-8_1_" class="st2" d="M1 37.4h184.8V1H1z"/></g></mask><path id="L" style="mask:url(#mask-9_2_);fill:#fff" d="M114.8 37.4V2.6h3.1v31.9h18.6v2.9z"/><g id="E"><defs><filter id="Adobe_OpacityMaskFilter_9_" filterUnits="userSpaceOnUse" x="88" y="34.5" width="18.7" height="2.9"><feColorMatrix values="1 0 0 0 0 0 1 0 0 0 0 0 1 0 0 0 0 0 1 0"/></filter></defs><mask maskUnits="userSpaceOnUse" x="88" y="34.5" width="18.7" height="2.9" id="mask-7_2_"><g style="filter:url(#Adobe_OpacityMaskFilter_9_)"><path id="path-6_1_" class="st2" d="M1 37.4h184.8V1H1z"/></g></mask><path id="bottom" style="mask:url(#mask-7_2_);fill:#fff" d="M88 37.4h18.7v-2.9H88z"/><defs><filter id="Adobe_OpacityMaskFilter_10_" filterUnits="userSpaceOnUse" x="88.1" y="18.4" width="13.5" height="2.9"><feColorMatrix values="1 0 0 0 0 0 1 0 0 0 0 0 1 0 0 0 0 0 1 0"/></filter></defs><mask maskUnits="userSpaceOnUse" x="88.1" y="18.4" width="13.5" height="2.9" id="mask-5_2_"><g style="filter:url(#Adobe_OpacityMaskFilter_10_)"><path id="path-4_1_" class="st2" d="M1 37.4h184.8V1H1z"/></g></mask><path id="middle" style="mask:url(#mask-5_2_);fill:#fff" d="M88.1 21.3h13.5v-2.9H88.1z"/><path id="top" class="st14" d="M106 2.6H88.1v3H106z"/></g><defs><filter id="Adobe_OpacityMaskFilter_11_" filterUnits="userSpaceOnUse" x="39.7" y="1" width="36.3" height="36.4"><feColorMatrix values="1 0 0 0 0 0 1 0 0 0 0 0 1 0 0 0 0 0 1 0"/></filter></defs><mask maskUnits="userSpaceOnUse" x="39.7" y="1" width="36.3" height="36.4" id="mask-3_2_"><g style="filter:url(#Adobe_OpacityMaskFilter_11_)"><path id="path-2_1_" class="st2" d="M39.7 1H76v36.4H39.7z"/></g></mask><path id="M" d="M39.7 1c3 3.9 18.2 23.6 18.2 23.6S72.9 4.9 76 1v36.4h-3.1V10.5c0-.3 0-.6.1-.9-2.4 3.4-12.6 16.6-15.2 20-2.2-3-14.4-18.9-14.4-18.9-.1-.2-.3-.4-.4-.5-.1-.2-.2-.4-.4-.5 0 .3.1.6.1.9v26.9h-3.1L39.7 1z" style="mask:url(#mask-3_2_);fill:#fff"/><path id="A_1_" class="st14" d="M16.2 1 1 37.4h3L16.2 7.9l12 29.5h3.1z"/></g></svg>