<?xml version="1.0" encoding="UTF-8"?>
<svg width="60px" height="60px" viewBox="0 0 60 60" version="1.1" xmlns="http://www.w3.org/2000/svg" xmlns:xlink="http://www.w3.org/1999/xlink">
    <!-- Generator: Sketch 57 (83077) - https://sketch.com -->
    <title>icon/airyfont/interface/template</title>
    <desc>Created with Sketch.</desc>
    <g id="Page-1" stroke="none" stroke-width="1" fill="none" fill-rule="evenodd">
        <g id="icon/airyfont/interface/template" transform="translate(-6.000000, -6.000000)" fill="#212428">
            <path d="M56.5263158,6 C61.7584871,6 66,10.2415129 66,15.4736842 L66,56.5263158 C66,61.7584871 61.7584871,66 56.5263158,66 L15.4736842,66 C10.2415129,66 6,61.7584871 6,56.5263158 L6,15.4736842 C6,10.2415129 10.2415129,6 15.4736842,6 L56.5263158,6 Z M56.5263158,9.15789474 L15.4736842,9.15789474 C11.98557,9.15789474 9.15789474,11.98557 9.15789474,15.4736842 L9.15789474,56.5263158 C9.15789474,60.01443 11.98557,62.8421053 15.4736842,62.8421053 L56.5263158,62.8421053 C60.01443,62.8421053 62.8421053,60.01443 62.8421053,56.5263158 L62.8421053,15.4736842 C62.8421053,11.98557 60.01443,9.15789474 56.5263158,9.15789474 Z M39.1672354,53.3684211 C40.0341052,53.3684211 40.7368421,54.0753399 40.7368421,54.9473684 C40.7368421,55.819397 40.0341052,56.5263158 39.1672354,56.5263158 L17.043291,56.5263158 C16.1764211,56.5263158 15.4736842,55.819397 15.4736842,54.9473684 C15.4736842,54.0753399 16.1764211,53.3684211 17.043291,53.3684211 L39.1672354,53.3684211 Z M54.942068,43.8947368 C55.8140966,43.8947368 56.5210154,44.6016557 56.5210154,45.4736842 C56.5210154,46.3457128 55.8140966,47.0526316 54.942068,47.0526316 L16.8664422,47.0526316 C15.9944137,47.0526316 15.2874949,46.3457128 15.2874949,45.4736842 C15.2874949,44.6016557 15.9944137,43.8947368 16.8664422,43.8947368 L54.942068,43.8947368 Z M47.2148325,19.5224159 L55.4421531,28.2175633 C56.1381818,28.9519379 56.5263158,29.9323659 56.5263158,30.952541 L56.5263158,35.2130496 C56.5263158,36.5190252 55.4813397,37.5789474 54.1937799,37.5789474 L16.9888995,37.5789474 C16.1529187,37.5789474 15.4736842,36.889998 15.4736842,36.0401675 L15.4736842,35.3303982 C15.4736842,34.4805677 16.1529187,33.793511 16.9888995,33.793511 L19.8513876,33.793511 C20.8422488,33.793511 21.8013876,33.4301091 22.547799,32.7676578 L31.6521531,24.706571 C32.2492823,24.1785027 33.2196172,24.1974298 33.7794258,24.7273909 L35.3114354,26.1809985 C35.5820096,26.4365154 36.0037321,26.43273 36.2705742,26.1715349 L43.1095694,19.4467072 C44.2478469,18.3281108 46.1138756,18.3678578 47.2148325,19.5224159 Z M20.2105263,15.4736842 C22.826612,15.4736842 24.9473684,17.5944407 24.9473684,20.2105263 C24.9473684,22.826612 22.826612,24.9473684 20.2105263,24.9473684 C17.5944407,24.9473684 15.4736842,22.826612 15.4736842,20.2105263 C15.4736842,17.5944407 17.5944407,15.4736842 20.2105263,15.4736842 Z" id="Combined-Shape"></path>
        </g>
    </g>
</svg>
