<?xml version="1.0" encoding="UTF-8"?>
<svg viewBox="0 0 54 54" version="1.1" xmlns="http://www.w3.org/2000/svg" xmlns:xlink="http://www.w3.org/1999/xlink">
    <g id="Page-1" stroke="none" stroke-width="1" fill="none" fill-rule="evenodd">
        <g id="icon/media/image" transform="translate(-9.000000, -9.000000)" fill="#212428">
            <path d="M60,45.8786797 L60,16.5 C60,14.0147186 57.9852814,12 55.5,12 L16.5,12 C14.0147186,12 12,14.0147186 12,16.5 L12,36.8786797 L21.4393398,27.4393398 C22.0251263,26.8535534 22.9748737,26.8535534 23.5606602,27.4393398 L40.5,44.3786797 L48.4393398,36.4393398 C49.0251263,35.8535534 49.9748737,35.8535534 50.5606602,36.4393398 L60,45.8786797 Z M60,50.1213203 L49.5,39.6213203 L41.5606602,47.5606602 C40.9748737,48.1464466 40.0251263,48.1464466 39.4393398,47.5606602 L22.5,30.6213203 L12,41.1213203 L12,55.5 C12,57.9852814 14.0147186,60 16.5,60 L55.5,60 C57.9852814,60 60,57.9852814 60,55.5 L60,50.1213203 Z M9,16.5 C9,12.3578644 12.3578644,9 16.5,9 L55.5,9 C59.6421356,9 63,12.3578644 63,16.5 L63,55.5 C63,59.6421356 59.6421356,63 55.5,63 L16.5,63 C12.3578644,63 9,59.6421356 9,55.5 L9,16.5 Z M45,18 L51,18 C52.6568542,18 54,19.3431458 54,21 L54,27 C54,28.6568542 52.6568542,30 51,30 L45,30 C43.3431458,30 42,28.6568542 42,27 L42,21 C42,19.3431458 43.3431458,18 45,18 Z M45,21 L45,27 L51,27 L51,21 L45,21 Z" id="Combined-Shape"></path>
        </g>
    </g>
</svg>