<svg xmlns="http://www.w3.org/2000/svg" width="24" height="24" viewBox="0 0 24 24">
    <path fill="currentColor" fill-rule="nonzero" d="M5.5,8 C4.67157288,8 4,8.67157288 4,9.5 L4,14.5 C4,15.3284271 4.67157288,16 5.5,16 L12.5,16 C13.3284271,16 14,15.3284271 14,14.5 L14,9.5 C14,8.67157288 13.3284271,8 12.5,8 L5.5,8 Z M5.5,7 L12.5,7 C13.8807119,7 15,8.11928813 15,9.5 L15,14.5 C15,15.8807119 13.8807119,17 12.5,17 L5.5,17 C4.11928813,17 3,15.8807119 3,14.5 L3,9.5 C3,8.11928813 4.11928813,7 5.5,7 Z"/>
    <path fill="currentColor" fill-rule="nonzero" d="M14.8200922,10.8841106 C14.6079538,11.0608927 14.2926714,11.0322306 14.1158894,10.8200922 C13.9391073,10.6079538 13.9677694,10.2926714 14.1799078,10.1158894 L17.2275759,7.57616596 C18.2034127,6.76296857 19.6537116,6.89481392 20.4669089,7.87065078 C20.8113627,8.28399529 21,8.80502094 21,9.3430749 L21,14.6569251 C21,15.92718 19.9702549,16.9569251 18.7,16.9569251 C18.161946,16.9569251 17.6409204,16.7682878 17.2275759,16.423834 L14.1799078,13.8841106 C13.9677694,13.7073286 13.9391073,13.3920462 14.1158894,13.1799078 C14.2926714,12.9677694 14.6079538,12.9391073 14.8200922,13.1158894 L17.8677603,15.6556128 C18.1013898,15.850304 18.3958825,15.9569251 18.7,15.9569251 C19.4179702,15.9569251 20,15.3748953 20,14.6569251 L20,9.3430749 C20,9.03895745 19.8933789,8.74446468 19.6986877,8.51083518 C19.2390544,7.95927522 18.4193202,7.88475393 17.8677603,8.34438724 L14.8200922,10.8841106 Z"/>
</svg>
