<svg xmlns="http://www.w3.org/2000/svg" width="24" height="24"><path d="m17.187 5.91 1.484-.304a1.5 1.5 0 0 1 1.6.72l.779 1.349a1.5 1.5 0 0 1-.177 1.745l-1.004 1.132a8.043 8.043 0 0 1 0 2.896l1.004 1.132a1.5 1.5 0 0 1 .177 1.745l-.78 1.35a1.5 1.5 0 0 1-1.6.72l-1.483-.304a7.992 7.992 0 0 1-2.507 1.449l-.478 1.434A1.5 1.5 0 0 1 12.78 22h-1.558a1.5 1.5 0 0 1-1.423-1.026L9.32 19.54a7.992 7.992 0 0 1-2.507-1.45l-1.484.304a1.5 1.5 0 0 1-1.6-.72l-.779-1.349a1.5 1.5 0 0 1 .177-1.745l1.004-1.132a8.043 8.043 0 0 1 0-2.896L3.127 9.42a1.5 1.5 0 0 1-.177-1.745l.78-1.35a1.5 1.5 0 0 1 1.6-.72l1.483.304A7.992 7.992 0 0 1 9.32 4.46l.478-1.434A1.5 1.5 0 0 1 11.22 2h1.558a1.5 1.5 0 0 1 1.423 1.026l.478 1.434a7.992 7.992 0 0 1 2.507 1.45zm-3.054-.58a.5.5 0 0 1-.323-.318l-.556-1.67A.5.5 0 0 0 12.779 3h-1.558a.5.5 0 0 0-.475.342l-.556 1.67a.5.5 0 0 1-.323.319 6.992 6.992 0 0 0-2.574 1.488.5.5 0 0 1-.437.12L5.13 6.585a.5.5 0 0 0-.534.24l-.779 1.35a.5.5 0 0 0 .06.582l1.168 1.318a.5.5 0 0 1 .114.437 7.029 7.029 0 0 0 0 2.976.5.5 0 0 1-.114.437l-1.169 1.318a.5.5 0 0 0-.059.582l.78 1.35a.5.5 0 0 0 .533.24l1.727-.354a.5.5 0 0 1 .437.12 6.992 6.992 0 0 0 2.574 1.488.5.5 0 0 1 .323.319l.556 1.67a.5.5 0 0 0 .475.342h1.558a.5.5 0 0 0 .475-.342l.556-1.67a.5.5 0 0 1 .323-.319 6.992 6.992 0 0 0 2.574-1.488.5.5 0 0 1 .437-.12l1.727.354a.5.5 0 0 0 .534-.24l.779-1.35a.5.5 0 0 0-.06-.582l-1.168-1.318a.5.5 0 0 1-.114-.437 7.029 7.029 0 0 0 0-2.976.5.5 0 0 1 .114-.437l1.169-1.318a.5.5 0 0 0 .059-.582l-.78-1.35a.5.5 0 0 0-.533-.24l-1.727.354a.5.5 0 0 1-.437-.12 6.992 6.992 0 0 0-2.574-1.488zM12 16a4 4 0 1 1 0-8 4 4 0 0 1 0 8zm0-1a3 3 0 1 0 0-6 3 3 0 0 0 0 6z"/></svg>