<svg width="15" height="15" viewBox="0 0 15 15" fill="none" xmlns="http://www.w3.org/2000/svg">
<path d="M0.225714 1.54761C-0.111244 1.1545 -0.0657174 0.562653 0.327401 0.225695C0.720518 -0.111263 1.31236 -0.065737 1.64932 0.327381L7.27431 6.88987C7.57524 7.24096 7.57524 7.75902 7.27431 8.11011L1.64932 14.6726C1.31236 15.0657 0.720516 15.1112 0.327399 14.7743C-0.0657186 14.4373 -0.111245 13.8455 0.225713 13.4524L5.32775 7.50001L0.225714 1.54761ZM7.72571 1.54761C7.38875 1.1545 7.43428 0.562654 7.82739 0.225696C8.22051 -0.111262 8.81235 -0.0657364 9.14931 0.327382L14.7743 6.88988C15.0752 7.24096 15.0752 7.75902 14.7743 8.11011L9.14931 14.6726C8.81235 15.0657 8.22051 15.1112 7.82739 14.7743C7.43427 14.4373 7.38875 13.8455 7.72571 13.4524L12.8277 7.50001L7.72571 1.54761Z" fill="#1578D4"/>
</svg>
