<svg xmlns="http://www.w3.org/2000/svg" width="24" height="24" viewBox="0 0 24 24">
  <path fill="currentColor" d="M15,15 L9.00006632,15 L9.00006632,9.01803066 L15,9.00772705 L15,15 Z M9.00006632,6.5 C9.00006632,5.67157288 8.32849344,5 7.50006632,5 L6.49166898,5 C5.66324186,5 4.99166898,5.67157288 4.99166898,6.5 L4.99166898,7.52233609 C4.99166898,8.35076322 5.66324186,9.02233609 6.49166898,9.02233609 L9.00006632,9.01803066 L9.00006632,6.5 Z M6.49166898,15 C5.66324186,15 4.99166898,15.6715729 4.99166898,16.5 L4.99166898,17.5257736 C4.99166898,18.3542007 5.66324186,19.0257736 6.49166898,19.0257736 L7.50006632,19.0257736 C8.32849344,19.0257736 9.00006632,18.3542007 9.00006632,17.5257736 L9.00006632,15 L6.49166898,15 Z M15,17.508331 C15,18.3367581 15.6715729,19.008331 16.5,19.008331 L17.5000069,19.008331 C18.3284341,19.008331 19.0000069,18.3367581 19.0000069,17.508331 L19.0000069,16.5 C19.0000069,15.6715729 18.3284341,15 17.5000069,15 L15,15 L15,17.508331 Z M17.5025787,9.00342941 C18.329998,9.00200849 19.0000016,8.33085423 19.0000028,7.5034337 L19.0000069,6.49999931 C19.0000081,5.67157218 18.3284361,4.99999837 17.5000111,4.99999722 L16.5,5 C15.6715729,5 15,5.67157288 15,6.5 L15,9.00772705 L17.5025787,9.00342941 Z M10.0000663,10.0163149 L10.0000663,14 L14,14 L14,10.0094458 L10.0000663,10.0163149 Z M17.5000069,14 C18.8807188,14 20.0000069,15.1192881 20.0000069,16.5 L20.0000069,17.508331 C20.0000069,18.8890429 18.8807188,20.008331 17.5000069,20.008331 L16.5,20.008331 C15.1192881,20.008331 14,18.8890429 14,17.508331 L14,14 L17.5000069,14 Z M10.0000663,17.5257736 C10.0000663,18.9064855 8.88077819,20.0257736 7.50006632,20.0257736 L6.49166898,20.0257736 C5.11095711,20.0257736 3.99166898,18.9064855 3.99166898,17.5257736 L3.99166898,16.5 C3.99166898,15.1192881 5.11095711,14 6.49166898,14 L10.0000663,14 L10.0000663,17.5257736 Z M10.0000663,10.0163149 L6.4959622,10.0223324 C5.11095711,10.0223361 3.99166898,8.90304797 3.99166898,7.52233609 L3.99166898,6.5 C3.99166898,5.11928813 5.11095711,4 6.49166898,4 L7.50006632,4 C8.88077819,4 10.0000663,5.11928813 10.0000663,6.5 L10.0000663,10.0163149 Z M14,6.5 C14,5.11928813 15.1192881,4 16.4999986,4 L17.5000104,3.99999722 C18.8807223,3.99999914 20.0000089,5.11928882 20.0000069,6.50000208 L20.0000028,7.50343647 C20.0000009,8.8824693 18.8833282,10.0010597 17.504296,10.0034279 L14,10.0094458 L14,6.5 Z"/>
</svg>
