<svg xmlns="http://www.w3.org/2000/svg" viewBox="0 0 652 652" style="enable-background:new 0 0 652 652" xml:space="preserve"><path d="M621.1 281.2h-16.4v17c0 8.6-4.3 12.7-13.2 12.7h-22.7c-8.7 0-13-4.2-13-12.8l-.2-17h-16.3v19c0 17.6 9 26.3 27.2 26.3h5.4v33.8h16.4v-33.8h5.4c18.2 0 27.2-8.7 27.2-26.3l.2-14.3v-4.6zm-521 79.1v-15.8H49.7c-8.5 0-12.7-4.2-12.7-12.7v-22.1c0-8.4 4.2-12.7 12.7-12.7h50.5v-15.8H47.5c-17.5 0-26.3 8.8-26.3 26.4V334c0 17.6 8.8 26.4 26.3 26.4 0-.1 52.6-.1 52.6-.1zm44.7 0 26.3-.1c17.5 0 26.3-8.8 26.3-26.4v-26.4c0-17.6-8.8-26.4-26.3-26.4h-26.3c-17.5 0-26.3 8.8-26.3 26.4v26.4c0 17.7 8.7 26.5 26.3 26.5zm149.9 0v-42.2H279v26.4h-34.6c-8.5 0-12.7-4.2-12.7-12.7v-22.1c0-8.4 4.2-12.7 12.7-12.7h50.5v-15.8h-52.6c-17.5 0-26.3 8.8-26.3 26.4V334c0 17.6 8.8 26.4 26.3 26.4l52.4-.1zm34.2-55.2v55.2h-15.8v-79.2h16.1l47.1 55.2v-55.2h15.8v79.2H376l-47.1-55.2zm97.3 55.2v-79.2h-15.8v79.2h15.8zm97.4-42.2v42.2H471c-17.5 0-26.3-8.8-26.3-26.4v-26.4c0-17.6 8.8-26.4 26.3-26.4h52.6v15.8h-50.5c-8.5 0-12.7 4.2-12.7 12.7v22.1c0 8.5 4.2 12.7 12.7 12.7h34.6V318c.1.1 15.9.1 15.9.1z"/><path d="M147.4 344.4h21.1c8.8 0 13.2-4.4 13.2-13.2v-21.1c0-8.8-4.4-13.2-13.2-13.2h-23.7c-7 0-10.5 4.4-10.5 13.2v21.1c0 8.9 4.3 13.3 13.1 13.2z" style="fill:#fff"/></svg>