<svg viewBox="0 0 14 17" fill="none" xmlns="http://www.w3.org/2000/svg">
<path d="M0 2.125C0 0.951395 0.979377 0 2.1875 0H13.5625C13.8041 0 14 0.190279 14 0.425C14 0.659721 13.8041 0.85 13.5625 0.85H2.1875C1.46263 0.85 0.875 1.42084 0.875 2.125C0.875 2.82916 1.46263 3.4 2.1875 3.4H11.8125C13.0206 3.4 14 4.3514 14 5.525V14.875C14 16.0486 13.0206 17 11.8125 17H3.9375C1.76288 17 0 15.2875 0 13.175V2.125ZM0.875 13.175C0.875 14.818 2.24613 16.15 3.9375 16.15H11.8125C12.5374 16.15 13.125 15.5792 13.125 14.875V5.525C13.125 4.82084 12.5374 4.25 11.8125 4.25H2.1875C1.69505 4.25 1.2406 4.09192 0.875 3.82516V13.175ZM2.1875 2.55C1.94588 2.55 1.75 2.35972 1.75 2.125C1.75 1.89028 1.94588 1.7 2.1875 1.7H13.5625C13.8041 1.7 14 1.89028 14 2.125C14 2.35972 13.8041 2.55 13.5625 2.55H2.1875ZM3.5 7.225C3.5 6.99028 3.69588 6.8 3.9375 6.8H10.0625C10.3041 6.8 10.5 6.99028 10.5 7.225V9.775C10.5 10.0097 10.3041 10.2 10.0625 10.2H3.9375C3.69588 10.2 3.5 10.0097 3.5 9.775V7.225ZM4.375 9.35H9.625V7.65H4.375V9.35ZM3.9375 11.9C3.69588 11.9 3.5 11.7097 3.5 11.475C3.5 11.2403 3.69588 11.05 3.9375 11.05H10.0625C10.3041 11.05 10.5 11.2403 10.5 11.475C10.5 11.7097 10.3041 11.9 10.0625 11.9H3.9375ZM3.9375 13.6C3.69588 13.6 3.5 13.4097 3.5 13.175C3.5 12.9403 3.69588 12.75 3.9375 12.75H7.4375C7.67912 12.75 7.875 12.9403 7.875 13.175C7.875 13.4097 7.67912 13.6 7.4375 13.6H3.9375Z" fill="currentColor"/>
</svg>
