<svg preserveAspectRatio="xMidYMid" viewBox="0 0 256 326" xmlns="http://www.w3.org/2000/svg" xmlns:xlink="http://www.w3.org/1999/xlink"><defs><path id="a" d="M244.83 64.429 139.05 3.388a22.134 22.134 0 0 0-22.188 0l-105.8 61.041A22.257 22.257 0 0 0-.005 83.666v122.17a22.188 22.188 0 0 0 11.067 19.183l52.925 30.592v62.372a6.658 6.658 0 0 0 9.988 5.74l170.96-98.65a22.134 22.134 0 0 0 11.067-19.183V83.65a22.314 22.314 0 0 0-11.175-19.22z"/></defs><mask id="b" fill="#fff"><use xlink:href="#a"/></mask><path fill="#EF6C00" mask="url(#b)" d="M255.9 70.871 127.98 144.74 0 70.871V218.61l63.992 36.91v73.89L255.9 218.61z"/><path fill="#FF9800" mask="url(#b)" d="M127.98 144.74 0 70.871 127.98-3 255.9 70.871z"/><path fill="#FF9800" mask="url(#b)" d="M125.72 142.49.81 70.386l-.81.485 127.98 73.869L255.9 70.871l-3.01-1.781z"/><path fill="#FF9800" mask="url(#b)" d="M127.98 145.66v-.92L.81 71.303l-.81.486z"/></svg>