<svg viewBox="0 0 17 17" fill="none" xmlns="http://www.w3.org/2000/svg">
<path d="M14.2276 7.30776L14.2276 7.3077C15.476 6.05526 15.4727 4.02796 14.2203 2.77959C12.9625 1.52596 10.9281 1.52471 9.66883 2.77679L7.63024 4.80375C7.40749 5.02522 7.40646 5.38533 7.62793 5.60808C7.84941 5.83083 8.20952 5.83186 8.43226 5.61038L10.4709 3.58342C11.286 2.77288 12.6031 2.7737 13.4172 3.58523C14.2245 4.38983 14.2271 5.69676 13.4153 6.51133C13.4153 6.5114 13.4152 6.51147 13.4151 6.51153L11.3477 8.56722C11.1249 8.7887 11.1239 9.14881 11.3454 9.37156C11.5669 9.5943 11.927 9.59533 12.1497 9.37385L14.2276 7.30776ZM2.77732 14.218L2.77736 14.218C4.03509 15.4758 6.07409 15.4764 7.33256 14.2194L9.37068 12.1837C9.59292 11.9617 9.59313 11.6016 9.37115 11.3793C9.14917 11.1571 8.78906 11.1569 8.56682 11.3788L6.5287 13.4146C5.71455 14.2278 4.39541 14.2274 3.58079 13.4128C2.76849 12.5995 2.76928 11.2817 3.58256 10.4694L5.62068 8.43365C5.84292 8.21167 5.84313 7.85156 5.62115 7.62932C5.39917 7.40708 5.03906 7.40687 4.81682 7.62885L2.7787 9.66458C1.52089 10.9209 1.51975 12.959 2.77732 14.218ZM6.15625 3.9125C6.47036 3.9125 6.725 3.65786 6.725 3.34375V1.46875C6.725 1.15464 6.47036 0.9 6.15625 0.9C5.84214 0.9 5.5875 1.15464 5.5875 1.46875V3.34375C5.5875 3.65786 5.84214 3.9125 6.15625 3.9125ZM10.8438 16.1C11.1579 16.1 11.4125 15.8454 11.4125 15.5312V13.6562C11.4125 13.3421 11.1579 13.0875 10.8438 13.0875C10.5296 13.0875 10.275 13.3421 10.275 13.6562V15.5312C10.275 15.8454 10.5296 16.1 10.8438 16.1ZM4.68342 4.68342C4.90553 4.46131 4.90553 4.10119 4.68342 3.87908L2.80842 2.00408C2.58631 1.78197 2.22619 1.78197 2.00408 2.00408C1.78197 2.22619 1.78197 2.58631 2.00408 2.80842L3.87908 4.68342C4.10119 4.90553 4.46131 4.90553 4.68342 4.68342ZM14.9959 14.9959C15.218 14.7738 15.218 14.4137 14.9959 14.1916L13.1209 12.3166C12.8988 12.0945 12.5387 12.0945 12.3166 12.3166C12.0945 12.5387 12.0945 12.8988 12.3166 13.1209L14.1916 14.9959C14.4137 15.218 14.7738 15.218 14.9959 14.9959ZM3.9125 6.15625C3.9125 5.84214 3.65786 5.5875 3.34375 5.5875H1.46875C1.15464 5.5875 0.9 5.84214 0.9 6.15625C0.9 6.47036 1.15464 6.725 1.46875 6.725H3.34375C3.65786 6.725 3.9125 6.47036 3.9125 6.15625ZM16.1 10.8438C16.1 10.5296 15.8454 10.275 15.5312 10.275H13.6562C13.3421 10.275 13.0875 10.5296 13.0875 10.8438C13.0875 11.1579 13.3421 11.4125 13.6562 11.4125H15.5312C15.8454 11.4125 16.1 11.1579 16.1 10.8438Z" fill="currentColor" stroke="currentColor" stroke-width="0.2"/>
</svg>
