<svg width="17" height="17" viewBox="0 0 17 17" fill="none" xmlns="http://www.w3.org/2000/svg">
<path d="M1.98321 15.0167V13.3181L11.4165 3.88472L13.1152 5.58333L3.68182 15.0167H1.98321ZM13.9165 4.78195L12.2179 3.08333L13.0832 2.21805L14.7818 3.91667L13.9165 4.78195ZM0.849878 13.0833V15.5833C0.849878 15.8963 1.10358 16.15 1.41654 16.15H3.91654C4.06683 16.15 4.21097 16.0903 4.31724 15.984L15.9839 4.31736C16.2052 4.09606 16.2052 3.73727 15.9839 3.51597L13.4839 1.01597C13.2626 0.794676 12.9038 0.794676 12.6825 1.01597L1.01585 12.6826C0.90958 12.7889 0.849878 12.933 0.849878 13.0833Z" fill="currentColor" stroke="currentColor" stroke-width="0.3"/>
</svg>
