<svg viewBox="0 0 51 51" fill="none" xmlns="http://www.w3.org/2000/svg">
<path d="M45.6154 32.9651L35.3991 28.3214C38.8575 25.4673 41.0625 21.1474 41.0625 16.3125C41.0625 7.71757 34.0949 0.75 25.5 0.75C16.9051 0.75 9.9375 7.71757 9.9375 16.3125C9.9375 21.1474 12.1425 25.4673 15.6009 28.3214L5.38462 32.9651C2.56213 34.2481 0.75 37.0623 0.75 40.1627V42.3438C0.75 46.7103 4.28975 50.25 8.65625 50.25H42.3438C46.7103 50.25 50.25 46.7103 50.25 42.3438V40.1627C50.25 37.0623 48.4379 34.2481 45.6154 32.9651ZM6.85879 36.2083L19.2577 30.5724C21.1689 31.4102 23.2805 31.875 25.5 31.875C27.7195 31.875 29.8311 31.4102 31.7423 30.5724L44.1412 36.2083C45.6919 36.9132 46.6875 38.4593 46.6875 40.1627V42.3438C46.6875 44.7427 44.7427 46.6875 42.3438 46.6875H8.65625C6.25726 46.6875 4.3125 44.7427 4.3125 42.3438V40.1627C4.3125 38.4593 5.3081 36.9132 6.85879 36.2083ZM37.5 16.3125C37.5 22.9399 32.1274 28.3125 25.5 28.3125C18.8726 28.3125 13.5 22.9399 13.5 16.3125C13.5 9.68508 18.8726 4.3125 25.5 4.3125C32.1274 4.3125 37.5 9.68508 37.5 16.3125Z" fill="currentColor" stroke="currentColor" stroke-width="0.5"/>
</svg>
