<svg viewBox="0 0 27 27" fill="none" xmlns="http://www.w3.org/2000/svg">
<rect x="0.5" y="0.5" width="26" height="26" rx="13" fill="#F5F8FA" stroke="#4BB3FD"/>
<path fill-rule="evenodd" clip-rule="evenodd" d="M13.5 6C17.7254 6 21 9.09511 21 13.2752C21 17.4554 17.7254 20.5505 13.5 20.5505C12.7409 20.5505 12.0121 20.4509 11.3285 20.2623C11.2222 20.2333 11.1112 20.2342 11.0061 20.2644L10.9286 20.2924L9.44064 20.9489C9.07564 21.1087 8.66687 20.876 8.60601 20.4957L8.59859 20.4177L8.55785 19.0837C8.55181 18.9192 8.47787 18.7668 8.35563 18.6566C6.89638 17.3513 6 15.4619 6 13.2752C6 9.09511 9.27465 6 13.5 6ZM18.003 11.5987C18.204 11.2823 17.8463 10.9268 17.5403 11.0904L17.4869 11.1248L15.1207 12.9206C14.9808 13.0262 14.7946 13.0406 14.6421 12.9617L14.579 12.9221L12.827 11.6077C12.3327 11.237 11.6379 11.3382 11.266 11.8144L11.2002 11.908L8.99698 15.403C8.79603 15.7194 9.15368 16.0749 9.45973 15.9113L9.51308 15.8769L11.8793 14.0811C12.0192 13.9755 12.2054 13.9611 12.3579 14.04L12.421 14.0796L14.173 15.394C14.6673 15.7647 15.3621 15.6635 15.734 15.1873L15.7998 15.0937L18.003 11.5987Z" fill="url(#paint0_linear_350_1049)"/>
<defs>
<linearGradient id="paint0_linear_350_1049" x1="13.5" y1="6" x2="13.5" y2="21" gradientUnits="userSpaceOnUse">
<stop stop-color="#00C6FF"/>
<stop offset="1" stop-color="#0075FF"/>
</linearGradient>
</defs>
</svg>
