<svg xmlns="http://www.w3.org/2000/svg" xmlns:xlink="http://www.w3.org/1999/xlink" version="1.1" id="Layer_1" x="0px" y="0px" width="100%" viewBox="0 0 280 280" xml:space="preserve">
<path fill="#046BEA" opacity="1.000000" stroke="none" d=" M162.719238,26.818710   C126.704117,47.628929 91.019211,68.300446 55.236160,88.800667   C52.629669,90.293915 51.946850,91.863060 51.953804,94.623520   C52.033203,126.122452 51.980221,157.621750 52.074657,189.120590   C52.079426,190.711441 52.626225,193.072327 53.736713,193.763458   C61.163006,198.385391 68.810982,202.651169 76.977959,207.374313   C76.977959,172.932114 76.977959,139.194077 76.977959,105.445015   C112.089676,85.175156 147.071823,65.327934 181.622803,44.756504   C189.017166,40.353935 194.201920,40.098366 201.536865,44.748932   C217.939621,55.148758 235.014618,64.495682 251.922928,74.082527   C254.328934,75.446724 254.767868,76.954887 255.127823,79.491776   C256.355591,88.144852 253.038986,92.854393 245.158340,97.204308   C215.484467,113.583527 186.400375,131.028915 156.980743,147.874756   C154.203247,149.465164 153.974670,151.284180 153.977554,153.877975   C154.017181,189.376953 153.909286,224.876587 154.124512,260.374298   C154.151382,264.807861 152.838364,267.137848 148.972122,269.213318   C140.495667,273.763611 136.596420,273.701630 129.495270,267.303284   C128.607559,266.503387 128.209915,264.749359 128.207855,263.436432   C128.142441,221.771011 128.187149,180.105392 128.083893,138.440109   C128.076569,135.483124 129.184082,134.061874 131.626984,132.663162   C158.310623,117.385101 184.925629,101.987190 211.552704,86.610458   C213.126617,85.701546 214.644028,84.694771 216.534622,83.517540   C208.630981,78.920013 201.087646,74.440872 193.421326,70.183228   C192.415680,69.624725 190.507980,69.727753 189.475449,70.320755   C161.361282,86.466911 133.281937,102.674606 105.318390,119.079330   C103.978920,119.865120 103.105942,122.542030 103.099464,124.342171   C102.971588,159.840744 103.004265,195.339890 103.004265,230.838928   C103.004265,237.499924 103.004265,244.160904 103.004265,251.462997   C101.478317,250.919174 100.229767,250.675644 99.188560,250.073547   C76.157494,236.755035 53.187866,223.329468 30.088783,210.130386   C27.153330,208.453033 26.367308,206.600906 26.375044,203.419922   C26.474781,162.421280 26.481899,121.422211 26.366388,80.423653   C26.356743,77.000381 27.401619,75.195381 30.432022,73.455978   C66.191162,52.930843 101.825256,32.187817 137.594086,11.679729   C139.151093,10.787016 142.073044,10.888782 143.707916,11.755609   C151.191589,15.723549 158.443008,20.129555 166.064392,24.544214   C164.898697,25.347296 163.962021,25.992613 162.719238,26.818710  z"/>
<path fill="#046BEA" opacity="1.000000" stroke="none" d=" M255.004303,160.000000   C255.004303,174.986893 255.088547,189.474930 254.895660,203.959244   C254.872025,205.733887 253.851486,208.317642 252.471283,209.129395   C228.990555,222.939392 205.380646,236.529755 181.793777,250.159119   C181.240921,250.478561 180.625290,250.689346 179.177658,251.334930   C179.177658,241.639954 179.061493,232.445328 179.326004,223.261642   C179.358734,222.125153 181.247345,220.756790 182.563156,219.986389   C196.758850,211.674957 210.964081,203.376678 225.290878,195.294983   C228.103180,193.708557 229.367737,192.087433 229.241623,188.734772   C228.960510,181.261917 229.153839,173.771225 229.153839,165.157776   C212.360306,174.819336 196.241241,184.092850 179.167557,193.915588   C179.167557,183.847870 179.116394,174.793686 179.247391,165.742142   C179.260376,164.845444 180.183624,163.614426 181.025131,163.127808   C205.331024,149.072464 229.680206,135.092026 254.030670,121.113922   C254.122116,121.061424 254.333206,121.217369 255.004303,121.470711   C255.004303,134.012787 255.004303,146.756393 255.004303,160.000000  z"/>
</svg>