<svg xmlns="http://www.w3.org/2000/svg" width="24" height="24">
  <path fill="currentColor" d="M20,6.52797748 L20,19.5 C20,20.8807119 18.8807119,22 17.5,22 L6.5,22 C5.11928813,22 4,20.8807119 4,19.5 L4,4.5 C4,3.11928813 5.11928813,2 6.5,2 L15.4720225,2 C15.6047688,1.99158053 15.7429463,2.03583949 15.8535534,2.14644661 L19.8535534,6.14644661 C19.9641605,6.25705373 20.0084195,6.39523125 20,6.52797748 Z M15,3 L6.5,3 C5.67157288,3 5,3.67157288 5,4.5 L5,19.5 C5,20.3284271 5.67157288,21 6.5,21 L17.5,21 C18.3284271,21 19,20.3284271 19,19.5 L19,7 L15.5,7 C15.2238576,7 15,6.77614237 15,6.5 L15,3 Z M16,3.70710678 L16,6 L18.2928932,6 L16,3.70710678 Z M7.5,16 C7.22385763,16 7,15.7761424 7,15.5 L7,12.5 C7,12.2238576 7.22385763,12 7.5,12 L8.84861218,12 L10.2226499,11.0839749 C10.3047837,11.029219 10.4012875,11 10.5,11 L11.5,11 C11.7761424,11 12,11.2238576 12,11.5 L12,16.5 C12,16.7761424 11.7761424,17 11.5,17 L10.5,17 C10.4012875,17 10.3047837,16.970781 10.2226499,16.9160251 L8.84861218,16 L7.5,16 Z M8,13 L8,15 L9,15 C9.09871249,15 9.19521634,15.029219 9.2773501,15.0839749 L10.6513878,16 L11,16 L11,12 L10.6513878,12 L9.2773501,12.9160251 C9.19521634,12.970781 9.09871249,13 9,13 L8,13 Z M13.8535534,16.8535534 C13.6582912,17.0488155 13.3417088,17.0488155 13.1464466,16.8535534 C12.9511845,16.6582912 12.9511845,16.3417088 13.1464466,16.1464466 C13.7177498,15.5751434 14,14.8695179 14,14 C14,13.1304821 13.7177498,12.4248566 13.1464466,11.8535534 C12.9511845,11.6582912 12.9511845,11.3417088 13.1464466,11.1464466 C13.3417088,10.9511845 13.6582912,10.9511845 13.8535534,11.1464466 C14.6155836,11.9084768 15,12.8695179 15,14 C15,15.1304821 14.6155836,16.0915232 13.8535534,16.8535534 Z M14.1464466,9.85355339 C13.9511845,9.65829124 13.9511845,9.34170876 14.1464466,9.14644661 C14.3417088,8.95118446 14.6582912,8.95118446 14.8535534,9.14644661 C16.2776225,10.5705157 17,12.1958651 17,14 C17,15.8041349 16.2776225,17.4294843 14.8535534,18.8535534 C14.6582912,19.0488155 14.3417088,19.0488155 14.1464466,18.8535534 C13.9511845,18.6582912 13.9511845,18.3417088 14.1464466,18.1464466 C15.3890442,16.903849 16,15.5291985 16,14 C16,12.4708015 15.3890442,11.096151 14.1464466,9.85355339 Z"/>
</svg>
