<svg viewBox="0 0 640 480" fill="none" xmlns="http://www.w3.org/2000/svg"><mask id="b" style="mask-type:alpha" maskUnits="userSpaceOnUse" x="0" y="2" width="640" height="478"><rect y="2" width="640" height="478" rx="40" fill="#C4C4C4"/></mask><g clip-path="url(#a)" fill-rule="evenodd" clip-rule="evenodd" mask="url(#b)"><path d="M0 0h912v36.938H0V0Zm0 73.875h912v36.937H0V73.875Zm0 73.781h912v37.032H0v-37.032Zm0 73.875h912v36.938H0v-36.938Zm0 73.875h912v36.938H0v-36.938Zm0 73.781h912v36.938H0v-36.938Zm0 73.876h912V480H0v-36.937Z" fill="#BD3D44"/><path d="M0 36.938h912v36.937H0V36.937Zm0 73.874h912v36.844H0v-36.844Zm0 73.782h912v36.937H0v-36.937Zm0 73.875h912v36.937H0v-36.937Zm0 73.875h912v36.937H0v-36.937Zm0 73.781h912v36.938H0v-36.938Z" fill="#fff"/><path d="M0 0h364.781v258.469H0V0Z" fill="#192F5D"/><path d="M30.375 11.063 33.75 21.28h10.688l-8.626 6.282 3.282 10.312-8.719-6.375-8.625 6.281 3.281-10.218-8.718-6.282h10.875l3.187-10.218Zm60.844 0L94.5 21.28h10.781l-8.719 6.282 3.282 10.312-8.625-6.375L82.5 37.78l3.281-10.218-8.625-6.282h10.688l3.375-10.218Zm60.75 0 3.375 10.218h10.594l-8.625 6.282 3.281 10.312-8.719-6.375-8.625 6.281 3.281-10.218-8.718-6.282h10.781l3.375-10.218Zm60.844 0 3.281 10.218h10.781l-8.719 6.282 3.375 10.312-8.718-6.375-8.719 6.281 3.375-10.218-8.719-6.282h10.688l3.375-10.218Zm60.75 0 3.375 10.218h10.687L279 27.563l3.281 10.312-8.718-6.375-8.625 6.281 3.281-10.218-8.625-6.282h10.687l3.282-10.218Zm60.843 0 3.282 10.218h10.781l-8.719 6.282 3.375 10.312-8.719-6.375-8.718 6.281 3.375-10.218-8.719-6.282h10.781l3.281-10.218ZM60.844 36.936l3.281 10.22h10.781l-8.719 6.28 3.188 10.22-8.438-6.282-8.718 6.281 3.093-10.218-8.437-6.282h10.688l3.28-10.218Zm60.75 0 3.375 10.22h10.687l-8.719 6.28 3.376 10.22-8.719-6.282-8.719 6.281 3.375-10.218-8.719-6.282h10.782l3.281-10.218Zm60.844 0 3.281 10.22H196.5l-8.719 6.28 3.282 10.22-8.625-6.282-8.719 6.281L177 53.438l-8.625-6.282h10.688l3.375-10.218Zm60.75 0 3.375 10.22h10.687l-8.719 6.28 3.375 10.22-8.718-6.282-8.625 6.281 3.281-10.218-8.719-6.282H240l3.188-10.218Zm60.843 0 3.282 10.22h10.781l-8.719 6.28 3.281 10.22-8.625-6.282-8.718 6.281 3.281-10.218-8.625-6.282h10.687l3.375-10.218ZM30.375 62.72l3.375 10.406h10.688l-8.626 6.281 3.282 10.219-8.719-6.375-8.625 6.375 3.281-10.313-8.718-6.28h10.875l3.187-10.313Zm60.844 0L94.5 73.03h10.781l-8.719 6.281 3.282 10.22-8.625-6.376L82.5 89.53l3.281-10.312-8.625-6.281h10.688l3.375-10.22Zm60.75 0 3.375 10.312h10.594l-8.625 6.281 3.281 10.22-8.719-6.376-8.625 6.375 3.281-10.312-8.718-6.281h10.781l3.375-10.22Zm60.844 0 3.281 10.312h10.781l-8.719 6.281 3.375 10.22-8.718-6.376-8.719 6.375 3.375-10.312-8.719-6.281h10.688l3.375-10.22Zm60.75 0 3.375 10.312h10.687L279 79.312l3.281 10.22-8.718-6.376-8.625 6.375 3.281-10.312-8.625-6.281h10.687l3.282-10.22Zm60.843 0 3.282 10.312h10.781l-8.719 6.281 3.375 10.22-8.719-6.376-8.718 6.375 3.375-10.312-8.719-6.281h10.781l3.281-10.22ZM60.844 88.594l3.281 10.219h10.781l-8.719 6.281 3.282 10.312-8.625-6.375-8.719 6.281 3.281-10.218-8.625-6.281H57.47l3.375-10.22Zm60.75 0 3.375 10.219h10.687l-8.719 6.281 3.376 10.312-8.719-6.375-8.719 6.281 3.375-10.218-8.719-6.281h10.782l3.281-10.22Zm60.844 0 3.281 10.219H196.5l-8.719 6.281 3.282 10.312-8.625-6.375-8.719 6.281L177 105.094l-8.625-6.281h10.688l3.375-10.22Zm60.75 0 3.375 10.219h10.687l-8.625 6.281 3.281 10.312-8.718-6.375-8.625 6.281 3.281-10.218-8.719-6.281H240l3.188-10.22Zm60.843 0 3.282 10.219h10.781l-8.719 6.281 3.281 10.312-8.625-6.375-8.718 6.281 3.281-10.218-8.625-6.281h10.687l3.375-10.22ZM30.375 114.469l3.375 10.218h10.688l-8.626 6.282 3.282 10.312-8.719-6.375-8.625 6.282 3.281-10.219-8.718-6.282h10.875l3.187-10.218Zm60.844 0 3.281 10.218h10.781l-8.719 6.282 3.282 10.219-8.625-6.282-8.719 6.282 3.281-10.219-8.625-6.282h10.688l3.375-10.218Zm60.75 0 3.375 10.218h10.594l-8.625 6.282 3.281 10.312-8.719-6.375-8.625 6.282 3.281-10.219-8.718-6.282h10.781l3.375-10.218Zm60.844 0 3.281 10.218h10.781l-8.719 6.282 3.375 10.312-8.718-6.375-8.719 6.282 3.375-10.219-8.719-6.282h10.688l3.375-10.218Zm60.75 0 3.375 10.218h10.687L279 130.969l3.281 10.312-8.718-6.375-8.625 6.282 3.281-10.219-8.625-6.282h10.687l3.282-10.218Zm60.843 0 3.282 10.218h10.781l-8.719 6.282 3.375 10.312-8.719-6.375-8.718 6.282 3.375-10.219-8.719-6.282h10.781l3.281-10.218ZM60.844 140.344l3.281 10.219h10.781l-8.719 6.281 3.282 10.218-8.625-6.375-8.719 6.375 3.281-10.312-8.625-6.281H57.47l3.375-10.125Zm60.75 0 3.375 10.219h10.687l-8.719 6.281 3.376 10.218-8.719-6.375-8.719 6.375 3.375-10.312-8.719-6.281h10.782l3.281-10.125Zm60.844 0 3.281 10.219H196.5l-8.719 6.281 3.282 10.218-8.625-6.375-8.719 6.375L177 156.75l-8.625-6.281h10.688l3.375-10.125Zm60.75 0 3.375 10.219h10.687l-8.625 6.281 3.281 10.218-8.718-6.375-8.625 6.375 3.281-10.312-8.719-6.281H240l3.188-10.125Zm60.843 0 3.282 10.219h10.781l-8.719 6.281 3.281 10.218-8.625-6.375-8.718 6.375 3.281-10.312-8.625-6.281h10.687l3.375-10.125ZM30.375 166.125l3.375 10.312h10.688l-8.626 6.282 3.282 10.125-8.719-6.282-8.625 6.282 3.281-10.219-8.718-6.281h10.875l3.187-10.219Zm60.844 0 3.281 10.312h10.781l-8.719 6.282 3.376 10.125-8.72-6.282-8.718 6.282 3.375-10.219-8.719-6.281h10.688l3.375-10.219Zm60.75 0 3.375 10.312h10.594l-8.625 6.282 3.281 10.125-8.719-6.282-8.625 6.282 3.281-10.219-8.718-6.281h10.781l3.375-10.219Zm60.844 0 3.281 10.312h10.781l-8.719 6.282 3.375 10.125-8.718-6.282-8.719 6.282 3.375-10.219-8.719-6.281h10.688l3.375-10.219Zm60.75 0 3.375 10.312h10.687L279 182.719l3.281 10.125-8.718-6.282-8.625 6.282 3.281-10.219-8.625-6.281h10.687l3.282-10.219Zm60.843 0 3.282 10.312h10.781l-8.719 6.282 3.375 10.125-8.719-6.282-8.718 6.282 3.375-10.219-8.719-6.281h10.781l3.281-10.219ZM60.844 192l3.281 10.219h10.781l-8.719 6.281 3.282 10.312-8.625-6.374-8.719 6.281 3.281-10.219-8.625-6.281H57.47L60.844 192Zm60.75 0 3.375 10.219h10.687l-8.719 6.281 3.376 10.312-8.719-6.374-8.719 6.281 3.375-10.219-8.719-6.281h10.782L121.594 192Zm60.844 0 3.281 10.219H196.5l-8.719 6.281 3.282 10.312-8.625-6.374-8.719 6.281L177 208.5l-8.625-6.281h10.688L182.438 192Zm60.75 0 3.375 10.219h10.687l-8.625 6.281 3.281 10.312-8.718-6.374-8.625 6.281 3.281-10.219-8.719-6.281H240L243.188 192Zm60.843 0 3.282 10.219h10.781l-8.719 6.281 3.281 10.312-8.625-6.374-8.718 6.281 3.281-10.219-8.625-6.281h10.687L304.031 192ZM30.375 217.875l3.375 10.219h10.688l-8.626 6.281 3.282 10.219-8.719-6.282-8.625 6.282 3.281-10.313L16.313 228h10.875l3.187-10.125Zm60.844 0 3.281 10.219h10.781l-8.719 6.281 3.376 10.219-8.72-6.282-8.718 6.282 3.375-10.313L77.156 228h10.688l3.375-10.125Zm60.75 0 3.375 10.219h10.594l-8.438 6.281 3.281 10.219-8.718-6.282-8.625 6.282 3.281-10.313L138 228h10.781l3.188-10.125Zm60.844 0 3.281 10.219h10.781l-8.719 6.281 3.375 10.219-8.718-6.282-8.719 6.282 3.375-10.313L198.75 228h10.688l3.375-10.125Zm60.75 0 3.375 10.219h10.687L279 234.375l3.281 10.219-8.718-6.282-8.625 6.282 3.281-10.313-8.625-6.281h10.687l3.282-10.125Zm60.843 0 3.282 10.219h10.781l-8.719 6.281 3.375 10.219-8.719-6.282-8.718 6.282 3.375-10.313-8.719-6.281h10.781l3.281-10.125Z" fill="#fff"/></g><defs><clipPath id="a"><path fill="#fff" d="M0 0h640v480H0z"/></clipPath></defs></svg>
