<svg id="svg" version="1.1" xmlns="http://www.w3.org/2000/svg" xmlns:xlink="http://www.w3.org/1999/xlink" width="400" height="400" viewBox="0, 0, 400,400"><g id="svgg"><path id="path0" d="M151.241 127.500 C 154.538 138.853,154.381 151.095,150.819 160.300 L 149.542 163.600 146.771 163.600 C 143.586 163.600,143.686 163.834,145.035 159.566 C 145.825 157.064,145.953 156.218,145.577 155.986 C 145.227 155.770,145.304 155.625,145.842 155.487 C 146.379 155.349,146.280 155.279,145.500 155.246 C 144.895 155.221,144.400 155.380,144.400 155.600 C 144.400 155.820,143.599 156.000,142.620 156.000 C 141.409 156.000,140.726 156.203,140.484 156.636 C 140.288 156.986,140.006 157.242,139.857 157.206 C 139.348 157.081,137.001 157.692,136.528 158.072 C 135.879 158.594,133.513 158.864,133.811 158.383 C 133.941 158.172,133.976 158.000,133.889 158.000 C 133.802 158.000,132.937 159.166,131.966 160.590 L 130.200 163.181 127.320 163.190 L 124.439 163.200 125.202 161.500 L 125.965 159.800 123.685 159.336 C 122.432 159.081,121.242 158.974,121.041 159.098 C 120.837 159.225,120.816 159.098,120.994 158.810 C 121.207 158.465,121.128 158.363,120.756 158.498 C 120.450 158.609,120.249 158.916,120.310 159.180 C 120.370 159.444,120.232 159.544,120.003 159.402 C 119.774 159.261,119.691 158.977,119.817 158.772 C 119.944 158.568,119.666 158.400,119.200 158.400 C 118.734 158.400,118.464 158.220,118.600 158.000 C 118.736 157.780,118.763 157.600,118.659 157.600 C 118.556 157.600,117.733 158.770,116.830 160.200 L 115.188 162.800 112.994 162.800 C 111.751 162.800,110.800 162.621,110.800 162.387 C 110.800 161.669,112.712 158.166,113.828 156.840 C 114.417 156.139,114.802 155.468,114.682 155.349 C 114.563 155.229,114.264 155.507,114.018 155.966 C 113.773 156.425,113.348 156.800,113.075 156.800 C 112.801 156.800,111.232 158.148,109.589 159.795 C 107.226 162.162,106.353 162.791,105.419 162.795 L 104.238 162.800 105.819 161.149 C 106.688 160.241,108.423 158.735,109.673 157.802 L 111.945 156.105 109.873 155.856 C 108.733 155.719,106.472 155.605,104.848 155.603 L 101.897 155.600 98.422 159.000 C 95.105 162.246,94.867 162.400,93.151 162.400 L 91.354 162.400 89.708 165.500 C 82.740 178.626,79.130 198.619,81.728 209.700 C 82.544 213.182,82.459 213.097,84.033 211.977 C 88.168 209.032,92.587 207.639,117.600 201.392 C 147.936 193.816,156.675 189.671,164.387 179.200 C 167.545 174.912,171.200 166.995,171.200 164.441 C 171.200 164.141,169.411 164.000,165.589 164.000 L 159.978 164.000 160.238 161.460 C 160.536 158.551,160.379 158.416,156.673 158.405 C 155.027 158.401,154.776 158.298,154.952 157.700 C 157.098 150.424,156.047 138.330,152.398 128.300 C 150.894 124.167,150.117 123.630,151.241 127.500 M216.093 166.300 C 214.654 168.378,214.676 168.479,216.381 167.610 C 217.297 167.142,218.621 166.410,219.323 165.982 L 220.600 165.203 218.727 165.201 C 217.135 165.200,216.741 165.365,216.093 166.300 M40.444 173.028 C 32.642 181.565,23.546 196.686,18.593 209.354 L 16.767 214.023 18.242 218.312 C 21.489 227.748,26.573 238.511,32.045 247.530 C 35.056 252.492,42.984 264.219,43.575 264.585 C 44.202 264.972,44.561 260.368,44.041 258.607 C 43.780 257.723,43.306 256.100,42.988 255.000 C 42.256 252.469,42.258 248.503,42.992 247.200 L 43.555 246.200 44.028 247.533 C 46.088 253.335,48.207 253.509,46.393 247.727 C 45.418 244.619,44.916 238.118,45.487 236.000 L 45.865 234.600 46.778 236.400 C 47.279 237.390,48.410 239.164,49.291 240.343 L 50.891 242.486 52.665 239.167 C 54.609 235.529,57.096 231.868,60.072 228.265 C 61.132 226.981,62.000 225.774,62.000 225.583 C 62.000 225.392,62.743 225.498,63.650 225.818 C 66.066 226.670,68.516 226.607,68.245 225.700 C 65.413 216.231,65.006 193.655,67.438 181.000 C 67.776 179.240,68.133 177.516,68.231 177.170 C 68.395 176.590,61.096 175.170,60.585 175.682 C 60.504 175.763,60.260 176.273,60.044 176.815 C 59.715 177.639,59.647 177.426,59.625 175.508 C 59.597 172.907,59.567 172.887,55.600 172.702 L 53.400 172.600 52.933 175.800 C 49.899 196.607,52.576 214.812,59.902 223.188 L 61.800 225.358 59.676 224.203 C 49.005 218.395,43.721 199.842,46.092 176.500 L 46.630 171.200 45.415 171.195 C 44.747 171.192,43.825 171.088,43.367 170.965 C 42.723 170.792,42.059 171.261,40.444 173.028 M71.325 176.700 C 70.217 183.186,71.122 201.155,73.031 210.600 C 74.089 215.829,73.684 215.473,76.408 213.562 L 78.792 211.890 78.496 210.245 C 77.495 204.680,78.322 191.205,80.263 181.476 C 81.467 175.440,81.807 176.063,76.931 175.373 C 71.378 174.586,71.699 174.510,71.325 176.700 M267.900 183.499 C 262.869 183.634,262.852 183.644,263.874 185.786 C 264.539 187.181,264.581 187.200,267.043 187.200 C 269.636 187.200,269.445 187.291,272.895 184.411 C 273.716 183.726,273.818 183.162,273.100 183.286 C 272.825 183.333,270.485 183.429,267.900 183.499 M208.593 185.413 C 201.092 188.345,193.082 190.221,167.600 195.014 C 132.813 201.558,122.729 203.806,109.000 208.080 C 81.391 216.673,65.913 227.099,58.953 241.791 C 57.683 244.472,56.356 246.510,54.640 248.416 C 43.545 260.734,43.144 278.608,53.537 297.517 L 55.800 301.634 56.287 297.763 C 58.291 281.841,65.881 271.567,80.958 264.365 C 89.393 260.336,96.886 258.448,123.800 253.573 C 151.865 248.490,157.415 246.752,167.800 239.792 C 172.026 236.960,180.388 232.500,186.000 230.085 C 187.801 229.310,152.347 229.272,143.000 230.039 C 122.171 231.747,100.040 239.187,76.800 252.294 C 74.270 253.721,71.570 255.243,70.800 255.676 L 69.400 256.465 70.800 255.206 C 77.413 249.262,97.395 237.855,109.200 233.285 C 130.171 225.166,144.789 223.713,180.348 226.209 L 194.096 227.174 199.348 225.805 C 204.753 224.397,211.507 223.063,220.600 221.607 C 227.599 220.486,230.813 219.706,228.696 219.644 C 227.285 219.603,227.125 219.464,226.121 217.418 C 224.859 214.845,224.354 214.596,219.444 214.134 L 215.888 213.800 214.669 211.635 L 213.450 209.471 215.225 209.714 C 216.201 209.848,218.239 210.084,219.752 210.239 L 222.505 210.521 221.507 208.761 C 220.958 207.792,219.659 205.414,218.620 203.475 L 216.731 199.951 218.266 200.176 C 219.110 200.300,219.569 200.294,219.287 200.163 C 218.882 199.975,216.930 196.650,216.056 194.658 C 215.973 194.470,216.332 194.447,216.853 194.608 C 218.721 195.183,217.283 194.380,215.164 193.664 C 213.071 192.958,212.938 192.823,211.130 189.567 C 209.049 185.818,208.972 185.600,209.739 185.600 C 210.035 185.600,210.800 185.359,211.439 185.064 C 212.077 184.769,213.050 184.331,213.600 184.091 C 216.478 182.834,212.516 183.879,208.593 185.413 M351.200 225.317 C 351.200 228.126,358.093 232.115,359.371 230.046 C 359.538 229.776,355.269 226.995,351.500 224.918 C 351.335 224.827,351.200 225.007,351.200 225.317 M366.331 231.200 C 366.415 232.080,366.555 232.800,366.642 232.800 C 366.729 232.800,366.800 232.080,366.800 231.200 C 366.800 230.320,366.660 229.600,366.489 229.600 C 366.319 229.600,366.248 230.320,366.331 231.200 M10.657 238.272 C 8.641 251.772,8.638 259.471,10.648 265.707 C 13.115 273.364,16.179 280.621,19.415 286.470 C 20.404 288.258,21.110 289.823,20.985 289.949 C 20.694 290.240,20.806 290.413,15.332 281.200 C 9.404 271.223,9.614 271.418,10.264 276.482 C 10.893 281.380,12.293 288.464,12.706 288.839 C 12.868 288.985,19.120 290.401,26.600 291.986 C 34.080 293.571,40.641 294.971,41.180 295.098 C 42.092 295.311,42.032 295.146,40.340 292.764 C 27.797 275.104,18.670 257.167,13.593 240.200 C 11.471 233.107,11.433 233.082,10.657 238.272 M17.100 234.696 C 15.835 234.775,14.800 234.933,14.800 235.047 C 14.800 235.891,17.066 243.884,18.412 247.785 C 23.420 262.311,31.514 275.974,43.180 289.600 C 44.592 291.250,44.627 291.102,43.995 286.164 C 43.773 284.424,43.440 280.383,43.257 277.183 L 42.923 271.367 38.475 264.712 C 32.906 256.381,27.652 247.624,23.747 240.164 C 21.581 236.025,20.543 234.421,20.065 234.476 C 19.699 234.517,18.365 234.616,17.100 234.696 M139.000 255.833 C 137.240 256.127,130.277 257.093,123.526 257.979 C 105.843 260.301,97.055 262.159,89.431 265.188 C 74.255 271.216,64.097 282.011,59.301 297.202 C 57.403 303.218,57.410 303.142,58.695 303.431 C 59.303 303.568,60.467 303.847,61.281 304.050 L 62.762 304.421 62.881 306.902 L 63.000 309.384 65.057 309.839 C 66.188 310.090,67.718 310.407,68.457 310.545 L 69.800 310.796 70.469 307.349 C 71.332 302.898,71.206 302.984,75.492 303.913 L 79.079 304.691 80.496 301.826 C 87.179 288.320,101.661 279.349,121.200 276.611 C 126.922 275.810,131.768 274.867,133.600 274.200 C 134.370 273.919,135.861 273.382,136.914 273.006 C 138.737 272.356,142.597 266.800,141.227 266.800 C 141.016 266.800,141.190 265.791,141.615 264.557 C 142.039 263.323,142.491 261.118,142.618 259.657 C 142.745 258.196,142.932 256.595,143.032 256.100 C 143.240 255.078,143.435 255.091,139.000 255.833 M127.162 281.206 C 112.368 282.887,96.957 292.514,89.321 304.844 C 86.265 309.778,86.130 309.323,90.954 310.353 L 95.139 311.246 97.548 309.304 C 98.874 308.237,100.773 306.956,101.769 306.458 L 103.581 305.554 110.882 307.131 L 118.183 308.709 120.286 307.779 C 123.024 306.568,124.641 305.299,126.573 302.846 C 127.907 301.151,128.304 300.881,129.195 301.059 C 130.759 301.372,131.107 300.649,132.037 295.161 C 132.500 292.433,133.379 288.220,133.991 285.800 C 134.603 283.380,135.065 281.355,135.019 281.301 C 134.742 280.974,129.733 280.914,127.162 281.206 " stroke="none" fill="#c07cdd" fill-rule="evenodd"></path><path id="path1" d="M298.920 40.500 C 293.857 47.583,291.689 58.344,291.322 78.200 C 291.204 84.580,291.202 89.710,291.317 89.600 C 292.616 88.357,298.046 77.746,299.505 73.600 C 301.442 68.095,301.540 66.848,300.061 66.552 C 298.458 66.232,298.353 65.870,298.106 59.794 C 297.820 52.772,298.710 45.622,300.634 39.500 C 301.025 38.255,300.167 38.756,298.920 40.500 M300.924 59.800 C 300.926 61.120,301.001 61.612,301.090 60.893 C 301.179 60.174,301.177 59.094,301.086 58.493 C 300.995 57.892,300.922 58.480,300.924 59.800 M246.400 65.800 C 247.146 66.570,247.847 67.200,247.957 67.200 C 248.067 67.200,247.546 66.570,246.800 65.800 C 246.054 65.030,245.353 64.400,245.243 64.400 C 245.133 64.400,245.654 65.030,246.400 65.800 M162.016 66.805 C 156.930 67.339,151.600 68.774,151.600 69.608 C 151.600 70.807,156.287 73.430,161.195 74.977 C 169.013 77.441,171.262 77.631,197.000 78.001 C 209.980 78.188,222.213 78.540,224.184 78.784 C 240.503 80.803,249.421 86.055,255.786 97.395 C 257.632 100.685,257.709 100.761,259.336 100.909 L 261.000 101.060 259.276 101.130 C 256.879 101.227,257.543 102.000,260.024 102.000 C 261.111 102.000,262.000 101.914,262.000 101.809 C 262.000 98.297,256.487 90.624,251.300 86.917 C 248.326 84.791,248.349 84.847,250.534 85.094 C 255.257 85.626,256.842 81.410,253.117 78.222 C 249.474 75.104,244.706 74.444,235.430 75.774 C 229.884 76.569,222.217 76.576,218.800 75.790 C 215.015 74.919,211.567 73.577,211.867 73.091 C 212.012 72.856,211.930 72.796,211.678 72.952 C 211.433 73.103,210.910 73.052,210.516 72.837 C 203.792 69.179,174.319 65.513,162.016 66.805 M245.289 68.192 C 244.502 69.811,244.295 69.965,242.717 70.106 C 241.644 70.203,242.149 70.286,244.064 70.330 C 245.750 70.369,248.214 70.738,249.540 71.150 L 251.951 71.901 251.100 70.750 C 250.632 70.118,250.099 69.600,249.916 69.600 C 249.732 69.600,248.809 68.887,247.863 68.016 L 246.144 66.431 245.289 68.192 M306.420 68.372 C 305.342 69.886,303.909 73.039,300.338 81.754 C 294.845 95.157,290.656 101.604,285.007 105.345 C 282.698 106.874,282.200 106.669,283.584 104.758 C 284.983 102.827,286.214 99.712,286.603 97.122 L 286.880 95.275 284.457 95.138 C 282.251 95.012,282.016 95.077,281.819 95.864 C 281.700 96.339,280.132 98.949,278.335 101.664 C 274.208 107.897,272.743 111.065,271.021 117.478 C 270.264 120.295,269.375 123.481,269.044 124.558 C 268.714 125.636,268.584 126.356,268.755 126.158 C 269.411 125.405,272.800 120.350,272.800 120.125 C 272.800 118.787,278.775 113.462,289.132 105.569 L 292.865 102.725 299.053 102.780 C 302.457 102.811,305.681 103.003,306.219 103.207 C 307.602 103.733,311.176 100.834,311.922 98.581 C 312.747 96.087,310.707 87.582,309.831 89.865 C 309.154 91.627,305.711 96.204,304.284 97.238 C 301.991 98.899,301.822 98.694,303.423 96.191 C 307.702 89.502,308.703 85.390,308.429 75.632 C 308.185 66.914,307.981 66.179,306.420 68.372 M154.335 76.700 C 154.921 78.405,155.513 79.853,155.650 79.917 C 155.788 79.981,156.849 80.741,158.009 81.606 C 163.500 85.703,169.842 88.270,185.350 92.673 C 185.798 92.800,185.999 92.722,185.850 92.481 C 185.206 91.439,202.031 97.229,205.572 99.268 C 206.810 99.981,207.766 100.063,215.372 100.109 L 223.800 100.161 215.800 100.393 C 211.400 100.521,207.890 100.676,208.000 100.737 C 208.110 100.798,211.530 100.927,215.600 101.022 C 219.670 101.117,225.661 101.279,228.914 101.382 C 232.647 101.500,234.741 101.427,234.591 101.185 C 234.460 100.973,232.428 100.765,230.076 100.722 L 225.800 100.643 230.000 100.422 L 234.200 100.200 231.000 96.950 C 224.926 90.781,220.352 89.307,197.000 85.991 C 173.433 82.646,163.760 80.004,155.129 74.555 C 154.297 74.030,153.538 73.600,153.443 73.600 C 153.348 73.600,153.750 74.995,154.335 76.700 M286.934 91.600 C 286.934 93.250,287.005 93.925,287.091 93.100 C 287.178 92.275,287.178 90.925,287.091 90.100 C 287.005 89.275,286.934 89.950,286.934 91.600 M177.749 97.734 L 169.299 102.642 170.549 103.376 C 171.237 103.780,176.210 106.575,181.600 109.586 C 206.605 123.556,214.030 131.056,215.059 143.381 L 215.295 146.200 207.547 150.682 C 200.972 154.486,199.759 155.061,199.528 154.482 C 199.379 154.107,199.244 155.473,199.228 157.517 C 199.178 164.193,197.517 169.919,194.216 174.796 C 193.250 176.224,192.499 177.433,192.549 177.482 C 192.975 177.908,202.018 174.141,203.119 173.079 C 205.803 170.490,214.758 153.557,214.797 150.999 C 214.843 147.948,214.865 147.820,215.200 148.600 C 215.389 149.040,215.557 149.310,215.573 149.200 C 215.589 149.090,216.155 146.840,216.831 144.200 C 222.357 122.624,213.955 105.922,192.261 95.361 C 185.849 92.240,187.740 91.931,177.749 97.734 M297.100 101.887 C 296.495 101.978,295.505 101.978,294.900 101.887 C 294.295 101.795,294.790 101.720,296.000 101.720 C 297.210 101.720,297.705 101.795,297.100 101.887 M324.200 102.742 C 317.166 104.884,315.414 106.008,304.200 115.573 C 294.178 124.120,291.158 126.087,286.056 127.394 C 283.204 128.123,282.514 127.975,284.347 127.027 C 286.793 125.763,290.753 121.281,294.215 115.861 C 295.784 113.405,279.094 122.556,270.678 128.766 C 267.507 131.106,264.000 135.131,264.000 136.431 C 264.000 136.728,261.736 140.771,258.778 145.756 L 257.855 147.313 259.827 147.029 C 268.643 145.764,286.018 137.311,304.400 125.344 L 311.400 120.787 307.461 124.570 C 292.874 138.580,274.097 148.687,258.462 150.944 L 255.020 151.441 252.847 153.999 C 250.157 157.165,250.043 157.136,258.241 155.375 C 297.889 146.859,320.282 131.551,328.124 107.600 C 330.279 101.016,330.197 100.915,324.200 102.742 M306.713 102.293 C 305.676 102.376,303.876 102.376,302.713 102.295 C 301.551 102.214,302.400 102.147,304.600 102.146 C 306.800 102.145,307.751 102.211,306.713 102.293 M262.101 104.200 C 262.105 105.080,262.187 105.393,262.283 104.895 C 262.379 104.398,262.375 103.678,262.275 103.295 C 262.175 102.913,262.096 103.320,262.101 104.200 M156.774 107.263 C 156.759 107.338,156.317 109.110,155.791 111.200 L 154.834 115.000 156.446 118.400 C 158.536 122.811,160.363 125.681,165.739 133.000 C 175.778 146.667,179.199 153.761,178.705 159.881 C 178.613 161.026,178.686 161.870,178.869 161.758 C 179.417 161.419,179.228 167.601,178.600 170.565 C 177.930 173.730,176.176 177.698,174.269 180.366 C 171.774 183.857,171.855 183.918,175.825 181.534 C 188.991 173.627,197.870 161.718,198.440 151.200 C 198.491 150.260,198.515 150.272,198.829 151.400 C 199.502 153.819,198.741 146.983,197.961 143.600 C 196.897 138.989,196.811 138.880,195.083 139.949 L 193.684 140.813 192.575 138.907 C 188.418 131.755,182.826 126.467,169.000 116.613 C 164.600 113.477,160.055 110.060,158.900 109.019 C 157.745 107.978,156.788 107.188,156.774 107.263 M139.239 117.882 C 136.437 126.633,130.865 132.819,114.000 145.903 C 109.710 149.231,105.308 152.745,104.218 153.712 L 102.235 155.470 107.192 155.719 L 112.148 155.968 117.745 153.098 C 125.413 149.165,129.387 145.296,134.026 137.250 C 137.083 131.948,140.253 122.113,140.455 117.305 C 140.579 114.342,140.336 114.457,139.239 117.882 M119.600 128.200 C 118.628 129.190,117.923 130.000,118.033 130.000 C 118.143 130.000,119.028 129.190,120.000 128.200 C 120.972 127.210,121.677 126.400,121.567 126.400 C 121.457 126.400,120.572 127.210,119.600 128.200 M141.381 136.500 L 139.800 138.200 141.500 136.619 C 143.081 135.148,143.384 134.800,143.081 134.800 C 143.016 134.800,142.251 135.565,141.381 136.500 M83.495 138.826 C 79.172 141.018,72.800 146.008,72.800 147.202 C 72.800 147.505,78.018 148.400,79.786 148.400 C 80.548 148.400,81.116 147.777,82.610 145.300 C 83.639 143.595,85.457 140.895,86.650 139.300 C 87.843 137.705,88.680 136.409,88.510 136.421 C 88.339 136.432,86.083 137.515,83.495 138.826 M308.816 141.064 C 292.490 152.058,272.170 158.840,251.400 160.226 L 247.400 160.493 245.200 162.477 C 243.799 163.741,243.363 164.309,244.000 164.041 C 247.227 162.682,256.167 161.833,273.800 161.210 C 294.049 160.495,301.313 157.611,308.306 147.512 C 309.177 146.253,310.034 145.353,310.209 145.512 C 310.384 145.670,310.417 145.491,310.281 145.113 C 310.146 144.735,310.183 144.334,310.365 144.222 C 310.546 144.110,310.808 143.309,310.947 142.444 C 311.085 141.578,311.308 140.584,311.442 140.235 C 311.814 139.266,311.195 139.462,308.816 141.064 M326.059 161.881 C 321.151 164.414,315.166 170.312,313.152 174.600 C 311.124 178.919,311.210 181.253,313.611 187.029 C 314.389 188.902,313.861 190.400,312.423 190.400 C 310.165 190.400,307.388 186.770,306.908 183.191 L 306.700 181.637 304.797 182.602 C 297.979 186.057,288.986 193.630,283.043 200.923 C 272.115 214.335,260.330 220.151,227.673 228.251 C 197.512 235.732,185.924 239.989,172.201 248.627 C 141.083 268.216,128.806 299.394,137.176 337.572 C 137.589 339.458,138.042 341.540,138.182 342.200 C 138.581 344.080,136.504 339.008,135.169 334.841 C 132.221 325.638,131.124 318.386,131.121 308.085 C 131.119 301.556,131.033 300.440,130.565 300.829 C 130.260 301.082,129.595 301.185,129.087 301.058 C 128.331 300.868,127.878 301.189,126.582 302.835 C 124.641 305.299,123.027 306.567,120.286 307.779 L 118.183 308.709 110.865 307.128 L 103.548 305.547 101.874 306.411 C 97.341 308.753,93.312 312.946,90.887 317.846 L 89.478 320.693 86.839 320.120 C 85.387 319.804,83.984 319.478,83.720 319.393 C 82.479 318.998,86.590 308.622,89.946 303.679 C 97.637 292.355,111.346 283.662,125.100 281.389 L 128.600 280.810 123.577 280.993 C 103.979 281.706,86.226 290.298,80.492 301.845 L 79.079 304.691 75.492 303.913 C 71.181 302.979,71.379 302.828,70.339 307.840 C 69.544 311.672,69.496 318.130,70.185 328.695 C 70.665 336.058,97.007 355.983,116.144 363.457 C 121.966 365.731,122.795 366.274,118.775 365.183 C 102.637 360.799,88.572 353.803,76.702 344.254 C 73.576 341.740,71.672 340.546,69.143 339.515 C 58.960 335.363,48.954 327.953,43.151 320.265 C 39.192 315.021,38.992 314.156,42.489 317.405 C 46.225 320.877,48.843 322.460,54.762 324.829 C 60.356 327.068,60.118 327.222,57.426 323.093 C 54.843 319.129,51.170 312.097,49.983 308.840 C 49.398 307.238,48.932 306.550,48.404 306.510 C 47.991 306.479,44.177 305.705,39.927 304.789 L 32.200 303.125 30.502 301.262 C 28.646 299.228,28.315 299.321,29.661 301.499 C 30.473 302.812,30.479 302.879,29.761 302.656 C 28.093 302.136,15.476 299.590,15.324 299.743 C 14.031 301.036,25.080 323.855,32.010 334.200 C 54.652 368.004,93.848 390.232,136.000 393.174 C 149.064 394.086,276.667 393.760,283.145 392.798 C 289.157 391.905,289.429 391.914,296.133 393.247 C 301.825 394.378,306.018 393.472,307.393 390.813 C 308.810 388.073,307.346 382.809,304.722 381.209 L 303.400 380.403 304.720 380.401 C 308.229 380.398,309.597 382.493,309.606 387.887 C 309.614 392.141,309.844 392.592,311.962 392.508 C 317.443 392.289,318.576 384.834,313.994 379.133 C 312.613 377.415,312.790 377.231,314.703 378.398 C 315.513 378.891,316.325 379.913,316.847 381.096 C 318.447 384.719,318.630 385.001,319.475 385.123 C 323.742 385.740,320.838 376.620,315.679 373.203 C 309.340 369.004,302.838 369.232,291.274 374.059 C 284.257 376.988,283.842 376.984,283.683 373.985 C 283.518 370.882,284.373 369.815,290.600 365.358 C 302.509 356.832,307.517 347.800,305.012 339.366 C 304.106 336.313,303.837 336.121,298.000 334.357 C 280.274 329.002,274.254 321.726,266.195 295.916 C 260.425 277.438,241.774 265.229,217.088 263.768 C 214.497 263.615,212.437 263.429,212.511 263.356 C 213.551 262.316,225.281 261.185,230.400 261.631 C 250.376 263.371,264.303 277.253,271.434 302.533 C 276.729 321.303,286.481 329.890,304.942 332.036 C 326.915 334.590,346.959 325.186,352.142 309.890 C 352.332 309.328,352.613 309.245,353.491 309.490 C 354.878 309.878,360.027 309.840,364.075 309.413 C 367.145 309.089,367.152 309.090,368.363 310.301 C 372.581 314.520,381.409 311.190,382.835 304.842 C 383.407 302.295,382.599 300.506,380.082 298.749 C 377.846 297.188,377.882 296.416,380.152 297.237 C 383.978 298.621,383.831 292.630,379.962 289.521 C 379.125 288.849,378.333 287.807,378.201 287.206 C 377.683 284.845,374.286 282.817,369.443 281.976 C 364.784 281.168,362.177 281.701,352.161 285.514 L 348.923 286.747 343.410 284.155 L 337.897 281.562 330.849 281.455 C 326.743 281.393,323.382 281.161,322.800 280.899 C 321.933 280.510,321.906 280.447,322.600 280.422 C 331.067 280.117,336.631 278.961,342.021 276.386 C 347.566 273.737,349.511 273.246,356.200 272.808 C 364.741 272.248,374.079 269.221,375.260 266.628 C 375.688 265.690,375.939 265.600,378.138 265.600 C 382.592 265.600,387.070 262.332,388.743 257.861 C 390.325 253.631,390.138 253.085,385.800 249.253 C 383.716 247.412,382.109 245.747,382.229 245.553 C 382.819 244.598,384.856 245.294,387.636 247.400 C 390.912 249.882,391.457 250.028,392.010 248.574 C 393.032 245.885,392.151 242.263,388.902 235.800 C 385.839 229.708,385.177 227.723,384.583 222.854 C 381.499 197.567,365.269 179.362,342.800 175.987 C 338.467 175.336,338.253 175.201,337.271 172.506 C 336.368 170.031,333.616 165.879,330.837 162.800 L 329.212 161.000 329.873 162.600 C 331.644 166.889,330.581 173.666,327.027 180.750 C 324.132 186.519,323.933 189.156,325.996 194.390 C 326.980 196.886,326.980 196.800,325.982 196.800 C 324.049 196.800,321.211 192.032,321.204 188.773 C 321.199 186.389,321.992 183.797,324.447 178.170 C 326.995 172.330,328.468 166.664,328.314 163.288 L 328.200 160.777 326.059 161.881 M174.614 169.577 C 174.486 169.785,173.059 170.684,171.444 171.576 C 168.860 173.002,168.329 173.502,167.024 175.733 C 166.208 177.128,164.253 179.784,162.678 181.635 L 159.816 185.000 162.955 182.407 C 167.156 178.937,176.071 169.200,175.047 169.200 C 174.937 169.200,174.742 169.370,174.614 169.577 M340.511 179.500 C 342.633 184.159,341.364 190.870,337.585 194.970 C 335.309 197.439,335.020 197.274,336.412 194.300 C 338.254 190.364,339.200 186.032,339.200 181.536 C 339.200 177.050,339.314 176.873,340.511 179.500 M216.048 194.636 C 217.651 198.340,218.880 199.991,220.322 200.379 C 231.941 203.508,243.050 204.870,250.048 204.024 C 256.466 203.248,256.620 202.942,250.600 202.927 C 242.933 202.909,231.533 200.089,216.445 194.479 C 216.140 194.365,215.962 194.436,216.048 194.636 M11.301 210.600 C 11.305 211.480,11.387 211.793,11.483 211.295 C 11.579 210.798,11.575 210.078,11.475 209.695 C 11.375 209.313,11.296 209.720,11.301 210.600 M361.719 214.004 C 369.495 216.406,373.028 225.643,370.204 236.188 C 369.184 239.996,369.582 239.847,360.488 239.822 L 352.559 239.800 349.506 238.291 C 340.877 234.027,339.684 226.037,346.553 218.511 C 350.905 213.743,355.986 212.233,361.719 214.004 M242.500 213.876 C 242.885 213.976,243.515 213.976,243.900 213.876 C 244.285 213.775,243.970 213.693,243.200 213.693 C 242.430 213.693,242.115 213.775,242.500 213.876 M355.200 217.600 C 354.847 217.828,354.794 217.990,355.072 217.994 C 355.332 217.997,355.602 218.398,355.672 218.884 C 355.765 219.525,356.918 220.429,359.881 222.184 C 362.126 223.513,364.040 224.870,364.135 225.200 C 364.230 225.530,364.328 225.017,364.354 224.060 C 364.405 222.123,363.577 220.052,362.303 218.936 C 361.720 218.425,361.555 218.384,361.766 218.800 C 361.933 219.130,361.719 218.969,361.290 218.442 C 360.857 217.911,360.307 217.610,360.055 217.766 C 359.805 217.921,359.600 217.857,359.600 217.624 C 359.600 217.092,356.016 217.072,355.200 217.600 M155.891 229.489 C 156.601 229.577,157.861 229.579,158.691 229.492 C 159.521 229.405,158.940 229.333,157.400 229.331 C 155.860 229.329,155.181 229.400,155.891 229.489 M169.925 229.499 C 173.293 229.566,178.693 229.566,181.925 229.499 C 185.156 229.432,182.400 229.377,175.800 229.377 C 169.200 229.377,166.556 229.432,169.925 229.499 M282.997 255.200 C 287.978 267.175,300.245 276.109,316.600 279.673 L 319.000 280.195 317.000 280.326 C 299.836 281.447,283.415 269.541,281.796 254.800 C 281.459 251.732,281.570 251.769,282.997 255.200 M146.403 254.681 C 142.862 255.374,142.979 255.234,142.674 259.132 C 142.542 260.819,142.076 263.235,141.638 264.500 C 140.481 267.848,141.384 267.422,143.956 263.406 C 145.141 261.555,147.166 258.747,148.456 257.165 C 151.472 253.463,151.634 253.659,146.403 254.681 M360.100 312.691 C 360.925 312.778,362.275 312.778,363.100 312.691 C 363.925 312.605,363.250 312.534,361.600 312.534 C 359.950 312.534,359.275 312.605,360.100 312.691 M61.235 316.087 C 61.963 317.565,62.614 318.719,62.681 318.653 C 62.985 318.348,62.245 314.800,61.877 314.800 C 61.649 314.800,61.114 314.485,60.687 314.100 C 60.106 313.575,60.243 314.073,61.235 316.087 M353.969 317.358 C 350.926 322.599,344.954 327.702,338.228 330.810 C 334.379 332.588,334.292 332.747,334.318 337.977 C 334.366 347.886,342.986 354.461,359.800 357.415 C 373.800 359.874,383.745 357.006,387.368 349.464 C 389.789 344.424,392.026 326.156,390.304 325.495 C 389.247 325.090,387.005 328.302,386.427 331.052 C 385.616 334.908,384.508 336.573,382.651 336.726 C 380.546 336.901,379.486 335.915,379.672 333.959 L 379.811 332.502 378.206 333.094 C 375.356 334.144,367.575 334.227,363.493 333.251 C 357.719 331.870,349.600 327.040,349.600 324.986 C 349.600 324.161,354.210 320.593,357.485 318.883 L 360.370 317.377 357.854 316.188 L 355.338 315.000 353.969 317.358 M330.600 340.180 C 320.405 344.579,336.439 358.781,356.697 363.295 C 375.840 367.561,399.929 359.143,390.729 351.402 L 389.473 350.345 388.395 352.073 C 383.567 359.806,371.494 362.306,356.208 358.738 C 342.266 355.484,335.624 350.961,332.879 342.849 L 331.800 339.663 330.600 340.180 M325.782 352.128 C 325.415 353.593,326.687 358.304,328.395 361.800 C 332.037 369.253,337.866 374.189,347.726 378.165 L 349.252 378.781 348.027 380.560 C 344.296 385.984,345.491 388.600,351.700 388.600 L 355.760 388.600 356.040 389.951 C 356.897 394.089,360.879 395.313,363.041 392.104 C 366.284 387.292,362.595 382.062,356.300 382.546 C 353.649 382.750,353.318 382.641,353.906 381.760 C 354.636 380.667,356.108 380.425,361.851 380.458 C 374.182 380.528,381.899 376.772,387.623 367.916 C 391.135 362.481,390.546 362.126,382.529 364.844 L 376.200 366.990 368.200 366.979 C 351.833 366.956,340.725 362.949,329.076 352.866 C 326.888 350.972,326.116 350.799,325.782 352.128 " stroke="none" fill="#e1546c" fill-rule="evenodd"></path><path id="path2" d="M201.806 1.590 C 200.322 3.941,199.558 4.237,193.615 4.765 C 158.842 7.852,129.622 23.851,118.781 45.740 C 116.427 50.494,116.082 52.064,116.940 54.119 L 117.559 55.600 121.496 55.600 C 139.572 55.600,155.299 76.011,149.542 92.000 C 149.027 93.430,148.508 94.690,148.390 94.800 C 148.271 94.910,147.604 95.900,146.908 97.000 C 145.240 99.636,142.488 102.337,142.254 101.568 C 139.821 93.566,137.641 89.289,134.139 85.652 C 132.616 84.070,132.154 83.362,132.586 83.271 C 133.757 83.024,133.193 82.400,131.800 82.400 C 130.125 82.400,130.077 82.619,131.441 84.043 C 132.414 85.058,132.455 85.254,132.079 87.064 C 131.858 88.129,131.773 90.731,131.890 92.848 C 132.495 103.756,127.574 112.111,118.717 115.210 C 96.415 123.015,86.263 127.339,74.317 134.119 C 69.472 136.869,69.023 136.587,69.674 131.201 C 70.135 127.394,69.907 126.400,68.573 126.400 C 64.792 126.400,60.419 132.474,56.384 143.328 L 55.073 146.856 49.836 151.578 C 34.541 165.372,24.455 178.300,16.178 194.722 C 13.807 199.428,13.687 199.587,13.457 198.322 C 12.763 194.515,12.338 186.751,12.540 181.600 C 12.791 175.216,12.619 175.213,11.005 181.578 C 8.966 189.625,8.332 194.811,8.147 204.958 C 7.982 214.030,7.916 214.710,6.835 218.358 C 2.395 233.341,0.491 253.654,1.985 270.095 C 8.067 337.058,64.562 391.701,133.400 397.204 C 144.214 398.068,308.807 397.558,312.000 396.651 C 321.297 394.008,325.400 389.216,325.400 381.000 C 325.400 370.020,317.774 363.857,304.400 364.026 C 301.430 364.063,298.745 364.073,298.432 364.047 C 298.116 364.021,299.101 362.716,300.658 361.100 C 306.877 354.644,309.958 347.910,310.198 340.248 C 310.349 335.442,309.841 335.782,317.387 335.445 C 320.759 335.294,324.561 335.002,325.834 334.794 C 328.741 334.321,328.780 334.378,326.611 335.907 C 323.139 338.354,321.337 342.349,320.424 349.623 C 318.904 361.723,326.254 373.514,339.892 380.855 C 341.057 381.482,341.095 381.586,340.787 383.255 C 339.683 389.237,343.091 393.020,349.291 392.695 L 352.382 392.533 352.825 393.877 C 356.586 405.271,371.763 398.127,368.437 386.528 L 368.074 385.262 370.137 384.776 C 381.824 382.019,390.170 376.072,394.752 367.236 C 398.675 359.669,399.114 353.572,396.057 349.142 L 394.314 346.616 395.359 340.408 C 397.872 325.489,395.356 315.047,387.107 306.157 L 385.954 304.914 386.821 300.382 C 388.048 293.972,387.422 290.395,384.410 286.600 C 383.537 285.500,382.432 283.824,381.955 282.875 C 377.996 274.996,365.488 273.085,352.912 278.437 L 349.029 280.090 347.668 279.357 C 343.881 277.318,346.269 276.240,356.400 275.414 C 365.374 274.683,369.620 273.489,376.919 269.643 C 378.634 268.739,380.409 268.000,380.862 268.000 C 385.457 268.000,392.596 260.609,393.476 254.941 C 393.608 254.093,394.213 252.403,394.821 251.184 C 397.448 245.918,397.269 241.360,394.137 233.800 C 391.093 226.449,390.471 224.374,390.004 220.000 C 386.895 190.918,370.851 173.750,342.714 169.399 C 341.355 169.189,341.102 168.931,339.778 166.412 C 337.096 161.306,330.970 156.767,326.675 156.702 C 321.947 156.630,313.660 162.839,308.380 170.408 C 304.861 175.453,304.157 173.255,307.593 167.952 C 313.902 158.217,319.420 144.272,321.019 134.025 C 321.264 132.455,321.809 131.716,325.748 127.616 C 331.443 121.689,334.400 115.987,334.400 110.932 C 334.400 108.764,332.867 108.737,331.756 110.886 C 330.775 112.782,330.798 112.028,331.815 108.913 C 333.364 104.169,334.491 98.145,334.547 94.309 C 334.621 89.298,334.240 89.121,330.371 92.370 C 328.744 93.736,326.134 95.630,324.571 96.579 L 321.730 98.304 320.685 93.052 C 320.110 90.163,318.612 84.290,317.355 80.000 C 313.815 67.920,314.084 60.389,318.199 56.401 C 320.050 54.607,319.974 54.105,317.803 53.779 C 314.036 53.215,311.067 54.519,309.315 57.509 L 308.237 59.348 307.653 57.974 C 305.753 53.502,306.799 43.957,309.957 36.944 C 312.065 32.261,312.321 31.018,311.390 29.989 C 308.704 27.021,299.145 31.946,295.609 38.120 L 294.509 40.039 292.755 38.087 C 291.676 36.887,290.485 34.887,289.664 32.897 C 287.875 28.561,287.225 27.976,285.848 29.462 C 284.627 30.779,284.372 30.604,283.216 27.654 C 282.136 24.896,280.552 22.610,278.252 20.491 C 275.896 18.319,275.885 18.324,276.215 21.405 L 276.494 24.011 271.746 21.058 C 260.405 14.007,249.915 9.769,235.895 6.576 C 232.593 5.824,228.904 4.757,227.697 4.204 C 225.227 3.074,224.597 3.008,223.272 3.743 C 221.370 4.798,213.379 3.364,209.361 1.246 C 205.725 -0.670,203.159 -0.554,201.806 1.590 M210.636 9.829 C 214.562 11.400,215.293 11.549,222.278 12.213 C 233.363 13.267,235.851 14.597,240.033 21.700 C 240.778 22.965,241.511 24.000,241.663 24.000 C 241.921 24.000,240.735 19.349,239.943 17.255 C 239.060 14.920,243.738 17.621,246.857 21.247 C 250.969 26.027,251.730 26.571,251.410 24.500 C 250.978 21.713,250.867 20.400,251.064 20.400 C 251.413 20.400,258.436 24.786,260.552 26.325 C 263.576 28.524,266.129 30.812,268.001 33.000 C 270.234 35.610,270.224 35.610,270.976 33.022 C 272.077 29.236,273.259 30.079,273.624 34.910 C 273.980 39.615,275.107 40.044,276.553 36.022 C 277.511 33.358,277.746 33.277,279.616 34.967 C 280.855 36.086,281.538 36.400,282.737 36.400 C 284.445 36.400,284.462 36.423,286.253 41.200 C 286.790 42.630,287.881 45.197,288.679 46.903 L 290.129 50.007 289.456 52.797 C 287.830 59.533,287.530 63.178,287.217 80.000 C 286.860 99.220,286.632 100.692,283.332 105.100 C 282.126 106.711,282.797 106.809,285.007 105.345 C 290.678 101.589,294.842 95.166,300.401 81.600 C 307.639 63.934,308.289 63.496,308.426 76.200 C 308.532 86.034,307.640 89.598,303.423 96.191 C 301.822 98.694,301.991 98.899,304.284 97.238 C 305.711 96.204,309.154 91.627,309.831 89.865 C 310.644 87.745,312.696 95.813,312.001 98.396 C 310.976 102.204,302.897 106.580,284.710 113.178 C 277.067 115.951,274.590 117.703,271.133 122.780 C 268.409 126.780,268.346 126.833,269.044 124.558 C 269.375 123.481,270.264 120.295,271.021 117.478 C 272.724 111.133,274.253 107.785,277.985 102.223 C 281.009 97.715,282.133 95.513,282.541 93.300 C 282.896 91.370,282.361 91.672,279.175 95.200 C 277.586 96.960,276.061 98.400,275.786 98.400 C 274.255 98.400,274.974 93.450,277.253 88.301 C 280.087 81.893,279.541 78.747,276.206 82.272 C 273.127 85.526,272.322 83.005,274.224 76.067 C 275.804 70.303,274.952 67.751,272.955 72.265 C 268.565 82.185,268.978 82.038,264.694 75.197 C 259.971 67.656,259.684 66.932,259.207 61.384 C 258.639 54.786,257.588 52.346,257.016 56.300 C 255.962 63.581,254.435 63.691,253.977 56.518 C 253.623 50.964,252.536 49.584,251.838 53.800 C 251.266 57.250,251.138 57.600,250.442 57.600 C 249.514 57.600,248.218 55.199,247.418 52.000 C 246.530 48.449,246.012 47.235,245.198 46.799 C 244.151 46.239,244.000 46.655,244.000 50.100 C 244.000 52.455,243.872 53.224,243.500 53.101 C 242.526 52.779,240.744 49.294,240.451 47.138 C 239.851 42.717,236.993 42.618,236.499 47.000 C 236.387 47.990,236.226 48.800,236.140 48.800 C 236.054 48.800,234.324 47.966,232.295 46.947 C 208.280 34.886,172.546 32.780,161.200 42.757 L 160.200 43.637 161.981 42.769 C 184.188 31.949,232.119 46.813,250.709 70.285 L 252.001 71.916 249.501 71.126 C 245.774 69.947,238.943 70.272,230.800 72.016 C 224.494 73.366,215.149 73.908,211.800 73.117 C 211.114 72.955,211.529 73.264,212.769 73.839 C 218.244 76.378,226.374 77.072,235.430 75.774 C 244.706 74.444,249.474 75.104,253.117 78.222 C 256.842 81.410,255.257 85.626,250.534 85.094 C 248.348 84.847,248.323 84.789,251.328 86.934 C 258.275 91.891,262.844 99.805,262.201 105.765 C 259.563 130.190,242.496 153.608,217.400 167.239 L 214.200 168.977 214.978 167.789 C 236.892 134.321,231.478 109.283,199.600 96.670 C 194.468 94.639,185.477 91.877,185.823 92.438 C 185.946 92.637,186.262 92.800,186.524 92.800 C 187.486 92.801,197.615 97.985,200.635 100.024 C 222.011 114.448,224.120 138.643,206.576 168.203 C 203.548 173.306,202.645 174.055,197.219 175.962 C 191.769 177.877,192.056 177.988,194.216 174.796 C 197.677 169.683,199.231 164.054,199.153 156.917 C 199.108 152.873,198.580 148.631,198.440 151.200 C 197.870 161.718,188.991 173.627,175.825 181.534 C 171.855 183.918,171.774 183.857,174.269 180.366 C 177.443 175.926,179.180 170.370,179.193 164.620 C 179.201 161.031,179.013 161.067,177.401 164.961 C 174.493 171.986,164.800 182.038,155.000 188.193 C 146.657 193.432,140.161 195.735,118.238 201.226 C 92.386 207.700,88.183 209.021,84.033 211.977 C 82.470 213.089,82.545 213.155,81.838 210.047 C 79.412 199.382,81.939 182.185,87.839 169.200 C 93.871 155.927,99.820 148.107,116.766 131.179 C 127.081 120.874,129.265 118.489,130.692 115.971 C 132.361 113.026,135.394 105.531,135.860 103.198 C 136.661 99.197,140.440 109.608,140.440 115.814 C 140.440 125.209,134.961 138.070,127.463 146.274 L 125.436 148.492 128.208 146.795 C 151.005 132.842,160.177 112.715,156.277 85.200 C 154.072 69.647,145.017 59.053,130.113 54.589 C 123.628 52.646,123.329 51.312,128.043 45.357 C 130.562 42.177,132.100 40.949,141.093 34.943 C 157.548 23.953,173.424 18.365,182.346 20.422 C 186.336 21.342,186.262 19.506,182.253 18.127 C 179.488 17.176,172.302 17.197,167.279 18.170 C 162.651 19.067,162.573 18.980,165.978 16.726 C 175.962 10.114,193.781 8.745,204.197 13.790 C 209.707 16.459,209.853 16.415,207.888 12.670 C 205.616 8.338,205.977 7.965,210.636 9.829 M304.238 38.207 C 304.523 39.344,304.487 39.547,303.062 44.800 C 301.673 49.923,301.200 54.187,301.200 61.605 C 301.200 70.732,297.782 80.596,291.709 89.000 C 289.395 92.202,292.145 57.285,294.875 48.800 C 297.382 41.009,303.269 34.348,304.238 38.207 M329.328 103.100 C 328.269 110.258,321.727 121.985,314.543 129.603 C 303.974 140.811,284.456 149.745,258.241 155.375 C 250.043 157.136,250.157 157.165,252.847 153.999 L 255.020 151.441 258.462 150.944 C 274.097 148.687,292.874 138.580,307.461 124.570 L 311.400 120.787 304.400 125.344 C 286.018 137.311,268.643 145.764,259.827 147.029 L 257.855 147.313 258.778 145.756 C 261.736 140.771,264.000 136.728,264.000 136.431 C 264.000 135.131,267.507 131.106,270.678 128.766 C 279.094 122.556,295.784 113.405,294.215 115.861 C 290.753 121.281,286.793 125.763,284.347 127.027 C 282.514 127.975,283.204 128.123,286.056 127.394 C 291.158 126.087,294.178 124.120,304.200 115.573 C 315.414 106.008,317.166 104.884,324.200 102.742 C 329.255 101.202,329.605 101.226,329.328 103.100 M100.266 135.855 C 88.247 154.165,81.306 171.811,78.730 190.600 C 78.186 194.572,78.030 207.654,78.496 210.245 L 78.792 211.890 76.425 213.550 C 73.685 215.472,74.019 215.842,72.859 209.600 C 71.204 200.690,71.000 198.297,71.000 187.800 C 71.000 176.303,71.431 172.733,73.675 165.664 C 75.185 160.906,74.933 160.681,72.856 164.932 C 65.653 179.677,63.331 210.184,68.233 225.700 C 68.520 226.608,66.068 226.671,63.650 225.818 C 62.743 225.498,62.000 225.392,62.000 225.583 C 62.000 225.774,61.132 226.981,60.072 228.265 C 57.096 231.868,54.609 235.529,52.665 239.167 L 50.891 242.486 49.291 240.343 C 48.410 239.164,47.279 237.390,46.778 236.400 L 45.865 234.600 45.487 236.000 C 44.916 238.118,45.418 244.619,46.393 247.727 C 48.235 253.597,46.119 253.423,44.028 247.533 L 43.555 246.200 42.992 247.200 C 42.258 248.503,42.256 252.469,42.988 255.000 C 43.306 256.100,43.780 257.723,44.041 258.607 C 44.561 260.368,44.202 264.972,43.575 264.585 C 42.361 263.834,32.136 248.023,28.223 240.845 C 23.449 232.088,17.157 217.021,17.095 214.200 C 16.937 206.925,35.393 176.619,46.205 166.400 L 47.686 165.000 47.456 166.200 C 42.342 192.878,47.551 217.604,59.676 224.203 L 61.800 225.358 59.902 223.188 C 51.495 213.576,49.605 194.726,54.225 166.559 C 56.435 153.079,60.887 139.418,63.981 136.617 C 66.064 134.732,66.643 141.459,64.861 146.840 C 62.397 154.281,60.350 165.291,59.850 173.800 C 59.615 177.792,59.643 177.724,61.447 170.013 C 64.733 155.968,73.053 144.081,83.124 139.044 C 89.630 135.790,103.099 130.214,103.521 130.599 C 103.588 130.660,102.123 133.025,100.266 135.855 M311.446 140.300 C 311.331 140.685,310.971 142.170,310.646 143.600 C 305.102 167.982,286.090 193.370,262.923 207.326 C 253.242 213.158,251.349 213.633,236.746 213.897 C 222.594 214.152,221.937 214.423,230.062 216.649 C 232.749 217.385,235.112 218.152,235.313 218.353 C 235.863 218.903,227.291 220.681,212.802 223.023 C 209.172 223.610,203.429 224.793,200.039 225.653 L 193.874 227.217 179.837 226.227 C 147.897 223.974,136.338 224.730,118.000 230.270 C 103.168 234.750,79.856 247.066,70.800 255.206 L 69.400 256.465 70.800 255.676 C 71.570 255.243,74.270 253.721,76.800 252.294 C 99.363 239.570,119.766 232.546,141.096 230.161 C 149.870 229.180,188.344 228.926,186.400 229.862 C 175.219 235.245,172.173 236.873,167.769 239.819 C 157.659 246.581,151.439 248.592,126.999 253.000 C 95.809 258.626,88.827 260.387,79.800 264.901 C 65.773 271.915,58.623 281.735,56.463 296.955 L 55.788 301.709 53.535 297.555 C 42.998 278.124,43.530 260.476,55.030 247.967 C 56.358 246.523,57.744 244.343,58.938 241.824 C 65.914 227.098,81.301 216.724,109.000 208.073 C 122.232 203.940,133.439 201.422,165.456 195.388 C 190.197 190.725,193.957 189.940,200.153 188.140 C 216.053 183.522,231.098 175.035,244.400 163.179 L 247.400 160.505 251.400 160.229 C 272.340 158.787,292.483 152.063,308.816 141.064 C 311.248 139.426,311.749 139.280,311.446 140.300 M327.441 169.686 C 326.898 171.823,325.550 175.641,324.447 178.170 C 321.992 183.797,321.199 186.389,321.204 188.773 C 321.211 192.032,324.049 196.800,325.982 196.800 C 326.980 196.800,326.980 196.886,325.996 194.390 C 323.933 189.156,324.132 186.519,327.027 180.750 C 330.581 173.666,331.644 166.889,329.873 162.600 L 329.212 161.000 330.837 162.800 C 333.616 165.879,336.368 170.031,337.271 172.506 C 338.253 175.201,338.467 175.336,342.800 175.987 C 365.269 179.362,381.499 197.567,384.583 222.854 C 385.177 227.723,385.839 229.708,388.902 235.800 C 392.151 242.263,393.032 245.885,392.010 248.574 C 391.457 250.028,390.912 249.882,387.636 247.400 C 384.856 245.294,382.819 244.598,382.229 245.553 C 382.109 245.747,383.716 247.412,385.800 249.253 C 390.138 253.085,390.325 253.631,388.743 257.861 C 387.070 262.332,382.592 265.600,378.138 265.600 C 375.939 265.600,375.688 265.690,375.260 266.628 C 374.079 269.221,364.741 272.248,356.200 272.808 C 349.511 273.246,347.566 273.737,342.021 276.386 C 336.631 278.961,331.067 280.117,322.600 280.422 C 321.906 280.447,321.933 280.510,322.800 280.899 C 323.382 281.161,326.743 281.393,330.849 281.455 L 337.897 281.562 343.410 284.155 L 348.923 286.747 352.161 285.514 C 362.177 281.701,364.784 281.168,369.443 281.976 C 374.286 282.817,377.683 284.845,378.201 287.206 C 378.333 287.807,379.125 288.849,379.962 289.521 C 383.831 292.630,383.978 298.621,380.152 297.237 C 377.882 296.416,377.846 297.188,380.082 298.749 C 382.599 300.506,383.407 302.295,382.835 304.842 C 381.409 311.190,372.581 314.520,368.363 310.301 C 367.152 309.090,367.145 309.089,364.075 309.413 C 360.027 309.840,354.878 309.878,353.491 309.490 C 352.613 309.245,352.332 309.328,352.142 309.890 C 346.959 325.186,326.915 334.590,304.942 332.036 C 286.481 329.890,276.729 321.303,271.434 302.533 C 264.303 277.253,250.376 263.371,230.400 261.631 C 225.281 261.185,213.551 262.316,212.511 263.356 C 212.437 263.429,214.497 263.615,217.088 263.768 C 241.774 265.229,260.425 277.438,266.195 295.916 C 274.254 321.726,280.274 329.002,298.000 334.357 C 303.837 336.121,304.106 336.313,305.012 339.366 C 307.517 347.800,302.509 356.832,290.600 365.358 C 284.373 369.815,283.518 370.882,283.683 373.985 C 283.842 376.984,284.257 376.988,291.274 374.059 C 302.838 369.232,309.340 369.004,315.679 373.203 C 320.838 376.620,323.742 385.740,319.475 385.123 C 318.630 385.001,318.447 384.719,316.847 381.096 C 316.325 379.913,315.513 378.891,314.703 378.398 C 312.790 377.231,312.613 377.415,313.994 379.133 C 318.576 384.834,317.443 392.289,311.962 392.508 C 309.844 392.592,309.614 392.141,309.606 387.887 C 309.597 382.493,308.229 380.398,304.720 380.401 L 303.400 380.403 304.722 381.209 C 307.346 382.809,308.810 388.073,307.393 390.813 C 306.018 393.472,301.825 394.378,296.133 393.247 C 289.429 391.914,289.157 391.905,283.145 392.798 C 276.667 393.760,149.064 394.086,136.000 393.174 C 71.511 388.673,18.153 339.820,10.425 278.200 C 10.177 276.220,9.892 274.096,9.793 273.480 C 9.482 271.554,10.237 272.582,15.055 280.650 C 21.195 290.930,21.817 291.581,17.867 283.593 C 8.816 265.288,7.658 257.947,10.657 237.872 C 11.433 232.680,11.446 232.689,13.592 239.960 C 19.526 260.059,29.361 278.263,46.042 300.028 C 46.856 301.089,48.078 303.638,48.959 306.112 C 50.788 311.244,54.298 318.294,57.378 323.019 C 60.125 327.233,60.361 327.070,54.762 324.829 C 48.843 322.460,46.225 320.877,42.489 317.405 C 38.992 314.156,39.192 315.021,43.151 320.265 C 48.954 327.953,58.960 335.363,69.143 339.515 C 71.672 340.546,73.576 341.740,76.702 344.254 C 88.572 353.803,102.637 360.799,118.775 365.183 C 122.795 366.274,121.966 365.731,116.144 363.457 C 89.438 353.027,68.151 333.359,58.636 310.323 C 56.821 305.927,56.821 304.530,58.638 298.791 C 66.567 273.751,82.274 263.380,119.800 258.406 C 133.494 256.591,142.968 255.253,146.950 254.573 C 151.336 253.823,151.268 253.727,148.625 256.952 C 145.950 260.215,142.666 265.136,140.340 269.365 C 138.106 273.427,135.191 274.579,122.549 276.398 C 108.216 278.460,98.427 282.337,90.530 289.079 C 88.674 290.664,85.389 294.446,86.817 293.354 C 92.681 288.872,95.578 287.445,104.447 284.666 C 114.274 281.587,117.757 281.024,127.065 281.011 C 131.280 281.005,134.822 281.092,134.936 281.205 C 135.050 281.317,134.701 283.109,134.161 285.187 C 129.105 304.655,130.475 326.063,137.796 342.000 C 138.528 343.593,138.585 343.997,137.176 337.572 C 128.806 299.394,141.083 268.216,172.201 248.627 C 185.924 239.989,197.512 235.732,227.673 228.251 C 260.330 220.151,272.115 214.335,283.043 200.923 C 288.986 193.630,297.979 186.057,304.797 182.602 L 306.700 181.637 306.908 183.191 C 307.388 186.770,310.165 190.400,312.423 190.400 C 313.861 190.400,314.389 188.902,313.611 187.029 C 311.210 181.253,311.124 178.919,313.152 174.600 C 315.166 170.312,321.151 164.414,326.059 161.881 L 328.200 160.777 328.314 163.288 C 328.391 164.972,328.103 167.081,327.441 169.686 M339.200 181.536 C 339.200 186.032,338.254 190.364,336.412 194.300 C 335.020 197.274,335.309 197.439,337.585 194.970 C 341.364 190.870,342.633 184.159,340.511 179.500 C 339.314 176.873,339.200 177.050,339.200 181.536 M13.775 216.400 C 17.321 228.704,25.946 245.718,37.499 263.200 L 42.918 271.400 43.254 277.200 C 43.439 280.390,43.773 284.424,43.995 286.164 C 44.627 291.102,44.592 291.250,43.180 289.600 C 22.807 265.805,12.488 240.121,11.415 210.532 L 11.199 204.600 11.940 208.600 C 12.347 210.800,13.173 214.310,13.775 216.400 M353.800 213.760 C 351.358 214.532,349.680 215.510,347.758 217.281 L 346.008 218.894 347.050 220.132 C 347.949 221.201,348.061 221.627,347.869 223.251 C 347.298 228.071,349.981 230.632,358.287 233.198 C 362.021 234.351,364.888 233.273,365.810 230.369 C 366.395 228.525,366.778 229.888,366.693 233.510 L 366.600 237.421 364.400 236.536 C 363.190 236.050,360.455 235.371,358.323 235.029 C 349.716 233.646,344.985 230.009,344.018 224.032 L 343.722 222.200 343.037 223.745 C 340.512 229.440,343.024 235.088,349.506 238.291 L 352.559 239.800 360.488 239.822 C 369.582 239.847,369.184 239.996,370.204 236.188 C 373.995 222.035,365.285 210.127,353.800 213.760 M361.675 218.477 C 367.899 223.226,361.793 233.435,354.880 229.838 C 351.451 228.054,349.201 219.809,351.642 217.969 C 353.228 216.772,359.882 217.110,361.675 218.477 M281.796 254.800 C 283.415 269.541,299.836 281.447,317.000 280.326 L 319.000 280.195 316.600 279.673 C 300.245 276.109,287.978 267.175,282.997 255.200 C 281.570 251.769,281.459 251.732,281.796 254.800 M387.778 317.000 C 390.272 322.083,390.951 325.605,390.697 332.147 C 389.948 351.443,384.246 358.280,369.000 358.159 C 348.695 357.998,334.375 349.665,334.318 337.977 C 334.292 332.747,334.379 332.588,338.228 330.810 C 345.062 327.652,351.034 322.507,354.000 317.221 C 356.649 312.501,356.491 312.598,361.465 312.611 C 365.421 312.621,366.074 312.734,368.930 313.911 C 373.774 315.906,376.527 315.387,381.000 311.638 L 383.000 309.961 384.506 311.681 C 385.334 312.626,386.806 315.020,387.778 317.000 M334.776 347.361 C 341.012 357.451,370.256 363.975,382.140 357.927 C 384.203 356.877,387.072 354.192,388.395 352.073 L 389.473 350.345 390.729 351.402 C 392.099 352.554,393.010 355.084,392.573 356.520 C 390.780 362.409,370.178 366.299,356.697 363.295 C 336.439 358.781,320.405 344.579,330.600 340.180 L 331.800 339.663 332.879 342.849 C 333.472 344.602,334.325 346.632,334.776 347.361 M329.076 352.866 C 340.725 362.949,351.833 366.956,368.200 366.979 L 376.200 366.990 382.529 364.844 C 390.546 362.126,391.135 362.481,387.623 367.916 C 381.899 376.772,374.182 380.528,361.851 380.458 C 356.108 380.425,354.636 380.667,353.906 381.760 C 353.318 382.641,353.649 382.750,356.300 382.546 C 362.595 382.062,366.284 387.292,363.041 392.104 C 360.879 395.313,356.897 394.089,356.040 389.951 L 355.760 388.600 351.700 388.600 C 345.491 388.600,344.296 385.984,348.027 380.560 L 349.252 378.781 347.726 378.165 C 335.687 373.310,328.514 365.869,326.191 355.828 C 325.069 350.983,325.907 350.123,329.076 352.866 " stroke="none" fill="#0e0d0d" fill-rule="evenodd"></path><path id="path3" d="M206.400 9.138 C 206.400 9.371,207.140 10.966,208.044 12.681 C 210.137 16.653,209.853 16.729,203.860 13.804 C 194.829 9.396,179.543 10.002,169.051 15.185 C 165.786 16.797,162.563 19.097,164.200 18.645 C 169.856 17.086,178.169 16.784,182.092 17.996 C 187.269 19.595,186.759 21.411,181.415 20.403 C 168.178 17.905,132.425 36.244,125.777 48.942 C 124.135 52.077,124.672 52.758,130.097 54.423 C 139.915 57.436,147.111 62.893,151.867 70.933 C 154.559 75.485,163.890 79.890,176.144 82.394 C 181.097 83.406,181.934 83.402,183.044 82.358 L 183.940 81.517 194.070 82.588 C 222.806 85.626,236.058 90.870,241.652 101.416 C 242.794 103.568,242.473 103.689,245.788 99.872 C 249.011 96.161,249.035 96.326,244.600 91.792 C 234.385 81.348,223.888 78.610,191.800 78.017 C 172.244 77.656,169.744 77.429,162.400 75.346 C 156.187 73.584,150.456 70.181,152.010 69.177 C 158.470 65.008,187.751 66.093,205.000 71.140 C 215.119 74.101,218.600 74.191,230.800 71.809 C 234.870 71.014,239.618 70.254,241.350 70.119 L 244.501 69.874 245.289 68.093 L 246.076 66.312 247.555 67.756 C 250.180 70.319,249.863 69.287,247.188 66.564 C 225.965 44.951,183.270 32.970,162.435 42.780 C 159.087 44.357,159.035 44.367,160.369 43.212 C 172.782 32.464,207.472 34.280,232.808 47.004 L 236.400 48.808 236.400 47.066 C 236.400 45.072,237.270 44.000,238.889 44.000 C 240.047 44.000,240.220 44.304,240.620 47.049 C 241.294 51.664,243.600 54.166,243.600 50.282 C 243.600 44.580,245.943 45.205,247.413 51.299 C 249.043 58.056,250.775 59.363,251.566 54.431 C 252.360 49.482,253.696 50.564,254.007 56.408 C 254.346 62.762,255.573 63.243,256.648 57.444 C 257.656 52.009,258.653 53.350,259.394 61.140 C 259.991 67.403,259.761 66.808,264.508 74.400 C 267.982 79.958,268.157 80.179,268.863 79.908 C 269.194 79.781,270.337 77.635,271.402 75.138 C 273.962 69.140,274.380 68.640,275.244 70.536 C 275.581 71.276,275.412 72.434,274.435 76.069 C 272.434 83.516,272.987 85.130,276.400 81.800 C 278.366 79.882,278.473 79.832,279.025 80.576 C 279.932 81.801,279.489 83.603,276.635 90.297 C 275.314 93.396,274.761 98.000,275.710 98.000 C 278.040 98.000,282.343 90.358,284.383 82.600 C 286.485 74.607,287.022 55.837,285.425 46.200 C 284.676 41.679,284.665 42.000,285.570 42.000 C 286.309 42.000,286.301 41.899,285.370 39.523 C 284.278 36.736,283.940 36.415,282.101 36.406 C 281.183 36.402,280.347 35.988,279.249 34.997 L 277.696 33.593 276.788 35.897 C 275.052 40.299,273.637 40.092,273.560 35.424 C 273.482 30.678,272.289 29.454,271.175 32.975 C 270.341 35.611,270.047 35.609,267.776 32.952 C 265.322 30.079,261.325 26.896,255.875 23.475 C 250.738 20.250,251.060 20.273,251.395 23.155 C 251.766 26.357,251.243 26.474,248.928 23.707 C 245.057 19.080,239.511 14.895,240.139 17.076 C 240.254 17.474,240.733 19.122,241.202 20.738 C 242.483 25.145,241.836 25.190,239.271 20.873 C 235.559 14.624,233.038 13.437,220.884 12.213 C 216.111 11.733,214.090 11.339,211.684 10.420 C 207.759 8.922,206.400 8.592,206.400 9.138 M302.101 37.815 C 301.074 38.534,299.847 42.207,298.988 47.134 C 298.136 52.019,298.132 52.000,299.910 52.000 L 301.420 52.000 301.887 49.100 C 302.144 47.505,302.826 44.585,303.401 42.612 C 304.745 38.003,304.280 36.288,302.101 37.815 M157.325 94.933 C 157.476 95.336,157.600 97.028,157.600 98.692 L 157.600 101.719 160.702 104.760 C 162.409 106.432,165.154 108.724,166.802 109.853 L 169.800 111.906 173.300 109.856 C 177.514 107.389,177.481 107.744,173.700 105.608 C 169.143 103.035,162.886 98.946,160.600 97.048 C 157.124 94.162,157.008 94.087,157.325 94.933 M144.588 133.614 C 144.039 134.220,143.854 135.144,143.810 137.504 C 143.712 142.687,141.982 146.677,136.400 154.593 C 133.288 159.006,133.373 158.791,134.815 158.608 C 135.498 158.522,136.269 158.280,136.528 158.072 C 137.052 157.650,139.454 157.066,139.821 157.270 C 139.951 157.341,140.233 157.085,140.448 156.700 C 140.730 156.197,141.340 156.000,142.620 156.000 C 143.599 156.000,144.400 155.820,144.400 155.600 C 144.400 155.380,144.842 155.200,145.383 155.200 C 146.253 155.200,146.456 154.889,147.147 152.500 C 148.869 146.540,149.085 138.800,147.528 138.800 C 147.322 138.800,147.264 138.620,147.400 138.400 C 147.536 138.180,147.487 138.000,147.290 138.000 C 147.094 138.000,146.905 137.775,146.870 137.500 C 146.645 135.707,146.497 135.199,146.042 134.651 C 145.761 134.312,145.640 133.860,145.772 133.645 C 146.254 132.866,145.288 132.840,144.588 133.614 M136.600 141.060 C 135.720 141.844,132.694 144.016,129.875 145.886 C 124.604 149.383,123.152 150.828,119.909 155.800 C 118.440 158.053,118.395 158.208,119.178 158.329 C 119.637 158.399,119.916 158.612,119.799 158.801 C 119.683 158.990,119.774 159.261,120.003 159.402 C 120.232 159.544,120.370 159.444,120.310 159.180 C 120.249 158.916,120.450 158.609,120.756 158.498 C 121.061 158.387,121.210 158.461,121.085 158.662 C 120.961 158.864,121.161 159.039,121.529 159.051 C 121.898 159.064,123.014 159.207,124.009 159.369 L 125.817 159.663 126.784 157.932 C 128.275 155.264,133.593 146.996,136.325 143.100 C 138.996 139.290,139.052 138.874,136.600 141.060 M285.400 173.843 C 280.490 175.642,275.163 175.919,264.495 174.928 C 255.910 174.131,256.466 173.869,256.138 178.866 L 255.887 182.681 259.471 183.140 C 267.805 184.209,275.968 183.336,282.564 180.671 L 285.728 179.392 286.664 176.618 C 287.973 172.739,288.036 172.877,285.400 173.843 M351.873 218.014 C 349.444 219.925,351.667 223.613,354.396 222.202 C 355.855 221.448,356.226 218.273,354.900 217.892 C 354.515 217.781,353.918 217.574,353.573 217.431 C 353.209 217.280,352.495 217.525,351.873 218.014 M344.821 220.848 C 341.622 226.541,347.848 232.971,358.371 234.842 C 360.917 235.294,363.726 235.983,364.614 236.372 L 366.227 237.079 366.310 233.484 L 366.393 229.890 365.255 231.461 C 363.084 234.458,362.459 234.636,358.461 233.399 C 349.968 230.770,347.840 228.936,347.738 224.157 C 347.693 222.039,347.476 220.977,346.938 220.238 C 345.967 218.905,345.902 218.924,344.821 220.848 M384.400 314.411 C 382.532 315.843,379.082 316.400,372.074 316.400 C 362.744 316.400,358.228 317.850,352.100 322.812 C 349.076 325.261,349.088 325.079,351.792 327.490 C 357.950 332.979,371.004 335.748,378.206 333.094 L 379.811 332.502 379.672 333.959 C 379.486 335.915,380.546 336.901,382.651 336.726 C 384.509 336.573,385.619 334.904,386.423 331.052 C 386.782 329.333,387.338 328.125,388.283 327.011 C 390.560 324.324,390.363 322.160,387.308 316.300 C 385.747 313.304,385.799 313.338,384.400 314.411 " stroke="none" fill="#f7ce84" fill-rule="evenodd"></path><path id="path4" d="M185.700 36.294 C 186.745 36.376,188.455 36.376,189.500 36.294 C 190.545 36.212,189.690 36.144,187.600 36.144 C 185.510 36.144,184.655 36.212,185.700 36.294 M284.814 42.300 C 284.822 42.465,285.097 44.220,285.425 46.200 C 286.381 51.966,286.624 67.507,285.860 74.000 C 285.014 81.191,284.120 84.512,280.909 92.400 C 280.734 92.828,280.910 92.784,281.524 92.246 C 282.577 91.321,283.049 92.056,282.658 94.012 L 282.420 95.200 284.610 95.200 C 286.420 95.200,286.804 95.078,286.825 94.500 C 286.838 94.115,287.013 86.600,287.212 77.800 C 287.575 61.805,287.828 58.898,289.394 52.672 L 290.081 49.944 288.688 47.072 C 287.922 45.492,287.098 43.705,286.856 43.100 C 286.462 42.113,284.774 41.451,284.814 42.300 M243.679 49.924 C 243.619 52.130,243.477 52.778,243.100 52.565 C 242.703 52.341,242.702 52.392,243.093 52.815 C 243.883 53.666,244.046 53.087,243.898 49.948 L 243.759 47.000 243.679 49.924 M298.024 57.100 C 298.045 61.713,298.411 65.782,298.837 66.148 C 298.927 66.225,299.521 66.413,300.159 66.566 L 301.317 66.845 301.072 62.922 C 300.937 60.765,300.961 57.425,301.124 55.500 L 301.421 52.000 299.711 52.000 L 298.000 52.000 298.024 57.100 M207.000 78.262 C 226.283 79.800,236.448 83.458,244.600 91.792 C 249.035 96.326,249.011 96.161,245.788 99.872 C 242.473 103.689,242.794 103.568,241.652 101.416 C 236.058 90.870,222.806 85.626,194.070 82.588 L 183.940 81.517 183.044 82.358 C 182.552 82.821,181.710 83.218,181.174 83.240 C 179.314 83.317,183.263 84.008,195.991 85.834 C 220.587 89.363,224.869 90.723,231.000 96.950 L 234.200 100.200 230.000 100.422 L 225.800 100.643 230.076 100.722 C 232.428 100.765,234.455 100.966,234.581 101.169 C 234.796 101.517,231.705 101.495,215.064 101.025 L 209.128 100.857 212.298 103.026 C 231.038 115.847,233.423 137.519,218.765 161.801 L 216.592 165.402 219.011 165.199 C 224.116 164.771,237.957 153.762,245.394 144.214 C 254.944 131.955,261.154 117.453,261.887 105.700 L 262.118 102.000 260.082 102.000 C 257.564 102.000,256.956 101.303,259.291 101.093 L 261.000 100.940 259.348 100.870 C 257.714 100.801,257.677 100.766,255.825 97.466 C 248.678 84.731,238.511 79.585,218.160 78.404 C 212.152 78.055,202.934 77.938,207.000 78.262 M155.820 81.289 C 155.975 81.998,156.398 85.240,156.760 88.493 L 157.417 94.409 159.608 96.248 C 162.163 98.391,169.253 103.102,173.700 105.610 C 177.481 107.743,177.514 107.389,173.300 109.856 L 169.800 111.906 166.802 109.853 C 165.154 108.724,162.409 106.432,160.702 104.760 L 157.600 101.719 157.532 98.360 C 157.482 95.839,157.393 96.498,157.178 101.000 L 156.890 107.000 158.914 108.938 C 160.027 110.003,164.552 113.449,168.969 116.595 C 182.817 126.458,188.413 131.747,192.575 138.907 L 193.684 140.813 195.083 139.949 C 196.239 139.234,196.542 139.181,196.829 139.642 C 197.472 140.675,198.768 146.972,199.044 150.400 C 199.477 155.790,198.758 155.766,207.549 150.681 L 215.295 146.200 215.059 143.381 C 214.036 131.126,206.127 123.128,181.708 109.651 C 177.257 107.195,172.653 104.604,171.476 103.893 L 169.337 102.600 177.644 97.809 C 182.213 95.173,185.907 92.973,185.853 92.920 C 185.799 92.866,182.975 92.013,179.578 91.024 C 169.645 88.133,162.673 85.086,157.986 81.590 C 155.420 79.675,155.467 79.682,155.820 81.289 M211.500 100.298 C 213.755 100.370,217.445 100.370,219.700 100.298 C 221.955 100.227,220.110 100.169,215.600 100.169 C 211.090 100.169,209.245 100.227,211.500 100.298 M294.900 101.887 C 295.505 101.978,296.495 101.978,297.100 101.887 C 297.705 101.795,297.210 101.720,296.000 101.720 C 294.790 101.720,294.295 101.795,294.900 101.887 M302.713 102.295 C 303.876 102.376,305.676 102.376,306.713 102.293 C 307.751 102.211,306.800 102.145,304.600 102.146 C 302.400 102.147,301.551 102.214,302.713 102.295 M136.261 102.800 C 136.128 103.130,135.456 105.020,134.766 107.000 C 131.509 116.349,130.100 118.309,118.775 129.236 C 105.403 142.138,91.600 158.811,91.600 162.061 C 91.600 163.485,95.133 162.292,97.214 160.164 C 100.609 156.692,106.750 151.485,114.611 145.410 C 130.964 132.775,136.410 126.627,139.405 117.420 L 140.531 113.957 139.894 111.018 C 139.149 107.588,136.628 101.885,136.261 102.800 M289.058 105.600 C 280.610 112.052,276.996 115.103,274.844 117.600 L 272.603 120.200 274.645 118.337 C 277.290 115.924,278.449 115.357,288.118 111.752 C 296.479 108.634,307.101 103.768,306.613 103.279 C 306.461 103.126,303.332 102.910,299.661 102.800 L 292.986 102.600 289.058 105.600 M154.187 117.123 C 153.799 118.155,152.892 120.184,152.171 121.631 L 150.859 124.262 152.264 128.002 C 156.019 137.998,157.133 150.304,154.952 157.700 C 154.776 158.298,155.027 158.401,156.673 158.405 C 160.379 158.416,160.536 158.551,160.238 161.460 L 159.978 164.000 165.621 164.000 L 171.264 164.000 170.990 165.300 C 170.839 166.015,170.143 168.140,169.443 170.022 L 168.170 173.445 171.319 171.660 C 174.832 169.670,175.816 168.451,177.661 163.800 C 180.556 156.506,177.836 149.478,165.743 133.000 C 160.312 125.601,158.746 123.159,156.585 118.723 L 154.891 115.246 154.187 117.123 M149.481 126.672 C 147.643 129.584,142.024 136.327,140.170 137.846 C 139.185 138.653,138.459 139.392,138.556 139.489 C 138.653 139.587,137.640 141.226,136.306 143.133 C 131.266 150.331,127.158 157.064,125.456 160.911 L 124.444 163.200 127.322 163.177 L 130.200 163.154 134.400 157.313 C 142.020 146.717,143.703 143.174,143.810 137.504 C 143.854 135.144,144.039 134.220,144.588 133.614 C 145.288 132.840,146.254 132.866,145.772 133.645 C 145.640 133.860,145.761 134.312,146.042 134.651 C 146.497 135.199,146.645 135.707,146.870 137.500 C 146.905 137.775,147.094 138.000,147.290 138.000 C 147.487 138.000,147.536 138.180,147.400 138.400 C 147.264 138.620,147.315 138.800,147.512 138.800 C 149.565 138.800,148.770 147.393,145.831 156.966 C 144.824 160.247,144.000 163.082,144.000 163.266 C 144.000 163.450,145.247 163.600,146.771 163.600 L 149.542 163.600 150.819 160.300 C 154.367 151.131,154.537 138.954,151.276 127.605 L 150.530 125.010 149.481 126.672 M97.391 132.979 C 94.316 134.150,91.129 135.400,90.308 135.756 C 88.655 136.474,85.788 140.034,82.580 145.351 L 80.679 148.501 78.439 148.262 C 77.208 148.130,75.390 147.919,74.400 147.792 L 72.600 147.561 70.699 150.114 C 65.931 156.517,60.400 169.878,60.400 174.991 C 60.400 175.517,67.805 176.729,68.256 176.277 C 68.383 176.151,69.018 174.462,69.668 172.524 C 71.004 168.538,74.066 161.854,74.748 161.432 C 75.362 161.053,75.329 161.246,74.361 163.685 C 73.682 165.398,71.618 173.459,71.604 174.455 C 71.602 174.595,73.445 174.934,75.700 175.209 C 77.955 175.483,80.152 175.836,80.582 175.993 C 81.288 176.251,81.561 175.679,83.427 170.039 C 87.587 157.463,94.498 143.548,101.490 133.673 C 103.772 130.450,103.952 130.480,97.391 132.979 M63.509 137.643 C 60.069 142.223,56.433 153.494,54.426 165.800 C 53.960 168.660,53.501 171.360,53.407 171.800 C 53.264 172.467,53.448 172.603,54.517 172.618 C 55.223 172.627,56.700 172.717,57.800 172.818 L 59.800 173.000 59.911 171.400 C 60.396 164.400,62.347 154.426,64.656 147.133 C 66.743 140.543,65.992 134.336,63.509 137.643 M308.647 147.028 C 302.211 157.206,294.138 160.492,273.800 161.210 C 260.021 161.697,252.648 162.222,248.317 163.025 C 243.728 163.876,244.028 163.736,240.538 166.653 C 234.400 171.783,227.795 176.078,219.056 180.622 C 216.007 182.207,213.757 183.586,214.056 183.687 C 214.355 183.787,213.880 184.100,213.000 184.383 C 212.120 184.665,211.229 185.055,211.020 185.248 C 210.811 185.442,210.316 185.600,209.920 185.600 C 208.952 185.600,208.984 185.703,211.130 189.549 L 213.000 192.899 221.200 195.873 C 237.254 201.697,242.466 202.941,250.800 202.937 C 256.840 202.934,256.418 203.305,249.526 204.058 C 243.771 204.687,237.540 204.088,226.026 201.799 C 221.090 200.818,217.011 200.057,216.962 200.108 C 216.912 200.158,218.088 202.450,219.575 205.200 C 221.061 207.950,222.109 210.265,221.904 210.345 C 221.698 210.425,219.821 210.275,217.732 210.012 C 213.189 209.440,213.353 209.336,214.805 211.879 L 215.974 213.926 219.487 214.185 C 221.419 214.327,223.390 214.603,223.866 214.798 C 224.498 215.056,224.793 214.996,224.954 214.576 C 225.135 214.103,226.521 213.999,232.687 213.994 C 249.564 213.979,253.587 213.019,264.167 206.476 C 284.674 193.794,300.872 173.270,308.597 150.180 C 310.253 145.233,310.265 144.470,308.647 147.028 M214.893 149.200 C 214.893 149.970,214.975 150.285,215.076 149.900 C 215.176 149.515,215.176 148.885,215.076 148.500 C 214.975 148.115,214.893 148.430,214.893 149.200 M123.600 149.834 C 122.830 150.380,120.040 151.925,117.400 153.267 C 111.954 156.034,108.604 158.299,106.017 160.963 L 104.233 162.800 105.417 162.798 C 106.323 162.796,107.115 162.271,108.800 160.559 C 112.974 156.316,116.369 153.820,113.778 156.899 C 112.702 158.178,110.800 161.683,110.800 162.387 C 110.800 162.620,111.739 162.800,112.955 162.800 L 115.111 162.800 118.123 158.300 C 119.779 155.825,122.048 152.675,123.165 151.300 C 124.283 149.925,125.152 148.809,125.098 148.820 C 125.044 148.830,124.370 149.287,123.600 149.834 M43.956 168.900 C 42.124 170.935,41.070 172.213,41.613 171.740 C 42.436 171.023,42.942 170.915,44.665 171.088 L 46.731 171.295 46.998 168.948 C 47.145 167.656,47.353 166.285,47.460 165.900 C 47.781 164.741,47.426 165.045,43.956 168.900 M287.600 173.472 C 287.600 178.037,284.979 180.352,277.691 182.225 C 275.237 182.856,273.680 183.491,273.091 184.101 C 270.534 186.746,269.644 187.200,267.009 187.200 L 264.479 187.200 263.746 185.427 C 262.951 183.504,262.986 183.520,258.243 182.968 L 255.886 182.694 256.137 178.873 C 256.466 173.868,255.909 174.131,264.495 174.928 C 275.163 175.919,280.490 175.642,285.400 173.843 C 287.266 173.159,287.600 173.103,287.600 173.472 M160.581 183.700 L 159.000 185.400 160.700 183.819 C 162.281 182.348,162.584 182.000,162.281 182.000 C 162.216 182.000,161.451 182.765,160.581 183.700 M11.455 209.600 C 11.824 217.973,13.163 228.985,14.363 233.508 C 14.690 234.742,16.055 235.063,19.061 234.612 L 20.743 234.360 18.741 229.880 C 15.254 222.078,12.869 214.398,11.448 206.400 C 11.350 205.850,11.353 207.290,11.455 209.600 M225.200 215.479 C 225.200 217.862,229.660 221.120,230.675 219.479 C 230.793 219.287,231.230 219.219,231.645 219.328 C 232.060 219.436,232.493 219.374,232.607 219.189 C 232.721 219.005,233.353 218.869,234.013 218.888 C 235.350 218.926,236.015 218.532,235.157 218.209 C 233.837 217.714,225.200 215.345,225.200 215.479 M355.600 220.609 C 355.600 222.215,353.427 223.118,352.036 222.090 L 350.975 221.305 351.187 223.057 C 351.399 224.802,351.416 224.818,355.740 227.412 L 360.079 230.016 361.397 229.202 C 362.652 228.426,364.012 226.295,363.989 225.140 C 363.967 224.020,355.600 219.502,355.600 220.609 M12.400 289.005 C 12.400 289.225,15.242 299.375,15.328 299.461 C 15.387 299.520,18.487 300.210,22.218 300.994 C 25.948 301.777,29.343 302.525,29.761 302.656 C 30.479 302.879,30.473 302.812,29.661 301.499 C 28.315 299.321,28.647 299.228,30.502 301.264 L 32.200 303.128 40.400 304.902 C 44.910 305.878,48.645 306.644,48.701 306.604 C 49.210 306.238,46.724 301.232,44.721 298.589 L 42.251 295.329 27.326 292.137 C 19.117 290.382,12.400 288.972,12.400 289.005 M57.200 304.619 C 57.200 307.408,60.547 314.800,61.810 314.800 C 62.095 314.800,62.412 315.668,62.574 316.890 C 62.869 319.115,64.151 321.528,67.887 326.888 C 70.704 330.931,70.698 330.932,70.136 326.668 C 69.871 324.650,69.641 320.258,69.627 316.908 C 69.600 310.927,69.583 310.811,68.700 310.610 C 68.205 310.497,66.720 310.176,65.400 309.895 L 63.000 309.385 62.881 306.903 L 62.762 304.421 61.281 304.043 C 57.138 302.987,57.200 302.978,57.200 304.619 M85.475 312.122 C 83.948 315.937,83.162 319.217,83.732 319.398 C 83.989 319.480,85.387 319.804,86.839 320.120 L 89.478 320.693 90.894 317.846 C 91.673 316.281,92.951 314.196,93.735 313.213 C 94.518 312.230,95.117 311.384,95.067 311.333 C 94.905 311.172,87.633 309.600,87.047 309.600 C 86.731 309.600,86.044 310.703,85.475 312.122 M381.275 311.593 C 377.213 315.267,373.509 316.036,369.088 314.124 C 365.434 312.544,358.038 312.249,356.573 313.626 C 355.194 314.921,355.309 315.134,358.012 316.300 L 360.423 317.341 357.617 318.817 C 354.814 320.292,350.913 323.079,349.924 324.314 C 349.636 324.674,350.570 324.027,352.000 322.878 C 358.276 317.832,361.595 316.768,372.200 316.403 C 384.048 315.995,386.772 314.937,384.401 311.665 C 383.738 310.749,383.151 310.007,383.097 310.016 C 383.044 310.025,382.224 310.735,381.275 311.593 " stroke="none" fill="#de8c83" fill-rule="evenodd"></path></g></svg>