<svg viewBox="0 0 20 20" xmlns="http://www.w3.org/2000/svg">
    <path d="M18 0c1.1 0 2 .9 2 2v12c0 1.1-.9 2-2 2H4l-4 4V2C0 .9.9 0 2 0zm-7.868 2.222c-3.128 0-5.688 2.561-5.688 5.695 0 3.133 2.56 5.694 5.688 5.694 3.085 0 5.424-2.513 5.424-5.694v-.93h-5.291v2.124h3.016l-.006.02c-.44 1.411-1.665 2.356-3.143 2.356-1.95 0-3.571-1.621-3.571-3.57 0-1.95 1.62-3.57 3.571-3.57.954 0 1.815.393 2.462 1.09l.28.3 1.525-1.526-.284-.284c-1.085-1.086-2.468-1.705-3.983-1.705z" fill="#212428" fill-rule="evenodd"/>
</svg>