<svg viewBox="0 0 20 20" fill="none" xmlns="http://www.w3.org/2000/svg">
<path fill-rule="evenodd" clip-rule="evenodd" d="M10.2041 0C12.927 0 15.2181 0.971228 16.9784 2.55633L17.0315 2.60455L14.1048 5.47274C13.0473 4.48185 11.7022 3.97727 10.2041 3.97727C7.57294 3.97727 5.34182 5.70136 4.51895 8.02926L4.49444 8.09998C4.29032 8.7 4.17435 9.34091 4.17435 9.99997C4.17435 10.6591 4.29032 11.3 4.49444 11.9C5.29679 14.2636 7.54636 16.0227 10.2041 16.0227C11.5594 16.0227 12.7158 15.6772 13.6243 15.0911L13.6596 15.0682L13.6936 15.0457C14.744 14.3444 15.4466 13.3091 15.6881 12.0894L15.6958 12.05H10.2041V8.18183H19.8144C19.9351 8.83634 20 9.51821 20 10.2273C20 13.2727 18.8869 15.8363 16.9573 17.5773C15.269 19.1046 12.9592 20 10.2041 20C6.25504 20 2.83346 17.8037 1.13625 14.5887L1.08535 14.4909C0.394244 13.1409 0 11.6136 0 9.99997C0 8.4076 0.383958 6.89931 1.05822 5.56252L1.08535 5.50914C2.76439 2.24092 6.21516 0 10.2041 0Z" fill="#29a979"/>
</svg>
