<svg viewBox="0 0 24 24" xmlns="http://www.w3.org/2000/svg">
    <g fill="none" fill-rule="evenodd">
        <circle cx="12" cy="12" fill="#f5f8fa" r="12"/>
        <path d="M17.333 6c.734 0 1.334.6 1.334 1.333v8c0 .734-.6 1.334-1.334 1.334H8l-2.667 2.666v-12C5.333 6.6 5.933 6 6.667 6zm-5.245 1.481c-2.086 0-3.792 1.708-3.792 3.797s1.706 3.796 3.792 3.796c2.057 0 3.616-1.675 3.616-3.796v-.62h-3.528v1.416h2.011l-.004.013c-.293.941-1.11 1.571-2.095 1.571-1.3 0-2.38-1.08-2.38-2.38s1.08-2.38 2.38-2.38c.636 0 1.21.262 1.641.727l.186.2 1.018-1.018-.19-.19c-.723-.723-1.645-1.136-2.655-1.136z" fill="#29a979"/>
    </g>
</svg>