<svg viewBox="0 0 27 27" fill="none" xmlns="http://www.w3.org/2000/svg">
<rect x="0.5" y="0.5" width="26" height="26" rx="13" fill="#F5F8FA" stroke="#4BB3FD"/>
<path fill-rule="evenodd" clip-rule="evenodd" d="M13.6326 7C15.4026 7 16.8918 7.6313 18.0359 8.66161L18.0705 8.69296L16.1681 10.5573C15.4808 9.9132 14.6064 9.58523 13.6326 9.58523C11.9224 9.58523 10.4722 10.7059 9.93732 12.219L9.92139 12.265C9.78871 12.655 9.71333 13.0716 9.71333 13.5C9.71333 13.9284 9.78871 14.345 9.92139 14.735C10.4429 16.2714 11.9051 17.4148 13.6326 17.4148C14.5136 17.4148 15.2653 17.1902 15.8558 16.8092L15.8787 16.7943L15.9008 16.7797C16.5836 16.3238 17.0403 15.6509 17.1973 14.8581L17.2022 14.8325H13.6326V12.3182H19.8794C19.9578 12.7436 20 13.1868 20 13.6477C20 15.6273 19.2765 17.2936 18.0223 18.4252C16.9249 19.418 15.4235 20 13.6326 20C11.0658 20 8.84175 18.5724 7.73856 16.4826L7.70548 16.4191C7.25626 15.5416 7 14.5488 7 13.5C7 12.4649 7.24957 11.4846 7.68784 10.6156L7.70548 10.5809C8.79685 8.4566 11.0399 7 13.6326 7Z" fill="#259F6E"/>
</svg>
