<svg width="13" height="11" fill="currentColor" xmlns="http://www.w3.org/2000/svg">
<path d="M10.6364 11H2.36364C2.20692 11 2.05662 10.941 1.9458 10.836C1.83498 10.731 1.77273 10.5886 1.77273 10.4402V5.40157H0L6.10232 0.145759C6.21111 0.0519732 6.35291 0 6.5 0C6.64709 0 6.78889 0.0519732 6.89768 0.145759L13 5.40157H11.2273V10.4402C11.2273 10.5886 11.165 10.731 11.0542 10.836C10.9434 10.941 10.7931 11 10.6364 11ZM2.95455 9.88031H10.0455V4.36978L6.5 1.31639L2.95455 4.36978V9.88031ZM4.13636 7.64094H8.86364V8.76063H4.13636V7.64094Z"/>
</svg>
