<svg viewBox="0 0 21 21" fill="none" xmlns="http://www.w3.org/2000/svg">
<path fill-rule="evenodd" clip-rule="evenodd" d="M6.19403 18.3652C6.30527 18.3462 6.41951 18.3625 6.52145 18.4119C7.69246 18.9796 8.97525 19.278 10.3004 19.278C15.1883 19.278 19.1508 15.2163 19.1508 10.206C19.1508 5.19567 15.1883 1.134 10.3004 1.134C5.41252 1.134 1.45009 5.19567 1.45009 10.206C1.45009 12.1416 2.04227 13.9843 3.12562 15.5187C3.2424 15.6841 3.26341 15.9011 3.18062 16.0868L1.83266 19.1103L6.19403 18.3652ZM0.98788 20.4043C0.55066 20.479 0.209606 20.0225 0.393843 19.6093L2.04298 15.9103C0.942781 14.2403 0.343797 12.2687 0.343797 10.206C0.343797 4.56938 4.80153 0 10.3004 0C15.7993 0 20.2571 4.56938 20.2571 10.206C20.2571 15.8426 15.7993 20.412 10.3004 20.412C8.87058 20.412 7.48255 20.1025 6.20774 19.5125L0.98788 20.4043Z" fill="#1578D4"/>
</svg>
