<svg viewBox="0 0 24 24" xmlns="http://www.w3.org/2000/svg">
    <path d="M6.67 20.194a.565.565 0 0 1 .345.05 9.028 9.028 0 0 0 3.985.923c5.155 0 9.333-4.328 9.333-9.667 0-5.339-4.178-9.667-9.333-9.667S1.667 6.161 1.667 11.5c0 2.063.624 4.026 1.767 5.661a.622.622 0 0 1 .058.605L2.07 20.988l4.6-.794zm-5.49 2.173c-.462.08-.822-.407-.627-.847l1.739-3.942A11.101 11.101 0 0 1 .5 11.5C.5 5.494 5.201.625 11 .625S21.5 5.494 21.5 11.5 16.799 22.375 11 22.375a10.16 10.16 0 0 1-4.316-.958l-5.505.95z" fill="currentColor"/>
</svg>