<svg viewBox="0 0 30 30" fill="none" xmlns="http://www.w3.org/2000/svg">
<path d="M14.9971 0C8.73799 0 6.90744 0.00645697 6.55162 0.0359745C5.26714 0.142745 4.46786 0.344987 3.59709 0.778526C2.92603 1.11175 2.39679 1.49802 1.87447 2.03948C0.923218 3.02693 0.346703 4.24177 0.138005 5.68582C0.0365382 6.38686 0.00702067 6.52984 0.00102492 10.1107C-0.00128114 11.3043 0.00102492 12.8752 0.00102492 14.9822C0.00102492 21.2363 0.0079431 23.065 0.0379219 23.4201C0.141695 24.67 0.33771 25.4564 0.7528 26.3165C1.54609 27.9631 3.06117 29.1991 4.84606 29.6603C5.46408 29.8194 6.14668 29.9071 7.02298 29.9486C7.39425 29.9647 11.1785 29.9762 14.965 29.9762C18.7516 29.9762 22.5381 29.9716 22.9002 29.9532C23.9149 29.9055 24.5041 29.8264 25.1555 29.658C26.0406 29.4311 26.8654 29.0136 27.5723 28.4349C28.2793 27.8562 28.8515 27.1301 29.2488 26.3073C29.6558 25.4679 29.8622 24.6516 29.9556 23.4669C29.9759 23.2087 29.9844 19.0907 29.9844 14.9783C29.9844 10.8652 29.9752 6.75491 29.9549 6.49663C29.8603 5.29287 29.654 4.48344 29.2338 3.62789C28.889 2.92754 28.5062 2.40453 27.9505 1.86975C26.9589 0.922424 25.7459 0.345909 24.3002 0.137441C23.5999 0.0362052 23.4603 0.00622636 19.8767 0H14.9971Z" fill="url(#paint0_radial_181_327)"/>
<path d="M14.9896 3.91968C11.9834 3.91968 11.6061 3.93282 10.4254 3.98655C9.24703 4.04052 8.44268 4.22708 7.73887 4.50081C7.01084 4.78353 6.39328 5.16172 5.77802 5.77721C5.16231 6.39247 4.78411 7.01003 4.50047 7.73782C4.22604 8.44186 4.03925 9.24645 3.98621 10.4244C3.93364 11.6051 3.9198 11.9826 3.9198 14.9888C3.9198 17.9949 3.93318 18.3711 3.98668 19.5518C4.04087 20.7302 4.22743 21.5345 4.50093 22.2383C4.78388 22.9664 5.16207 23.5839 5.77756 24.1992C6.39259 24.8149 7.01015 25.194 7.73771 25.4767C8.44198 25.7505 9.24657 25.937 10.4247 25.991C11.6054 26.0447 11.9825 26.0579 14.9884 26.0579C17.9948 26.0579 18.371 26.0447 19.5517 25.991C20.7301 25.937 21.5353 25.7505 22.2396 25.4767C22.9674 25.194 23.584 24.8149 24.1991 24.1992C24.8148 23.5839 25.193 22.9664 25.4766 22.2386C25.7487 21.5345 25.9355 20.7299 25.9909 19.552C26.0439 18.3713 26.0577 17.9949 26.0577 14.9888C26.0577 11.9826 26.0439 11.6053 25.9909 10.4246C25.9355 9.24622 25.7487 8.44186 25.4766 7.73805C25.193 7.01003 24.8148 6.39247 24.1991 5.77721C23.5833 5.16149 22.9676 4.7833 22.2389 4.50081C21.5333 4.22708 20.7284 4.04052 19.55 3.98655C18.3693 3.93282 17.9935 3.91968 14.9864 3.91968H14.9896ZM13.9966 5.91442C14.2913 5.91396 14.6201 5.91442 14.9896 5.91442C17.945 5.91442 18.2953 5.92503 19.4624 5.97807C20.5417 6.02742 21.1274 6.20775 21.5176 6.35926C22.0341 6.55989 22.4024 6.79972 22.7896 7.18713C23.177 7.57455 23.4168 7.94352 23.6179 8.46008C23.7694 8.8498 23.95 9.43554 23.9991 10.5148C24.0522 11.6816 24.0637 12.0322 24.0637 14.9862C24.0637 17.9403 24.0522 18.2908 23.9991 19.4577C23.9498 20.5369 23.7694 21.1227 23.6179 21.5124C23.4173 22.0289 23.177 22.3968 22.7896 22.7839C22.4022 23.1714 22.0344 23.4112 21.5176 23.6118C21.1279 23.764 20.5417 23.9439 19.4624 23.9932C18.2955 24.0463 17.945 24.0578 14.9896 24.0578C12.0339 24.0578 11.6836 24.0463 10.5167 23.9932C9.43751 23.9434 8.85177 23.7631 8.46135 23.6116C7.9448 23.411 7.57583 23.1711 7.18841 22.7837C6.80099 22.3963 6.56116 22.0282 6.36007 21.5115C6.20856 21.1217 6.028 20.536 5.97888 19.4568C5.92584 18.2899 5.91523 17.9394 5.91523 14.9835C5.91523 12.0276 5.92584 11.6789 5.97888 10.512C6.02823 9.43278 6.20856 8.84704 6.36007 8.45685C6.5607 7.94029 6.80099 7.57132 7.18841 7.18391C7.57583 6.79649 7.9448 6.55666 8.46135 6.35557C8.85154 6.20337 9.43751 6.0235 10.5167 5.97392C11.5379 5.9278 11.9336 5.91396 13.9966 5.91165V5.91442ZM20.8982 7.75235C20.6354 7.75235 20.3786 7.83026 20.1602 7.97624C19.9417 8.12221 19.7715 8.32969 19.6709 8.57243C19.5704 8.81517 19.5441 9.08227 19.5954 9.33995C19.6467 9.59762 19.7733 9.8343 19.9591 10.02C20.1449 10.2058 20.3816 10.3323 20.6393 10.3835C20.897 10.4347 21.1641 10.4083 21.4068 10.3077C21.6495 10.2071 21.8569 10.0368 22.0028 9.81826C22.1487 9.59977 22.2266 9.34291 22.2265 9.08018C22.2265 8.34685 21.6315 7.75189 20.8982 7.75189V7.75235ZM14.9896 9.30433C11.8503 9.30433 9.30514 11.8495 9.30514 14.9888C9.30514 18.128 11.8503 20.6721 14.9896 20.6721C18.1288 20.6721 20.6733 18.128 20.6733 14.9888C20.6733 11.8495 18.1286 9.30433 14.9893 9.30433H14.9896ZM14.9896 11.2991C17.0272 11.2991 18.6793 12.9509 18.6793 14.9888C18.6793 17.0264 17.0272 18.6785 14.9896 18.6785C12.9517 18.6785 11.2999 17.0264 11.2999 14.9888C11.2999 12.9509 12.9517 11.2991 14.9896 11.2991Z" fill="white"/>
<path d="M15.0127 0C8.75362 0 6.92307 0.00645697 6.56724 0.0359745C5.28277 0.142745 4.48349 0.344987 3.61272 0.778526C2.94166 1.11175 2.41242 1.49802 1.89009 2.03948C0.938843 3.02693 0.362328 4.24177 0.15363 5.68582C0.0521632 6.38686 0.0226457 6.52984 0.0166499 10.1107C0.0143439 11.3043 0.0166499 12.8752 0.0166499 14.9822C0.0166499 21.2363 0.0235681 23.065 0.0535469 23.4201C0.15732 24.67 0.353335 25.4564 0.768425 26.3165C1.56171 27.9631 3.07679 29.1991 4.86168 29.6603C5.47971 29.8194 6.1623 29.9071 7.0386 29.9486C7.40988 29.9647 11.1941 29.9762 14.9807 29.9762C18.7672 29.9762 22.5538 29.9716 22.9158 29.9532C23.9305 29.9055 24.5197 29.8264 25.1712 29.658C26.0562 29.4311 26.881 29.0136 27.588 28.4349C28.295 27.8562 28.8671 27.1301 29.2644 26.3073C29.6714 25.4679 29.8778 24.6516 29.9712 23.4669C29.9915 23.2087 30 19.0907 30 14.9783C30 10.8652 29.9908 6.75491 29.9705 6.49663C29.876 5.29287 29.6696 4.48344 29.2494 3.62789C28.9047 2.92754 28.5219 2.40453 27.9661 1.86975C26.9745 0.922424 25.7615 0.345909 24.3158 0.137441C23.6155 0.0362052 23.476 0.00622636 19.8924 0H15.0127Z" fill="url(#paint1_radial_181_327)"/>
<defs>
<radialGradient id="paint0_radial_181_327" cx="0" cy="0" r="1" gradientUnits="userSpaceOnUse" gradientTransform="translate(7.96465 32.285) rotate(-90) scale(29.7087 27.6389)">
<stop stop-color="#FFDD55"/>
<stop offset="0.1" stop-color="#FFDD55"/>
<stop offset="0.5" stop-color="#FF543E"/>
<stop offset="1" stop-color="#C837AB"/>
</radialGradient>
<radialGradient id="paint1_radial_181_327" cx="0" cy="0" r="1" gradientUnits="userSpaceOnUse" gradientTransform="translate(-5.00692 2.15944) rotate(78.6776) scale(13.28 54.7547)">
<stop stop-color="#3771C8"/>
<stop offset="0.128" stop-color="#3771C8"/>
<stop offset="1" stop-color="#6600FF" stop-opacity="0"/>
</radialGradient>
</defs>
</svg>
