<?xml version="1.0" encoding="UTF-8" standalone="no" ?>
<!DOCTYPE svg PUBLIC "-//W3C//DTD SVG 1.1//EN" "http://www.w3.org/Graphics/SVG/1.1/DTD/svg11.dtd">
<svg xmlns="http://www.w3.org/2000/svg" xmlns:xlink="http://www.w3.org/1999/xlink" version="1.1" width="350" height="350" viewBox="0 0 350 350" xml:space="preserve">
<desc>Created with Fabric.js 1.7.22</desc>
<defs>
</defs>
<g id="icon" style="stroke: none; stroke-width: 1; stroke-dasharray: none; stroke-linecap: butt; stroke-linejoin: miter; stroke-miterlimit: 10; fill: none; fill-rule: nonzero; opacity: 1;" transform="translate(-1.9444444444444287 -1.9444444444444287) scale(3.89 3.89)" >
	<linearGradient id="SVGID_0" gradientUnits="userSpaceOnUse" gradientTransform="matrix(1 0 0 -1 0 92)"  x1="7.5528" y1="9.5531" x2="82.4473" y2="84.4475">
<stop offset="0%" style="stop-color:rgb(255,214,0);stop-opacity: 1"/>
<stop offset="50%" style="stop-color:rgb(255,1,0);stop-opacity: 1"/>
<stop offset="100%" style="stop-color:rgb(216,0,185);stop-opacity: 1"/>
</linearGradient>
<path d="M 89.729 26.447 c -0.219 -4.79 -0.98 -8.061 -2.092 -10.923 c -1.13 -3.003 -2.901 -5.723 -5.19 -7.971 c -2.247 -2.289 -4.968 -4.062 -7.971 -5.192 C 71.614 1.25 68.343 0.49 63.553 0.272 C 58.754 0.053 57.221 0 45 0 S 31.246 0.053 26.447 0.271 c -4.79 0.219 -8.061 0.98 -10.923 2.092 c -3.003 1.13 -5.723 2.901 -7.971 5.19 c -2.289 2.247 -4.062 4.967 -5.192 7.97 C 1.25 18.386 0.49 21.657 0.272 26.446 C 0.052 31.246 0 32.779 0 45 c 0 12.222 0.052 13.755 0.272 18.554 c 0.218 4.789 0.979 8.061 2.092 10.923 c 1.13 3.002 2.901 5.723 5.19 7.97 c 2.247 2.289 4.968 4.061 7.971 5.19 c 2.862 1.113 6.133 1.873 10.923 2.092 C 31.247 89.948 32.78 90 45.001 90 s 13.754 -0.051 18.553 -0.271 c 4.79 -0.219 8.061 -0.979 10.923 -2.092 c 6.045 -2.337 10.823 -7.116 13.16 -13.16 c 1.113 -2.863 1.873 -6.134 2.092 -10.923 C 89.948 58.754 90 57.221 90 45 C 90 32.779 89.948 31.246 89.729 26.447 z M 81.629 63.185 c -0.2 4.388 -0.933 6.77 -1.549 8.356 c -1.514 3.925 -4.616 7.026 -8.54 8.54 c -1.585 0.616 -3.968 1.349 -8.356 1.549 C 58.44 81.847 57.016 81.892 45 81.892 c -12.017 0 -13.44 -0.045 -18.184 -0.262 c -4.387 -0.2 -6.77 -0.933 -8.356 -1.549 c -1.954 -0.722 -3.722 -1.872 -5.174 -3.367 c -1.495 -1.452 -2.645 -3.219 -3.367 -5.174 c -0.616 -1.585 -1.349 -3.968 -1.549 -8.356 c -0.216 -4.745 -0.262 -6.168 -0.262 -18.184 c 0 -12.016 0.046 -13.439 0.262 -18.184 c 0.201 -4.388 0.933 -6.77 1.549 -8.356 c 0.722 -1.955 1.872 -3.723 3.367 -5.175 c 1.452 -1.495 3.22 -2.645 5.175 -3.366 c 1.585 -0.617 3.968 -1.349 8.356 -1.55 C 31.561 8.154 32.984 8.108 45 8.108 h -0.001 c 12.016 0 13.439 0.046 18.184 0.263 c 4.388 0.2 6.77 0.933 8.356 1.549 c 1.954 0.722 3.722 1.872 5.174 3.366 c 1.495 1.452 2.645 3.22 3.366 5.175 c 0.617 1.585 1.35 3.968 1.55 8.356 c 0.216 4.745 0.262 6.168 0.262 18.184 C 81.891 57.017 81.846 58.439 81.629 63.185 z" style="stroke: none; stroke-width: 1; stroke-dasharray: none; stroke-linecap: butt; stroke-linejoin: miter; stroke-miterlimit: 10; fill: url(#SVGID_0); fill-rule: nonzero; opacity: 1;" transform=" matrix(1 0 0 1 0 0) " stroke-linecap="round" />
	<linearGradient id="SVGID_1" gradientUnits="userSpaceOnUse" gradientTransform="matrix(1 0 0 -1 0 92)"  x1="28.6598" y1="30.66" x2="61.3394" y2="63.3397">
<stop offset="0%" style="stop-color:rgb(255,100,0);stop-opacity: 1"/>
<stop offset="50%" style="stop-color:rgb(255,1,0);stop-opacity: 1"/>
<stop offset="100%" style="stop-color:rgb(253,0,86);stop-opacity: 1"/>
</linearGradient>
<path d="M 44.999 21.892 c -12.762 0 -23.108 10.346 -23.108 23.108 s 10.346 23.108 23.108 23.108 c 12.763 0 23.108 -10.346 23.108 -23.108 S 57.762 21.892 44.999 21.892 z M 44.999 60 C 36.716 59.999 30 53.284 30 45 c 0 -8.284 6.715 -15 15 -15 c 8.284 0.001 15 6.716 15 15 C 60 53.284 53.284 60 44.999 60 z" style="stroke: none; stroke-width: 1; stroke-dasharray: none; stroke-linecap: butt; stroke-linejoin: miter; stroke-miterlimit: 10; fill: url(#SVGID_1); fill-rule: nonzero; opacity: 1;" transform=" matrix(1 0 0 1 0 0) " stroke-linecap="round" />
	<linearGradient id="SVGID_2" gradientUnits="userSpaceOnUse" gradientTransform="matrix(1 0 0 -1 0 92)"  x1="65.2021" y1="67.2024" x2="72.8391" y2="74.8394">
<stop offset="0%" style="stop-color:rgb(243,0,114);stop-opacity: 1"/>
<stop offset="100%" style="stop-color:rgb(229,0,151);stop-opacity: 1"/>
</linearGradient>
<path d="M 74.421 20.979 c 0 2.982 -2.418 5.4 -5.4 5.4 c -2.983 0 -5.4 -2.418 -5.4 -5.4 c 0 -2.983 2.418 -5.4 5.4 -5.4 C 72.003 15.579 74.421 17.997 74.421 20.979 z" style="stroke: none; stroke-width: 1; stroke-dasharray: none; stroke-linecap: butt; stroke-linejoin: miter; stroke-miterlimit: 10; fill: url(#SVGID_2); fill-rule: nonzero; opacity: 1;" transform=" matrix(1 0 0 1 0 0) " stroke-linecap="round" />
</g>
</svg>