<svg viewBox="0 0 27 27" fill="none" xmlns="http://www.w3.org/2000/svg">
<rect x="0.5" y="0.5" width="26" height="26" rx="13" fill="#F5F8FA" stroke="#4BB3FD"/>
<path d="M17.8334 7H9.16662C8.59198 7 8.04092 7.22824 7.63458 7.63458C7.22824 8.04092 7 8.59198 7 9.16662V17.8334C7 18.408 7.22824 18.9591 7.63458 19.3654C8.04092 19.7718 8.59198 20 9.16662 20H17.8334C18.408 20 18.9591 19.7718 19.3654 19.3654C19.7718 18.9591 20 18.408 20 17.8334V9.16662C20 8.59198 19.7718 8.04092 19.3654 7.63458C18.9591 7.22824 18.408 7 17.8334 7V7ZM18.9167 17.8333H18.9166C18.9166 18.1206 18.8026 18.3962 18.5994 18.5993C18.3962 18.8025 18.1207 18.9166 17.8334 18.9166H9.16662C8.87935 18.9166 8.60377 18.8025 8.40065 18.5993C8.19744 18.3962 8.08336 18.1206 8.08336 17.8333V9.16657C8.08336 8.8793 8.19744 8.60372 8.40065 8.4006C8.60377 8.19739 8.87935 8.08331 9.16662 8.08331H17.8334C18.1207 8.08331 18.3962 8.19739 18.5994 8.4006C18.8026 8.60372 18.9166 8.8793 18.9166 9.16657L18.9167 17.8333Z" fill="#E52765"/>
<path d="M13.5 10.25C12.6381 10.25 11.8114 10.5924 11.2019 11.2019C10.5924 11.8114 10.25 12.6381 10.25 13.5C10.25 14.3619 10.5924 15.1885 11.2019 15.7981C11.8114 16.4075 12.6381 16.75 13.5 16.75C14.3619 16.75 15.1885 16.4075 15.7981 15.7981C16.4075 15.1885 16.75 14.3619 16.75 13.5C16.75 12.6381 16.4075 11.8114 15.7981 11.2019C15.1885 10.5924 14.3619 10.25 13.5 10.25ZM13.5 15.6666C12.9253 15.6666 12.3743 15.4383 11.9679 15.032C11.5616 14.6256 11.3334 14.0746 11.3334 13.4999C11.3334 12.9253 11.5616 12.3742 11.9679 11.9679C12.3743 11.5616 12.9253 11.3333 13.5 11.3333C14.0746 11.3333 14.6257 11.5616 15.032 11.9679C15.4384 12.3742 15.6666 12.9253 15.6666 13.4999C15.6666 14.0746 15.4384 14.6256 15.032 15.032C14.6257 15.4383 14.0746 15.6666 13.5 15.6666Z" fill="#E52765"/>
<path d="M17.833 9.97949C17.833 10.4283 17.4692 10.792 17.0205 10.792C16.5717 10.792 16.208 10.4283 16.208 9.97949C16.208 9.5308 16.5717 9.16699 17.0205 9.16699C17.4692 9.16699 17.833 9.5308 17.833 9.97949Z" fill="#E52765"/>
</svg>
