<svg viewBox="0 0 22 22" fill="none" xmlns="http://www.w3.org/2000/svg">
<path d="M0.95 11C0.95 16.5505 5.44954 21.05 11 21.05C16.5505 21.05 21.05 16.5505 21.05 11C21.05 5.44954 16.5505 0.95 11 0.95C5.44954 0.95 0.95 5.44954 0.95 11ZM19.8974 11C19.8974 15.9139 15.9139 19.8974 11 19.8974C6.08612 19.8974 2.10263 15.9139 2.10263 11C2.10263 6.08612 6.08612 2.10263 11 2.10263C15.9139 2.10263 19.8974 6.08612 19.8974 11ZM16.2632 10.4237H7.12819L10.3549 7.19699C10.58 6.97193 10.58 6.60702 10.3549 6.38196C10.1298 6.15689 9.76492 6.15689 9.53985 6.38196L5.32933 10.5925C5.10426 10.8175 5.10426 11.1825 5.32933 11.4075L9.53985 15.618C9.76492 15.8431 10.1298 15.8431 10.3549 15.618C10.58 15.393 10.58 15.0281 10.3549 14.803L7.12819 11.5763H16.2632C16.5814 11.5763 16.8395 11.3183 16.8395 11C16.8395 10.6817 16.5814 10.4237 16.2632 10.4237Z" fill="currentColor" stroke="#737373" stroke-width="0.1"/>
</svg>
