<svg viewBox="0 0 16 16" xmlns="http://www.w3.org/2000/svg"><path d="m8 8.32531414c.3542423-.31707387.7869886-.5528377 1.27239312-.67418883l.97014248-.24253562c.445167-.11129175.7574644-.51127486.7574644-.9701425v-.6091529c-1.16519237-.41183641-2-1.52307546-2-2.82929429 0-1.65685425 1.3431458-3 3-3s3 1.34314575 3 3c0 1.30621883-.8348076 2.41745788-2 2.82929429v.6091529c0 1.37660292-.9368921 2.57655225-2.2723931 2.9104275l-.97014253.24253562c-.32091669.08022918-.57278327.3104864-.68837987.60467809 1.1289643.430706 1.9309155 1.5236559 1.9309155 2.8039116 0 1.6568542-1.34314575 3-3 3s-3-1.3431458-3-3c0-1.2802557.80195123-2.3732056 1.9309155-2.8039116-.1155966-.29419169-.36746318-.52444891-.68837987-.60467809l-.97014251-.24253562c-1.335501-.33387525-2.27239312-1.53382458-2.27239312-2.9104275v-.6091529c-1.16519237-.41183641-2-1.52307546-2-2.82929429 0-1.65685425 1.34314575-3 3-3s3 1.34314575 3 3c0 1.30621883-.83480763 2.41745788-2 2.82929429v.6091529c0 .45886764.31229737.85885075.75746437.9701425l.97014251.24253562c.48540452.12135113.91815082.35711496 1.27239312.67418883zm-4-4.32531414c.55228475 0 1-.44771525 1-1s-.44771525-1-1-1-1 .44771525-1 1 .44771525 1 1 1zm8 0c.5522847 0 1-.44771525 1-1s-.4477153-1-1-1-1 .44771525-1 1 .4477153 1 1 1z" /></svg>