<svg viewBox="0 0 96 96" xmlns="http://www.w3.org/2000/svg">
    <g fill="none" fill-rule="evenodd">
        <circle fill="#F5F8FA" cx="48" cy="48" r="48"/>
        <path d="M48 21.334c15.023 0 26.667 11.005 26.667 25.867 0 14.863-11.644 25.867-26.667 25.867-2.699 0-5.29-.354-7.721-1.024a2.123 2.123 0 0 0-1.146.007l-.276.1-5.29 2.334a2.138 2.138 0 0 1-2.968-1.612l-.026-.277-.145-4.743a2.149 2.149 0 0 0-.72-1.518c-5.188-4.641-8.375-11.36-8.375-19.134 0-14.862 11.644-25.867 26.667-25.867zM64.01 41.24c.715-1.125-.556-2.389-1.645-1.807l-.19.122-8.412 6.385a1.602 1.602 0 0 1-1.702.146l-.225-.14-6.229-4.674a4.005 4.005 0 0 0-5.55.735l-.234.333-7.834 12.427c-.714 1.125.557 2.388 1.646 1.807l.19-.123 8.412-6.385a1.602 1.602 0 0 1 1.702-.146l.225.141 6.229 4.673a4.005 4.005 0 0 0 5.55-.734l.234-.333 7.834-12.427z" fill="#1578D4"/>
    </g>
</svg>