<svg xmlns="http://www.w3.org/2000/svg" width="24" height="24" viewBox="0 0 24 24">
  <path fill="currentColor" d="M9,6.00760139 L9,12.0308034 C9,13.6918558 10.346549,15.0384048 12.0076014,15.0384048 C13.6686538,15.0384048 15.0152028,13.6918558 15.0152028,12.0308034 L15.0152028,6.00760139 C15.0152028,4.34654901 13.6686538,3 12.0076014,3 C10.346549,3 9,4.34654901 9,6.00760139 Z M11,21 L13,21 L13,18.9291111 C12.673397,18.975828 12.3395213,19 12,19 C11.6604787,19 11.326603,18.975828 11,18.9291111 L11,21 Z M10,21 L10,18.7101213 C7.10851105,17.8495721 5,15.1710206 5,12 L5,11.5 C5,11.2238576 5.22385763,11 5.5,11 C5.77614237,11 6,11.2238576 6,11.5 L6,12 C6,15.3137085 8.6862915,18 12,18 C15.3137085,18 18,15.3137085 18,12 L18,11.5 C18,11.2238576 18.2238576,11 18.5,11 C18.7761424,11 19,11.2238576 19,11.5 L19,12 C19,15.1710206 16.8914889,17.8495721 14,18.7101213 L14,21 L16.5,21 C16.7761424,21 17,21.2238576 17,21.5 C17,21.7761424 16.7761424,22 16.5,22 L7.5,22 C7.22385763,22 7,21.7761424 7,21.5 C7,21.2238576 7.22385763,21 7.5,21 L10,21 Z M8,6.00760139 C8,3.79426426 9.79426426,2 12.0076014,2 C14.2209385,2 16.0152028,3.79426426 16.0152028,6.00760139 L16.0152028,12.0308034 C16.0152028,14.2441406 14.2209385,16.0384048 12.0076014,16.0384048 C9.79426426,16.0384048 8,14.2441406 8,12.0308034 L8,6.00760139 Z"/>
</svg>
