<?xml version="1.0" encoding="utf-8"?>
<!-- Generator: Adobe Illustrator 24.1.1, SVG Export Plug-In . SVG Version: 6.00 Build 0)  -->
<svg version="1.1" id="Layer_1" xmlns="http://www.w3.org/2000/svg" xmlns:xlink="http://www.w3.org/1999/xlink" x="0px" y="0px"
	 viewBox="0 0 512 512" style="enable-background:new 0 0 512 512;" xml:space="preserve">
<style type="text/css">
	.st0{fill-rule:evenodd;clip-rule:evenodd;}
</style>
<g>
	<path class="st0" d="M112,208c8.8,0,16,7.2,16,16v32c0,70.7,57.3,128,128,128s128-57.3,128-128v-32c0-8.8,7.2-16,16-16
		s16,7.2,16,16v32c0,82.2-62.3,151-144,159.2V480h96c8.8,0,16,7.2,16,16s-7.2,16-16,16H144c-8.8,0-16-7.2-16-16s7.2-16,16-16h96
		v-64.8C158.3,407,96,338.2,96,256v-32C96,215.2,103.2,208,112,208z"/>
	<path class="st0" d="M320,256V96c0-35.4-28.6-64-64-64s-64,28.6-64,64v160c0,35.4,28.6,64,64,64S320,291.4,320,256z M256,0
		c-53,0-96,43-96,96v160c0,53,43,96,96,96s96-43,96-96V96C352,43,309,0,256,0z"/>
</g>
</svg>
