<svg xmlns="http://www.w3.org/2000/svg" width="24" height="24" viewBox="0 0 24 24">
  <path d="M17.1459084,11.1469857 C17.3408728,10.9514263 17.6574549,10.9509439 17.8530143,11.1459084 C18.0485737,11.3408728 18.0490561,11.6574549 17.8540916,11.8530143 L11.9096172,17.8156301 C10.3312795,19.3987845 7.7683837,19.4026893 6.1849596,17.8240826 C4.60179277,16.2409218 4.60179277,13.6807396 6.18134874,12.1011843 L12.4395893,5.8770467 C13.6049179,4.71807195 15.4883496,4.72064626 16.6505056,5.88280226 C17.8123042,7.04460086 17.8125519,8.92817214 16.651059,10.0902763 L10.2949559,16.4497244 C9.54331608,17.2017597 8.32434648,17.2020804 7.57226458,16.4503941 C6.81988433,15.6980139 6.81780588,14.4793123 7.56730486,13.7246829 L12.1291989,9.13156162 C12.3237939,8.93563459 12.6403745,8.93455475 12.8363015,9.12914974 C13.0322286,9.32374472 13.0333084,9.64032537 12.8387134,9.83625241 L8.27681941,14.4293736 C7.91557205,14.7930938 7.91657383,15.3804899 8.27901321,15.7429292 C8.64064021,16.1043661 9.22644486,16.104212 9.58766315,15.7428036 L15.9437662,9.38335557 C16.7149102,8.61180574 16.7147457,7.36125599 15.9433988,6.58990904 C15.1710124,5.81752267 13.9192554,5.81581175 13.1447605,6.58608381 L6.89434715,12.8024168 C5.69942385,13.9973221 5.69942385,15.9243393 6.88770251,17.1126181 C8.0832935,18.3045772 10.013025,18.3016371 11.2014339,17.1096014 L17.1459084,11.1469857 Z"/>
</svg>
