<?xml version="1.0" encoding="UTF-8"?>
<svg xmlns="http://www.w3.org/2000/svg" xmlns:xlink="http://www.w3.org/1999/xlink" width="20px" height="20px" viewBox="0 0 20 20" version="1.1">
<g id="surface1">
<path style=" stroke:none;fill-rule:nonzero;fill:rgb(255,255,255);fill-opacity:1;" d="M 9.523438 0.0078125 C 8.117188 0.0859375 6.769531 0.4375 5.542969 1.046875 C 2.601562 2.519531 0.5625 5.335938 0.101562 8.578125 C 0.0273438 9.109375 0.0078125 9.371094 0.0078125 10 C 0.0078125 10.785156 0.0585938 11.28125 0.203125 12 C 1 15.9375 4.125 19.042969 8.0625 19.8125 C 8.75 19.945312 9.242188 19.992188 10 19.992188 C 10.628906 19.992188 10.890625 19.972656 11.421875 19.898438 C 13.570312 19.589844 15.53125 18.605469 17.070312 17.070312 C 18.742188 15.394531 19.734375 13.273438 19.964844 10.867188 C 20 10.472656 20 9.527344 19.964844 9.132812 C 19.734375 6.726562 18.742188 4.605469 17.070312 2.929688 C 15.398438 1.261719 13.253906 0.257812 10.882812 0.0390625 C 10.628906 0.015625 9.765625 -0.00390625 9.523438 0.0078125 Z M 8.015625 10.023438 L 8.015625 15.875 L 6.507812 15.867188 L 6.503906 10.039062 C 6.5 6.832031 6.503906 4.203125 6.507812 4.191406 C 6.511719 4.175781 6.679688 4.171875 7.265625 4.171875 L 8.015625 4.171875 Z M 13.539062 10.023438 L 13.539062 15.867188 L 12.03125 15.875 L 12.03125 4.171875 L 13.539062 4.179688 Z M 13.539062 10.023438 "/>
</g>
</svg>