<svg xmlns="http://www.w3.org/2000/svg" width="24" height="24" viewBox="0 0 24 24">
  <path d="M7.5,4 C6.67157288,4 6,4.67157288 6,5.5 L6,18.5 C6,19.3284271 6.67157288,20 7.5,20 L8.5,20 C9.32842712,20 10,19.3284271 10,18.5 L10,5.5 C10,4.67157288 9.32842712,4 8.5,4 L7.5,4 Z M7.5,3 L8.5,3 C9.88071187,3 11,4.11928813 11,5.5 L11,18.5 C11,19.8807119 9.88071187,21 8.5,21 L7.5,21 C6.11928813,21 5,19.8807119 5,18.5 L5,5.5 C5,4.11928813 6.11928813,3 7.5,3 Z M15.5,3 L16.5,3 C17.8807119,3 19,4.11928813 19,5.5 L19,18.5 C19,19.8807119 17.8807119,21 16.5,21 L15.5,21 C14.1192881,21 13,19.8807119 13,18.5 L13,5.5 C13,4.11928813 14.1192881,3 15.5,3 Z M15.5,4 C14.6715729,4 14,4.67157288 14,5.5 L14,18.5 C14,19.3284271 14.6715729,20 15.5,20 L16.5,20 C17.3284271,20 18,19.3284271 18,18.5 L18,5.5 C18,4.67157288 17.3284271,4 16.5,4 L15.5,4 Z"/>
</svg>
