<svg viewBox="0 0 30 30" fill="none" xmlns="http://www.w3.org/2000/svg">
<path d="M28.8549 21.6684L21.7742 19.3777C21.0189 19.1342 20.1928 19.3599 19.6669 19.96L18.1422 21.7071C17.7433 22.1623 17.062 22.2576 16.5573 21.9259C14.8454 20.8106 13.2678 19.5365 11.8663 18.1316C10.4652 16.7305 9.18731 15.1491 8.07201 13.4406C7.74382 12.9359 7.83541 12.2512 8.29089 11.8558L10.038 10.331C10.638 9.80859 10.864 8.98278 10.6203 8.22372L8.32955 1.14681C8.11091 0.458915 7.4651 0 6.75552 0C6.692 0 6.62848 0.00344686 6.56151 0.0105869L3.50139 0.37054C2.84128 0.448097 2.23418 0.79402 1.83527 1.31648C-0.681479 4.6344 -0.151845 8.6474 0.737433 11.4327C1.90568 15.0824 4.3872 18.9331 7.72988 22.2724C11.0724 25.6149 14.9234 28.0962 18.5696 29.2649C21.3545 30.1544 25.3679 30.6872 28.682 28.1673C29.2045 27.7684 29.5504 27.1613 29.628 26.5012L29.9879 23.441C30.0832 22.6573 29.6065 21.9126 28.8548 21.6691L28.8549 21.6684Z" fill="#1578D4"/>
<path d="M16.2999 8.5441C19.1449 8.5441 21.4567 10.856 21.4567 13.7009C21.4567 14.1773 21.8415 14.5656 22.3214 14.5656C22.8015 14.5656 23.1861 14.1808 23.1861 13.7009C23.1861 11.862 22.4696 10.1324 21.1706 8.8336C19.8717 7.53463 18.1423 6.81812 16.3033 6.81812C15.8269 6.81812 15.4386 7.20294 15.4386 7.68281C15.4349 8.15947 15.8232 8.54404 16.2999 8.54404L16.2999 8.5441Z" fill="#1578D4"/>
<path d="M16.299 2.49852C22.4759 2.49852 27.5018 7.52459 27.5018 13.7013C27.5018 14.1777 27.8866 14.566 28.3665 14.566C28.8429 14.566 29.2312 14.1812 29.2312 13.7013C29.2312 11.9577 28.8887 10.2635 28.2146 8.66813C27.5617 7.12933 26.6297 5.74566 25.4438 4.55964C24.2578 3.37368 22.8741 2.44173 21.3353 1.78881C19.7399 1.11472 18.0457 0.772217 16.3021 0.772217C15.8257 0.772217 15.4374 1.15704 15.4374 1.63691C15.434 2.11012 15.8222 2.4984 16.2989 2.4984L16.299 2.49852Z" fill="#1578D4"/>
</svg>
