<svg version="1.1" id="Layer_1" xmlns="http://www.w3.org/2000/svg" xmlns:xlink="http://www.w3.org/1999/xlink" x="0px" y="0px"
	 width="100%" viewBox="0 0 176 176" enable-background="new 0 0 176 176" xml:space="preserve">
<path fill="#000000" opacity="1.000000" stroke="none" 
	d="
M87.712479,85.157730 
	C87.720566,83.295998 88.890831,81.964020 88.162178,80.126007 
	C86.097076,79.892517 84.607956,81.379105 83.022675,82.320099 
	C80.684952,83.707726 78.964470,84.136253 77.358398,81.204262 
	C75.837540,78.427841 75.476952,76.513893 78.782852,74.784615 
	C83.047325,72.553925 87.091942,69.905449 91.255760,67.478973 
	C94.303215,65.703064 96.923882,66.202393 99.161011,68.995659 
	C101.653862,72.108208 104.254326,75.134277 106.779999,78.220871 
	C111.202438,83.625519 110.987221,84.504265 104.464546,87.920341 
	C101.565231,86.840698 100.846794,83.204796 97.824036,82.104347 
	C95.500214,83.940643 96.355331,86.753502 95.712387,89.025703 
	C94.959503,91.686455 94.606873,93.769890 90.937012,92.892464 
	C87.773109,92.136009 86.020287,91.036293 87.429123,87.516922 
	C87.667000,86.922699 87.602066,86.207260 87.712479,85.157730 
z"/>
<path fill="#000000" opacity="1.000000" stroke="none" 
	d="
M94.986916,56.347424 
	C92.017204,54.814548 93.838318,52.662487 93.778992,50.864525 
	C93.709694,48.764290 95.249046,46.752903 94.247574,44.484097 
	C92.457512,44.405117 91.072495,45.429802 89.728912,46.289055 
	C86.957138,48.061680 85.112396,47.895992 83.268723,44.779484 
	C81.254539,41.374744 82.940346,40.075493 85.570587,38.631035 
	C89.507980,36.468731 93.337784,34.111187 97.227341,31.860889 
	C100.418755,30.014507 103.145073,30.310522 105.546837,33.385624 
	C108.516747,37.188148 111.682899,40.837650 114.773537,44.545544 
	C116.647156,46.793354 116.364166,48.552044 113.988380,50.398468 
	C111.768982,52.123360 110.038391,52.608006 108.138397,50.096397 
	C107.050919,48.658852 105.720978,47.404732 104.299469,45.848236 
	C102.629257,47.865433 102.462288,49.960667 102.250282,52.054550 
	C101.811111,56.391922 99.984108,58.606701 94.986916,56.347424 
z"/>
<path fill="#000000" opacity="1.000000" stroke="none" 
	d="
M81.329697,113.420929 
	C79.875603,114.128838 78.626236,114.655228 77.549805,115.423820 
	C74.871086,117.336487 72.996284,117.268555 71.149864,114.076645 
	C69.262901,110.814621 70.517929,109.323921 73.267456,107.825623 
	C77.068748,105.754189 80.797150,103.539642 84.477890,101.259087 
	C87.790298,99.206726 90.653099,99.168289 93.246849,102.435692 
	C96.353409,106.349052 99.517235,110.220070 102.758102,114.022614 
	C104.966713,116.614014 103.496941,118.023170 101.469131,119.692543 
	C99.443985,121.359703 97.857376,121.872200 96.086670,119.454269 
	C94.937325,117.884804 93.553352,116.487160 92.196602,114.922714 
	C89.643585,117.473938 90.381790,120.561821 89.702332,123.195427 
	C88.891113,126.339729 86.994675,126.633095 84.460083,126.084984 
	C82.103531,125.575371 80.909264,124.664772 81.237289,121.629387 
	C81.527512,118.943886 83.873253,116.169243 81.329697,113.420929 
z"/>
<path fill="#000000" opacity="1.000000" stroke="none" 
	d="
M56.209396,76.635254 
	C57.870106,78.486740 57.436207,79.837196 55.952740,81.152405 
	C54.348228,82.574928 52.820251,84.083763 50.956810,85.839592 
	C53.649994,87.198936 56.215012,87.432808 58.752541,87.823067 
	C61.270439,88.210297 62.587093,89.451897 61.981438,92.285919 
	C61.403206,94.991653 60.600414,97.065361 57.174061,96.266029 
	C54.953270,95.747948 52.735615,94.754982 50.359856,95.780685 
	C49.798546,97.654037 51.006073,99.036209 51.830242,100.349655 
	C53.636517,103.228226 53.191193,104.967491 50.122005,106.696846 
	C46.733910,108.605888 45.376438,107.034515 43.999512,104.314728 
	C42.049702,100.463348 39.969955,96.675499 37.864742,92.905731 
	C35.952480,89.481468 36.412281,86.647064 39.489544,84.108673 
	C42.691349,81.467560 45.878380,78.782394 48.828636,75.870079 
	C51.587231,73.146965 53.838612,72.931602 56.209396,76.635254 
z"/>
<path fill="#000000" opacity="1.000000" stroke="none" 
	d="
M128.675369,95.957085 
	C126.908852,92.995537 125.978218,90.844559 129.770187,88.801285 
	C133.761353,86.650688 134.728928,89.281303 136.097916,91.774254 
	C138.181427,95.568321 140.208435,99.393486 142.301941,103.181961 
	C143.801559,105.895737 143.500168,108.318314 141.178452,110.373451 
	C137.439209,113.683372 133.574127,116.854385 129.903351,120.237244 
	C127.559273,122.397453 125.962227,121.740036 124.150040,119.552063 
	C122.402565,117.442207 121.693832,115.707970 124.279556,113.710510 
	C125.686928,112.623337 127.282234,111.589607 128.040939,109.484818 
	C126.295586,107.759926 123.828659,107.779411 121.721611,107.531433 
	C118.461426,107.147758 117.341568,105.717255 117.832680,102.603363 
	C118.384735,99.103065 120.228317,98.304512 123.509720,99.316803 
	C125.509483,99.933723 127.703056,99.922432 129.785538,100.190216 
	C130.360596,98.473007 129.361084,97.440567 128.675369,95.957085 
z"/>
<path fill="#000000" opacity="1.000000" stroke="none" 
	d="
M65.023209,47.667969 
	C67.969040,47.503132 70.460892,47.438942 72.928452,47.159996 
	C80.339630,46.322186 80.649139,46.602230 80.191017,54.495926 
	C77.763519,56.497395 74.196739,54.075409 71.756874,56.563309 
	C71.826073,59.415314 74.328613,60.667854 75.822701,62.509186 
	C77.489998,64.563980 77.806267,66.165237 75.556793,67.961044 
	C73.482658,69.616875 71.665627,71.108704 69.278015,68.279221 
	C67.715408,66.427422 66.366722,64.273781 64.061508,63.036129 
	C62.659760,64.316124 62.497734,65.953712 62.342159,67.583862 
	C62.077381,70.358307 61.489010,72.228378 57.765438,71.691460 
	C54.151936,71.170425 53.271576,69.507782 53.838860,66.341797 
	C54.540234,62.427467 55.442966,58.535145 55.882504,54.591393 
	C56.481358,49.218105 59.225681,46.919308 65.023209,47.667969 
z"/>
<path fill="#000000" opacity="1.000000" stroke="none" 
	d="
M125.833572,81.775223 
	C125.278900,78.916885 127.391113,76.588486 126.138817,73.994125 
	C123.607109,73.947334 121.795586,75.580658 119.901115,76.765244 
	C117.150429,78.485214 115.484993,77.932693 113.920166,75.166847 
	C112.320312,72.339081 112.934418,70.561478 115.724365,69.171913 
	C117.781792,68.147186 119.760490,66.964401 121.852730,65.808708 
	C120.834282,63.562321 118.845284,63.462582 117.253174,62.920273 
	C114.177467,61.872608 112.976547,60.422272 114.387360,56.995987 
	C115.833748,53.483307 117.763290,53.677036 120.607895,54.984013 
	C124.679726,56.854855 128.869858,58.468758 133.013580,60.182423 
	C136.220016,61.508472 137.600952,63.593033 136.693649,67.241295 
	C135.695587,71.254456 135.138031,75.378616 134.423904,79.460602 
	C133.395142,85.341080 130.839188,86.163765 125.833572,81.775223 
z"/>
<path fill="#000000" opacity="1.000000" stroke="none" 
	d="
M62.355087,129.925217 
	C64.352821,130.716919 66.023254,131.403351 67.605194,132.053421 
	C67.181480,139.387344 66.546494,139.855515 59.924145,137.909149 
	C56.253532,136.830338 52.612831,135.644257 48.921936,134.641663 
	C45.866211,133.811600 44.476284,131.926620 44.693039,128.803101 
	C45.038372,123.826599 45.426003,118.852562 45.715504,113.872826 
	C45.875565,111.119568 47.587498,110.644226 49.833405,110.815964 
	C52.194740,110.996544 54.120377,111.589684 53.933544,114.616173 
	C53.813095,116.567322 52.821465,118.503746 53.745522,120.557426 
	C55.645233,120.837799 56.657719,119.206772 58.112022,118.576698 
	C60.586151,117.504784 62.493141,113.287758 65.895096,117.846092 
	C69.262016,122.357483 65.628113,123.522041 63.080551,125.432838 
	C62.283035,126.031013 61.340130,126.497025 60.698517,127.229233 
	C59.103516,129.049469 60.706161,129.399689 62.355087,129.925217 
z"/>
<path fill="#000000" opacity="1.000000" stroke="none" 
	d="
M123.543427,124.319481 
	C126.389778,125.040344 126.534882,126.768402 125.974777,128.726288 
	C124.601990,133.525085 123.205002,138.317932 121.730194,143.086105 
	C121.096710,145.134201 119.746803,146.882141 117.463120,146.640701 
	C111.999741,146.063126 106.465164,146.659286 101.036682,145.453064 
	C99.128242,145.029007 97.794624,144.423187 98.203621,142.268753 
	C98.581512,140.278183 98.241966,137.697128 101.525467,137.667053 
	C103.451653,137.649399 105.492554,138.037186 107.281807,136.930115 
	C107.436485,134.273392 105.614357,132.796478 104.446182,131.088364 
	C102.849838,128.754181 102.664200,127.103065 105.329185,125.328522 
	C107.963074,123.574677 109.774727,123.617081 111.464661,126.442093 
	C112.637619,128.402908 114.088661,130.197357 115.385475,132.023911 
	C118.931580,129.923523 116.195244,122.357300 123.543427,124.319481 
z"/>
<path fill="#000000" opacity="1.000000" stroke="none" 
	d="
M83.647491,135.779633 
	C87.461861,136.968430 89.181526,139.395996 89.243813,142.912659 
	C89.294792,145.791534 88.028969,148.060532 85.416748,149.386307 
	C82.488892,150.872269 79.622429,150.694519 77.051697,148.568161 
	C74.207581,146.215683 74.063255,143.000809 75.131294,139.922409 
	C76.415787,136.220123 79.602211,135.339890 83.647491,135.779633 
z"/>
</svg>