<svg width="17" height="17" data-name="Layer 1" xmlns="http://www.w3.org/2000/svg" viewBox="0 0 512 512"><path d="m456.88 451.72-2.07-13.88c-.58-4.65-2.17-9.1-3.2-13.66a167.85 167.85 0 0 0-23.72-50.56c-3.43-4.36-6.25-9.07-10-13.12l1.66 1.69a168 168 0 0 0-87.76-54.43 78.58 78.58 0 0 0-.39-9.8c-.33-2.61-.65-6.67-.93-11.37 0-.47-.05-1.3-.07-2.23a150.45 150.45 0 0 0 17-11.87 137.18 137.18 0 0 0 25.7-29 128.88 128.88 0 0 0 18.9-47.7c.35 1.06-.63 6.35-.1 5.54.21-.42 1.1-2.31 1.85-7.21.41-2.44 1-5.6 1.56-9.67.22-4 .64-9.27.75-15 .33 1.55.49 3 .67 4.52.31-16.29.42-31.89.36-42.92a120.35 120.35 0 0 0-9.39-46.45c-3-7.14-4.75-9.19-7-13.52l.47 1.39A135.84 135.84 0 0 0 368.75 53a82.63 82.63 0 0 0-6.92-8.39c-2.27-2.47-4.15-4.87-6-6.51a127.36 127.36 0 0 0-35.9-25.4A130.36 130.36 0 0 0 273 .39c-4.85-.2-11.8-.68-17.76-.13a136.17 136.17 0 0 0-39.86 8.14l-1 .33c-.24.08-.47.2-.71.28-1.25.48-2.53.86-3.76 1.37-.48.2-.92.46-1.4.67-22.64 9.28-43.32 26.35-57.64 46.83a132.12 132.12 0 0 0-10.92 19l-.9 2.27 3.95-7.64c.81-1.47 1.71-2.88 2.62-4.28a129.92 129.92 0 0 0-14.44 36.3c-.08.28-.13.56-.21.84a34.79 34.79 0 0 0-1.52 6.09c-.72 4.7-2 9.55-2.06 14.64l-.46 8.52c-.12 4.33 0 9.18-.06 13.79 0 9.31 0 18.72.06 28.1v9.62a6.64 6.64 0 0 0 .71-.44l.17-.12c0 .36 0 .72.06 1.07l.88 6.1.91 6.09c.38 2 1 4 1.43 6a91.26 91.26 0 0 0 3.45 11.78 131.39 131.39 0 0 0 24.49 42.75l6.49 7.18c3.49 3.76 6.75 6.51 9.42 9s5.39 4.1 7.69 5.81c4.55 3.5 9 5.51 14.5 8.9a38.18 38.18 0 0 0 7.91 3.21c1.08.31-2.52-1.65-.63-.93.59.29 1.35.62 2.22 1v.12c-30.52 4.22-61.15 16.86-85.42 36.46a174.8 174.8 0 0 0-22.48 21.42l-2.19 2.68c10.72-12.28 23.37-22.64 36.75-31.72a188 188 0 0 1 43.85-20.32 41.47 41.47 0 0 1 5.65-1.81 43.15 43.15 0 0 0-5.53 2.14 195.54 195.54 0 0 1 29.43-6.5c0 2.92-.1 5.35-.24 7.1-.26 3.35-.32 7.35-.32 12.51l-.2-.11h-.1l-.14-16.4c0 5.64-.07 11-.1 16.28l-5.77-2.91c0-1.28-.09-2.32-.14-2.83-.2-1.94-.49-.19-.81 0l-.12-3.49v5.74l-.61-.31a23.5 23.5 0 0 0-18.83-1.7A18.53 18.53 0 0 0 172 313c-.64.7 0 .18 2-1 1.19-.66.37.12.46.24a24 24 0 0 0-6.53 6.59 27.34 27.34 0 0 0-3 5.79c-8.05 3.74-14 7.34-18.19 9.7-3.47 1.73-6.81 4.34-10.71 7.17-1.91 1.46-4.07 2.85-6.12 4.65l-6.46 5.87c-4.85 4-8.76 9-13.12 13.57l-.14-.06a156.17 156.17 0 0 1 43.51-36.32c-5.24 3.27-10.66 6-15.26 9.77l-7.1 5.29c-2.32 1.8-4.37 3.89-6.57 5.82C103.37 369 88 394.39 79.32 421c-1.32 5.39-3.1 11.1-4.24 16.59l-2.51 14.84c-.66 8.29-1.17 12.2-1.11 5.56-.19-10 2.18-24.34 5.43-37.23.38-1.67 2.75-7.65 4.17-11.64l-.25 1.62c.81-2.2 1.44-4.34 2.31-6.34l2.76-5.9a99.84 99.84 0 0 1 6.56-12.69 75.53 75.53 0 0 0-5.68 10.09l-2.27 4.56c-.46.38-1.11 1.29-1.08.82.2-1.31-3.56 4.33 5.38-13.93 2.11-3.56 4.71-8.26 7.2-12.12 2.68-3.73 4.9-6.84 5.45-7.74a50.38 50.38 0 0 1 3.4-4.85l7.54-8.37a185.25 185.25 0 0 1 19-17.42c3.3-2.72 0-.64-.53-.61l6.13-4.73c-6 4.54-11.22 8.05-15.22 12-4.15 3.79-8 7-11.17 10.8l-1.59 2.3c-5.61 5.64-9.86 11.85-14.34 17.65-2.1 3-3.87 6.16-5.8 9.21a73 73 0 0 0-5.26 9.43l-4.75 9.89c-1.39 3.43-2.58 7-3.91 10.6l-2 5.5-1.47 5.82c-.89 4-2.24 7.94-2.85 12.25a50.24 50.24 0 0 1 1.23-6.67 82.32 82.32 0 0 0-2.25 11.37l-1.51 9.66c-.41 2.66-.72 3.58-1.17 8l-.55 7.39a31.17 31.17 0 0 0 .81 9.4 34.65 34.65 0 0 0 14.23 20.49 34.13 34.13 0 0 0 11.41 5 50 50 0 0 0 11.79.94l43.8.15h21.48l101.24-.49 123.29-.87c14.84-.16 36.16-.22 32.25-.85-1-.21-.32-.15 3.38-.41a31.8 31.8 0 0 0 27.29-20 32.44 32.44 0 0 0 2.17-14.25zm-137.38-68c2 1.47 4.49 3.22 7.22 5.1-4.73-1.9-4.84-2-8.1-4.12-.47-.31-1.7-1-2.65-1.47-2.67-1.39-5.39-2.65-8-3.81a60.93 60.93 0 0 0-6-2.39 14 14 0 0 1-2.34-.84l-11.35-5.65c-1.85-.94-3.59-1.75-5.13-2.43l2.78-1.75c1.35.66 2.66 1.29 3.79 1.79 6.71 2.93 13.47 6 20.94 9.64l4.85 2.26 7.49 3.35c-.58.54 1 1.54 6.49 4.27l6.28 3.07v-2.2l.14-29.64c0-.06.06-.09.11-.14l.06 1.45.2 31.37-6.28-3.1-2.87-1.61-8.37-4.18c.24.31 0 .46.74 1.02zM184.77 396l-6.58 3.36v-2.27l.14-32c0-.07.06-.1.11-.17 0 .55 0 1.11.06 1.69l.2 31.87 6.09-3.09 2.64-1.15 8.2-4.1c-.3-.07-.21-.34-.94-.17l-5.79 1.41c3.67-2.3 3.44-2.18 6.06-3a21.72 21.72 0 0 0 2.2-1 152.88 152.88 0 0 0 15.08-8.38 18.76 18.76 0 0 1 2.44-1.55l13.22-6.63c3.58-1.77 6.64-3.45 8.78-4.76l2.65 1.57.39.23-1.75.9c-3 1.56-6.53 3.27-9 4.66-7.46 4.15-15.06 8.29-23.71 12.68l-5.48 2.91-8.45 4.62c.67-1.09-.94-.48-6.56 2.37zm-6.49-56.23a123 123 0 0 1 .11 16l-.42-7.84c0-1.15.06-3 .14-6.34l.15 4.91v-.15c.05-2.09.03-4.16.02-6.6zm28.8-7.34-3.87-2.2c0-.29-.19-.58 0-.69.53-.3-.8-1.58 4.17.44 2 .83 5.18 2.24 5.76 2.31.8.09 1.8.6 4.15 1.75 1 .49 2.18 1 3.26 1.53l5.37 3.24c8.91 5.42 20.1 12.93 14.52 10.22-4.18-2-10.12-5.18-15.58-8L220 338l.8.1-11.11-6.27 6.49 4.16c.08.34.42.76.15.81-.76.13 1.57 2.18-6.59-2.24-2.86-1.54-7.7-4.3-9.36-5.1v-.48l.57.29-.53.1zm4.44-14h.49v2.46a8 8 0 0 1-.37 1.56l-.16-.53zm.22-26.27v-.06l.17.06v.07zm.18 2.27c0 3 0 5.9.06 8.88v14.71l-.49-.32.2-23.33zm114.23 11.94c.72.29.69.39 0 .36zm-4.6 5.63c.11.82.23 1.64.3 2.47v.32h-.29zm0 6.19h.27v2.72c0 .29-.16.58-.2.88zm0-12-.06-17 .44-.2v17.26zm-4 24.46 4.08-2.47v-1.51l.22-.1v1.73l-6.31 3.7c-.1.06-.17 0-.29.05zm8.94.28v-4.06a5.14 5.14 0 0 1 2.59 1.29v4.24l-5.96 3.6c-.79-.71-1.83-.32-2.64.1s-1 .54-1.26 1c-.84.94-1.59 1.84-2.28 2.71l-.3.18c-.86.68-2.75 2.09-3.74 3-.46.41.23.19 1.41-.39l3.14-1.6 1.56-.83c2.54-1.07 1.33-.42 1.68-.62 0 0 .08-.16.14-.15s.17-.13.31-.36l.25-.13.4-.22a2.72 2.72 0 0 1-.44.61.79.79 0 0 1 .33.3c0 .17.05-.22.08.42l.08 1.73.16 3.45a14.87 14.87 0 0 0 .17 1.83c.36 1.52.76.42 1.08-2 .16-1.22.29-2.78.39-4.52a6.28 6.28 0 0 1 .11-1.21 5 5 0 0 0 0-.63v-1c2.34-1.27 4.19-2.24 4.79-2.44a21 21 0 0 0 2.24-1.05l-.07 4.73v4.51c.32 7.27.3 15.34.49 22.93l.67 18.37-3.25-1.4c-2.3-1-5.86-2.68-5.07-1.59.47.61-.53.13-4-1.69l-2.55-1.41-22.27-11.14c-1.11-.56-2.15-1.21-3.23-1.82l.51.15-3-1.47 9.82-6.19c1.24-.78 2.6-1.68 3.08-2 4-3.12-4.38 1.09-15 7.2l-7.45-3.65c.57-.23 1.16-.46 1.81-.74 7.17-3.05 14.51-7 21.75-10.48l5.8-2.9.57-.48-3.39 1.33a38.54 38.54 0 0 1-14.15 5.7l15.82-9.79zm-36.3 16.74-9.5 5.53 7.22-4.51-.25.1-9.76 5.9c9.37-6.08 19.08-11.95 23.72-14.37zm-14.09 14 5.73 2.77 1.83.9-3.06 1.81c-2.55-1-4-1.24-3.14-.37 1 1.07-3.55 0-7.06-1.71zm-26.89 1.51-5.43-3c3.28 1.46 4 1.5 5 1.65l1.46.87zm-47 10.94.84-1.32-6.62 3.12-3 1.38c-.84.38-2.11 1-1.8.74-.2-.27 0-.36-.16-.13a8.21 8.21 0 0 1-.52 1l-.11.26h-.19a2.13 2.13 0 0 1 .26-.74 2.27 2.27 0 0 1 .51-.65v-4.05l-.21-6.76c-.07-1.38-.07-3.35-.07-5v-23.09c-.11-.16-.08-.73.31-.64l.19.08 1.1.56 8.42 4.36c3.17 1.69 6.3 3.31 9.43 4.92-2.4-.84-4.7-1.61-6.65-2.17-.45-.13 1.72 1.39 3.63 2.65 6.7 4.42 14.39 9 22.06 13.49l-6.53 3.24-13.26 6.85c.24-1 4.88-4.27-7.61 1.78zm7.65-30.84L230 353.61h-.51l-3.28-1.75-5.56-2.69-9.31-4.61a22.86 22.86 0 0 1-2.56-1.7zm14.53 12-3.09-1.87c1.65.8 3.25 1.62 4.94 2.41.75.35 2 1 2.45 1.25a37 37 0 0 0 5.46 2.83l-1.19.57zM206 334.61l-9-4.54a58.41 58.41 0 0 1-5.87-3.45c-1.54-1-2.54-1.42-1.17-1.43a64.87 64.87 0 0 1 8 2.66c.19.07.59.27 1.05.5v1.94zm33.41 29.68c.43-.42.43-.63-.23-.53s-.2-.58 1-1.57a4.63 4.63 0 0 0 1.16.1c.37 0-.59-.73 0-.63 1.47.26 5.53 1.78 4.77 1s1-.19 2.92.51l-6.22 3.2zm14.12.26 8.68 5.26 4.36-2.58c1.32.64 2.62 1.27 3.27 1.67 1.23.76 2.55 1.51 3.93 2.27l-11.55 6.92-16.12-9.76zM335.81 337a92.47 92.47 0 0 1 .11 13.88l-.42-6.72c0-1 .06-2.56.14-5.49l.15 4.26v-.13c.05-1.8.04-3.66.02-5.8zm-7.11-36.37c0 2.1 0 4.22.07 6.35-.88-.2-1.74-.48-2.63-.67q-.15-9.77-.3-19.35c.86-.47 1.73-1 2.59-1.48.06 5.26.19 9.94.27 15.14zM385 114.74a66.26 66.26 0 0 1 1 12l.28 9.32c0 4.86.06 10.82.1 17l-.77.24c-.64.21-1.22.35-1.84.55v-5.35c.4-.17.75-.3 1.17-.5 0-2.36 0-5.29.07-8.86s-.12-7.12-.31-10.5c0-.81-.15-1.61-.19-2.42a11.76 11.76 0 0 0 .13-2.09c0-3.72-.63-7.76-1-12s-1.62-8.59-2.42-13c2.36 8.08 3.44 12.12 3.78 15.61zm-7.75 33.92a108.64 108.64 0 0 1-16.66 3.93 118.93 118.93 0 0 1-26.21.94c-28.55-2.21-56-11.7-82-23.47a1.38 1.38 0 0 1-.35-.28l4 1.75a286.48 286.48 0 0 0 50.75 17.27c17.38 3.94 35.42 5.93 53 3.42a76.06 76.06 0 0 0 8.42-1.43 71.44 71.44 0 0 0 11.65-3.71l1.38-.55.47-.2v1.36c-.5.19-1 .37-1.48.6.78-.71-.09-.62-2.94.37zm-168.44-35.9-14.4 9.65 9.6-6.66c3.15-2.11 6.67-4.67 9.74-6.5 7.63 4.71 13.33 7.86 16.9 10l-8.19-4.29c-2.78-1.51-5.74-3.18-8.7-5-.37 0-.81.49-1.26.74l-14.06 9.2 10.73-7.34zm19.31-9.56c-4.84-2.79-9.79-5.94-14.65-9L178 117.86 155.53 133l-.33.28c.09-3 .2-5.95.4-8.67 1.23-10.06 3.24-20.31 7.13-29.59 2.12-4.79 3.64-8 4.62-10.12 1.22-2.25 2.51-4.46 3.9-6.6A108.86 108.86 0 0 1 192 53.75a36.77 36.77 0 0 1 5-3.94c11-7.62 14.47-9.62 22.07-13.48a30.79 30.79 0 0 0 5-2.63c.07 0 .08-.07.08-.09 1.33-.52 2.5-1 3.06-1.24 3.06-1.39 2.47-1.44-.55-.59a90.1 90.1 0 0 1 3.6-1.58c2.5-.85 4.33-1.53 3.1-1.4-3.13.42 2.94-1.62 8.21-2.91a73.53 73.53 0 0 0-7.63 1.63 55.74 55.74 0 0 0-8.38 2.37c3.93-1.68 6.45-2.19 8.1-2.81s2.57-1 3.58-1.36c2-.9 4.58-1.64 15-3.06-3.46.13-7.19.87-7 .78a59.13 59.13 0 0 1 7.76-1.92h1.84a89.79 89.79 0 0 1 12.63.37c1.37.1 2.6.21 3.76.33h-.15c-.5.15 2.07.5-.23.52-10 .2-4.42.41 6 1.93a60.47 60.47 0 0 0-8.89-.34c5 .16 9.51 1.19 15 2.07 5.35 1.14 13.76 3.23 16.85 4.74 14.18 5.59 30.57 15.25 42.34 28.34A106.83 106.83 0 0 1 362 88.45c-.62-.46-2.54-3.55-2.56-2.85-.25.78 2.66 4.85 7.2 20.33l-1.53-2.79a112.41 112.41 0 0 1 4.29 30.34 8.09 8.09 0 0 1 0 2l-.08.82-.06.79-1.51.48c-2.34.62-4.71 1.17-7.06 1.66-4.79.85-6.42 1.34-9.58 1.8l1 .11a119.76 119.76 0 0 1-28.58-1.68c-16-2.66-42-10.89-61.6-19.34-3.17-1.32-7.66-3.38-11.47-5.23q-7.53-3.65-14.89-7.65zm-84.36 58.85 1.85-1.2 7.62-5.07c.34 2.81.67 5.41 1 7.8l-10.46 6.92q-.02-4.19.02-8.45zm64.53-136.63-4.47 2.18-4.34 2.65a78.29 78.29 0 0 0-9.11 6.05c16.21-13 36.79-19.32 46.2-20.87-4 1.15-7.9 2.07-11.77 3.38-3.8 1.55-7.8 2.79-11.8 4.72a146.91 146.91 0 0 0-17.79 9.52l8.59-5.33 5-2.48zm-15 22.82a76.05 76.05 0 0 0-6.7 5.71c-3.8 3.13-6.68 7.11-10.07 10.66a122.33 122.33 0 0 0-13.25 20.69c-1.21 2.51-2.32 4.26-3.49 6.37l1-2.49c7.64-16.25 18.86-31 33.3-41.78zm-43.22 52.39c-2.52 9.33-4.64 18.82-4.87 28.4l-.32 5.17c0 1.49-.07 3-.1 4.44-.12 3-.23 5.89-.32 8.15-.21 4-.47 6.72-.71 5.31-.07-9.43-.27-19.27.56-30-.16 2.69-.06 3.95-.1 5.46l.28-4.84.71-4.41c.47-2.81.81-5.4 1.28-7.73.81-2 1.25-2.7 2.34-6 .34-.86.83-3.2 1.74-5.6l2.44-6.46c.21-.53.45-1 .67-1.54-1.25 3.19-2.45 6.4-3.55 9.65zm13.47-28.87-1.52 2.47c-.87 1.35-1.63 2.76-2.41 4.15 1.29-2.27 2.61-4.47 3.98-6.62zm-6.43 11.41c-.29.59-.58 1.18-.85 1.78.33-.61.61-1.2.9-1.79zM171 61.4c.37-.44.77-.85 1.15-1.28a51.74 51.74 0 0 0-3.32 4.21l-3.36 4.47c1.73-2.55 3.53-5.02 5.53-7.4zm198.19 75.7zM271.15 13a54.19 54.19 0 0 1 8.24.88c1.35.22 2.7.41 4.05.6l-.7-.06c-2.22-.12-5.53-.81-9.54-1.07-2.3-.21-4.6-.36-6.9-.43a2.06 2.06 0 0 1-.53-.13zm21 8.31A118.5 118.5 0 0 1 337.31 44a121.35 121.35 0 0 1 30.81 38.2c3 5.32 5.43 12.3 7.41 17.42 1.47 5.28 2.53 8.71 2.43 7.08s1.68 2.47 3.25 18.18c.12 3.86.51 8 .51 12.13v.5a8.43 8.43 0 0 0-.17 1.22l-.33 4-.16 2.07v.52c-.08.12-.33.13-.48.2l-1.06.33-4.21 1.29-4.45 1a57.35 57.35 0 0 0 6-2.21c1.27-.7 2.72-.85 3.15-1.65 0-2.24.13-4 .36-7.71.13-.91 0-4.35-.14-7a71.34 71.34 0 0 0-1.09-11.57l-1-6.37c-.45-2.12-1.11-4.19-1.64-6.23l-1.66-5.87-2-5a51.88 51.88 0 0 0-3-6.89c-.85-1.5-2.25-4-3.41-6.39a125.14 125.14 0 0 0-21.9-29.79c-4.14-3.73-7.9-7.38-11.78-9.92l-5.24-3.73-4.63-2.61c-5.41-3.14-8.11-3.82-5.68-2.27 1.2.86.3.65-1.85-.11a134.36 134.36 0 0 0-20.14-8.08 120.63 120.63 0 0 0-34.55-4.51l-.7.09c.78-.13 1.54-.26 2.35-.41-15.17.18-25.41 2.7-35.55 5.67-.09-.26 2.54-1.59-.79-.6-9.12 2-25.32 10.34-35.32 18.72-4.42 3.3-7.65 6.69-10.65 9.22q-4 4.32-6.57 6.87a89.92 89.92 0 0 0-11.72 16c-2.38 3.55-4 7.52-6 11.34h-.14A112.2 112.2 0 0 1 176.82 55c-.71.75-1.39 1.51-2.08 2.26a130.49 130.49 0 0 1 22.36-19.57 136.7 136.7 0 0 1 15.12-8.49 116.25 116.25 0 0 1 38.77-11 119.22 119.22 0 0 1 41.12 3.15zM137.06 136.92c.06-4.79.49-10.15.84-15.06.86-4.89 1.54-9.49 2.41-13 1.81-6.2 2.91-9.4 2.35-6.24q-.94 3.36-1.77 6.74c-.79 4.93-1.77 9.93-2.1 15.21-.12 2.69-.24 5.44-.36 8.28-.18 3.18 0 6.57-.05 10l-.24-5.35c0 6.84-.08 12.6-.12 17.46-.28 2.56-.53 3.7-.76 7.8l-.09 2.64v.91c.16 0 .47-.27.72-.4l1.59-1 .06 4 .07-4.11 2.17-1.41c0 .88.05 1.83.08 2.87 0 1.65.07 3.53.16 5.45l-4.79 3.16c0-.48-.07-1-.07-1.44-.26-12.36-.1-24.43-.1-36.51zm29.13 124.17a106.4 106.4 0 0 1-8.17-9.77 145.17 145.17 0 0 1-11.69-17.69c-5.45-10.57-10-21.92-12.45-33.37-1.08-3.9-1-7-1.47-10.38l.74 3.8a130.73 130.73 0 0 0 34.28 68.46zm38 22.26c-3.81-1.84-7.63-4.56-11.8-7-3.92-2.79-8-5.69-11.71-8.78-3.52-3.33-7.33-6.19-10.1-9.52A109.52 109.52 0 0 1 152.34 233a178.18 178.18 0 0 1-10.15-24.13l-2.1-8.16-1-4.09-.62-4.17.14-.06a124.74 124.74 0 0 0 13.77 38.82c-1.11-2-2.18-4-3.09-6.13-2.47-4.66-4.07-9.6-5.86-14.46a132.26 132.26 0 0 1-6-32.31l4.82-3.19c.07 1 .14 1.91.21 2.81a42.13 42.13 0 0 0 .88 7.73c.32 1.15.6 2.59 1 4.76a66.13 66.13 0 0 0 1.85 9 104.08 104.08 0 0 0 7 19.84c1.69 3.05.59.1.72-.36l2.81 5.55c-1.29-2.73-2.55-5.2-3.57-7.56l-2.46-6.78c-1.73-4.18-2.38-8.16-3.45-12l-.9-2a137.12 137.12 0 0 1-2.43-22.11c22-14.6 24.47-16.55 13.56-9.71-3.32 2.07-.61 0-.66-.11l18.47-12.28 12-7.27L204.13 133l8.42-5.8.95-.65.08-.07.16-.16a4.61 4.61 0 0 1 .36-.32h.13a1.36 1.36 0 0 0 .51.11c.06 0 .18 0 .15-.07a2.83 2.83 0 0 0 .65.2c.28 0-.12-.29-.42-.57a3.48 3.48 0 0 0-1-1.26 5.19 5.19 0 0 0-1 .4l-.3.15a3.9 3.9 0 0 0-.66.39l-3.12 2-13.6 8.9L158.1 161l-3.54 2.34c.09-1.6.19-4.39.25-7v-1.71L175.44 141l25.09-16.55 11-7.39a21.56 21.56 0 0 1 2.36-1.54l4.89 2.83 7 3.84c4.83 2.6 9.78 5.13 14.8 7.56 10 4.9 20.4 9.35 30.66 13.17 27.19 10 56.56 17 84.12 14a101.58 101.58 0 0 0 16-3c2.14-.71 4.28-1.43 5.54-1.94s1.59-.75.79-.65-.26-.11 2.17-1.15c.51-.23 1.17-.48 1.88-.76v5.1a69.46 69.46 0 0 1-7.62 1.83c-10.1 3.13-23.36 4.51-34.27 4a199.94 199.94 0 0 1-38.56-5.43 305.5 305.5 0 0 1-56.37-20.12l-6.78-2.58c-.88-.3 0 .32 1.76 1.3 5.37 3.05 15.71 8 16.91 8.8 2.42 1.84 18.08 8 29.12 11.47a117 117 0 0 0 18.74 4.75c4 .59 10.3 1.59 17.62 2.35 3 .35 13.79 1.41 16.71 1.38a106.88 106.88 0 0 0 28.74-2c2.31-.55 4.61-.95 6.81-1.71l4.29-1.34c1-.36 1.93-.74 2.89-1.12v15.85l-.58 11.46A119.36 119.36 0 0 1 367.89 227c-2.14 4-4.66 7.68-7.07 11.45a16.05 16.05 0 0 0 1-1.66 119.5 119.5 0 0 1-72.35 50.72c1.6-.15.43.35-2.68 1.3a130 130 0 0 1-14.61 2.27c-3.06.74-5 1.36-8.72 2.05-2.54.47-1.23.65 4.08.52 2.64-.17 6.34.06 10.94-.81l7.67-1.17c2.78-.55 5.76-1.45 9-2.27a123.77 123.77 0 0 0 45-23.57c8.29-7.16 16.87-16.24 21.93-23.94 15.42-22.46 23.52-50.37 21.77-81.17v-5.47l2.6-1.05c0 4.21.05 8.49.07 12.62a170.54 170.54 0 0 1-1.16 24.38 49.15 49.15 0 0 1-1.53 9.27 123.27 123.27 0 0 1-20 43.71A155.84 155.84 0 0 1 351 259.59c-4.43 4.06-8 7.93-11.31 10.36-6.36 5.15-9.16 7.51-5.83 5.58 2.14-1.24.37.52-3.52 3.32v-.48c-.56.58-1.14 1.14-1.73 1.69a100 100 0 0 1-17 9.45c-.84.22-1.64.55-2.49.7v.29l-7.89 2.94c-2.82.94-5.41 1.51-7.68 2.17a82.41 82.41 0 0 1-10.74 2.47c-5.36 1-7.33 1.63-8.21 1.85-.67.24 3 .2-.21.54-7 .64-8.57 1-6.48 1.07a76.66 76.66 0 0 0 15.37-1 87.47 87.47 0 0 1-12.67 1.87l5.35-.21 5.28-.69c3.53-.54 7.22-.79 11.09-1.91a125.47 125.47 0 0 0 16.66-5.07c-.12 3.87-.2 8.13-.25 12.6v13.62l.08.1v.18l-.75.46-3.92 2.36-39.25 23.52-2.45 1.48-.08.07-.14.12-.23-.04-4.74-2.78-12-7.13c-9.56-5.7-19.77-11.82-28.6-17.31l-1-.62c-.11-.08 0 0-.08-.07v-.06l-.06-.11.05-.14v-11.59c0-4.52-.07-9.11-.1-13.7 3.63 1.12 6.26 1.79 4.64 1.07-2.08-1-.9-.74 1.72.05s6.85 1.58 10.66 2.46c-3.77-1.09-7.27-1.82-10.82-3.11-2-.77-4-1.54-6.22-2.37v-.21c6.85 2.44 9 2.81 11.48 3.16 3.08.36 6.64 1.68 21.34 3.52l-9.8-1.63c4.06.22 7.89.63 11.77.64l12-.45c-20.41-.36-34.38-4-47.64-9.3.11-.25 3.88.77-.39-1-2.88-1.24-6.21-3.13-10-4.97zm1.9 34.42-.05 5.74-.14.05-.05-5.86zM202 316l2.22 1.06c.52.23 1 .41 1.33.54v8.92l3.93 2.37-3-1.57-6.48-3.15v-3.93c0-1.6 0-3.5-.06-5.29zm-34.26 7.28a20 20 0 0 1 18.31-12.65 24.31 24.31 0 0 1 11.59 3.18l1 .52v6.47l.37 1.44v1.44l-4.06-2 1.94.7a64.8 64.8 0 0 0-6-2.88 7.36 7.36 0 0 0-2.38-1.45 10.09 10.09 0 0 0-5-.15 13.37 13.37 0 0 0-8.49 6.62 41.61 41.61 0 0 1 1.07-4.6c-3 1.12-5.8 2.26-8.41 3.41.08.03.08-.01.09-.03zm6.66 2.87-1.09.38c.38-.15.75-.33 1.13-.48zm-3.19 1.28c-1.55.71-3.08 1.45-4.61 2.17l-.26.12v-.18c1.66-.73 3.28-1.4 4.91-2.09zm-56.57 41.42c4.56-4.94 8.93-10.06 14.12-14.35 4.8-4.72 10.37-8.51 15.73-12.54a190.69 190.69 0 0 1 19.39-11.16v.12a56.24 56.24 0 0 0-7 3.66l-9.34 5.72c-2.62 1.59-5 3.64-7.46 5.43s-5.08 3.53-7.27 5.72c-4.48 4.23-9.3 8.07-13.16 12.71-2.74 3.13-5.21 5.07-7.42 7.89a24.43 24.43 0 0 1 2.45-3.18zm57 129-24-.14 18.58-.15h-25.49c24.38-.39 49.16-.43 60.56-.11zm-47.19-13.21H98.01a18.72 18.72 0 0 1-2.91-.31 16 16 0 0 1-5.38-2.18 16.92 16.92 0 0 1-7.07-9.15 20.06 20.06 0 0 1-.61-2.88 18.31 18.31 0 0 1-.07-3.61l.49-9.88a49.28 49.28 0 0 1 .87-8.37l1.27-8.42c1-5.59 2.73-11.07 4.08-16.58 2.08-5.27 3.69-10.69 6-15.67l3.58-7.33 1.74-3.6 2.08-3.34a145.15 145.15 0 0 1 30.75-37.2A160.56 160.56 0 0 1 164 334.86v.22l.16 5.95.32 8.08a20.13 20.13 0 0 0 .17 2.13c.36 1.77.76.49 1.08-2.36.16-1.43.29-3.24.39-5.27l.11-3.17v-6.73c2.41-1.22 4.8-2.46 7.28-3.57-.15 1.39-.24 2.81-.27 4.29v12.47c.32 8.48.3 17.9.49 26.75.23 10.77.46 21.57.67 31.77l6.16-3.31c4.3-2.33 10.22-5.36 9.19-5.54-.51-.12.9-.84 5.94-3.26l3.77-1.89 26.29-13.13c1.3-.65 2.63-1.18 3.94-1.77l-.51.36 13.8-7c4.73 2.77 5 2.74 2 .53-1.12-.81-.06-.39 0-.53l12.8 7.71 4.39 2.83 11.18-6.2 2.82-1.77c3.29 1.74 6.78 3.47 10.15 5.17l11.54 5.55c-.76.42-5.44-1 5.15 4.48l-1.39.2 13.55 7.23c6.79 3.76 14 7.39 20.57 10.49a40.87 40.87 0 0 0 6.07 2.27l-.75-.59 7.16 3.69c.05-4.67.11-9.22.26-12.09.27-5.37.45-12.82.51-20.78v-11.88l-.21-5.79c-.07-1.18-.07-2.87-.07-4.33v-17.53c-.06-3.69.13-7.51-.15-11.08-.06-.53-.21-1-.3-1.48l.22.08c21.35 8.29 44.54 24.92 61.42 45a157.67 157.67 0 0 1 26 45.48c-.69-.83-2.91-5.79-2.89-4.81 0 .49.57 2.46 2.17 7.15l1.41 4 1.33 5.34c.87 4 2.53 8.76 3.16 14.81l-1.48-4.48 1.85 12.74c.49 4.24.44 8.48.69 12.5l.14 3 .06 1.41-.07.87a12.89 12.89 0 0 1-.55 3.23 16.36 16.36 0 0 1-2.42 5 17 17 0 0 1-11.55 6.75c-.56.11-1.15 0-1.71.11s-2 0-3 0h-6.36l-12.52.08c-8.28.08-11.07.45-16.33.68l1.56.19-46.26-.35c-25.68-.55-67.39-.71-99.66-.29l-19.09.07zM455 474.68a30 30 0 0 1-24.72 23.42c1.55-.73.53-.44-3.95-.4l-25.51-.14-38.59.07-125.46-.14a2.83 2.83 0 0 1-.63-.11l6.38-.06 157.2-.24 12.62.15c6.23-.16 12.82.43 18.72-.5a28.87 28.87 0 0 0 15.76-8.57 15.58 15.58 0 0 0-2.92 2 29.24 29.24 0 0 1-12 5.16 31.22 31.22 0 0 1-7 .37l-7.78-.34c4.82-.13 8.75-.1 11.19-.36a30.41 30.41 0 0 0 6.22-1.41 29.26 29.26 0 0 0 10.72-6.33 27 27 0 0 0 5.59-8 29.33 29.33 0 0 0 2.08-15.74c-.33-6.21-.56-12.74-1.84-18.82l-1.47-8.83-2.12-7.68c-1.29-4.7-2.32-8.46-3.35-10.52-1-2.33-2.58-6.19-3.93-9.88a164 164 0 0 0-29-45.94c-5.31-6.37-11.21-11.3-16.28-15.84-5.34-4.19-10.19-7.55-14-10.15-8-4.55-11.6-6.32-8.15-3.8 2.35 1.77-.7.22-6.22-2.53-5.23-2.14-12.37-5.53-19.55-8a18.9 18.9 0 0 0-.77-1.89 21.05 21.05 0 0 0-4.34-5.63 161.34 161.34 0 0 1 43.53 21.35c5.13 3.86 10.79 7.75 15.5 12.4 2.41 2.25 4.92 4.31 7.06 6.52l5.91 6.41c21.61 23.56 36.54 54.36 40.83 90.79l.66 11.82a38.18 38.18 0 0 1-.39 11.39zm-397.63-8.33-.09 1.9.1 2.4a40.76 40.76 0 0 0 11.27 26 40.89 40.89 0 0 0 16 10.45 42.11 42.11 0 0 0 9.41 2.19c1.56.14 3.3.21 4.72.25h31.84c34.18 0 66.93.91 53.54 1.62l-8.07.17-62 .65-9-.3-5.28-.16h-1.53l-2.13-.13a32.58 32.58 0 0 1-4.51-.56A43.56 43.56 0 0 1 66 496.5c-.08.14-2.57-2.37.21.92 4.8 5.37 7.22 6.7 4.71 5.08a43.08 43.08 0 0 1-6.33-6.07 44 44 0 0 1-8.45-15.78 44.85 44.85 0 0 1-1.5-7.31 42.91 42.91 0 0 1-.25-6.89l.53-11.21c.11-1.87.15-3.75.32-5.62L56 444l1.68-11.11c3.31-14.53 7.64-28.62 13.94-40.62 2.42-4.85 5.35-10.36 5-9.31-1.23 3-2.37 6.44-3.74 10a95.94 95.94 0 0 0-3.85 11.56c-.48 1.77-1.48 4.77-3.08 9.29s-2.9 10.85-5.08 18.92l-2.33 14.8c-.8 4.94-.7 10-1.08 15zm192.32 40.51c-2-.34-18.35-.63-27.17-1-2.85-.11-4.4-.27-3.08-.39l10.35-.63 85.63-.51c18.06-.13 32.82-.4 55.06-.26h47.95l6 .55a37 37 0 0 0 7.2 0 36.54 36.54 0 0 0 16.13-5.5 38 38 0 0 1-20 7c-2 .13-3.36.09-4.91.11h-14.02c-12.73 0-26.07 0-39.38-.24-4-.08-19.1 0-23.3.11-10.27.27-19.14.59-24.84.93-5.45.32-13.35.47-27.18.37-16.35-.05-40.24.17-44.44-.53zM152.35 231.2c1.46 2.66 3 5.29 4.63 8-1.68-2.62-3.15-5.31-4.63-8zm63.58 39.28a105.38 105.38 0 0 1-30.27-21.19l3.39 2.47-3.15-2.76a116.16 116.16 0 0 1-19.32-27.46 107.62 107.62 0 0 1-9.83-31.77l.52 2.29c.74 3.45 1.75 6.86 2.58 10.29 1.09 3.36 2.41 6.63 3.54 9.9 9.88 24.38 30.18 44.9 53 55.94l3.83 2 3.64 1.44 6.16 2.52c3.7 1.12 6.29 2 7.57 2.51 2.58 1-.15.93-9.59-1.52-2.91-1.08-8.5-2.64-12.07-4.66zm-24.68 130.78 5-1.38c-7.61 3.78-17.48 9.13-26.59 13.19v-.86c.08-1.74 0-7.74-.11-9.33-.27-3.87-.59-7.3-.93-9.49a75.29 75.29 0 0 1-.37-11.49c0-2.66.06-5.91.08-8.69 0-2.25.17-4.11.52-4.67s.63-4.85 1-7.18c.11-.75.27-1.16.39-.81.25.75.49 2.1.63 2.74l.51 26.05c.13 6.72.4 11.8.26 20.22v.34c4.92-2.36 10.93-5.5 15.58-7.84 1.31-.24 2.52-.44 4.03-.8zm65.32-59c-1-.4-2.86-1.23-4.13-1.88l-11.51-6 1.5.26-1.35-.57-20.44-12.27.83.22 6.77 3.39c8.34 4.29 17.13 8.43 25 12.91 7.46 4.25 9.7 6.5 3.33 3.98zm65.27 33.05-1.44-1.86a47.24 47.24 0 0 1 6.83 3.52v-.15a12.57 12.57 0 0 0-.11-2.58 17.32 17.32 0 0 0-.93-3.33 4.83 4.83 0 0 1-.37-2.55l.08-2.58c0-1.93.17-3.52.52-4s.63-4.16 1-6.15c.11-.65.27-1 .39-.7a24.15 24.15 0 0 1 .63 2.35c.08 3.31.16 6.5.24 9.59l.26 5.49a66.92 66.92 0 0 1 .26 7.67v.11c-1.91-1.06-4-2-5.71-2.8z" style="fill:#707070"/></svg>