<svg width="9" height="12" viewBox="0 0 9 12" xmlns="http://www.w3.org/2000/svg">
<path d="M8.82726 6.32991L0.602917 11.9336C0.544492 11.9733 0.476615 11.9961 0.406516 11.9995C0.336417 12.003 0.266721 11.9869 0.204851 11.9531C0.142982 11.9192 0.0912551 11.8688 0.0551809 11.8073C0.0191068 11.7458 3.62529e-05 11.6754 0 11.6037V0.39632C3.62529e-05 0.324595 0.0191068 0.254223 0.0551809 0.192699C0.0912551 0.131175 0.142982 0.0808037 0.204851 0.0469494C0.266721 0.0130951 0.336417 -0.00297422 0.406516 0.000453015C0.476615 0.00388025 0.544492 0.0266759 0.602917 0.0664116L8.82726 5.67009C8.8804 5.7063 8.92397 5.75536 8.9541 5.81291C8.98423 5.87046 9 5.93473 9 6C9 6.06527 8.98423 6.12954 8.9541 6.18709C8.92397 6.24464 8.8804 6.2937 8.82726 6.32991Z" fill="white"/>
</svg>
