<?xml version="1.0" encoding="UTF-8"?>
<svg width="20px" height="20px" viewBox="0 0 20 20" version="1.1" xmlns="http://www.w3.org/2000/svg" xmlns:xlink="http://www.w3.org/1999/xlink">
    <!-- Generator: Sketch 52.5 (67469) - http://www.bohemiancoding.com/sketch -->
    <title>play_circle_filled_white</title>
    <desc>Created with Sketch.</desc>
    <g id="Icons" stroke="none" stroke-width="1" fill="none" fill-rule="evenodd">
        <g id="Rounded" transform="translate(-816.000000, -952.000000)">
            <g id="AV" transform="translate(100.000000, 852.000000)">
                <g id="-Round-/-AV-/-play_circle_filled_white" transform="translate(714.000000, 98.000000)">
                    <g>
                        <rect id="Rectangle-Copy-64" x="0" y="0" width="24" height="24"></rect>
                        <path d="M12,2 C6.48,2 2,6.48 2,12 C2,17.52 6.48,22 12,22 C17.52,22 22,17.52 22,12 C22,6.48 17.52,2 12,2 Z M10,15.5 L10,8.5 C10,8.09 10.47,7.85 10.8,8.1 L15.47,11.6 C15.74,11.8 15.74,12.2 15.47,12.4 L10.8,15.9 C10.47,16.15 10,15.91 10,15.5 Z" id="🔹Icon-Color" fill="white"></path>
                    </g>
                </g>
            </g>
        </g>
    </g>
</svg>