<svg width="14" height="18" viewBox="0 0 14 18" fill="none" xmlns="http://www.w3.org/2000/svg">
<path d="M13.7313 9.49486L0.937871 17.9004C0.846988 17.96 0.741401 17.9942 0.632358 17.9993C0.523316 18.0045 0.414899 17.9804 0.318658 17.9296C0.222416 17.8788 0.141952 17.8032 0.085837 17.711C0.0297216 17.6187 5.63935e-05 17.5131 0 17.4055V0.594479C5.63935e-05 0.486892 0.0297216 0.381334 0.085837 0.289049C0.141952 0.196763 0.222416 0.121206 0.318658 0.0704242C0.414899 0.0196427 0.523316 -0.00446133 0.632358 0.000679522C0.741401 0.00582037 0.846988 0.0400138 0.937871 0.0996173L13.7313 8.50514C13.814 8.55946 13.8817 8.63304 13.9286 8.71937C13.9755 8.8057 14 8.90209 14 9C14 9.09791 13.9755 9.19431 13.9286 9.28063C13.8817 9.36696 13.814 9.44055 13.7313 9.49486V9.49486Z" fill="white"/>
</svg>
