<svg class="svg-icon" fill="currentColor" style="width:1em;height:1em;vertical-align:middle;overflow:hidden"
    viewBox="0 0 1024 1024" xmlns="http://www.w3.org/2000/svg">
    <path
        d="M887.212 264.644H320.084c-29.827 0-54.013-23.896-54.013-53.723s24.186-53.724 54.013-53.724H887.21c29.827 0 54.012 23.896 54.012 53.724s-24.184 53.723-54.01 53.723zm0 297.782H320.084c-29.827 0-54.013-24.408-54.013-54.235 0-29.828 24.186-54.235 54.013-54.235H887.21c29.827 0 54.012 24.407 54.012 54.235.001 29.828-24.184 54.235-54.01 54.235zm0 296.76H320.084c-29.827 0-54.013-24.409-54.013-54.236s24.186-54.235 54.013-54.235H887.21c29.827 0 54.012 24.408 54.012 54.235s-24.184 54.235-54.01 54.235zM153.565 257.943h-47.261c-13.056 0-23.63-10.602-23.63-23.656v-47.235c0-13.08 10.574-23.63 23.63-23.63h47.261c13.054 0 23.63 10.55 23.63 23.63v47.235c0 13.053-10.576 23.656-23.63 23.656zm0 594.132h-47.261c-13.056 0-23.63-10.6-23.63-23.655v-47.234c0-13.081 10.574-23.631 23.63-23.631h47.261c13.054 0 23.63 10.55 23.63 23.63v47.235c0 13.055-10.576 23.655-23.63 23.655zm0-310.569h-47.261c-13.056 0-23.63-10.601-23.63-23.656v-47.235c0-13.08 10.574-23.63 23.63-23.63h47.261c13.054 0 23.63 10.55 23.63 23.63v47.235c0 13.055-10.576 23.656-23.63 23.656z" />
</svg>