<svg id="Purple" xmlns="http://www.w3.org/2000/svg" viewBox="0 0 430 141"><defs><style>.cls-1,.cls-2{fill:#5a17ee;}.cls-2{fill-rule:evenodd;}</style></defs><title>Artboard 4</title><g id="logo"><path class="cls-1" d="M210,29V79.11h12V64h26V79h12V29Zm38,23H222V41h26Z"/><polygon class="cls-1" points="199.01 56.5 199.01 69 199.01 79 150.01 79 150.01 67 187.01 67 187.01 60 150.01 60 150.01 49 150.01 36.5 150.01 29 199.01 29 199.01 41 162.01 41 162.01 48 199.01 48 199.01 56.5 199.01 56.5"/><path class="cls-1" d="M89,29V79.11h12V64h26V79h12V29Zm38,23H101V41h26Z"/><path class="cls-1" d="M61.92,59.94l15.36-5.59.73-.29V29H29V79H40.85V67.59l9-3.26L63.4,79H78.22Zm-21-5.12V41H66v4.68Z"/><path class="cls-1" d="M246.66,90.54h23.91V18.44H18.45v72.1h180l48.19,23.82V90.54ZM5,5H284v99H260.1v32l-64.77-32H5Z"/><path class="cls-2" d="M342.58,78.33h-6L310.83,35l.07,3.28q.11,1.86.11,3.13V78.33h-5V28.64h7.79l24,40.52-.07-3.46q-.07-2-.07-3.6V28.64h4.91V78.33Zm41.75-5.46v5.46H355V28.64h6.37V72.87Zm35.49-44.23H425V61.07q0,9.76-4.79,14t-12.54,4.24q-8.63,0-12.78-4.37t-4.15-13.87V28.64H397V61.07q0,5.79,1.35,8.15a8.06,8.06,0,0,0,4.08,3.49,14.82,14.82,0,0,0,5.72,1.13q5.75,0,8.74-3t3-9.76V28.64Z"/></g></svg>