<svg viewBox="0 0 18 18" fill="currentColor" xmlns="http://www.w3.org/2000/svg">
<path d="M14 15.2297C15.8732 13.7298 17 11.4531 17 8.98401C17 4.75012 13.7007 1.25579 9.49546 0.999087C9.21983 0.982262 9.01003 0.745181 9.02685 0.469552C9.04367 0.193922 9.28076 -0.0158798 9.55639 0.000945226C14.2885 0.289807 18 4.22072 18 8.98401C18 11.747 16.7449 14.2967 14.6578 15.984H17.5C17.7761 15.984 18 16.2079 18 16.484C18 16.7602 17.7761 16.984 17.5 16.984H13.5C13.2239 16.984 13 16.7602 13 16.484V12.484C13 12.2079 13.2239 11.984 13.5 11.984C13.7761 11.984 14 12.2079 14 12.484V15.2297ZM4 2.73827C2.12699 4.23809 1 6.51472 1 8.98401C1 13.2314 4.31965 16.7324 8.54082 16.9711C8.81653 16.9867 9.02739 17.2228 9.01181 17.4985C8.99622 17.7742 8.76008 17.9851 8.48438 17.9695C3.73441 17.7009 0 13.7625 0 8.98401C0 6.22088 1.25527 3.67111 3.34223 1.98401H0.5C0.223858 1.98401 0 1.76015 0 1.48401C0 1.20787 0.223858 0.984012 0.5 0.984012H4.5C4.77614 0.984012 5 1.20787 5 1.48401V5.48401C5 5.76015 4.77614 5.98401 4.5 5.98401C4.22386 5.98401 4 5.76015 4 5.48401V2.73827Z" fill="currentColor"/>
</svg>
