<svg viewBox="0 0 19 19" fill="none" xmlns="http://www.w3.org/2000/svg">
<path d="M10 13.2929L13.1464 10.1464C13.3417 9.95118 13.6583 9.95118 13.8536 10.1464C14.0488 10.3417 14.0488 10.6583 13.8536 10.8536L9.85355 14.8536C9.65829 15.0488 9.34171 15.0488 9.14645 14.8536L5.14645 10.8536C4.95118 10.6583 4.95118 10.3417 5.14645 10.1464C5.34171 9.95118 5.65829 9.95118 5.85355 10.1464L9 13.2929V4.5C9 4.22386 9.22386 4 9.5 4C9.77614 4 10 4.22386 10 4.5V13.2929ZM19 9.5C19 14.7467 14.7467 19 9.5 19C4.25329 19 0 14.7467 0 9.5C0 4.25329 4.25329 0 9.5 0C14.7467 0 19 4.25329 19 9.5ZM18 9.5C18 4.80558 14.1944 1 9.5 1C4.80558 1 1 4.80558 1 9.5C1 14.1944 4.80558 18 9.5 18C14.1944 18 18 14.1944 18 9.5Z" fill="#737373"/>
</svg>
