<svg viewBox="0 0 144 144" xmlns="http://www.w3.org/2000/svg">
    <g fill="none" fill-rule="evenodd">
        <circle fill="#F5F8FA" cx="72" cy="72" r="72"/>
        <path d="M116.5 112.5a.5.5 0 0 1 .5.5v3.5a.5.5 0 0 1-.5.5h-89a.5.5 0 0 1-.5-.5V113a.5.5 0 0 1 .5-.5h89zM40.557 54c2.506 0 4.7.406 6.58 1.218 1.879.812 3.34 1.948 4.385 3.406 1.044 1.459 1.567 3.133 1.567 5.022 0 1.89-5.013.929-5.013 0 0-.928-.285-1.84-.854-2.734-.57-.895-1.425-1.641-2.564-2.238s-2.582-.895-4.329-.895c-2.088 0-3.835.44-5.24 1.318-1.405.878-2.108 2.08-2.108 3.605 0 1.16.313 2.138.94 2.933.626.796 1.661 1.517 3.104 2.163 1.443.647 3.4 1.335 5.867 2.064 2.317.663 4.301 1.434 5.953 2.312 1.652.878 2.924 1.964 3.816 3.257.893 1.293 1.339 2.9 1.339 4.823 0 1.89-.55 3.564-1.652 5.022-1.101 1.459-2.64 2.61-4.614 3.456C45.76 89.577 43.462 90 40.842 90c-2.81 0-5.25-.464-7.32-1.392-2.07-.928-3.664-2.221-4.785-3.879-1.12-1.657-1.699-3.596-1.737-5.817-.038-2.221 4.975-1.99 5.013 0 .038 1.989.807 3.704 2.307 5.146 1.5 1.442 3.674 2.163 6.522 2.163 2.62 0 4.642-.555 6.066-1.666 1.424-1.11 2.136-2.445 2.136-4.003 0-1.292-.341-2.378-1.025-3.256-.684-.879-1.794-1.658-3.332-2.337-1.538-.68-3.598-1.384-6.18-2.114-3.646-.961-6.304-2.27-7.975-3.928-1.671-1.657-2.507-3.713-2.507-6.166a7.31 7.31 0 0 1 1.481-4.475c.988-1.326 2.412-2.37 4.272-3.132C35.64 54.38 37.898 54 40.557 54zm63 0c2.507 0 4.7.406 6.58 1.218 1.88.812 3.341 1.948 4.386 3.406 1.044 1.459 1.566 3.133 1.566 5.022 0 1.89-5.013.929-5.013 0 0-.928-.284-1.84-.854-2.734-.57-.895-1.424-1.641-2.563-2.238-1.14-.597-2.583-.895-4.33-.895-2.088 0-3.835.44-5.24 1.318-1.405.878-2.108 2.08-2.108 3.605 0 1.16.314 2.138.94 2.933.627.796 1.662 1.517 3.105 2.163 1.443.647 3.398 1.335 5.867 2.064 2.316.663 4.3 1.434 5.952 2.312 1.652.878 2.924 1.964 3.817 3.257.892 1.293 1.338 2.9 1.338 4.823 0 1.89-.55 3.564-1.651 5.022-1.102 1.459-2.64 2.61-4.614 3.456-1.975.845-4.273 1.268-6.893 1.268-2.81 0-5.25-.464-7.32-1.392-2.069-.928-3.664-2.221-4.784-3.879-1.12-1.657-1.7-3.596-1.738-5.817-.038-2.221 4.975-1.99 5.013 0 .038 1.989.807 3.704 2.307 5.146 1.5 1.442 3.674 2.163 6.522 2.163 2.62 0 4.643-.555 6.067-1.666 1.424-1.11 2.136-2.445 2.136-4.003 0-1.292-.342-2.378-1.026-3.256-.683-.879-1.794-1.658-3.332-2.337-1.538-.68-3.598-1.384-6.18-2.114-3.646-.961-6.304-2.27-7.975-3.928-1.67-1.657-2.506-3.713-2.506-6.166 0-1.657.493-3.149 1.48-4.475.988-1.326 2.412-2.37 4.273-3.132 1.86-.763 4.12-1.144 6.778-1.144zM63.36 54 72 71.126 80.64 54h4.86v33.786a2.214 2.214 0 1 1-4.428 0V62.331l-6.566 13.012a2.807 2.807 0 0 1-5.015.001l-6.563-12.961v25.403a2.214 2.214 0 1 1-4.428 0V54h4.86zm53.14-27a.5.5 0 0 1 .5.5V31a.5.5 0 0 1-.5.5h-89a.5.5 0 0 1-.5-.5v-3.5a.5.5 0 0 1 .5-.5h89z" fill="#1578D4"/>
    </g>
</svg>