<svg viewBox="0 0 14 14" xmlns="http://www.w3.org/2000/svg">
    <path d="M13.333 13a.333.333 0 1 1 0 .667H.667a.333.333 0 0 1 0-.667zM2.342 4.333c.371 0 .696.06.974.18.279.121.496.29.65.505.155.216.232.465.232.744 0 .28-.742.138-.742 0s-.042-.272-.127-.405c-.084-.132-.21-.243-.38-.331s-.382-.133-.641-.133c-.31 0-.568.065-.776.195-.209.13-.313.309-.313.534a.68.68 0 0 0 .14.435c.092.118.246.225.46.32.213.096.503.198.869.306.343.098.637.213.882.343s.433.29.565.482c.132.192.198.43.198.715 0 .28-.081.528-.244.744-.164.216-.391.387-.684.512s-.633.188-1.021.188c-.416 0-.778-.07-1.084-.207a1.64 1.64 0 0 1-.71-.574C.426 8.64.34 8.353.334 8.024s.737-.295.743 0 .12.549.342.762c.222.214.544.32.966.32.388 0 .688-.081.899-.246.21-.164.316-.362.316-.593 0-.191-.05-.352-.152-.482s-.266-.246-.493-.347-.533-.205-.916-.313c-.54-.142-.934-.336-1.181-.582a1.235 1.235 0 0 1-.372-.913c0-.246.073-.467.22-.663a1.45 1.45 0 0 1 .633-.464c.275-.113.61-.17 1.004-.17zm9.333 0c.371 0 .696.06.975.18.278.121.495.29.65.505.154.216.232.465.232.744 0 .28-.743.138-.743 0s-.042-.272-.126-.405a.968.968 0 0 0-.38-.331c-.169-.089-.383-.133-.642-.133-.309 0-.568.065-.776.195-.208.13-.312.309-.312.534 0 .172.046.317.139.435s.246.225.46.32.503.198.87.306c.342.098.636.213.881.343s.433.29.565.482c.133.192.199.43.199.715 0 .28-.082.528-.245.744a1.643 1.643 0 0 1-.684.512 2.578 2.578 0 0 1-1.02.188c-.417 0-.778-.07-1.085-.207a1.64 1.64 0 0 1-.709-.574c-.166-.246-.252-.533-.257-.862s.737-.295.742 0 .12.549.342.762c.222.214.544.32.966.32.389 0 .688-.081.9-.246.21-.164.316-.362.316-.593a.762.762 0 0 0-.152-.482c-.102-.13-.266-.246-.494-.347s-.533-.205-.916-.313c-.54-.142-.934-.336-1.181-.582a1.235 1.235 0 0 1-.371-.913c0-.246.073-.467.219-.663.146-.197.357-.351.633-.464s.61-.17 1.004-.17zm-5.955 0L7 6.87l1.28-2.537H9V9.34a.328.328 0 0 1-.656 0V5.568l-.973 1.927a.416.416 0 0 1-.743 0l-.972-1.92V9.34a.328.328 0 0 1-.656 0V4.333zm7.613-4a.333.333 0 0 1 0 .667H.667a.333.333 0 1 1 0-.667z" fill="#212428" fill-rule="evenodd"/>
</svg>