<svg width="11" height="11" fill="currentColor" xmlns="http://www.w3.org/2000/svg">
<path d="M2.75 2.2V0.55C2.75 0.404131 2.80795 0.264236 2.91109 0.161091C3.01424 0.0579462 3.15413 0 3.3 0H7.7C7.84587 0 7.98576 0.0579462 8.08891 0.161091C8.19205 0.264236 8.25 0.404131 8.25 0.55V2.2H10.45C10.5959 2.2 10.7358 2.25795 10.8389 2.36109C10.9421 2.46424 11 2.60413 11 2.75V10.45C11 10.5959 10.9421 10.7358 10.8389 10.8389C10.7358 10.9421 10.5959 11 10.45 11H0.55C0.404131 11 0.264236 10.9421 0.161091 10.8389C0.0579462 10.7358 0 10.5959 0 10.45V2.75C0 2.60413 0.0579462 2.46424 0.161091 2.36109C0.264236 2.25795 0.404131 2.2 0.55 2.2H2.75ZM1.1 8.25V9.9H9.9V8.25H1.1ZM1.1 7.15H9.9V3.3H1.1V7.15ZM3.85 1.1V2.2H7.15V1.1H3.85ZM4.95 5.5H6.05V6.6H4.95V5.5Z" />
</svg>
