<svg viewBox="0 0 20 20" fill="none" xmlns="http://www.w3.org/2000/svg">
<path d="M9.98536 0C4.48023 0 0 4.48023 0 9.98536C0 15.4905 4.48023 19.9707 9.98536 19.9707C15.5198 20 20 15.5198 20 9.98536C20 4.45095 15.5198 0 9.98536 0ZM9.98536 17.3646C5.94436 17.3646 2.63543 14.0556 2.63543 9.98536C2.63543 5.94436 5.94436 2.63543 9.98536 2.63543C14.0556 2.63543 17.3646 5.94436 17.3646 9.98536C17.3646 14.0556 14.0556 17.3646 9.98536 17.3646Z" fill="#E31E26"/>
<path d="M12.4743 9.57536C13.6226 9.57536 14.5534 8.64453 14.5534 7.4963C14.5534 6.34806 13.6226 5.41724 12.4743 5.41724C11.3261 5.41724 10.3953 6.34806 10.3953 7.4963C10.3953 8.64453 11.3261 9.57536 12.4743 9.57536Z" fill="#E31E26"/>
<path d="M12.4743 14.5534C13.6226 14.5534 14.5534 13.6226 14.5534 12.4743C14.5534 11.3261 13.6226 10.3953 12.4743 10.3953C11.3261 10.3953 10.3953 11.3261 10.3953 12.4743C10.3953 13.6226 11.3261 14.5534 12.4743 14.5534Z" fill="#E31E26"/>
<path d="M7.4963 14.5534C8.64453 14.5534 9.57536 13.6226 9.57536 12.4743C9.57536 11.3261 8.64453 10.3953 7.4963 10.3953C6.34806 10.3953 5.41724 11.3261 5.41724 12.4743C5.41724 13.6226 6.34806 14.5534 7.4963 14.5534Z" fill="#E31E26"/>
<path d="M7.4963 9.57536C8.64453 9.57536 9.57536 8.64453 9.57536 7.4963C9.57536 6.34806 8.64453 5.41724 7.4963 5.41724C6.34806 5.41724 5.41724 6.34806 5.41724 7.4963C5.41724 8.64453 6.34806 9.57536 7.4963 9.57536Z" fill="#E31E26"/>
</svg>
