<svg viewBox="0 0 27 27" fill="none" xmlns="http://www.w3.org/2000/svg">
<rect x="0.5" y="0.5" width="26" height="26" rx="13" fill="#F5F8FA" stroke="#4BB3FD"/>
<path fill-rule="evenodd" clip-rule="evenodd" d="M7.31503 7H20.6849C20.8589 7 20.9999 7.14103 20.9999 7.315V7.385C20.9999 7.55897 20.8589 7.69998 20.6849 7.69998H7.31503C7.14106 7.69998 7.00003 7.55897 7.00003 7.385V7.315C7.00003 7.14103 7.14106 7 7.31503 7ZM7.31503 20.3H20.6849C20.8589 20.3 20.9999 20.4411 20.9999 20.615V20.685C20.9999 20.859 20.8589 21 20.6849 21H7.31503C7.14106 21 7.00003 20.859 7.00003 20.685V20.615C7.00003 20.4411 7.14106 20.3 7.31503 20.3ZM9.15317 16.8C9.56077 16.8 9.91817 16.7343 10.2254 16.6028C10.5325 16.4713 10.7718 16.2921 10.943 16.0652C11.1143 15.8383 11.2 15.5779 11.2 15.284C11.2 14.9849 11.1306 14.7348 10.9918 14.5337C10.853 14.3326 10.6551 14.1637 10.3981 14.0271C10.1411 13.8904 9.83249 13.7705 9.4722 13.6674C9.08821 13.554 8.78399 13.447 8.55952 13.3464C8.33505 13.2459 8.17409 13.1337 8.07663 13.0099C7.97917 12.8862 7.93041 12.7341 7.93041 12.5536C7.93041 12.3164 8.03971 12.1295 8.25826 11.9928C8.4768 11.8562 8.74852 11.7879 9.07341 11.7879C9.34519 11.7879 9.56966 11.8342 9.74687 11.9271C9.92409 12.0199 10.057 12.1359 10.1456 12.2752C10.2342 12.4143 10.2785 12.5562 10.2785 12.7006C10.2785 12.845 11.0582 12.9945 11.0582 12.7006C11.0582 12.4067 10.977 12.1462 10.8146 11.9194C10.6521 11.6924 10.4247 11.5158 10.1323 11.3895C9.83986 11.2631 9.49878 11.2 9.10888 11.2C8.69541 11.2 8.34394 11.2593 8.05445 11.3779C7.76503 11.4965 7.54349 11.6589 7.3899 11.8652C7.23632 12.0714 7.15952 12.3035 7.15952 12.5613C7.15952 12.9429 7.28948 13.2626 7.5494 13.5204C7.80932 13.7783 8.22279 13.982 8.78991 14.1315C9.1916 14.2449 9.51201 14.3545 9.75128 14.4602C9.99049 14.5659 10.1633 14.6871 10.2696 14.8238C10.376 14.9604 10.4291 15.1293 10.4291 15.3304C10.4291 15.5727 10.3183 15.7803 10.0968 15.9531C9.87533 16.1258 9.56077 16.2122 9.15317 16.2122C8.71015 16.2122 8.37197 16.1 8.13862 15.8757C7.90533 15.6514 7.7857 15.3845 7.77977 15.0752C7.77385 14.7658 6.99412 14.7297 7.00003 15.0752C7.00594 15.4206 7.09603 15.7223 7.27028 15.9802C7.44455 16.2379 7.69265 16.439 8.01457 16.5834C8.3365 16.7278 8.71607 16.8 9.15317 16.8ZM18.9532 16.8C19.3608 16.8 19.7181 16.7343 20.0253 16.6028C20.3325 16.4713 20.5717 16.2921 20.7431 16.0652C20.9144 15.8383 21 15.5779 21 15.284C21 14.9849 20.9306 14.7348 20.7918 14.5337C20.653 14.3326 20.4551 14.1637 20.1981 14.0271C19.9412 13.8904 19.6325 13.7705 19.2722 13.6674C18.8882 13.554 18.584 13.447 18.3596 13.3464C18.135 13.2459 17.9741 13.1337 17.8766 13.0099C17.7791 12.8862 17.7304 12.7341 17.7304 12.5536C17.7304 12.3164 17.8397 12.1295 18.0583 11.9928C18.2768 11.8562 18.5486 11.7879 18.8734 11.7879C19.1452 11.7879 19.3696 11.8342 19.5468 11.9271C19.7241 12.0199 19.857 12.1359 19.9456 12.2752C20.0342 12.4143 20.0785 12.5562 20.0785 12.7006C20.0785 12.845 20.8582 12.9945 20.8582 12.7006C20.8582 12.4067 20.777 12.1462 20.6146 11.9194C20.4522 11.6924 20.2247 11.5158 19.9323 11.3895C19.6399 11.2631 19.2988 11.2 18.9089 11.2C18.4954 11.2 18.1439 11.2593 17.8545 11.3779C17.565 11.4965 17.3435 11.6589 17.1899 11.8652C17.0363 12.0714 16.9595 12.3035 16.9595 12.5613C16.9595 12.9429 17.0895 13.2626 17.3494 13.5204C17.6093 13.7783 18.0228 13.982 18.5899 14.1315C18.9916 14.2449 19.312 14.3545 19.5513 14.4602C19.7905 14.5659 19.9633 14.6871 20.0696 14.8238C20.176 14.9604 20.2291 15.1293 20.2291 15.3304C20.2291 15.5727 20.1184 15.7803 19.8969 15.9531C19.6754 16.1258 19.3608 16.2122 18.9532 16.2122C18.5102 16.2122 18.172 16.1 17.9387 15.8757C17.7053 15.6514 17.5857 15.3845 17.5798 15.0752C17.5739 14.7658 16.7941 14.7297 16.8001 15.0752C16.8059 15.4206 16.896 15.7223 17.0703 15.9802C17.2445 16.2379 17.4927 16.439 17.8146 16.5834C18.1365 16.7278 18.516 16.8 18.9532 16.8ZM12.5888 16.4556V12.504L13.6098 14.5202C13.6842 14.6673 13.8351 14.76 14 14.76C14.1649 14.76 14.3156 14.6672 14.3899 14.5201L15.4112 12.496V16.4556C15.4112 16.6458 15.5654 16.8 15.7556 16.8C15.9458 16.8 16.1 16.6458 16.1 16.4556V11.2H15.344L14 13.864L12.656 11.2H11.9V16.4556C11.9 16.6458 12.0542 16.8 12.2444 16.8C12.4346 16.8 12.5888 16.6458 12.5888 16.4556Z" fill="#1578D4"/>
</svg>
