<svg viewBox="0 0 27 27" fill="none" xmlns="http://www.w3.org/2000/svg">
<rect x="0.5" y="0.5" width="26" height="26" rx="13" fill="#F5F8FA" stroke="#4BB3FD"/>
<path fill-rule="evenodd" clip-rule="evenodd" d="M18.8126 8.18104C17.4021 6.77691 15.5298 6.00356 13.5322 6C9.41527 6 6.06802 9.33571 6.06444 13.4305C6.06444 14.742 6.40811 16.0178 7.05967 17.1475L6 21L9.95943 19.9665C11.0513 20.5581 12.2792 20.8717 13.5286 20.8717H13.5322C17.6456 20.8717 20.9964 17.536 21 13.4376C21 11.4526 20.2232 9.58517 18.8126 8.18104ZM13.5322 19.6172C12.4153 19.6172 11.3234 19.3179 10.3711 18.7548L10.1456 18.6194L7.79714 19.2324L8.42363 16.9515L8.27685 16.7163C7.65394 15.7327 7.32816 14.5959 7.32816 13.4305C7.32816 10.0235 10.1134 7.25445 13.5358 7.25445C15.1933 7.25445 16.7506 7.8995 17.9248 9.06486C19.0955 10.2338 19.7399 11.784 19.7399 13.4341C19.7363 16.8446 16.9511 19.6172 13.5322 19.6172ZM16.9368 14.9879C16.7506 14.8952 15.8341 14.4462 15.6623 14.382C15.4905 14.3215 15.3652 14.2894 15.2434 14.4747C15.1181 14.66 14.7601 15.0805 14.6527 15.2017C14.5453 15.3264 14.4344 15.3407 14.2482 15.248C14.0621 15.1554 13.4606 14.9594 12.7482 14.325C12.1933 13.8332 11.821 13.2238 11.71 13.0385C11.6026 12.8532 11.6993 12.7534 11.7924 12.6607C11.8747 12.5788 11.9785 12.4433 12.0716 12.3364C12.1647 12.2295 12.1969 12.1511 12.2578 12.0264C12.3186 11.9016 12.29 11.7947 12.2434 11.7021C12.1969 11.6094 11.8246 10.6935 11.6671 10.3229C11.5167 9.95937 11.3628 10.0093 11.2482 10.0057C11.1408 9.99857 11.0155 9.99857 10.8902 9.99857C10.7649 9.99857 10.5644 10.0449 10.3926 10.2302C10.2208 10.4155 9.74105 10.8646 9.74105 11.7805C9.74105 12.6964 10.4105 13.5766 10.5036 13.7014C10.5967 13.8261 11.8174 15.7006 13.6897 16.5061C14.1337 16.6985 14.4809 16.8125 14.753 16.8981C15.2005 17.0406 15.605 17.0192 15.9272 16.9729C16.2852 16.9195 17.0298 16.5239 17.1874 16.0891C17.3413 15.6543 17.3413 15.2837 17.2947 15.2053C17.2446 15.1304 17.1229 15.0841 16.9368 14.9879Z" fill="#0BD561"/>
</svg>
