<svg viewBox="0 0 20 20" fill="none" xmlns="http://www.w3.org/2000/svg">
<circle cx="10" cy="10" r="10" fill="#D51548"/>
<path d="M10 16C8.57707 16 7.27036 15.505 6.24179 14.6775L14.6775 6.24179C15.505 7.27036 16 8.57707 16 10C16 13.3137 13.3137 16 10 16ZM13.7582 5.32255L5.32255 13.7582C4.49499 12.7296 4 11.4229 4 10C4 6.68629 6.68629 4 10 4C11.4229 4 12.7296 4.49499 13.7582 5.32255ZM2.7 10C2.7 14.0317 5.96832 17.3 10 17.3C14.0317 17.3 17.3 14.0317 17.3 10C17.3 5.96832 14.0317 2.7 10 2.7C5.96832 2.7 2.7 5.96832 2.7 10Z" fill="white" stroke="white" stroke-width="0.6"/>
</svg>
