<svg xmlns="http://www.w3.org/2000/svg" viewBox="0 0 52.511 52.511" style="enable-background:new 0 0 52.511 52.511"
	xml:space="preserve" fill="none">
	<path
		d="M31.256 0H21.254C10.778 0 2.255 8.521 2.255 18.995v9.01c0 7.8 4.793 14.81 12 17.665v5.841a.999.999 0 0 0 1.671.741L21.725 47h9.531c10.476 0 18.999-8.521 18.999-18.995v-9.01C50.255 8.521 41.732 0 31.256 0zm16.999 28.005C48.255 37.376 40.63 45 31.256 45h-9.917a.998.998 0 0 0-.671.259l-4.413 3.997v-4.279a.997.997 0 0 0-.667-.942 17.03 17.03 0 0 1-11.333-16.03v-9.01C4.255 9.624 11.881 2 21.254 2h10.002c9.374 0 16.999 7.624 16.999 16.995v9.01z" fill="#7360F2" />
	<path
		d="m39.471 30.493-6.146-3.992a2.994 2.994 0 0 0-4.15.88l-.289.444c-2.66-.879-5.593-2.002-7.349-7.085l.727-.632a3.005 3.005 0 0 0 .294-4.233l-4.808-5.531a1.001 1.001 0 0 0-1.411-.099l-3.019 2.624c-2.648 2.302-1.411 5.707-1.004 6.826.018.05.04.098.066.145.105.188 2.612 4.662 6.661 8.786 4.065 4.141 11.404 7.965 11.629 8.076a5.006 5.006 0 0 0 6.916-1.47l2.178-3.354c.3-.465.168-1.084-.295-1.385zm-3.561 3.649c-.901 1.388-2.763 1.782-4.233.834-.073-.038-7.364-3.835-11.207-7.75-3.592-3.659-5.977-7.724-6.302-8.291-.792-2.221-.652-3.586.464-4.556l2.265-1.968 4.152 4.776a.99.99 0 0 1-.096 1.411l-1.227 1.066a.999.999 0 0 0-.3 1.049c2.092 6.798 6.16 8.133 9.13 9.108l.433.143a.996.996 0 0 0 1.155-.403l.709-1.092a.988.988 0 0 1 .63-.434.99.99 0 0 1 .753.143l5.308 3.447-1.634 2.517zm-7.372-17.895a1 1 0 1 0-.548 1.923 4.524 4.524 0 0 1 3.097 3.104 1 1 0 0 0 1.925-.542 6.538 6.538 0 0 0-4.474-4.485z" fill="#7360F2" />
	<path
		d="M36.148 22.219a1 1 0 0 0 .963-1.271c-1.18-4.183-4.509-7.519-8.689-8.709a1 1 0 0 0-.547 1.924c3.517 1 6.318 3.809 7.311 7.328a1 1 0 0 0 .962.728z" fill="#7360F2" />
	<path
		d="M27.991 7.582a1 1 0 1 0-.548 1.924c5.959 1.695 10.706 6.453 12.388 12.416a1 1 0 0 0 1.925-.542c-1.869-6.627-7.143-11.913-13.765-13.798z" fill="#7360F2" />
</svg>