<svg viewBox="0 0 30 30" fill="none" xmlns="http://www.w3.org/2000/svg">
<path d="M26.6137 3.08542C25.8276 2.36009 22.6509 0.054035 15.5752 0.0227054C15.5752 0.0227054 7.23104 -0.480468 3.16341 3.25061C0.899124 5.51537 0.102591 8.82919 0.0185704 12.9377C-0.06545 17.0461 -0.174155 24.7456 7.24766 26.8333H7.25478L7.25003 30.019C7.25003 30.019 7.20256 31.3087 8.05178 31.5717C9.07902 31.8907 9.68188 30.9104 10.6626 29.8538C11.2009 29.2737 11.9443 28.4216 12.5044 27.7704C17.5803 28.1976 21.4841 27.2211 21.9275 27.0768C22.9524 26.7445 28.7517 26.0016 29.6949 18.3026C30.6685 10.3672 29.224 5.3478 26.6137 3.08542Z" fill="white"/>
<path d="M24.9629 4.68818C24.2984 4.08437 21.4298 2.28196 15.4444 2.25586C15.4444 2.25586 8.35678 1.79018 4.91621 4.90654C3.0013 6.79723 2.35619 9.60884 2.28547 13.0399C2.21474 16.471 1.84827 23.0255 8.12418 24.7691C8.12418 24.7691 8.09949 29.6351 8.09664 30.0628C8.09664 30.3619 8.14411 30.5665 8.315 30.6087C8.43795 30.6386 8.62213 30.575 8.77878 30.4189C9.78228 29.4111 12.995 25.5352 12.995 25.5352C17.3057 25.8167 20.7353 24.9656 21.1042 24.845C21.9738 24.5654 26.6775 24.1615 27.4736 17.7313C28.2962 11.1032 27.1712 6.57888 24.9629 4.68818Z" fill="#7360F2"/>
<path d="M18.4879 12.7576C18.4101 11.1883 17.6129 10.364 16.0964 10.2849" stroke="white" stroke-linecap="round" stroke-linejoin="round"/>
<path d="M20.5413 13.4459C20.5729 11.9839 20.1399 10.7623 19.2421 9.78131C18.3402 8.7968 17.0917 8.2547 15.4896 8.13745" stroke="white" stroke-linecap="round" stroke-linejoin="round"/>
<path d="M22.6431 14.2692C22.6238 11.7321 21.8657 9.73401 20.3688 8.27481C18.8719 6.81561 17.0104 6.07825 14.7841 6.06274" stroke="white" stroke-linecap="round" stroke-linejoin="round"/>
<path d="M16.1758 18.1182C16.1758 18.1182 16.7383 18.1656 17.0412 17.7925L17.6317 17.0496C17.9165 16.6813 18.6039 16.4463 19.277 16.8213C19.7814 17.109 20.2711 17.4217 20.7443 17.7583C21.191 18.0868 22.1057 18.8501 22.1085 18.8501C22.5443 19.218 22.6449 19.7582 22.3483 20.3278C22.3483 20.3312 22.3459 20.3369 22.3459 20.3397C22.0191 20.9062 21.6043 21.417 21.1169 21.853C21.1112 21.8559 21.1112 21.8587 21.106 21.8616C20.6826 22.2154 20.2666 22.4165 19.858 22.4649C19.7979 22.4754 19.7367 22.4793 19.6757 22.4763C19.4956 22.478 19.3163 22.4505 19.145 22.3947L19.1317 22.3752C18.5023 22.1977 17.4513 21.7533 15.7011 20.7878C14.6883 20.2357 13.7241 19.5987 12.8188 18.8838C12.365 18.5257 11.9322 18.1418 11.5224 17.7341L11.4788 17.6905L11.4351 17.6468L11.3914 17.6031C11.3767 17.5889 11.3625 17.5742 11.3477 17.5594C10.94 17.1497 10.5562 16.7168 10.198 16.2631C9.48325 15.3578 8.84631 14.3938 8.29405 13.3812C7.32853 11.6305 6.88421 10.5805 6.70668 9.95013L6.68722 9.93684C6.63157 9.7655 6.60415 9.58626 6.60604 9.40613C6.60272 9.34515 6.60639 9.28399 6.61696 9.22385C6.66791 8.81593 6.86934 8.39962 7.22125 7.97493C7.22409 7.96971 7.22694 7.96971 7.22979 7.96402C7.6657 7.47665 8.17656 7.06194 8.74311 6.73551C8.74596 6.73551 8.75165 6.73266 8.75498 6.73266C9.32461 6.43598 9.86481 6.53662 10.2322 6.97001C10.2351 6.97286 10.9969 7.88759 11.324 8.33427C11.6607 8.80789 11.9734 9.29807 12.2611 9.80297C12.6361 10.4756 12.4011 11.1644 12.0327 11.4483L11.2898 12.0388C10.9148 12.3416 10.9642 12.9041 10.9642 12.9041C10.9642 12.9041 12.0645 17.0686 16.1758 18.1182Z" fill="white"/>
</svg>
