<svg viewBox="0 0 21 19" fill="none" xmlns="http://www.w3.org/2000/svg">
<path d="M10.4999 0C7.96449 0 5.89988 2.06461 5.89988 4.6C5.89988 6.11297 6.65098 7.44086 7.78301 8.28L5.51176 12.0319C5.49379 12.0265 5.47402 12.0229 5.45426 12.0175C4.97988 11.8899 4.48574 11.96 4.05988 12.2044C3.18121 12.7129 2.87754 13.8413 3.38426 14.72C3.72387 15.3094 4.34379 15.64 4.97988 15.64C5.29254 15.64 5.61059 15.5627 5.89988 15.3956C6.32574 15.1495 6.6348 14.7487 6.76238 14.2744C6.88996 13.8 6.82168 13.3059 6.57551 12.88C6.49824 12.747 6.39223 12.6284 6.28801 12.5206L8.78926 8.40937L9.03363 8.00687L8.63113 7.77687C7.54762 7.13719 6.81988 5.95305 6.81988 4.6C6.81988 2.56234 8.46223 0.92 10.4999 0.92C12.5375 0.92 14.1799 2.56234 14.1799 4.6C14.1799 4.97914 14.1278 5.33492 14.0218 5.67812L14.8986 5.95125C15.0316 5.5218 15.0999 5.07078 15.0999 4.6C15.0999 2.06461 13.0353 0 10.4999 0ZM10.4999 2.76C9.48465 2.76 8.65988 3.58477 8.65988 4.6C8.65988 5.61523 9.48465 6.44 10.4999 6.44C10.6526 6.44 10.8036 6.41844 10.9455 6.3825L13.1593 10.3931L13.3749 10.7956L13.7918 10.58C14.3182 10.2889 14.9148 10.12 15.5599 10.12C17.5975 10.12 19.2399 11.7623 19.2399 13.8C19.2399 15.8377 17.5975 17.48 15.5599 17.48C14.5662 17.48 13.6642 17.0829 13.0011 16.445L12.3686 17.1062C13.1952 17.9023 14.3236 18.4 15.5599 18.4C18.0953 18.4 20.1599 16.3354 20.1599 13.8C20.1599 11.2646 18.0953 9.2 15.5599 9.2C14.922 9.2 14.3308 9.36711 13.7774 9.6025L11.7505 5.93687C12.1099 5.60086 12.3399 5.13008 12.3399 4.6C12.3399 3.58477 11.5151 2.76 10.4999 2.76ZM3.85863 9.32937C1.85512 9.82891 0.379883 11.6491 0.379883 13.8C0.379883 16.3354 2.44449 18.4 4.97988 18.4C7.35176 18.4 9.25105 16.569 9.49363 14.26H13.7918C13.9966 15.0524 14.7046 15.64 15.5599 15.64C16.5751 15.64 17.3999 14.8152 17.3999 13.8C17.3999 12.7848 16.5751 11.96 15.5599 11.96C14.7046 11.96 13.9966 12.5476 13.7918 13.34H8.65988V13.8C8.65988 15.8377 7.01754 17.48 4.97988 17.48C2.94223 17.48 1.29988 15.8377 1.29988 13.8C1.29988 12.0714 2.48941 10.6339 4.08863 10.235L3.85863 9.32937Z" fill="#737373"/>
</svg>
