<svg viewBox="0 0 30 30" fill="none" xmlns="http://www.w3.org/2000/svg">
<path fill-rule="evenodd" clip-rule="evenodd" d="M25.6253 4.36208C22.8043 1.55381 19.0597 0.00712759 15.0644 0C6.83055 0 0.136038 6.67142 0.128878 14.861C0.128878 17.484 0.81623 20.0356 2.11933 22.2951L0 30L7.91885 27.933C10.1026 29.1162 12.5585 29.7434 15.0573 29.7434H15.0644C23.2912 29.7434 29.9928 23.072 30 14.8753C30 10.9052 28.4463 7.17035 25.6253 4.36208ZM15.0644 27.2345C12.8306 27.2345 10.6468 26.6358 8.74224 25.5096L8.29117 25.2388L3.59427 26.4647L4.84726 21.9031L4.5537 21.4326C3.30788 19.4654 2.65632 17.1917 2.65632 14.861C2.65632 8.04704 8.22673 2.50891 15.0716 2.50891C18.3866 2.50891 21.5012 3.799 23.8496 6.12972C26.1909 8.46757 27.4797 11.5681 27.4797 14.8681C27.4726 21.6892 21.9021 27.2345 15.0644 27.2345ZM21.8735 17.9758C21.5012 17.7904 19.6683 16.8924 19.3246 16.7641C18.9809 16.6429 18.7303 16.5788 18.4869 16.9494C18.2363 17.32 17.5203 18.1611 17.3055 18.4034C17.0907 18.6529 16.8687 18.6814 16.4964 18.4961C16.1241 18.3108 14.9212 17.9187 13.4964 16.65C12.3866 15.6664 11.642 14.4476 11.42 14.077C11.2053 13.7063 11.3986 13.5068 11.5847 13.3215C11.7494 13.1575 11.957 12.8867 12.1432 12.6728C12.3294 12.459 12.3938 12.3022 12.5155 12.0527C12.6372 11.8033 12.58 11.5894 12.4869 11.4041C12.3938 11.2188 11.6492 9.38703 11.3341 8.64576C11.0334 7.91874 10.7255 8.01853 10.4964 8.0114C10.2816 7.99715 10.031 7.99715 9.78043 7.99715C9.52983 7.99715 9.12888 8.08981 8.7852 8.46044C8.44153 8.83108 7.4821 9.72915 7.4821 11.5609C7.4821 13.3927 8.821 15.1532 9.00716 15.4027C9.19332 15.6522 11.6348 19.4013 15.3795 21.0121C16.2673 21.397 16.9618 21.6251 17.506 21.7962C18.401 22.0813 19.21 22.0385 19.8544 21.9458C20.5704 21.8389 22.0597 21.0478 22.3747 20.1782C22.6826 19.3086 22.6826 18.5674 22.5895 18.4105C22.4893 18.2609 22.2458 18.1682 21.8735 17.9758Z" fill="#0BD561"/>
</svg>
