<svg viewBox="0 0 14 14" xmlns="http://www.w3.org/2000/svg">
    <path d="M11.717 2.289A6.59 6.59 0 0 0 7.035.346c-3.65 0-6.62 2.971-6.622 6.62 0 1.167.304 2.304.882 3.31l-.94 3.432 3.512-.92a6.625 6.625 0 0 0 3.165.806h.003c3.648 0 6.619-2.972 6.622-6.623a6.58 6.58 0 0 0-1.94-4.682zM7.035 12.476c-.99 0-1.959-.266-2.803-.768l-.2-.12-2.083.545.556-2.031-.13-.21a5.479 5.479 0 0 1-.842-2.927 5.509 5.509 0 0 1 5.505-5.502c1.47 0 2.85.575 3.892 1.613a5.475 5.475 0 0 1 1.61 3.892c-.003 3.038-2.473 5.508-5.505 5.508zm3.019-4.124a29.967 29.967 0 0 0-1.13-.54c-.153-.053-.264-.082-.372.083-.11.165-.428.54-.523.648-.096.111-.194.124-.36.041-.164-.082-.698-.257-1.33-.822a5.048 5.048 0 0 1-.92-1.146c-.095-.165-.01-.254.073-.337.073-.073.165-.193.248-.289.082-.095.11-.165.165-.276.054-.11.028-.206-.013-.289-.041-.082-.371-.898-.511-1.228-.133-.324-.27-.28-.371-.283-.096-.006-.207-.006-.318-.006s-.289.041-.441.206c-.153.165-.578.565-.578 1.381 0 .816.594 1.6.676 1.711s1.165 1.781 2.826 2.499c.393.171.701.273.942.349a2.27 2.27 0 0 0 1.042.067c.317-.048.978-.4 1.117-.788.137-.387.137-.717.095-.787-.04-.07-.152-.111-.317-.194z" fill="#212428" fill-rule="evenodd"/>
</svg>