<svg viewBox="0 0 144 144" xmlns="http://www.w3.org/2000/svg">
    <g fill="none" fill-rule="evenodd">
        <circle fill="#F1FAFF" cx="72" cy="72" r="72"/>
        <path d="M106.022 39.013c-8.7-8.7-20.247-13.49-32.567-13.513-25.391 0-46.035 20.666-46.058 46.035 0 8.126 2.12 16.03 6.138 23.03L27 118.431l24.42-6.403a46.077 46.077 0 0 0 22.013 5.608h.022c25.37 0 46.035-20.666 46.057-46.057 0-12.299-4.79-23.868-13.49-32.567zm-32.567 70.852a38.176 38.176 0 0 1-19.496-5.343l-1.391-.839-14.484 3.798 3.864-14.131-.906-1.457c-3.841-6.094-5.85-13.138-5.85-20.358 0-21.107 17.177-38.263 38.285-38.263 10.223 0 19.827 3.996 27.07 11.216 7.22 7.242 11.194 16.847 11.194 27.07-.023 21.13-17.2 38.307-38.286 38.307zm20.997-28.68c-1.148-.575-6.8-3.357-7.86-3.754-1.06-.376-1.832-.574-2.583.574-.773 1.148-2.98 3.753-3.643 4.504-.663.773-1.347.861-2.495.287-1.148-.574-4.858-1.789-9.251-5.719-3.423-3.047-5.719-6.822-6.403-7.97-.663-1.148-.067-1.767.507-2.34.508-.509 1.149-1.348 1.723-2.01.574-.662.772-1.148 1.148-1.92.375-.774.198-1.436-.089-2.01-.287-.574-2.583-6.248-3.554-8.545-.928-2.252-1.877-1.943-2.584-1.965-.662-.044-1.435-.044-2.208-.044-.772 0-2.009.287-3.069 1.435-1.06 1.148-4.018 3.93-4.018 9.605 0 5.674 4.129 11.128 4.703 11.9.574.773 8.103 12.387 19.65 17.377 2.738 1.192 4.88 1.899 6.558 2.429 2.76.883 5.255.75 7.242.463 2.208-.33 6.8-2.782 7.772-5.475.95-2.694.95-4.99.662-5.476-.309-.464-1.06-.75-2.208-1.347z" fill="#0BD561"/>
    </g>
</svg>