<svg preserveAspectRatio="none" viewBox="0 0 63 45" fill="currentColor" xmlns="http://www.w3.org/2000/svg">
<path d="M30.0993 7.0242V26.5983H13.9119L30.0993 7.0242ZM30.0993 0C30.0993 4.47707 26.4756 8.10645 22.0056 8.10645C17.5356 8.10645 13.9119 4.47707 13.9119 0H30.0993ZM32.766 26.6001C32.766 22.123 36.3896 18.4936 40.8596 18.4936C45.3296 18.4936 48.9533 22.123 48.9533 26.6001H32.766ZM32.766 19.5759V0H48.9568L32.766 19.5741V19.5759ZM41.819 43.3471C42.6514 43.3658 43.4575 43.0541 44.0614 42.48L45.1731 43.6819C44.4389 44.4381 43.4207 45 41.838 45C39.1245 45 37.3704 43.1963 37.3704 40.7577C37.3482 39.6285 37.7851 38.5387 38.5808 37.7384C39.3766 36.9381 40.4628 36.4961 41.5904 36.5137C44.2848 36.5137 45.8121 38.5672 45.677 41.4151H39.3081C39.5332 42.5979 40.3644 43.3524 41.8138 43.3524M43.7532 40.057C43.58 38.9523 42.922 38.1388 41.606 38.1388C40.3817 38.1388 39.528 38.8326 39.3081 40.057H43.7549H43.7532ZM0 43.2552L4.90052 38.2672H0.116019V36.7028H7.17416V38.2984L2.27364 43.2847H7.24342V44.8508H0V43.2552ZM12.7448 43.3454C13.5773 43.3641 14.3833 43.0523 14.9873 42.4782L16.099 43.6801C15.3648 44.4363 14.3466 44.9983 12.7639 44.9983C10.0504 44.9983 8.29626 43.1945 8.29626 40.756C8.27404 39.6268 8.71093 38.537 9.50668 37.7367C10.3024 36.9364 11.3887 36.4944 12.5162 36.512C15.2107 36.512 16.738 38.5655 16.6029 41.4133H10.2374C10.4625 42.5962 11.2937 43.3506 12.7431 43.3506M14.6825 40.0553C14.5094 38.9505 13.8513 38.1371 12.5353 38.1371C11.311 38.1371 10.4573 38.8308 10.2374 40.0553H14.6843H14.6825ZM27.1901 40.7543C27.1901 38.1527 29.1347 36.5155 31.2768 36.5155C32.3172 36.5016 33.3105 36.9492 33.9902 37.7382V32.9305H35.7219V44.8283H33.9902V43.7062C33.323 44.5282 32.3188 45.0017 31.2612 44.9932C29.1832 44.9932 27.1918 43.3454 27.1918 40.756M34.0872 40.7387C34.0492 39.3189 32.8758 38.1952 31.4581 38.2208C30.0403 38.2463 28.9081 39.4115 28.9211 40.8317C28.934 42.2519 30.0874 43.3962 31.5053 43.3957C32.9946 43.3957 34.0855 42.2059 34.0855 40.7387M46.8095 43.0974L48.3784 42.2822C48.8011 43.037 49.6065 43.4951 50.4702 43.472C51.4503 43.472 51.9594 42.9691 51.9594 42.3967C51.9594 41.7446 51.0122 41.5989 49.9819 41.3856C48.5966 41.0907 47.1541 40.6346 47.1541 38.9575C47.1541 37.6688 48.3784 36.4773 50.3057 36.4946C51.8243 36.4946 52.9551 37.0982 53.5958 38.0729L52.1412 38.8707C51.7327 38.2647 51.0405 37.9131 50.3109 37.9411C49.3793 37.9411 48.9048 38.3972 48.9048 38.9193C48.9048 39.5055 49.6563 39.6685 50.8338 39.9304C52.1741 40.2253 53.691 40.6641 53.691 42.3586C53.691 43.4824 52.7109 44.9983 50.3905 44.9827C48.6935 44.9827 47.4987 44.2976 46.8113 43.0922M58.3959 41.2069L57.0227 42.7072V44.8231H55.2911V32.9253H57.0227V40.7178L60.699 36.6768H62.8081L59.6219 40.1628L62.8912 44.8248H60.931L58.3976 41.2069H58.3959ZM21.9571 36.5137C19.8965 36.5137 18.1735 37.8492 18.1735 40.0692V44.83H19.9398V40.2895C19.9398 38.954 20.7069 38.1527 22.0177 38.1527C23.3286 38.1527 23.9797 38.9505 23.9797 40.2895V44.83H25.7355V40.0692C25.7355 37.8527 24.0039 36.5137 21.9519 36.5137" fill="currentColor" />
</svg>
