<svg width="23" height="16" fill="none" xmlns="http://www.w3.org/2000/svg" fill='currentColor'>
  <path d="M10.882 2.497v6.96H5.03l5.852-6.96Zm0-2.497a2.86 2.86 0 0 1-.857 2.038 2.949 2.949 0 0 1-2.07.844c-.775 0-1.52-.303-2.068-.844A2.86 2.86 0 0 1 5.03 0h5.852Zm.964 9.458c0-.765.308-1.498.857-2.038a2.949 2.949 0 0 1 2.069-.845c.776 0 1.52.304 2.069.845a2.86 2.86 0 0 1 .857 2.038h-5.852Zm0-2.498V0h5.853l-5.853 6.96Zm3.273 8.452c.3.007.592-.104.81-.308l.402.427c-.265.27-.633.469-1.205.469-.981 0-1.616-.641-1.616-1.508a1.46 1.46 0 0 1 .438-1.074 1.505 1.505 0 0 1 1.088-.435c.974 0 1.526.73 1.478 1.742H14.21c.081.42.382.69.906.69l.002-.003Zm.699-1.17c-.063-.392-.3-.682-.776-.682-.443 0-.752.247-.831.682h1.608-.001ZM0 15.38l1.772-1.774H.042v-.556h2.552v.567L.822 15.39h1.797v.557H0v-.567Zm4.608.032a1.15 1.15 0 0 0 .81-.309l.402.428c-.265.269-.633.468-1.206.468C3.634 16 3 15.36 3 14.491a1.46 1.46 0 0 1 .438-1.073 1.505 1.505 0 0 1 1.088-.436c.974 0 1.526.73 1.477 1.743h-2.3c.08.42.381.689.905.689v-.002Zm.7-1.17c-.062-.393-.3-.682-.776-.682-.443 0-.751.246-.83.682h1.607Zm4.522.248c0-.925.703-1.507 1.477-1.507a1.29 1.29 0 0 1 .981.435v-1.71h.626v4.231h-.626v-.399a1.256 1.256 0 0 1-.986.458A1.471 1.471 0 0 1 9.83 14.49Zm2.493-.005a.91.91 0 0 0-.17-.505.947.947 0 0 0-1.434-.113.916.916 0 0 0-.19 1 .924.924 0 0 0 .345.41c.153.1.332.153.516.153a.924.924 0 0 0 .933-.945Zm4.6.838.567-.29a.84.84 0 0 0 .318.316.851.851 0 0 0 .438.108c.355 0 .539-.18.539-.383 0-.232-.343-.283-.715-.36-.501-.104-1.023-.266-1.023-.863 0-.458.443-.881 1.14-.875.549 0 .958.214 1.19.561l-.527.284a.759.759 0 0 0-.661-.33c-.337 0-.509.161-.509.347 0 .208.272.266.698.36.484.104 1.033.26 1.033.863 0 .4-.355.938-1.194.933-.613 0-1.045-.244-1.293-.672l-.001.002Zm4.189-.672-.497.534v.752h-.626v-4.23h.626v2.77l1.33-1.436h.762l-1.152 1.24 1.182 1.657h-.709l-.916-1.287ZM7.938 12.983c-.745 0-1.368.474-1.368 1.264v1.693h.639v-1.615c0-.475.277-.76.751-.76s.71.284.71.76v1.615h.634v-1.693c0-.788-.626-1.264-1.368-1.264"/>
</svg>