<svg width="34" height="24" viewBox="0 0 34 24" fill="none" xmlns="http://www.w3.org/2000/svg">
<path d="M16.1056 3.74624V14.1858H7.44396L16.1056 3.74624ZM16.1056 0C16.1056 1.14665 15.6493 2.24633 14.8371 3.05713C14.0249 3.86794 12.9234 4.32344 11.7748 4.32344C10.6262 4.32344 9.5246 3.86794 8.71242 3.05713C7.90024 2.24633 7.44396 1.14665 7.44396 0L16.1056 0ZM17.5325 14.1867C17.5325 13.04 17.9888 11.9404 18.8009 11.1296C19.6131 10.3188 20.7147 9.86325 21.8633 9.86325C23.0119 9.86325 24.1134 10.3188 24.9256 11.1296C25.7378 11.9404 26.1941 13.04 26.1941 14.1867H17.5325ZM17.5325 10.4405V0H26.1959L17.5325 10.4395V10.4405ZM22.3766 23.1185C22.822 23.1284 23.2533 22.9622 23.5765 22.656L24.1714 23.297C23.7785 23.7003 23.2337 24 22.3868 24C20.9348 24 19.9962 23.038 19.9962 21.7375C19.9903 21.4394 20.0447 21.1432 20.1559 20.8665C20.2672 20.5898 20.4332 20.3384 20.6439 20.1271C20.8546 19.9159 21.1058 19.7492 21.3825 19.637C21.6592 19.5248 21.9557 19.4693 22.2543 19.474C23.696 19.474 24.5133 20.5692 24.441 22.088H21.0331C21.1535 22.7189 21.5983 23.1212 22.3738 23.1212L22.3766 23.1185ZM23.4116 21.3638C23.3189 20.7745 22.9668 20.3407 22.2626 20.3407C21.6075 20.3407 21.1507 20.7107 21.0331 21.3638H23.4125H23.4116ZM-0.00012207 23.0694L2.62208 20.4092H0.0619582V19.5748H3.83867V20.4258L1.21647 23.0852H3.87573V23.9204H-0.00012207V23.0694ZM6.81945 23.1175C7.26488 23.1275 7.69619 22.9612 8.01936 22.655L8.61422 23.2961C8.22135 23.6994 7.67653 23.9991 6.82964 23.9991C5.3777 23.9991 4.43908 23.0371 4.43908 21.7365C4.4332 21.4385 4.48752 21.1422 4.59879 20.8656C4.71007 20.5889 4.87603 20.3375 5.08676 20.1262C5.2975 19.915 5.5487 19.7483 5.82538 19.6361C6.10205 19.5238 6.39854 19.4684 6.69714 19.4731C8.13889 19.4731 8.95612 20.5683 8.88385 22.0871H5.47777C5.59823 22.7179 6.04298 23.1203 6.81852 23.1203L6.81945 23.1175ZM7.85628 21.3628C7.76362 20.7736 7.41153 20.3398 6.70733 20.3398C6.05225 20.3398 5.59545 20.7098 5.47777 21.3628H7.85721H7.85628ZM14.5489 21.7356C14.5489 20.3481 15.5894 19.4749 16.7356 19.4749C17.0106 19.4713 17.2831 19.5277 17.534 19.6404C17.7848 19.753 18.0079 19.9191 18.1876 20.127V17.5629H19.1141V23.9084H18.1876V23.3099C18.0113 23.5264 17.7885 23.7004 17.5358 23.8192C17.283 23.9381 17.0067 23.9986 16.7273 23.9963C15.6154 23.9963 14.5498 23.1175 14.5498 21.7365L14.5489 21.7356ZM18.2394 21.7273C18.2322 21.456 18.1449 21.1928 17.9886 20.9708C17.8323 20.7487 17.6139 20.5776 17.3606 20.4788C17.1074 20.3801 16.8307 20.358 16.565 20.4154C16.2992 20.4729 16.0564 20.6072 15.8668 20.8017C15.6772 20.9962 15.5492 21.2422 15.4989 21.5089C15.4486 21.7756 15.4782 22.0512 15.584 22.3012C15.6898 22.5513 15.867 22.7646 16.0936 22.9146C16.3202 23.0645 16.5861 23.1445 16.8579 23.1444C17.6548 23.1444 18.2385 22.5098 18.2385 21.7273H18.2394ZM25.047 22.9853L25.8864 22.5505C25.9974 22.748 26.1603 22.9115 26.3576 23.0234C26.5549 23.1352 26.779 23.1911 27.0057 23.1851C27.5302 23.1851 27.8026 22.9168 27.8026 22.6116C27.8026 22.2638 27.2958 22.1861 26.7444 22.0723C26.0032 21.9151 25.2314 21.6718 25.2314 20.7773C25.2314 20.09 25.8864 19.4546 26.9177 19.4638C27.7303 19.4638 28.3354 19.7857 28.6782 20.3056L27.8999 20.7311C27.7924 20.5721 27.646 20.4431 27.4746 20.3563C27.3032 20.2696 27.1125 20.2279 26.9205 20.2353C26.422 20.2353 26.1681 20.4785 26.1681 20.757C26.1681 21.0696 26.5703 21.1566 27.2003 21.2962C27.9175 21.4535 28.7292 21.6875 28.7292 22.5912C28.7292 23.1906 28.2047 23.9991 26.9631 23.9907C26.0551 23.9907 25.4157 23.6254 25.0479 22.9825L25.047 22.9853ZM31.2467 21.977L30.5119 22.7771V23.9056H29.5853V17.5602H30.5119V21.7162L32.479 19.5609H33.6076L31.9027 21.4202L33.652 23.9066H32.6032L31.2476 21.977H31.2467ZM11.7488 19.474C10.6462 19.474 9.72425 20.1862 9.72425 21.3702V23.9093H10.6694V21.4877C10.6694 20.7755 11.0798 20.3481 11.7812 20.3481C12.4827 20.3481 12.831 20.7736 12.831 21.4877V23.9093H13.7706V21.3702C13.7706 20.1881 12.844 19.474 11.746 19.474" fill="#03363D"/>
</svg>
