<svg id="Layer_1" data-name="Layer 1" xmlns="http://www.w3.org/2000/svg" viewBox="0 0 310.24 309.81"><defs><style>.cls-1{fill:#4bb3fd;fill-rule:evenodd;}.cls-2{fill:#fff;}</style></defs><title>airy_bubble_rgb</title><path class="cls-1" d="M145.76.29C69.88,4.85,7.69,65.29,1,141a154.73,154.73,0,0,0,11.64,74.26,13.18,13.18,0,0,1,.75,8.15L0,283.4a.49.49,0,0,0,.49.6l57.71-5.19A11.25,11.25,0,0,1,65.29,281a154.17,154.17,0,0,0,91.94,28.85c85.18-1,154.4-72.33,153-157.5A154.91,154.91,0,0,0,145.76.29Z"/><polygon class="cls-2" points="251.94 223.82 199.53 244.99 129.26 69.86 181.68 48.69 251.94 223.82"/><polygon class="cls-2" points="148.46 143.72 86.67 168.51 123.56 81.63 148.46 143.72"/><polygon class="cls-2" points="190.52 248.57 89.64 178.41 152.3 153.29 190.52 248.57"/><polygon class="cls-2" points="118.67 211.12 58.3 235.35 80.01 184.23 118.67 211.12"/></svg>