<svg xmlns="http://www.w3.org/2000/svg" width="24" height="24" viewBox="0 0 24 24">
  <path fill="currentColor" d="M20,6.52897986 L20,19.5010024 C20,20.8817143 18.8807119,22.0010024 17.5,22.0010024 L6.5,22.0010024 C5.11928813,22.0010024 4,20.8817143 4,19.5010024 L4,4.50100238 C4,3.1202905 5.11928813,2.00100238 6.5,2.00100238 L15.4720225,2.00100238 C15.6047688,1.99258291 15.7429463,2.03684187 15.8535534,2.14744899 L19.8535534,6.14744899 C19.9641605,6.25805611 20.0084195,6.39623363 20,6.52897986 Z M15,3.00100238 L6.5,3.00100238 C5.67157288,3.00100238 5,3.67257525 5,4.50100238 L5,19.5010024 C5,20.3294295 5.67157288,21.0010024 6.5,21.0010024 L17.5,21.0010024 C18.3284271,21.0010024 19,20.3294295 19,19.5010024 L19,7.00100238 L15.5,7.00100238 C15.2238576,7.00100238 15,6.77714475 15,6.50100238 L15,3.00100238 Z M16,3.70810916 L16,6.00100238 L18.2928932,6.00100238 L16,3.70810916 Z M17,16.4899413 C17.0001548,16.4973236 17.0001458,16.5047195 16.9999712,16.5121237 C16.993442,17.8872581 15.8766684,19 14.5,19 L9.5,19 C8.11928813,19 7,17.8807119 7,16.5 L7,11.5 C7,10.1192881 8.11928813,9 9.5,9 L14.5,9 C15.8807119,9 17,10.1192881 17,11.5 L17,16.4899413 Z M16,15.690983 L16,11.5 C16,10.6715729 15.3284271,10 14.5,10 L9.5,10 C8.67157288,10 8,10.6715729 8,11.5 L8,14.2928932 L9.14644661,13.1464466 C9.34170876,12.9511845 9.65829124,12.9511845 9.85355339,13.1464466 L12.5987265,15.8916197 L14.2763932,15.0527864 C14.4171569,14.9824045 14.5828431,14.9824045 14.7236068,15.0527864 L16,15.690983 Z M15.9710881,16.794561 L14.5,16.059017 L12.7236068,16.9472136 C12.5311125,17.0434608 12.2986267,17.0057335 12.1464466,16.8535534 L9.5,14.2071068 L8,15.7071068 L8,16.5 C8,17.3284271 8.67157288,18 9.5,18 L14.5,18 C15.2276077,18 15.8342163,17.4819411 15.9710881,16.794561 Z M13,12 L13,13 L14,13 L14,12 L13,12 Z M13,11 L14,11 C14.5522847,11 15,11.4477153 15,12 L15,13 C15,13.5522847 14.5522847,14 14,14 L13,14 C12.4477153,14 12,13.5522847 12,13 L12,12 C12,11.4477153 12.4477153,11 13,11 Z"/>
</svg>
