<svg width="30px" height="30px" id="Layer_1" data-name="Layer 1" fill="#fff" xmlns="http://www.w3.org/2000/svg" viewBox="0 0 512 512"><defs><style>.cls-1{fill:#898989;}</style></defs><title>plus-other</title><path class="cls-1" d="M256,512C114.84,512,0,397.16,0,256S114.84,0,256,0,512,114.84,512,256,397.16,512,256,512Zm0-500.62C121.12,11.38,11.38,121.12,11.38,256S121.12,500.62,256,500.62,500.62,390.88,500.62,256,390.88,11.38,256,11.38Z"/><path class="cls-1" d="M347,261.69H165a5.69,5.69,0,0,1,0-11.38H347a5.69,5.69,0,0,1,0,11.38Z"/><path class="cls-1" d="M256,352.71a5.69,5.69,0,0,1-5.69-5.69V165a5.69,5.69,0,1,1,11.38,0V347A5.69,5.69,0,0,1,256,352.71Z"/></svg>