<svg viewBox="0 0 251 74" xmlns="http://www.w3.org/2000/svg">
    <g fill="none" fill-rule="evenodd">
        <rect fill="#cad5db" height="40" rx="20" width="171"/>
        <rect fill="#f1faff" height="40" rx="20" width="171" x="80" y="34"/>
        <rect fill="#cad5db" height="12" rx="6" width="112" x="100" y="48"/>
        <path d="m231 52.821 6.91-6.91a.833.833 0 0 1 1.18 1.178L232.178 54l6.91 6.91a.833.833 0 1 1-1.178 1.18L231 55.178l-6.91 6.91a.833.833 0 0 1-1.18-1.178l6.912-6.91-6.91-6.91a.833.833 0 1 1 1.178-1.18z" fill="#cad5db"/>
        <rect fill="#f5f8fa" height="12" rx="6" width="132" x="20" y="14"/>
    </g>
</svg>