<svg height="74" viewBox="0 0 251 74" width="251" xmlns="http://www.w3.org/2000/svg"><g fill="none" fill-rule="evenodd"><rect fill="#cad5db" height="40" rx="20" width="171"/><rect fill="#f1faff" height="40" rx="20" width="171" x="80" y="34"/><rect fill="#cad5db" height="12" rx="6" width="112" x="100" y="48"/><path d="m231 52.8214887 6.910744-6.9107444c.325437-.3254369.853075-.3254369 1.178512 0 .325437.325437.325437.8530744 0 1.1785114l-6.910745 6.9107443 6.910745 6.9107443c.325437.325437.325437.8530744 0 1.1785114-.325437.3254369-.853075.3254369-1.178512 0l-6.910744-6.9107444-6.910744 6.9107444c-.325437.3254369-.853075.3254369-1.178512 0-.325437-.325437-.325437-.8530744 0-1.1785114l6.910745-6.9107443-6.910745-6.9107443c-.325437-.325437-.325437-.8530744 0-1.1785114.325437-.3254369.853075-.3254369 1.178512 0z" fill="#cad5db"/><rect fill="#f5f8fa" height="12" rx="6" width="132" x="20" y="14"/></g></svg>