<?xml version="1.0" encoding="UTF-8"?>
<svg width="18px" height="18px" viewBox="0 0 18 18" version="1.1" xmlns="http://www.w3.org/2000/svg" xmlns:xlink="http://www.w3.org/1999/xlink">
    <!-- Generator: Sketch 57.1 (83088) - https://sketch.com -->
    <title>icon/interfaces/add-item</title>
    <desc>Created with Sketch.</desc>
    <g id="Page-1" stroke="none" stroke-width="1" fill="none" fill-rule="evenodd">
        <g id="icon/interfaces/add-item" transform="translate(-3.000000, -3.000000)" fill="#212428">
            <path d="M12.4545455,11.5454545 L16.5454545,11.5454545 C16.7964931,11.5454545 17,11.7489615 17,12 C17,12.2510385 16.7964931,12.4545455 16.5454545,12.4545455 L12.4545455,12.4545455 L12.4545455,16.5454545 C12.4545455,16.7964931 12.2510385,17 12,17 C11.7489615,17 11.5454545,16.7964931 11.5454545,16.5454545 L11.5454545,12.4545455 L7.45454545,12.4545455 C7.20350693,12.4545455 7,12.2510385 7,12 C7,11.7489615 7.20350693,11.5454545 7.45454545,11.5454545 L11.5454545,11.5454545 L11.5454545,7.45454545 C11.5454545,7.20350693 11.7489615,7 12,7 C12.2510385,7 12.4545455,7.20350693 12.4545455,7.45454545 L12.4545455,11.5454545 Z M5.5,3 C5.77614237,3 6,3.22385763 6,3.5 C6,3.77614237 5.77614237,4 5.5,4 C4.67157288,4 4,4.67157288 4,5.5 C4,5.77614237 3.77614237,6 3.5,6 C3.22385763,6 3,5.77614237 3,5.5 C3,4.11928813 4.11928813,3 5.5,3 Z M18.5,3.9798949 C18.2238576,3.9798949 18,3.76053796 18,3.48994745 C18,3.21935695 18.2238576,3 18.5,3 C19.8807119,3 21,4.09678473 21,5.44973726 L21,5.51005255 C21,5.78064305 20.7761424,6 20.5,6 C20.2238576,6 20,5.78064305 20,5.51005255 L20,5.44973726 C20,4.63796574 19.3284271,3.9798949 18.5,3.9798949 Z M3,7.5 C3,7.22385763 3.22385763,7 3.5,7 C3.77614237,7 4,7.22385763 4,7.5 L4,8.5 C4,8.77614237 3.77614237,9 3.5,9 C3.22385763,9 3,8.77614237 3,8.5 L3,7.5 Z M3,10.5 C3,10.2238576 3.22385763,10 3.5,10 C3.77614237,10 4,10.2238576 4,10.5 L4,13.5 C4,13.7761424 3.77614237,14 3.5,14 C3.22385763,14 3,13.7761424 3,13.5 L3,10.5 Z M3,15.5 C3,15.2238576 3.22385763,15 3.5,15 C3.77614237,15 4,15.2238576 4,15.5 L4,16.5 C4,16.7761424 3.77614237,17 3.5,17 C3.22385763,17 3,16.7761424 3,16.5 L3,15.5 Z M20,7.5 C20,7.22385763 20.2238576,7 20.5,7 C20.7761424,7 21,7.22385763 21,7.5 L21,8.5 C21,8.77614237 20.7761424,9 20.5,9 C20.2238576,9 20,8.77614237 20,8.5 L20,7.5 Z M20,10.5 C20,10.2238576 20.2238576,10 20.5,10 C20.7761424,10 21,10.2238576 21,10.5 L21,13.5 C21,13.7761424 20.7761424,14 20.5,14 C20.2238576,14 20,13.7761424 20,13.5 L20,10.5 Z M20,15.5 C20,15.2238576 20.2238576,15 20.5,15 C20.7761424,15 21,15.2238576 21,15.5 L21,16.5 C21,16.7761424 20.7761424,17 20.5,17 C20.2238576,17 20,16.7761424 20,16.5 L20,15.5 Z M3,18.5 C3,18.2238576 3.22385763,18 3.5,18 C3.77614237,18 4,18.2238576 4,18.5 C4,19.3284271 4.67157288,20 5.5,20 C5.77614237,20 6,20.2238576 6,20.5 C6,20.7761424 5.77614237,21 5.5,21 C4.11928813,21 3,19.8807119 3,18.5 Z M7.5,4 C7.22385763,4 7,3.77614237 7,3.5 C7,3.22385763 7.22385763,3 7.5,3 L8.5,3 C8.77614237,3 9,3.22385763 9,3.5 C9,3.77614237 8.77614237,4 8.5,4 L7.5,4 Z M10.5,4 C10.2238576,4 10,3.77614237 10,3.5 C10,3.22385763 10.2238576,3 10.5,3 L13.5,3 C13.7761424,3 14,3.22385763 14,3.5 C14,3.77614237 13.7761424,4 13.5,4 L10.5,4 Z M10.5,21 C10.2238576,21 10,20.7761424 10,20.5 C10,20.2238576 10.2238576,20 10.5,20 L13.5,20 C13.7761424,20 14,20.2238576 14,20.5 C14,20.7761424 13.7761424,21 13.5,21 L10.5,21 Z M15.5,4 C15.2238576,4 15,3.77614237 15,3.5 C15,3.22385763 15.2238576,3 15.5,3 L16.5,3 C16.7761424,3 17,3.22385763 17,3.5 C17,3.77614237 16.7761424,4 16.5,4 L15.5,4 Z M7.5,21 C7.22385763,21 7,20.7761424 7,20.5 C7,20.2238576 7.22385763,20 7.5,20 L8.5,20 C8.77614237,20 9,20.2238576 9,20.5 C9,20.7761424 8.77614237,21 8.5,21 L7.5,21 Z M15.5,21 C15.2238576,21 15,20.7761424 15,20.5 C15,20.2238576 15.2238576,20 15.5,20 L16.5,20 C16.7761424,20 17,20.2238576 17,20.5 C17,20.7761424 16.7761424,21 16.5,21 L15.5,21 Z M18.5,21 C18.2238576,21 18,20.7761424 18,20.5 C18,20.2238576 18.2238576,20 18.5,20 C19.3284271,20 20,19.3284271 20,18.5 C20,18.2238576 20.2238576,18 20.5,18 C20.7761424,18 21,18.2238576 21,18.5 C21,19.8807119 19.8807119,21 18.5,21 Z" id="Combined-Shape"></path>
        </g>
    </g>
</svg>