<?xml version="1.0" encoding="UTF-8"?>
<svg width="12px" height="12px" viewBox="0 0 12 12" version="1.1" xmlns="http://www.w3.org/2000/svg" xmlns:xlink="http://www.w3.org/1999/xlink">
    <!-- Generator: Sketch 55.2 (78181) - https://sketchapp.com -->
    <title>icon/interfaces/trash copy</title>
    <desc>Created with Sketch.</desc>
    <g id="Symbols" stroke="none" stroke-width="1" fill="none" fill-rule="evenodd">
        <g id="Tags-list-manager" transform="translate(-229.000000, -6.000000)" fill="#98A4AB">
            <g id="Icons" transform="translate(227.000000, 4.000000)">
                <g id="icon/edit/edit-pencil">
                    <path d="M4.86192881,12 L12.5285955,4.33333333 L11,2.80473785 L3.33333333,10.4714045 L3.33333333,12 L4.86192881,12 Z M2.66666667,12.3333333 L2.66666667,10.3333333 C2.66666667,10.2449278 2.70178561,10.1601432 2.76429774,10.0976311 L10.7642977,2.09763107 C10.8944725,1.96745631 11.1055275,1.96745631 11.2357023,2.09763107 L13.2357023,4.09763107 C13.365877,4.22780584 13.365877,4.43886083 13.2357023,4.56903559 L5.23570226,12.5690356 C5.17319013,12.6315477 5.0884055,12.6666667 5,12.6666667 L3,12.6666667 C2.81590508,12.6666667 2.66666667,12.5174282 2.66666667,12.3333333 Z M3,14 C2.81590508,14 2.66666667,13.8507616 2.66666667,13.6666667 C2.66666667,13.4825718 2.81590508,13.3333333 3,13.3333333 L9.6712954,13.3333333 C9.85539032,13.3333333 10.0046287,13.4825718 10.0046287,13.6666667 C10.0046287,13.8507616 9.85539032,14 9.6712954,14 L3,14 Z" id="Combined-Shape"></path>
                </g>
            </g>
        </g>
    </g>
</svg>