<?xml version="1.0" encoding="UTF-8"?>
<svg xmlns="http://www.w3.org/2000/svg" xmlns:xlink="http://www.w3.org/1999/xlink" width="32px" height="32px" version="1.1" viewBox="0 0 32 32">
    <style type="text/css">
        <![CDATA[
        svg {
          cursor: pointer;
        }
        svg:hover .show path {
            fill: #4BB3FD;
        }
        svg:hover #send.show path {
            fill: #FFFFFF;
        }
        svg:active .show path {
            fill: #4BB3FD;
        }
        svg:active #send.show path {
            fill: #FFFFFF;
        }
       ]]>
    </style>
    <g id="emo" fill="none">
        <path d="M16 29.333c7.364 0 13.333-5.97 13.333-13.333s-5.97-13.333-13.333-13.333c-7.364 0-13.333 5.97-13.333 13.333s5.97 13.333 13.333 13.333zM16 32c-8.837 0-16-7.163-16-16s7.163-16 16-16c8.837 0 16 7.163 16 16s-7.163 16-16 16zM25.61 17.749c0.111 0.339 0.083 0.699-0.080 1.017-1.781 3.52-5.063 5.787-8.791 6.072-0.124 0.037-0.949 0.056-1.136 0-3.727-0.285-7.009-2.552-8.793-6.073-0.331-0.655-0.068-1.459 0.587-1.791 0.661-0.331 1.463-0.065 1.793 0.585 1.416 2.796 4.097 4.579 6.999 4.652 2.867-0.073 5.548-1.856 6.963-4.651 0.332-0.655 1.14-0.92 1.791-0.588h0.001c0.319 0.161 0.555 0.436 0.667 0.776zM13.333 12c0 1.472-1.195 2.667-2.667 2.667s-2.667-1.195-2.667-2.667c0-1.472 1.195-2.667 2.667-2.667s2.667 1.195 2.667 2.667zM24 12c0 1.472-1.195 2.667-2.667 2.667s-2.667-1.195-2.667-2.667c0-1.472 1.195-2.667 2.667-2.667s2.667 1.195 2.667 2.667z"/>
    </g>
    <g id="image" fill="none">
        <path d="M4,2 C2.8954305,2 2,2.8954305 2,4 L2,28 C2,29.1045695 2.8954305,30 4,30 L28,30 C29.1045695,30 30,29.1045695 30,28 L30,4 C30,2.8954305 29.1045695,2 28,2 L4,2 Z M4,0 L28,0 C30.209139,1.3527075e-16 32,1.790861 32,4 L32,28 C32,30.209139 30.209139,32 28,32 L4,32 C1.790861,32 2.705415e-16,30.209139 0,28 L0,4 C-2.705415e-16,1.790861 1.790861,4.05812251e-16 4,0 Z M9.5,14 C7.56700338,14 6,12.4329966 6,10.5 C6,8.56700338 7.56700338,7 9.5,7 C11.4329966,7 13,8.56700338 13,10.5 C13,12.4329966 11.4329966,14 9.5,14 Z M3.65,25.596 L7.342,17.546 C7.45326763,17.3035641 7.65678466,17.1156314 7.90729883,17.023989 C8.157813,16.9323466 8.43455827,16.9445912 8.676,17.058 L14.991,20.027 C15.457904,20.2460977 16.0148507,20.0741632 16.277,19.63 L21.468,10.837 C21.6650373,10.5027771 22.0376144,10.312689 22.4238614,10.3493214 C22.8101083,10.3859538 23.1403073,10.6426946 23.271,11.008 L28.041,24.339 C28.2603261,24.951749 28.1677901,25.6328971 27.7929426,26.1649259 C27.4180951,26.6969547 26.8078188,27.0133224 26.157,27.013 L4.56,27.013 C4.21918338,27.0133728 3.90164331,26.8401412 3.71747701,26.553368 C3.53331072,26.2665947 3.50787918,25.9057705 3.65,25.596 Z"/>
    </g>
    <g id="template" fill="none" fill-rule="evenodd" stroke="none" stroke-width="1">
        <path d="M4 2c-1.105 0-2 0.895-2 2v24c0 1.105 0.895 2 2 2h24c1.105 0 2-0.895 2-2v-24c0-1.105-0.895-2-2-2h-24zM4 0h24c2.209 0 4 1.791 4 4v24c0 2.209-1.791 4-4 4h-24c-2.209 0-4-1.791-4-4v-24c0-2.209 1.791-4 4-4z 
        M6 6v4h20v-4h-20zM5 4h22c0.552 0 1 0.448 1 1v6c0 0.552-0.448 1-1 1h-22c-0.552 0-1-0.448-1-1v-6c0-0.552 0.448-1 1-1z 
        M5 16.5c-0.552 0-1-0.448-1-1s0.448-1 1-1h22c0.552 0 1 0.448 1 1s-0.448 1-1 1h-22z 
        M5 20.5c-0.552 0-1-0.448-1-1s0.448-1 1-1h22c0.552 0 1 0.448 1 1s-0.448 1-1 1h-22z 
        M10 23h12c0.552 0 1 0.448 1 1v3c0 0.552-0.448 1-1 1h-12c-0.552 0-1-0.448-1-1v-3c0-0.552 0.448-1 1-1z"/>
    </g>
    <g id="send" fill="none">
        <path d="M 4.204896700000001 4.1195648527004405 L 4.0115967 3.9293212999999954 L 26.806220699999997 15.60647032325003 C 27.038809399999998 15.725619970668763 27.222648999999997 15.941497277564224 27.320137699999997 16.20994757774927 C 27.3590557 16.317114218006374 27.382557300000002 16.427165455874935 27.391807 16.536902967267633 L 27.398838400000002 16.540668482394658 L 27.392079699999996 16.54018877934823 C 27.3921007 16.54044645882842 27.392121699999997 16.54070402439193 27.3921426 16.54096170387211 L 27.398838400000002 16.540668482394658 L 27.392382599999998 16.543964319141168 C 27.4304225 17.027113800145607 27.192606599999998 17.50284650930388 26.7783607 17.698066169454904 L 5.363240899999999 27.790260720697574 L 4 28.4862211 L 5.5693217 19.257384836767415 C 5.746012199999999 18.218306686439767 6.5275848 17.45467240775926 7.4559937000000005 17.414015096886477 L 15.929362999999999 17.042945253761246 L 15.9669189 17.00707039202062 C 16.2459878 16.993653971552554 16.4762258 16.753711315008147 16.5127314 16.438251711105558 C 16.5480464 16.133081515411554 16.3928866 15.84932685398698 16.1518743 15.74236389671421 L 7.4157525 15.122277821325797 C 6.5061810000000015 15.057716808541617 5.7499406 14.30085293859034 5.576627500000001 13.281636271485022 L 4 4.009836112890403 L 4.204896700000001 4.1195648527004405 Z"/>
    </g>
    <script type="text/javascript">
        const el = document.getElementById(location.hash.substring(1));
        const color = (el.id === 'send') ? '#FFFFFF' : '#A0ABB2';
        el.classList.toggle('show');
        el.getElementsByTagName('path')[0].setAttribute('fill', color);
    </script>
</svg>
