<svg xmlns="http://www.w3.org/2000/svg" width="24" height="24" viewBox="0 0 24 24">
  <path d="M8.59608555,20.3031923 L6.5,18.2071068 L4.40391445,20.3031923 C4.98820472,20.7407982 5.71383245,21 6.5,21 C7.28616755,21 8.01179528,20.7407982 8.59608555,20.3031923 L8.59608555,20.3031923 Z M9.30319233,19.5960855 C9.74079823,19.0117953 10,18.2861676 10,17.5 C10,16.7138324 9.74079823,15.9882047 9.30319233,15.4039145 L7.20710678,17.5 L9.30319233,19.5960855 L9.30319233,19.5960855 Z M3.69680767,15.4039145 C3.25920177,15.9882047 3,16.7138324 3,17.5 C3,18.2861676 3.25920177,19.0117953 3.69680767,19.5960855 L5.79289322,17.5 L3.69680767,15.4039145 L3.69680767,15.4039145 Z M4.40391445,14.6968077 L6.5,16.7928932 L8.59608555,14.6968077 C8.01179528,14.2592018 7.28616755,14 6.5,14 C5.71383245,14 4.98820472,14.2592018 4.40391445,14.6968077 L4.40391445,14.6968077 Z M6.5,11 C4.01471863,11 2,8.98528137 2,6.5 C2,4.01471863 4.01471863,2 6.5,2 C8.98528137,2 11,4.01471863 11,6.5 C11,8.98528137 8.98528137,11 6.5,11 Z M6.5,10 C8.43299662,10 10,8.43299662 10,6.5 C10,4.56700338 8.43299662,3 6.5,3 C4.56700338,3 3,4.56700338 3,6.5 C3,8.43299662 4.56700338,10 6.5,10 Z M7.6095656,5.18765248 C7.78207037,4.97202151 8.09671656,4.93706082 8.31234752,5.1095656 C8.52797849,5.28207037 8.56293918,5.59671656 8.3904344,5.81234752 L6.3904344,8.31234752 C6.20427175,8.54505084 5.85716842,8.56427521 5.64644661,8.35355339 L4.64644661,7.35355339 C4.45118446,7.15829124 4.45118446,6.84170876 4.64644661,6.64644661 C4.84170876,6.45118446 5.15829124,6.45118446 5.35355339,6.64644661 L5.95854056,7.25143378 L7.6095656,5.18765248 Z M13.5,6 C13.2238576,6 13,5.77614237 13,5.5 C13,5.22385763 13.2238576,5 13.5,5 L21.5,5 C21.7761424,5 22,5.22385763 22,5.5 C22,5.77614237 21.7761424,6 21.5,6 L13.5,6 Z M13.5,8 C13.2238576,8 13,7.77614237 13,7.5 C13,7.22385763 13.2238576,7 13.5,7 L19.5,7 C19.7761424,7 20,7.22385763 20,7.5 C20,7.77614237 19.7761424,8 19.5,8 L13.5,8 Z M6.5,22 C4.01471863,22 2,19.9852814 2,17.5 C2,15.0147186 4.01471863,13 6.5,13 C8.98528137,13 11,15.0147186 11,17.5 C11,19.9852814 8.98528137,22 6.5,22 Z M13.5,17 C13.2238576,17 13,16.7761424 13,16.5 C13,16.2238576 13.2238576,16 13.5,16 L21.5,16 C21.7761424,16 22,16.2238576 22,16.5 C22,16.7761424 21.7761424,17 21.5,17 L13.5,17 Z M13.5,19 C13.2238576,19 13,18.7761424 13,18.5 C13,18.2238576 13.2238576,18 13.5,18 L19.5,18 C19.7761424,18 20,18.2238576 20,18.5 C20,18.7761424 19.7761424,19 19.5,19 L13.5,19 Z"/>
</svg>
