<svg xmlns="http://www.w3.org/2000/svg" width="24" height="24" viewBox="0 0 24 24">
  <path fill="currentColor" d="M11,16 L11,20.5 C11,20.7761424 10.7761424,21 10.5,21 C10.2238576,21 10,20.7761424 10,20.5 L10,16 L9.5,16 C8.11928813,16 7,14.8807119 7,13.5 L7,11 L6.5,11 C6.22385763,11 6,10.7761424 6,10.5 L6,8.5 C6,8.22385763 6.22385763,8 6.5,8 L9,8 L9,3.5 C9,3.22385763 9.22385763,3 9.5,3 C9.77614237,3 10,3.22385763 10,3.5 L10,8 L14,8 L14,3.5 C14,3.22385763 14.2238576,3 14.5,3 C14.7761424,3 15,3.22385763 15,3.5 L15,8 L17.5,8 C17.7761424,8 18,8.22385763 18,8.5 L18,10.5 C18,10.7761424 17.7761424,11 17.5,11 L17,11 L17,13.5 C17,14.8807119 15.8807119,16 14.5,16 L14,16 L14,20.5 C14,20.7761424 13.7761424,21 13.5,21 C13.2238576,21 13,20.7761424 13,20.5 L13,16 L11,16 Z M7,9 L7,10 L7.5,10 C7.77614237,10 8,10.2238576 8,10.5 L8,13.5 C8,14.3284271 8.67157288,15 9.5,15 L14.5,15 C15.3284271,15 16,14.3284271 16,13.5 L16,10.5 C16,10.2238576 16.2238576,10 16.5,10 L17,10 L17,9 L7,9 Z"/>
</svg>
