<svg height="14" viewBox="0 0 14 14" width="14" xmlns="http://www.w3.org/2000/svg"><path d="m12.7174603 3.28888889c-1.2507936-1.25079365-2.91111109-1.93968254-4.68253967-1.94285714-3.65079365 0-6.61904761 2.97142857-6.62222222 6.61904762 0 1.16825396.30476191 2.30476193.88253969 3.31111113l-.93968254 3.431746 3.51111111-.9206349c.96825396.5269841 2.05714285.8063492 3.16507936.8063492h.0031746c3.64761907 0 6.61904767-2.9714286 6.62222227-6.62222223 0-1.76825397-.6888889-3.43174603-1.9396826-4.68253968zm-4.68253967 10.18730161c-.99047619 0-1.95873015-.2666667-2.8031746-.768254l-.2-.1206349-2.08253968.5460317.55555555-2.031746-.13015873-.2095238c-.55238095-.8761905-.84126984-1.8888889-.84126984-2.92698413 0-3.03492064 2.46984127-5.50158731 5.50476191-5.50158731 1.46984127 0 2.85079366.57460318 3.89206346 1.61269842 1.0380953 1.04126984 1.6095238 2.42222222 1.6095238 3.89206349-.0031746 3.03809523-2.4730158 5.50793653-5.50476187 5.50793653zm3.01904767-4.12380955c-.1650794-.08253968-.9777778-.48253968-1.13015878-.53968254-.15238095-.05396825-.26349206-.08253968-.37142857.08253969-.11111111.16507936-.42857143.53968253-.52380952.64761904-.0952381.11111111-.1936508.12380953-.35873016.04126984-.16507937-.08253968-.6984127-.25714285-1.33015873-.82222222-.49206349-.43809524-.82222222-.98095238-.92063492-1.14603174-.0952381-.16507937-.00952381-.25396826.07301587-.33650794.07301588-.07301587.16507937-.19365079.24761905-.28888889.08253968-.09523809.11111111-.16507936.16507936-.27619048.05396826-.11111111.02857143-.2063492-.01269841-.28888888-.04126984-.08253969-.37142857-.8984127-.51111111-1.22857143-.13333333-.32380953-.26984127-.27936508-.37142857-.28253969-.0952381-.0063492-.20634921-.0063492-.31746032-.0063492s-.28888889.04126984-.44126984.2063492c-.15238095.16507937-.57777778.56507937-.57777778 1.38095239 0 .81587301.5936508 1.6.67619048 1.71111111s1.16507936 1.78095238 2.82539682 2.49841269c.3936508.1714286.70158731.2730159.94285715.3492064.39682539.1269841.75555555.1079365 1.04126988.0666666.3174603-.047619.9777777-.4 1.1174603-.7873016.1365079-.38730155.1365079-.71746028.0952381-.78730155-.0412699-.06984127-.152381-.11111112-.3174603-.1936508z" fill="#212428" fill-rule="evenodd" transform="translate(-1 -1)"/></svg>