<?xml version="1.0" encoding="UTF-8" standalone="no"?>
<!DOCTYPE svg PUBLIC "-//W3C//DTD SVG 1.1//EN" "http://www.w3.org/Graphics/SVG/1.1/DTD/svg11.dtd">
<svg version="1.1" xmlns="http://www.w3.org/2000/svg" xmlns:xlink="http://www.w3.org/1999/xlink" preserveAspectRatio="xMidYMid meet" viewBox="0 0 236 93" width="236px" height="93px"><defs><path d="M4.42 66.12C4.49 65.66 4.42 65.19 4.23 64.76C0.42 56.54 -0.74 47.4 0.91 38.53C3.66 23.87 11.8 12.76 25.35 5.82C38.05 -0.77 53.16 -1.31 66.33 4.33C79.5 9.98 89.27 21.19 92.85 34.75C96.04 46.79 94.07 59.57 87.39 70.16C80.71 80.75 69.89 88.26 57.42 90.95C44.94 93.64 31.88 91.29 21.22 84.44C20.72 84.13 20.14 83.97 19.55 83.98C13.3 84.25 0 84.85 0 84.85C0.81 81.39 3.77 69.03 4.42 66.12" id="e19VaBllrR"></path><path d="M61.18 73.44L38.35 17.36L55.38 10.58L78.22 66.66L61.18 73.44Z" id="a2zEl7TkKX"></path><path d="M24.5 48.95L36.49 21.13L44.59 41.01L24.5 48.95Z" id="f1l7qdD3EI"></path><path d="M25.47 52.12L45.83 44.07L58.26 74.59L25.47 52.12Z" id="cWY58EaED"></path><path d="M15.28 70.35L22.34 53.98L34.9 62.59L15.28 70.35Z" id="b62zocnbCK"></path><path d="M139.57 53.65L116.81 53.65L109.81 70.25L103.13 70.25L125.58 17.85L131.14 17.85L153.47 70.25L146.63 70.25L139.57 53.65ZM131.02 32.18C130.16 30.13 129.28 27.62 128.37 24.65C127.8 26.93 126.98 29.44 125.92 32.18C125.47 33.25 123.24 38.64 119.23 48.33L137.63 48.33C133.66 38.64 131.46 33.25 131.02 32.18ZM156.79 70.25L156.79 31.2L162.67 31.2L162.67 70.25L156.79 70.25ZM195.88 30.87C195.8 31.42 195.14 35.82 195.06 36.37C193.42 36.01 191.98 35.83 190.73 35.83C187.54 35.83 184.8 37.12 182.53 39.68C180.26 42.25 179.13 45.45 179.13 49.28C179.13 50.67 179.13 57.66 179.13 70.25L173.14 70.25L173.14 31.16C176.36 31.16 178.14 31.16 178.5 31.16C178.5 34.63 178.5 36.37 178.5 36.37C178.5 36.37 180.41 33.31 183.64 31.98C186.87 30.66 188.69 30.45 191.16 30.45C192.92 30.45 194.49 30.59 195.88 30.87ZM205.37 31.2C210.56 44.59 213.44 52.02 214.02 53.51C215.91 58.6 217.09 62.28 217.55 64.54C217.58 64.54 217.81 64.54 217.84 64.54C218.15 63.32 218.8 61.25 219.8 58.31C220.8 55.37 224.06 46.34 229.58 31.2C230.01 31.2 232.15 31.2 236 31.2C225.82 57.93 220.16 72.78 219.03 75.75C217.34 80.15 215.38 83.27 213.13 85.11C210.89 86.96 208.13 87.88 204.86 87.88C203.04 87.88 201.23 87.68 199.46 87.27C199.46 86.8 199.46 83 199.46 82.53C200.78 82.81 202.25 82.96 203.89 82.96C208 82.96 210.93 80.67 212.68 76.1C212.83 75.73 213.56 73.88 214.88 70.53L198.95 31.2L205.37 31.2ZM155.77 22.01C155.77 19.71 157.66 17.85 159.99 17.85C162.31 17.85 164.2 19.71 164.2 22.01C164.2 24.3 162.31 26.16 159.99 26.16C157.66 26.16 155.77 24.3 155.77 22.01Z" id="gSzHpNwzg"></path></defs><g><g><g><use xlink:href="#e19VaBllrR" opacity="1" fill="#4bb3fd" fill-opacity="1"></use><g><use xlink:href="#e19VaBllrR" opacity="1" fill-opacity="0" stroke="#000000" stroke-width="1" stroke-opacity="0"></use></g></g><g><use xlink:href="#a2zEl7TkKX" opacity="1" fill="#ffffff" fill-opacity="1"></use><g><use xlink:href="#a2zEl7TkKX" opacity="1" fill-opacity="0" stroke="#000000" stroke-width="1" stroke-opacity="0"></use></g></g><g><use xlink:href="#f1l7qdD3EI" opacity="1" fill="#ffffff" fill-opacity="1"></use><g><use xlink:href="#f1l7qdD3EI" opacity="1" fill-opacity="0" stroke="#000000" stroke-width="1" stroke-opacity="0"></use></g></g><g><use xlink:href="#cWY58EaED" opacity="1" fill="#ffffff" fill-opacity="1"></use><g><use xlink:href="#cWY58EaED" opacity="1" fill-opacity="0" stroke="#000000" stroke-width="1" stroke-opacity="0"></use></g></g><g><use xlink:href="#b62zocnbCK" opacity="1" fill="#ffffff" fill-opacity="1"></use><g><use xlink:href="#b62zocnbCK" opacity="1" fill-opacity="0" stroke="#000000" stroke-width="1" stroke-opacity="0"></use></g></g><g><use xlink:href="#gSzHpNwzg" opacity="1" fill="#f3f3f3" fill-opacity="1"></use><g><use xlink:href="#gSzHpNwzg" opacity="1" fill-opacity="0" stroke="#000000" stroke-width="1" stroke-opacity="0"></use></g></g></g></g></svg>