<?xml version="1.0" encoding="UTF-8"?>
<svg width="236px" height="93px" viewBox="0 0 236 93" version="1.1" xmlns="http://www.w3.org/2000/svg" xmlns:xlink="http://www.w3.org/1999/xlink">
    <!-- Generator: Sketch 52.6 (67491) - http://www.bohemiancoding.com/sketch -->
    <title>Logo / Airy Full inverted</title>
    <desc>Created with Sketch.</desc>
    <g id="Page-1" stroke="none" stroke-width="1" fill="none" fill-rule="evenodd">
        <g id="Desktop-Home" transform="translate(-334.000000, -96.000000)">
            <g id="Hero">
                <g id="Logo-/-Full" transform="translate(334.000000, 96.000000)">
                    <g id="Logo-" transform="translate(0.000000, 0.457711)">
                        <g id="Bubble">
                            <path d="M4.41831024,65.6637413 C4.48938898,65.2023682 4.42481417,64.7295522 4.23016063,64.3029652 C0.417924409,56.0865871 -0.737453543,46.9419701 0.910365354,38.0715224 C3.65549134,23.412398 11.8007433,12.2982488 25.3521606,5.35842786 C38.0506331,-1.22300498 53.1564913,-1.77042786 66.3269638,3.87406965 C79.4974362,9.51810945 89.272389,20.7315821 92.8481606,34.292199 C96.0392709,46.3295522 94.0662551,59.1088557 87.3876409,69.7002985 C80.7094913,80.2963184 69.8943732,87.7995821 57.4193575,90.4913831 C44.9406252,93.1863881 31.8770031,90.8369552 21.2184441,83.9822687 C20.7213575,83.6710249 20.1369323,83.5094527 19.545074,83.5204378 C13.3031528,83.7909453 -0.000185826772,84.3873433 -0.000185826772,84.3873433 C0.813270866,80.9334527 3.76931024,68.5720398 4.41831024,65.6637413" id="Fill-1" fill="#4BB3FD"></path>
                            <polygon id="Fill-6" fill="#FFFFFF" points="78.2186693 66.2014607 61.1825354 72.9801672 38.3458189 16.8990726 55.3819528 10.1208239"></polygon>
                            <polygon id="Fill-8" fill="#FFFFFF" points="44.5865787 40.5517234 24.503815 48.4898129 36.4910354 20.6710269"></polygon>
                            <polygon id="Fill-10" fill="#FFFFFF" points="58.2563677 74.1273751 25.4672339 51.6583204 45.8329189 43.6163303"></polygon>
                            <polygon id="Fill-12" fill="#FFFFFF" points="34.9045858 62.1325891 15.2822079 69.8912557 22.3375858 53.5239522"></polygon>
                        </g>
                        <path d="M146.633955,69.7894699 L139.56519,53.1925065 L116.805317,53.1925065 L109.81423,69.7894699 L103.133858,69.7894699 L125.583016,17.3930348 L131.137046,17.3930348 L153.469685,69.7894699 L146.633955,69.7894699 Z M137.627953,47.8736533 L131.015977,31.7190469 C130.160305,29.6744507 129.278717,27.1662919 128.371187,24.1944952 C127.800739,26.4768351 126.983973,28.9849939 125.920866,31.7190469 L119.231102,47.8736533 L137.627953,47.8736533 Z M162.66811,69.7894699 L156.791339,69.7894699 L156.791339,30.7440496 L162.66811,30.7440496 L162.66811,69.7894699 Z M191.163549,29.9883317 C192.917451,29.9883317 194.491134,30.1309867 195.884646,30.4163009 L195.055751,35.9085727 C193.421979,35.5519299 191.980436,35.3736112 190.731082,35.3736112 C187.535616,35.3736112 184.802693,36.657506 182.53223,39.2253342 C180.261768,41.7931624 179.126553,44.9910116 179.126553,48.8189778 L179.126553,69.7894699 L173.144095,69.7894699 L173.144095,30.7016138 L178.501114,30.7016138 C178.501114,34.1729198 178.501114,35.9085727 178.501114,35.9085727 C178.501114,35.9085727 180.406262,32.8482116 183.636986,31.5244534 C186.867711,30.2006953 188.688865,29.9883317 191.163549,29.9883317 Z M198.950787,30.7440496 L205.365923,30.7440496 L214.015545,53.0515259 C215.913666,58.1436047 217.090964,61.81984 217.547474,64.0803423 L217.835795,64.0803423 C218.148143,62.8668095 218.802865,60.7907478 219.79998,57.8520949 C220.797094,54.9134419 224.058689,45.8775172 229.584864,30.7440496 L236,30.7440496 L219.025118,75.2876184 C217.343239,79.6896491 215.379073,82.8126646 213.132563,84.6567585 C210.886053,86.5008525 208.129013,87.4228856 204.861362,87.4228856 C203.035322,87.4228856 201.233335,87.2206331 199.455349,86.8161222 L199.455349,82.0690912 C200.776825,82.3546283 202.254454,82.4973948 203.88828,82.4973948 C207.99687,82.4973948 210.928102,80.2131321 212.682062,75.644538 L214.880507,70.0765919 L198.950787,30.7440496 Z M159.985236,25.7059308 C157.656834,25.7059308 155.769291,23.8450256 155.769291,21.5494828 C155.769291,19.25394 157.656834,17.3930348 159.985236,17.3930348 C162.313638,17.3930348 164.201181,19.25394 164.201181,21.5494828 C164.201181,23.8450256 162.313638,25.7059308 159.985236,25.7059308 Z" id="Airy" fill="#133C55" fill-rule="nonzero"></path>
                    </g>
                </g>
            </g>
        </g>
    </g>
</svg>