<svg viewBox="0 0 32 32" fill="none" xmlns="http://www.w3.org/2000/svg">
<path fill-rule="evenodd" clip-rule="evenodd" d="M15.034 0.0296728C7.20758 0.498823 0.793773 6.70835 0.107316 14.4889C-0.132997 17.2119 0.322399 19.8041 1.30741 22.1185C1.42031 22.3836 1.45122 22.6756 1.38541 22.956L0.00135122 29.1197C-0.00621768 29.1517 0.019012 29.1821 0.0520208 29.1806L6.00391 28.6472C6.26567 28.6357 6.52133 28.7159 6.73452 28.8679C9.40109 30.7692 12.6786 31.8745 16.2179 31.8322C25.0029 31.7272 32.1427 24.3999 31.9978 15.649C31.849 6.65725 24.2153 -0.52074 15.034 0.0296728Z" fill="#4BB3FD"/>
<path fill-rule="evenodd" clip-rule="evenodd" d="M26.1362 22.9918L20.696 25.1667L13.4032 7.17483L18.8434 5L26.1362 22.9918Z" fill="white"/>
<path fill-rule="evenodd" clip-rule="evenodd" d="M15.4136 14.7652L9.04712 17.3334L12.8472 8.33337L15.4136 14.7652Z" fill="white"/>
<path fill-rule="evenodd" clip-rule="evenodd" d="M19.602 25.5L9.2146 18.2585L15.6663 15.6666L19.602 25.5Z" fill="white"/>
<path fill-rule="evenodd" clip-rule="evenodd" d="M12.2303 21.6383L6.03137 24.1667L8.26023 18.8334L12.2303 21.6383Z" fill="white"/>
</svg>
