<?xml version="1.0" encoding="UTF-8"?>
<svg width="341px" height="348px" viewBox="0 0 341 348" version="1.1" xmlns="http://www.w3.org/2000/svg" xmlns:xlink="http://www.w3.org/1999/xlink">
    <title>Illustration</title>
    <g id="Page-1" stroke="none" stroke-width="1" fill="none" fill-rule="evenodd">
        <g id="02.0-Contacts-Emty-state" transform="translate(-491.000000, -275.000000)">
            <g id="Illustration" transform="translate(491.000000, 275.000000)">
                <ellipse id="Oval" fill="#F1FAFF" transform="translate(170.500000, 173.860666) rotate(35.000000) translate(-170.500000, -173.860666) " cx="170.5" cy="173.860666" rx="116.5" ry="130"></ellipse>
                <path d="M225.451327,115.239551 L225.451327,130.87655 C225.451327,131.624293 225.195435,132.343925 224.720477,132.924877 C223.851766,133.985585 222.205938,135.787475 219.785825,137.589366 C216.008823,140.400428 216.008823,143.21149 217.897324,145.085531 C219.011539,146.190278 221.110608,147.295025 222.645015,148.016531 C223.782836,148.550633 224.507076,149.675058 224.516519,150.924106 C224.549567,155.685108 224.708202,167.035238 225.451327,168.511046 C226.395577,170.385087 227.339827,171.322108 231.116828,172.259128 C233.78528,172.920665 240.693415,172.647992 244.520462,172.429666 C246.074698,172.341586 247.473133,173.352631 247.867829,174.847179 C249.181281,179.834003 251.890336,190.715623 251.890336,195.684643 C251.890336,202.243787 246.224834,200.369746 248.113334,208.802932 C249.940459,216.962507 277.403035,225.122082 299.710005,195.937639 C300.808168,194.500249 300.569272,192.434119 299.106629,191.363104 C295.331516,188.597956 288.650945,180.978105 284.601055,160.540749 C284.246961,158.750102 285.465989,157.023173 287.279893,156.72239 C288.612231,156.503127 289.653739,155.492082 289.945512,154.184001 C290.388365,152.204076 291.512968,149.235595 294.3816,146.959572 C299.102852,143.21149 306.656854,131.967242 306.656854,117.911933 C306.656854,103.856624 294.3816,80.4311094 262.277089,80.4311094 C231.531354,80.4311094 213.775671,106.212294 223.938637,112.509073 C224.884776,113.095647 225.451327,114.132929 225.451327,115.239551" id="Fill-3" fill-opacity="0.2" fill="#4BB3FD"></path>
                <path d="M180.740063,311 C252.53708,311 310.740063,248.096007 310.740063,170.5 C310.740063,92.9039927 252.53708,30 180.740063,30 C108.943045,30 50.7400629,92.9039927 50.7400629,170.5 C50.7400629,248.096007 108.943045,311 180.740063,311 Z" id="Oval" stroke="#CAD5DB" opacity="0.5" stroke-dasharray="14" transform="translate(180.740063, 170.500000) rotate(-9.000000) translate(-180.740063, -170.500000) "></path>
                <path d="M174.649415,283.784859 C227.116466,283.784859 269.649415,231.626032 269.649415,167.284859 C269.649415,102.943686 227.116466,50.7848591 174.649415,50.7848591 C122.182364,50.7848591 79.6494152,102.943686 79.6494152,167.284859 C79.6494152,231.626032 122.182364,283.784859 174.649415,283.784859 Z" id="Oval" stroke="#4BB3FD" opacity="0.5" stroke-dasharray="14" transform="translate(174.649415, 167.284859) rotate(-141.000000) translate(-174.649415, -167.284859) "></path>
                <g id="Group" transform="translate(22.000000, 39.860666)">
                    <path d="M29.3250436,94.2240282 C31.086494,100.687916 32.4290501,114.5098 18.9814973,129.704406 C17.3687544,131.526286 17.0629616,134.158124 18.1751258,136.323973 C22.1671881,144.097469 33.1945793,160.847825 54.1057805,160.847825 C79.432127,160.847825 71.2343665,141.734915 69.9651169,139.066261 C69.8834325,138.894802 69.8017481,138.740173 69.7043552,138.57713 C68.8215356,137.100271 62.9067487,126.813802 63.1172431,116.685116 C63.1905496,113.144442 66.405563,110.422141 69.8792436,111.024876 C75.0337374,111.917934 82.6429515,111.014357 86.5700851,99.8379853 C92.0816863,84.1500413 93.5645719,73.3197429 90.3097636,66.6370616 C89.4604555,64.8930217 89.5201479,62.8386731 90.4888409,61.1587987 C91.9664903,58.5963855 93.7803025,54.8884598 93.6263588,52.3491882 C93.538391,50.8891596 93.924821,49.4522727 94.8767582,48.3456805 C99.5798934,42.8747808 108.726449,27.145813 79.2394357,9.37511926 C42.5861885,-12.7146504 6.61154996,11.4094819 0.696763099,44.0876144 C-3.49217944,67.2292778 12.056128,87.9600006 24.6292391,90.0827223 C26.8682288,90.4603522 28.7260249,92.0245183 29.3250436,94.2240282" id="Fill-1" fill="#CAD5DB"></path>
                    <path d="M194.664936,222.41335 C183.060838,223.304559 177.705442,216.171559 177.705442,216.171559 C166.101344,220.629823 174.135548,239.354086 174.135548,239.354086 C174.135548,239.354086 185.739646,247.378295 166.101344,261.644295 C146.464152,275.910294 138.431059,259.860768 145.571956,250.053032 C152.712854,240.245295 145.571956,230.437559 145.571956,230.437559 C139.323255,232.221086 139.323255,239.354086 128.612463,223.304559 C128.005459,222.395614 127.45283,221.485561 126.970112,220.594352 L126.934601,220.327211 C126.934601,220.327211 126.916846,220.184218 126.872458,219.934813 C123.703165,220.433624 121.168618,220.433624 122.364871,218.846296 C123.372475,217.500614 124.033854,214.977738 124.462197,212.346232 C123.952847,211.285427 123.336965,210.23349 122.614552,209.279097 C121.873275,208.308078 121.517062,207.104281 121.722356,205.909351 C122.62343,200.63082 125.470912,192.026882 125.042569,190.314297 C124.149263,186.748351 125.934765,176.049405 125.934765,176.049405 C129.504659,151.08446 155.390552,149.300933 155.390552,149.300933 C190.201736,151.975669 193.772739,181.398878 191.987238,193.881351 C190.201736,206.363823 194.664936,222.41335 194.664936,222.41335" id="Fill-6" fill-opacity="0.2" fill="#4BB3FD"></path>
                </g>
            </g>
        </g>
    </g>
</svg>