<svg viewBox="0 0 279 124" xmlns="http://www.w3.org/2000/svg">
    <g fill="none" fill-rule="evenodd">
        <g fill="#cad5db">
            <path d="M266 0H46a8 8 0 0 0-8 8v72.794a8 8 0 0 0 8 8h228V8a8 8 0 0 0-8-8z"/>
            <path d="m279 93-4.568-19.276v-.001a15.353 15.353 0 0 1-.458-3.723L225 89.042l.425-.003c.595-.004 1.19.031 1.78.106z"/>
        </g>
        <rect fill="#98a4ab" height="8" rx="4" width="146" x="54" y="16"/>
        <rect fill="#98a4ab" height="8" rx="4" width="106" x="54" y="64"/>
        <rect fill="#98a4ab" height="8" rx="4" width="206" x="54" y="40"/>
        <g fill="#f1faff">
            <path d="M13 31h220a8 8 0 0 1 8 8v72.794a8 8 0 0 1-8 8H5V39a8 8 0 0 1 8-8z"/>
            <path d="m0 123.794 4.568-19.276v-.001c.304-1.218.458-2.468.458-3.723L54 119.836l-.425-.003c-.595-.005-1.19.03-1.78.106z"/>
        </g>
        <g fill="#cad5db">
            <rect height="8" rx="4" width="146" x="21" y="47"/>
            <rect height="8" rx="4" width="106" x="21" y="95"/>
            <rect height="8" rx="4" width="206" x="21" y="71"/>
        </g>
    </g>
</svg>