<svg viewBox="0 0 144 144" xmlns="http://www.w3.org/2000/svg">
    <g fill="none" fill-rule="evenodd">
        <circle cx="72" cy="72" r="72" fill="#F1FAFF" transform="translate(.5)"/>
        <path d="M28.976 91.47a2.5 2.5 0 0 0-.191-1.399 45.184 45.184 0 0 1-3.363-26.953c2.78-15.062 11.032-26.482 24.759-33.612 12.863-6.763 28.164-7.325 41.506-1.525 13.34 5.799 23.242 17.32 26.865 31.254 3.232 12.368 1.233 25.5-5.532 36.382-6.764 10.887-17.72 18.597-30.356 21.363-12.64 2.769-25.874.355-36.67-6.688a3.06 3.06 0 0 0-1.696-.475c-6.322.278-19.798.89-19.798.89.824-3.548 3.818-16.25 4.476-19.238" fill="#4BB3FD"/><path fill="#FFF" d="m103.732 92.022-17.256 6.965-23.133-57.623L80.6 34.399zM69.664 65.667l-20.343 8.156L61.464 45.24zm13.847 34.499L50.297 77.079l20.63-8.263zM59.857 87.841 39.98 95.813l7.147-16.817z"/>
    </g>
</svg>