<?xml version="1.0" encoding="UTF-8"?>
<svg width="40px" height="40px" viewBox="0 0 145 144" version="1.1" xmlns="http://www.w3.org/2000/svg" xmlns:xlink="http://www.w3.org/1999/xlink">
    <title>avatar/Airy Live Agent</title>
    <g id="Page-1" stroke="none" stroke-width="1" fill="none" fill-rule="evenodd">
        <g id="Group" transform="translate(0.500000, 0.000000)">
            <g id="Group-15" fill="#F1FAFF">
                <circle id="Oval" cx="72" cy="72" r="72"></circle>
            </g>
            <g transform="translate(24.000000, 24.000000)" id="Bubble">
                <path d="M4.47557647,67.4692822 C4.54757647,66.9952228 4.48216471,66.5094059 4.28498824,66.0710891 C0.423341176,57.6287871 -0.747011765,48.2327228 0.922164706,39.1183663 C3.70287059,24.0561634 11.9536941,12.6364109 25.6807529,5.50576733 C38.5438118,-1.25663366 53.8454588,-1.81910891 67.1866353,3.98059406 C80.5278118,9.77982673 90.4294588,21.3016337 94.0515765,35.2351238 C97.2840471,47.6034653 95.2854588,60.7341584 88.5202824,71.6168317 C81.7555765,82.5042079 70.8002824,90.2137871 58.1635765,92.979604 C45.5231059,95.7487129 32.2901647,93.3346782 21.4934588,86.2915099 C20.9899294,85.9717079 20.3979294,85.8056931 19.7984,85.8169802 C13.4755765,86.0949257 -0.000188235294,86.7077228 -0.000188235294,86.7077228 C0.823811765,83.1588614 3.81816471,70.4575495 4.47557647,67.4692822" id="Fill-1" fill="#4BB3FD"></path>
                <polygon id="Fill-6" fill="#FFFFFF" points="79.2324706 68.0217871 61.9755294 74.9868861 38.8428235 17.3637426 56.0997647 10.3991139"></polygon>
                <polygon id="Fill-8" fill="#FFFFFF" points="45.1644706 41.6667649 24.8214118 49.8231262 36.964 21.2394134"></polygon>
                <polygon id="Fill-10" fill="#FFFFFF" points="59.0114353 76.1656386 25.7973176 53.0787574 46.4269647 44.8156386"></polygon>
                <polygon id="Fill-12" fill="#FFFFFF" points="35.3569882 63.8410347 15.4802824 71.8130396 22.6271059 54.9956881"></polygon>
            </g>
        </g>
    </g>
</svg>