<?xml version="1.0" encoding="UTF-8"?>
<svg width="17px" height="13px" viewBox="0 0 17 13" version="1.1" xmlns="http://www.w3.org/2000/svg" xmlns:xlink="http://www.w3.org/1999/xlink">
    <!-- Generator: Sketch 63.1 (92452) - https://sketch.com -->
    <title>icon/arrow/arrow-left copy</title>
    <desc>Created with Sketch.</desc>
    <g id="Page-1" stroke="none" stroke-width="1" fill="none" fill-rule="evenodd">
        <g id="icon/arrow/arrow-left" transform="translate(-9.000000, -10.000000)" fill="#212428">
            <path d="M11.6094757,16 L24.6666667,16 C25.0348565,16 25.3333333,16.2984768 25.3333333,16.6666667 C25.3333333,17.0348565 25.0348565,17.3333333 24.6666667,17.3333333 L11.6094757,17.3333333 L15.8047379,21.5285955 C16.0650874,21.788945 16.0650874,22.211055 15.8047379,22.4714045 C15.5443883,22.731754 15.1222783,22.731754 14.8619288,22.4714045 L9.52859548,17.1380712 C9.26824595,16.8777217 9.26824595,16.4556117 9.52859548,16.1952621 L14.8619288,10.8619288 C15.1222783,10.6015793 15.5443883,10.6015793 15.8047379,10.8619288 C16.0650874,11.1222783 16.0650874,11.5443883 15.8047379,11.8047379 L11.6094757,16 Z" id="Combined-Shape"></path>
        </g>
    </g>
</svg>