<?xml version="1.0" encoding="UTF-8"?>
<svg width="40px" height="40px" viewBox="0 0 96 96" version="1.1" xmlns="http://www.w3.org/2000/svg" xmlns:xlink="http://www.w3.org/1999/xlink">
    <title>avatar/Messenger</title>
    <g id="Page-1" stroke="none" stroke-width="1" fill="none" fill-rule="evenodd">
        <g id="avatar/Messenger">
            <circle id="Oval" fill="#F5F8FA" cx="48" cy="48" r="48"></circle>
            <g id="Group" transform="translate(16.000000, 16.000000)" fill="#1578D4">
                <g id="Messenger_Logo_Black_CMYK" transform="translate(5.333333, 5.333333)">
                    <path d="M26.6666667,0.000697518444 C41.6901408,0.000697518444 53.3333333,11.0053924 53.3333333,25.8679007 C53.3333333,40.7304091 41.6901408,51.735104 26.6666667,51.735104 C23.9678068,51.735104 21.3762575,51.3809792 18.945674,50.7102884 C18.567941,50.6072703 18.1730382,50.6107042 17.7994259,50.7178431 L17.5238095,50.8175989 L12.2334004,53.151603 C10.9356137,53.7200134 9.48220573,52.8925486 9.2658097,51.5401569 L9.23943662,51.2629376 L9.0945674,46.5198122 C9.0731053,45.9349698 8.8101945,45.3930516 8.37558685,45.0013682 C3.18712274,40.3601878 0,33.6425486 0,25.8679007 C0,11.0053924 11.6431925,0.000697518444 26.6666667,0.000697518444 Z M42.6773977,19.9068008 C43.391907,18.7818288 42.1202607,17.5180651 41.0320745,18.0998043 L40.8423877,18.2220255 L32.4292421,24.607002 C31.9315895,24.9825889 31.2696177,25.0336452 30.7272908,24.7529821 L30.5030181,24.6123675 L24.2736419,19.938994 C22.5162741,18.6209682 20.0459783,18.9806998 18.7236365,20.6737467 L18.4896043,21.0067337 L10.6559356,33.4332931 C9.94142634,34.5582651 11.2130727,35.8220288 12.3012589,35.2402896 L12.4909457,35.1180684 L20.9040912,28.7330919 C21.4017438,28.357505 22.0637156,28.3064487 22.6060425,28.5871118 L22.8303152,28.7277264 L29.0596915,33.4010999 C30.8170592,34.7191257 33.287355,34.3593941 34.6096969,32.6663472 L34.843729,32.3333602 L42.6773977,19.9068008 Z" id="Shape"></path>
                </g>
            </g>
        </g>
    </g>
</svg>