<?xml version="1.0" encoding="UTF-8"?>
<svg width="18px" height="18px" viewBox="0 0 18 18" version="1.1" xmlns="http://www.w3.org/2000/svg" xmlns:xlink="http://www.w3.org/1999/xlink">
    <!-- Generator: Sketch 55.2 (78181) - https://sketchapp.com -->
    <title>Icon / Search / Static</title>
    <desc>Created with Sketch.</desc>
    <g id="V3-–-Tag-button" stroke="none" stroke-width="1" fill="none" fill-rule="evenodd">
        <g id="04.0-Tags-settings" transform="translate(-137.000000, -118.000000)" fill="#98A4AB">
            <g id="icon/interfaces/search" transform="translate(134.000000, 115.000000)">
                <path fill="grey" d="M16.9994165,16.2923098 L20.8535534,20.1464466 C21.0488155,20.3417088 21.0488155,20.6582912 20.8535534,20.8535534 C20.6582912,21.0488155 20.3417088,21.0488155 20.1464466,20.8535534 L16.2923098,16.9994165 C14.8819612,18.2444908 13.0292099,19 11,19 C6.581722,19 3,15.418278 3,11 C3,6.581722 6.581722,3 11,3 C15.418278,3 19,6.581722 19,11 C19,13.0292099 18.2444908,14.8819612 16.9994165,16.2923098 Z M11,18 C14.8659932,18 18,14.8659932 18,11 C18,7.13400675 14.8659932,4 11,4 C7.13400675,4 4,7.13400675 4,11 C4,14.8659932 7.13400675,18 11,18 Z" id="Combined-Shape"></path>
            </g>
        </g>
    </g>
</svg>
