<?xml version="1.0" encoding="UTF-8"?>
<svg width="144px" height="144px" viewBox="0 0 144 144" version="1.1" xmlns="http://www.w3.org/2000/svg" xmlns:xlink="http://www.w3.org/1999/xlink">
    <title>Group 16</title>
    <g id="Page-1" stroke="none" stroke-width="1" fill="none" fill-rule="evenodd">
        <g id="Group-16">
            <circle id="Oval-Copy-2" fill="#FFFFFF" cx="72" cy="72" r="72"></circle>
            <g id="icon/airyfont/interface/SMS-alt" transform="translate(18.000000, 18.000000)" fill="#1578D4">
                <path d="M98.4999999,94.5 C98.7761423,94.5 98.9999999,94.7238576 98.9999999,95 L98.9999999,98.5 C98.9999999,98.7761424 98.7761423,99 98.4999999,99 L9.4999999,99 C9.22385752,99 8.9999999,98.7761424 8.9999999,98.5 L8.9999999,95 C8.9999999,94.7238576 9.22385752,94.5 9.4999999,94.5 L98.4999999,94.5 Z M22.5569617,36 C25.0632908,36 27.2563288,36.4060773 29.1360756,37.218232 C31.0158225,38.0303867 32.4778478,39.1657459 33.5221516,40.6243094 C34.5664554,42.0828729 35.0886073,43.7569061 35.0886073,45.6464088 C35.0886073,47.5359116 30.0759491,46.5745856 30.0759491,45.6464088 C30.0759491,44.718232 29.7911389,43.8066298 29.2215187,42.9116022 C28.6518984,42.0165746 27.797468,41.2707182 26.6582275,40.6740331 C25.518987,40.0773481 24.0759491,39.7790055 22.3291136,39.7790055 C20.240506,39.7790055 18.4936706,40.218232 17.0886073,41.0966851 C15.683544,41.9751381 14.9810124,43.1767956 14.9810124,44.7016575 C14.9810124,45.8618785 15.2943035,46.839779 15.9208858,47.6353591 C16.547468,48.4309392 17.5822782,49.1519337 19.0253161,49.7983425 C20.4683541,50.4447514 22.4240503,51.1325967 24.8924048,51.8618785 C27.2088605,52.5248619 29.1930377,53.2955801 30.8449364,54.1740331 C32.4968351,55.0524862 33.768987,56.1381215 34.6613921,57.4309392 C35.5537972,58.7237569 35.9999997,60.3314917 35.9999997,62.2541436 C35.9999997,64.1436464 35.4493668,65.8176796 34.348101,67.2762431 C33.2468351,68.7348066 31.7088605,69.8867403 29.7341769,70.7320442 C27.7594934,71.5773481 25.462025,72 22.8417718,72 C20.0316453,72 17.5917718,71.5359116 15.5221516,70.6077348 C13.4525313,69.679558 11.8575946,68.3867403 10.7373415,66.7292818 C9.6170883,65.0718232 9.03797438,63.1325967 8.99999969,60.9116022 C8.96202501,58.6906077 13.9746832,58.9226519 14.0126579,60.9116022 C14.0506326,62.9005525 14.8196199,64.6160221 16.3196199,66.058011 C17.8196199,67.5 19.9936706,68.2209945 22.8417718,68.2209945 C25.462025,68.2209945 27.4841769,67.6657459 28.9082275,66.5552486 C30.3322782,65.4447514 31.0443035,64.1104972 31.0443035,62.5524862 C31.0443035,61.2596685 30.7025313,60.1740331 30.018987,59.2955801 C29.3354427,58.4171271 28.2246832,57.6381215 26.6867086,56.9585635 C25.1487339,56.2790055 23.0886073,55.5745856 20.5063288,54.8453039 C16.8607592,53.8839779 14.2025313,52.5745856 12.5316453,50.9171271 C10.8607592,49.2596685 10.0253161,47.2044199 10.0253161,44.7513812 C10.0253161,43.0939227 10.518987,41.6022099 11.5063288,40.2762431 C12.4936706,38.9502762 13.9177212,37.9060773 15.7784807,37.1436464 C17.6392402,36.3812155 19.8987339,36 22.5569617,36 Z M85.5573888,36 C88.0637179,36 90.2567559,36.4060773 92.1365027,37.218232 C94.0162495,38.0303867 95.4782749,39.1657459 96.5225787,40.6243094 C97.5668824,42.0828729 98.0890343,43.7569061 98.0890343,45.6464088 C98.0890343,47.5359116 93.0763761,46.5745856 93.0763761,45.6464088 C93.0763761,44.718232 92.791566,43.8066298 92.2219457,42.9116022 C91.6523255,42.0165746 90.7978951,41.2707182 89.6586546,40.6740331 C88.5194141,40.0773481 87.0763761,39.7790055 85.3295407,39.7790055 C83.2409331,39.7790055 81.4940976,40.218232 80.0890343,41.0966851 C78.6839711,41.9751381 77.9814394,43.1767956 77.9814394,44.7016575 C77.9814394,45.8618785 78.2947305,46.839779 78.9213128,47.6353591 C79.5478951,48.4309392 80.5827052,49.1519337 82.0257432,49.7983425 C83.4687812,50.4447514 85.4244774,51.1325967 87.8928318,51.8618785 C90.2092875,52.5248619 92.1934647,53.2955801 93.8453635,54.1740331 C95.4972622,55.0524862 96.7694141,56.1381215 97.6618192,57.4309392 C98.5542242,58.7237569 99.0004268,60.3314917 99.0004268,62.2541436 C99.0004268,64.1436464 98.4497938,65.8176796 97.348528,67.2762431 C96.2472622,68.7348066 94.7092875,69.8867403 92.734604,70.7320442 C90.7599204,71.5773481 88.4624521,72 85.8421989,72 C83.0320723,72 80.5921989,71.5359116 78.5225787,70.6077348 C76.4529584,69.679558 74.8580217,68.3867403 73.7377685,66.7292818 C72.6175154,65.0718232 72.0384014,63.1325967 72.0004268,60.9116022 C71.9624521,58.6906077 76.9751103,58.9226519 77.013085,60.9116022 C77.0510597,62.9005525 77.820047,64.6160221 79.320047,66.058011 C80.820047,67.5 82.9940976,68.2209945 85.8421989,68.2209945 C88.4624521,68.2209945 90.484604,67.6657459 91.9086546,66.5552486 C93.3327052,65.4447514 94.0447305,64.1104972 94.0447305,62.5524862 C94.0447305,61.2596685 93.7029584,60.1740331 93.0194141,59.2955801 C92.3358698,58.4171271 91.2251103,57.6381215 89.6871356,56.9585635 C88.1491609,56.2790055 86.0890343,55.5745856 83.5067559,54.8453039 C79.8611862,53.8839779 77.2029584,52.5745856 75.5320723,50.9171271 C73.8611862,49.2596685 73.0257432,47.2044199 73.0257432,44.7513812 C73.0257432,43.0939227 73.5194141,41.6022099 74.5067559,40.2762431 C75.4940976,38.9502762 76.9181483,37.9060773 78.7789078,37.1436464 C80.6396673,36.3812155 82.8991609,36 85.5573888,36 Z M45.3599998,36 L53.9999998,53.1257143 L62.6399998,36 L67.4999998,36 L67.4999998,69.786 C67.4999998,71.0087584 66.5087583,72 65.2859998,72 C64.0632414,72 63.0719998,71.0087584 63.0719998,69.786 L63.0719998,69.786 L63.0719998,44.3314286 L56.5064491,57.3429892 C56.0290723,58.289051 55.0596798,58.8857143 53.9999998,58.8857143 C52.9400691,58.8857143 51.9701906,58.2897044 51.4913527,57.3441002 L51.4913527,57.3441002 L44.9279998,44.3828571 L44.9279998,69.786 C44.9279998,71.0087584 43.9367583,72 42.7139998,72 C41.4912414,72 40.4999998,71.0087584 40.4999998,69.786 L40.4999998,69.786 L40.4999998,36 L45.3599998,36 Z M98.4999999,9 C98.7761423,9 98.9999999,9.22385763 98.9999999,9.5 L98.9999999,13 C98.9999999,13.2761424 98.7761423,13.5 98.4999999,13.5 L9.4999999,13.5 C9.22385752,13.5 8.9999999,13.2761424 8.9999999,13 L8.9999999,9.5 C8.9999999,9.22385763 9.22385752,9 9.4999999,9 L98.4999999,9 Z" id="Combined-Shape"></path>
            </g>
        </g>
    </g>
</svg>