<svg height="18" viewBox="0 0 18 18" width="18" xmlns="http://www.w3.org/2000/svg"><path d="m8.2881437 19.1950792c.10054811-.016758.20381626-.0023837.29596556.0411969 1.05849635.5005986 2.21803194.7637239 3.41589074.7637239 4.418278 0 8-3.581722 8-8s-3.581722-8-8-8-8 3.581722-8 8c0 1.7069096.53528582 3.3318588 1.51454846 4.6849571.10556077.1458589.12454826.3372089.04971064.5009685l-1.21844908 2.6662092zm-4.70594421 1.7981178c-.39521166.0658686-.70349741-.3366089-.53696184-.7010219l1.49069017-3.2619269c-.99449445-1.4726435-1.53592782-3.2112552-1.53592782-5.0302482 0-4.97056275 4.02943725-9 9-9 4.9705627 0 9 4.02943725 9 9 0 4.9705627-4.0294373 9-9 9-1.292471 0-2.5471359-.272945-3.69946566-.7931922z" fill="#212428" fill-rule="evenodd" transform="translate(-3 -3)"/></svg>