<?xml version="1.0" standalone="no"?>
<!DOCTYPE svg PUBLIC "-//W3C//DTD SVG 20010904//EN"
 "http://www.w3.org/TR/2001/REC-SVG-20010904/DTD/svg10.dtd">
<svg version="1.0" xmlns="http://www.w3.org/2000/svg"
 width="700.000000pt" height="700.000000pt" viewBox="0 0 700.000000 700.000000"
 preserveAspectRatio="xMidYMid meet">
<metadata>
Created by potrace 1.11, written by Peter Selinger 2001-2013
</metadata>
<g transform="translate(0.000000,700.000000) scale(0.100000,-0.100000)"
fill="#000000" stroke="none">
<path d="M3250 6989 c-456 -33 -894 -156 -1315 -368 -206 -104 -334 -184 -510
-316 -521 -391 -911 -892 -1155 -1486 -337 -819 -345 -1747 -23 -2579 36 -92
58 -165 61 -200 3 -44 -26 -189 -148 -735 -83 -374 -154 -688 -157 -699 -7
-23 -51 -26 732 44 376 34 607 50 636 46 36 -5 82 -30 195 -105 479 -316 965
-495 1539 -567 172 -22 586 -25 750 -6 684 79 1282 324 1814 744 158 126 458
427 575 578 287 371 490 765 615 1194 162 554 182 1158 56 1721 -120 534 -352
1017 -694 1445 -102 128 -342 372 -472 480 -700 585 -1593 874 -2499 809z
m1637 -3050 c431 -1075 785 -1964 786 -1977 2 -22 -37 -39 -583 -261 -375
-152 -587 -234 -592 -227 -10 18 -1578 3934 -1578 3943 0 10 1160 483 1174
479 6 -1 362 -882 793 -1957z m-1813 507 c152 -379 274 -691 272 -693 -11 -11
-1381 -558 -1384 -552 -5 12 822 1949 829 1942 4 -5 131 -318 283 -697z m796
-1985 c236 -590 424 -1071 419 -1069 -17 6 -2259 1570 -2259 1577 0 7 1403
571 1408 566 2 -1 196 -485 432 -1074z m-1622 71 c232 -162 422 -297 422 -301
0 -7 -1343 -549 -1349 -544 -2 1 105 261 239 577 153 362 247 573 254 569 6
-4 201 -139 434 -301z"/>
</g>
</svg>
