<svg height="124" viewBox="0 0 279 124" width="279" xmlns="http://www.w3.org/2000/svg"><g fill="none" fill-rule="evenodd"><g fill="#cad5db" transform="translate(38)"><path d="m8 0h220c4.418278 0 8 3.581722 8 8v72.7937157c0 4.418278-3.581722 8-8 8h-228v-80.7937157c0-4.418278 3.581722-8 8-8z" transform="matrix(-1 0 0 1 236 0)"/><path d="m187 93 4.567909-19.2761618.000247-.0009856c.304314-1.2175598.458194-2.4678389.458194-3.7228526l48.97365 19.0420072-.425157-.0030752c-.59487-.0043027-1.189364.0311098-1.779517.1060014z" transform="matrix(-1 0 0 1 428 0)"/></g><rect fill="#98a4ab" height="8" rx="4" width="146" x="54" y="16"/><rect fill="#98a4ab" height="8" rx="4" width="106" x="54" y="64"/><rect fill="#98a4ab" height="8" rx="4" width="206" x="54" y="40"/><g fill="#f1faff" transform="translate(0 31)"><path d="m13 0h220c4.418278 0 8 3.581722 8 8v72.7937157c0 4.418278-3.581722 8-8 8h-228v-80.7937157c0-4.418278 3.581722-8 8-8z"/><path d="m0 92.7937157 4.56790944-19.2761618.00024632-.0009856c.30431461-1.2175598.45819404-2.4678389.45819404-3.7228526l48.9736502 19.0420072-.4251567-.0030752c-.5948703-.0043027-1.1893644.0311098-1.7795173.1060015z"/></g><g fill="#cad5db"><rect height="8" rx="4" width="146" x="21" y="47"/><rect height="8" rx="4" width="106" x="21" y="95"/><rect height="8" rx="4" width="206" x="21" y="71"/></g></g></svg>