<?xml version="1.0" encoding="UTF-8"?>
<svg width="38px" height="24px" viewBox="0 0 38 24" version="1.1" xmlns="http://www.w3.org/2000/svg" xmlns:xlink="http://www.w3.org/1999/xlink">
    <title>Airy Inbox</title>
    <g id="Page-1" stroke="none" stroke-width="1" fill="none" fill-rule="evenodd">
        <g id="01.1.0-Channels-" transform="translate(-28.000000, -580.000000)" fill="#737373">
            <g id="navmenu" transform="translate(0.000000, 99.000000)">
                <g id="Items" transform="translate(8.000000, 24.000000)">
                    <g id="Billing-Copy" transform="translate(0.000000, 457.000000)">
                        <g id="Airy-Inbox" transform="translate(20.000000, 0.000000)">
                            <g id="icon/interfaces/cog-copy-2">
                                <path d="M16.0578447,2.84529858 C18.8505559,4.07729561 20.9244262,6.52601522 21.6831692,9.48811405 C22.3603524,12.1177176 21.9419219,14.9099806 20.5245332,17.2239235 C19.1082116,19.5372845 16.8153363,21.1748234 14.1713804,21.7621112 C11.5273526,22.3499389 8.75922591,21.837539 6.50484924,20.3450106 C6.48109568,20.3297 6.45235032,20.3215295 6.43524346,20.3217082 L2.48432665,20.5021028 C2.17793079,20.5162429 1.94288362,20.2298169 2.01221233,19.9267893 L2.89858387,16.0552782 C2.14144688,14.3708216 1.8768583,12.5160181 2.12986012,10.6972681 L2.19200665,10.3081656 C2.77680229,7.09343349 4.52754993,4.66951721 7.37338062,3.16926021 C10.065073,1.73314489 13.2663765,1.61375005 16.0578447,2.84529858 Z M7.8025177,4.00161256 C5.20946682,5.36861566 3.63601314,7.54706782 3.10285653,10.4779279 C2.78669848,12.2299324 3.00857498,14.0354671 3.74089426,15.6602747 C3.7977861,15.788623 3.82629844,15.9274345 3.82529348,16.0670342 L3.81440727,16.2065381 L3.05254823,19.5353257 L6.40617371,19.3829611 C6.61662019,19.3789402 6.82421269,19.4379455 7.00631932,19.5553655 C9.05721626,20.9131406 11.5714657,21.378546 13.9731691,20.8445926 C16.3734505,20.3114309 18.4537367,18.8257202 19.7378271,16.7283401 C21.0213572,14.6329266 21.4000773,12.1056579 20.7869752,9.72488905 C20.0998633,7.04243668 18.2208448,4.82378799 15.6884475,3.70662772 C13.1544377,2.58866547 10.2476022,2.69707792 7.8025177,4.00161256 Z M11.8880922,11.5666359 L14.4407232,17.9295998 L7.70357966,13.2437628 L11.8880922,11.5666359 Z M13.8501206,4.58127379 L18.5423531,16.2766801 L15.0419593,17.6903539 L10.3497269,5.99485212 L13.8501206,4.58127379 Z M7.06053467,13.6328333 L9.64266091,15.4281322 L5.61087473,17.046173 L7.06053467,13.6328333 Z M9.96862679,6.78147902 L11.6320082,10.9275236 L7.50562714,12.5829824 L9.96862679,6.78147902 Z" id="Shape"></path>
                            </g>
                            <g id="icon/interfaces/shortcut" transform="translate(26.000000, 4.000000)">
                                <path d="M9.64644661,2 L8.25,2 C8.11192881,2 8,1.88807119 8,1.75 C8,1.61192881 8.11192881,1.5 8.25,1.5 L10.25,1.5 C10.3880712,1.5 10.5,1.61192881 10.5,1.75 L10.5,3.75 C10.5,3.88807119 10.3880712,4 10.25,4 C10.1119288,4 10,3.88807119 10,3.75 L10,2.35355339 L7.4267767,4.9267767 C7.32914562,5.02440777 7.17085438,5.02440777 7.0732233,4.9267767 C6.97559223,4.82914562 6.97559223,4.67085438 7.0732233,4.5732233 L9.64644661,2 L9.64644661,2 Z M10,5.75 C10,5.61192881 10.1119288,5.5 10.25,5.5 C10.3880712,5.5 10.5,5.61192881 10.5,5.75 L10.5,9.25 C10.5,9.94035594 9.94035594,10.5 9.25,10.5 L2.75,10.5 C2.05964406,10.5 1.5,9.94035594 1.5,9.25 L1.5,2.75 C1.5,2.05964406 2.05964406,1.5 2.75,1.5 L6.25,1.5 C6.38807119,1.5 6.5,1.61192881 6.5,1.75 C6.5,1.88807119 6.38807119,2 6.25,2 L2.75,2 C2.33578644,2 2,2.33578644 2,2.75 L2,9.25 C2,9.66421356 2.33578644,10 2.75,10 L9.25,10 C9.66421356,10 10,9.66421356 10,9.25 L10,5.75 Z" id="Combined-Shape"></path>
                            </g>
                        </g>
                    </g>
                </g>
            </g>
        </g>
    </g>
</svg>