<?xml version="1.0" encoding="UTF-8"?>
<svg width="38px" height="24px" viewBox="0 0 38 24" version="1.1" xmlns="http://www.w3.org/2000/svg" xmlns:xlink="http://www.w3.org/1999/xlink">
    <title>Group 2</title>
    <g id="Page-1" stroke="none" stroke-width="1" fill="none" fill-rule="evenodd">
        <g id="01.1.0-Channels-" transform="translate(-28.000000, -504.000000)" fill="#737373">
            <g id="navmenu" transform="translate(0.000000, 99.000000)">
                <g id="Items" transform="translate(8.000000, 24.000000)">
                    <g id="Billing" transform="translate(0.000000, 381.000000)">
                        <g id="Group-2" transform="translate(20.000000, 0.000000)">
                            <g id="icon/interfaces/cog-copy-2">
                                <path d="M21,10 L21,9 L3,9 L3,10 L21,10 Z M21,11 L3,11 L3,16.5 C3,17.3284271 3.67157288,18 4.5,18 L19.5,18 C20.3284271,18 21,17.3284271 21,16.5 L21,11 Z M21,8 L21,7.5 C21,6.67157288 20.3284271,6 19.5,6 L4.5,6 C3.67157288,6 3,6.67157288 3,7.5 L3,8 L21,8 Z M17.0001277,16.7325095 C16.2296154,17.1783089 15.2351019,17.063529 14.5857864,16.4142136 C13.8047379,15.633165 13.8047379,14.366835 14.5857864,13.5857864 C15.2340286,12.9375443 16.2281989,12.8209143 17.0001033,13.2675046 C17.2942533,13.0973715 17.6357555,13 18,13 C19.1045695,13 20,13.8954305 20,15 C20,16.1045695 19.1045695,17 18,17 C17.6357656,17 17.2942722,16.9026339 17.0001277,16.7325095 L17.0001277,16.7325095 Z M16.2498202,15.9686777 C16.090641,15.6816907 16,15.3514305 16,15 C16,14.6485599 16.090646,14.3182912 16.2498333,14.0312988 C15.916851,13.9458211 15.5502017,14.0355847 15.2928932,14.2928932 C14.9023689,14.6834175 14.9023689,15.3165825 15.2928932,15.7071068 C15.5505379,15.9647514 15.9171928,16.0540405 16.2498202,15.9686777 L16.2498202,15.9686777 Z M2,7.5 C2,6.11928813 3.11928813,5 4.5,5 L19.5,5 C20.8807119,5 22,6.11928813 22,7.5 L22,16.5 C22,17.8807119 20.8807119,19 19.5,19 L4.5,19 C3.11928813,19 2,17.8807119 2,16.5 L2,7.5 Z M18,16 C18.5522847,16 19,15.5522847 19,15 C19,14.4477153 18.5522847,14 18,14 C17.4477153,14 17,14.4477153 17,15 C17,15.5522847 17.4477153,16 18,16 Z" id="Combined-Shape"></path>
                            </g>
                            <g id="icon/interfaces/shortcut" transform="translate(26.000000, 4.000000)">
                                <path d="M9.64644661,2 L8.25,2 C8.11192881,2 8,1.88807119 8,1.75 C8,1.61192881 8.11192881,1.5 8.25,1.5 L10.25,1.5 C10.3880712,1.5 10.5,1.61192881 10.5,1.75 L10.5,3.75 C10.5,3.88807119 10.3880712,4 10.25,4 C10.1119288,4 10,3.88807119 10,3.75 L10,2.35355339 L7.4267767,4.9267767 C7.32914562,5.02440777 7.17085438,5.02440777 7.0732233,4.9267767 C6.97559223,4.82914562 6.97559223,4.67085438 7.0732233,4.5732233 L9.64644661,2 L9.64644661,2 Z M10,5.75 C10,5.61192881 10.1119288,5.5 10.25,5.5 C10.3880712,5.5 10.5,5.61192881 10.5,5.75 L10.5,9.25 C10.5,9.94035594 9.94035594,10.5 9.25,10.5 L2.75,10.5 C2.05964406,10.5 1.5,9.94035594 1.5,9.25 L1.5,2.75 C1.5,2.05964406 2.05964406,1.5 2.75,1.5 L6.25,1.5 C6.38807119,1.5 6.5,1.61192881 6.5,1.75 C6.5,1.88807119 6.38807119,2 6.25,2 L2.75,2 C2.33578644,2 2,2.33578644 2,2.75 L2,9.25 C2,9.66421356 2.33578644,10 2.75,10 L9.25,10 C9.66421356,10 10,9.66421356 10,9.25 L10,5.75 Z" id="Combined-Shape"></path>
                            </g>
                        </g>
                    </g>
                </g>
            </g>
        </g>
    </g>
</svg>