<?xml version="1.0" encoding="UTF-8"?>
<svg width="18px" height="19px" viewBox="0 0 18 19" version="1.1" xmlns="http://www.w3.org/2000/svg" xmlns:xlink="http://www.w3.org/1999/xlink">
    <!-- Generator: Sketch 60.1 (88133) - https://sketch.com -->
    <title>icon/airyfont/interface/bot</title>
    <desc>Created with Sketch.</desc>
    <g id="Symbols" stroke="none" stroke-width="1" fill="none" fill-rule="evenodd">
        <g id="icon/airyfont/interface/bot" transform="translate(-3.000000, -1.000000)" fill="#212428">
            <path d="M12,1 C13.1045695,1 14,1.8954305 14,3 C14,3.7398375 13.5982846,4.38584934 13.0010775,4.73181186 L13,5 L18,5 C19.6568542,5 21,6.34314575 21,8 L21,17 C21,18.6568542 19.6568542,20 18,20 L6,20 C4.34314575,20 3,18.6568542 3,17 L3,8 C3,6.34314575 4.34314575,5 6,5 L11,5 L10.9999275,4.73239368 C10.4021661,4.38657394 10,3.74025244 10,3 C10,1.8954305 10.8954305,1 12,1 Z M18,6 L6,6 C4.8954305,6 4,6.8954305 4,8 L4,17 C4,18.1045695 4.8954305,19 6,19 L18,19 C19.1045695,19 20,18.1045695 20,17 L20,8 C20,6.8954305 19.1045695,6 18,6 Z M15.5,14 C15.7761424,14 16,14.2238576 16,14.5 C16,15.310318 15.425265,16 14.6666667,16 L9.33333333,16 C8.57473497,16 8,15.310318 8,14.5 C8,14.2238576 8.22385763,14 8.5,14 C8.77614237,14 9,14.2238576 9,14.5 C9,14.7942515 9.17145712,15 9.33333333,15 L14.6666667,15 C14.8285429,15 15,14.7942515 15,14.5 C15,14.2238576 15.2238576,14 15.5,14 Z M7.5,9 C8.32842712,9 9,9.67157288 9,10.5 C9,11.3284271 8.32842712,12 7.5,12 C6.67157288,12 6,11.3284271 6,10.5 C6,9.67157288 6.67157288,9 7.5,9 Z M16.5,9 C17.3284271,9 18,9.67157288 18,10.5 C18,11.3284271 17.3284271,12 16.5,12 C15.6715729,12 15,11.3284271 15,10.5 C15,9.67157288 15.6715729,9 16.5,9 Z" id="Shape"></path>
        </g>
    </g>
</svg>