<?xml version="1.0" encoding="UTF-8"?>
<svg width="20px" height="20px" viewBox="0 0 20 20" version="1.1" xmlns="http://www.w3.org/2000/svg" xmlns:xlink="http://www.w3.org/1999/xlink">
    <title>icon/interfaces/exclamation-triangle</title>
    <g id="Page-1" stroke="none" stroke-width="1" fill="none" fill-rule="evenodd">
        <g id="Shape" transform="translate(-2.000000, -2.000000)" fill="#D52548">
            <path d="M12,22 C6.4771525,22 2,17.5228475 2,12 C2,6.4771525 6.4771525,2 12,2 C17.5228475,2 22,6.4771525 22,12 C22,17.5228475 17.5228475,22 12,22 Z M12,21 C16.9705627,21 21,16.9705627 21,12 C21,7.02943725 16.9705627,3 12,3 C7.02943725,3 3,7.02943725 3,12 C3,16.9705627 7.02943725,21 12,21 Z M11.2466161,6 L12.7533839,6 C13.3056687,6 13.7533839,6.44771525 13.7533839,7 C13.7533839,7.07296235 13.7453988,7.14570556 13.729571,7.21693046 L12.811287,11.3492086 C12.7267872,11.7294577 12.3895248,12 12,12 C11.6104752,12 11.2732128,11.7294577 11.188713,11.3492086 L10.270429,7.21693046 C10.1506216,6.67779723 10.4905524,6.14362032 11.0296856,6.02381294 C11.1009105,6.00798518 11.1736537,6 11.2466161,6 Z M12,18 C13.1045695,18 14,17.1045695 14,16 C14,14.8954305 13.1045695,14 12,14 C10.8954305,14 10,14.8954305 10,16 C10,17.1045695 10.8954305,18 12,18 Z"></path>
        </g>
    </g>
</svg>