<?xml version="1.0" encoding="UTF-8"?>
<svg width="24px" height="24px" viewBox="0 0 24 24" version="1.1" xmlns="http://www.w3.org/2000/svg" xmlns:xlink="http://www.w3.org/1999/xlink">
    <!-- Generator: Sketch 59 (86127) - https://sketch.com -->
    <title>icon/development/git-branch</title>
    <desc>Created with Sketch.</desc>
    <g id="icon/development/git-branch" stroke="none" stroke-width="1" fill="none" fill-rule="evenodd">
        <path d="M9.96455557,19 C9.72194074,20.6961471 8.26323595,22 6.5,22 C4.56700338,22 3,20.4329966 3,18.5 C3,16.736764 4.30385293,15.2780593 6,15.0354444 L6,8.96455557 C4.30385293,8.72194074 3,7.26323595 3,5.5 C3,3.56700338 4.56700338,2 6.5,2 C8.43299662,2 10,3.56700338 10,5.5 C10,7.26323595 8.69614707,8.72194074 7,8.96455557 L7,15.0354444 C8.53284558,15.2547008 9.74529919,16.4671544 9.96455557,18 L14.5,18 C16.4329966,18 18,16.4329966 18,14.5 L18,13.9645556 C16.3038529,13.7219407 15,12.263236 15,10.5 C15,8.56700338 16.5670034,7 18.5,7 C20.4329966,7 22,8.56700338 22,10.5 C22,12.263236 20.6961471,13.7219407 19,13.9645556 L19,14.5 C19,16.9852814 16.9852814,19 14.5,19 L9.96455557,19 L9.96455557,19 Z M4,18.5 C4,19.8807119 5.11928813,21 6.5,21 C7.88071187,21 9,19.8807119 9,18.5 C9,17.1192881 7.88071187,16 6.5,16 C5.11928813,16 4,17.1192881 4,18.5 Z M4,5.5 C4,6.88071187 5.11928813,8 6.5,8 C7.88071187,8 9,6.88071187 9,5.5 C9,4.11928813 7.88071187,3 6.5,3 C5.11928813,3 4,4.11928813 4,5.5 Z M18.5,13 C19.8807119,13 21,11.8807119 21,10.5 C21,9.11928813 19.8807119,8 18.5,8 C17.1192881,8 16,9.11928813 16,10.5 C16,11.8807119 17.1192881,13 18.5,13 Z" id="Shape" fill="#212428"></path>
    </g>
</svg>