<svg height="20" viewBox="0 0 20 20" width="20" xmlns="http://www.w3.org/2000/svg"><path d="m20 3c1.1 0 2 .9 2 2v12c0 1.1-.9 2-2 2h-14l-4 4v-18c0-1.1.9-2 2-2zm-7.8677249 2.22222222c-3.12853047 0-5.68783066 2.56089111-5.68783066 5.69444448 0 3.1335533 2.55930019 5.6944444 5.68783066 5.6944444 3.0848934 0 5.4232805-2.5131622 5.4232805-5.6944444v-.92957961h-5.2910053v2.12387391l3.0164631-.0000616-.0057803.0192343c-.439866 1.4123393-1.6651225 2.3571035-3.142958 2.3571035-1.9508345 0-3.57142854-1.6216014-3.57142854-3.5705705 0-1.94896921 1.62059404-3.5705706 3.57142854-3.5705706.9541841 0 1.8142842.39343305 2.4615739 1.09094749l.2792034.30086753 1.5263017-1.52725046-.2838628-.28403923c-1.0852569-1.08593153-2.4685866-1.70439921-3.9832162-1.70439921z" fill="#212428" fill-rule="evenodd" transform="translate(-2 -3)"/></svg>