<?xml version="1.0" encoding="utf-8"?>
<!-- Svg Vector Icons : http://www.onlinewebfonts.com/icon -->
<!DOCTYPE svg PUBLIC "-//W3C//DTD SVG 1.1//EN" "http://www.w3.org/Graphics/SVG/1.1/DTD/svg11.dtd">
<svg
  viewBox="0 0 20 20"
  version="1.1"
  xmlns="http://www.w3.org/2000/svg"
  xmlnsXlink="http://www.w3.org/1999/xlink">
  <title>Icon / App nav bar / Settings</title>
  <desc>Created with Sketch.</desc>
  <g id="Page-1" stroke="none" strokeWidth="1" fill="none" fillRule="evenodd">
    <path
      d="M15.1870269,3.90925826 L16.670875,3.60561111 C17.3034125,3.47617184 17.9478108,3.76601219 18.2706336,4.32515769 L19.0498744,5.67484231 C19.3726972,6.23398781 19.3015072,6.9369733 18.8731407,7.42004724 L17.869232,8.55216701 C17.955984,9.02653204 18,9.5105366 18,10 C18,10.4894634 17.955984,10.973468 17.869232,11.447833 L18.8731407,12.5799528 C19.3015072,13.0630267 19.3726972,13.7660122 19.0498744,14.3251577 L18.2706336,15.6748423 C17.9478108,16.2339878 17.3034125,16.5238282 16.670875,16.3943889 L15.1870269,16.0907417 C14.4472202,16.7213719 13.5983246,17.2134101 12.6804637,17.5397477 L12.2022657,18.9743416 C11.9980947,19.5868549 11.4248864,20 10.7792408,20 L9.22075922,20 C8.57511361,20 8.00190534,19.5868549 7.79773427,18.9743416 L7.31953628,17.5397477 C6.40167539,17.2134101 5.55277982,16.7213719 4.81297313,16.0907417 L3.32912501,16.3943889 C2.69658748,16.5238282 2.05218916,16.2339878 1.72936635,15.6748423 L0.950125572,14.3251577 C0.627302766,13.7660122 0.698492822,13.0630267 1.12685929,12.5799528 L2.13076802,11.447833 C2.04401605,10.973468 2,10.4894634 2,10 C2,9.5105366 2.04401605,9.02653204 2.13076802,8.55216701 L1.12685929,7.42004724 C0.698492822,6.9369733 0.627302766,6.23398781 0.950125572,5.67484231 L1.72936635,4.32515769 C2.05218916,3.76601219 2.69658748,3.47617184 3.32912501,3.60561111 L4.81297313,3.90925826 C5.55277982,3.27862815 6.40167539,2.78658986 7.31953628,2.46025233 L7.79773427,1.02565835 C8.00190534,0.413145142 8.57511361,0 9.22075922,0 L10.7792408,0 C11.4248864,0 11.9980947,0.413145142 12.2022657,1.02565835 L12.6804637,2.46025233 C13.5983246,2.78658986 14.4472202,3.27862815 15.1870269,3.90925826 Z M12.1326282,3.33065677 C11.9806142,3.28209151 11.8609139,3.16388061 11.8104493,3.0124866 L11.2535824,1.34188612 C11.1855254,1.13771505 10.994456,1 10.7792408,1 L9.22075922,1 C9.00554402,1 8.81447459,1.13771505 8.74641757,1.34188612 L8.18955074,3.0124866 C8.13908607,3.16388061 8.01938579,3.28209151 7.86737183,3.33065677 C6.91148077,3.63604385 6.03422671,4.14493515 5.29282481,4.8189531 C5.17476231,4.92628523 5.01256297,4.97082432 4.8562438,4.93883595 L3.12864464,4.58530883 C2.9177988,4.54216241 2.70299936,4.63877585 2.59539176,4.82515769 L1.81615098,6.17484231 C1.70854337,6.36122415 1.73227339,6.59555264 1.87506221,6.75657729 L3.04377846,8.07455244 C3.1495098,8.19378694 3.1920708,8.35628053 3.15836615,8.51203668 C3.05341889,8.99701958 3,9.49488458 3,10 C3,10.5051154 3.05341889,11.0029804 3.15836615,11.4879633 C3.1920708,11.6437195 3.1495098,11.8062131 3.04377846,11.9254476 L1.87506221,13.2434227 C1.73227339,13.4044474 1.70854337,13.6387759 1.81615098,13.8251577 L2.59539176,15.1748423 C2.70299936,15.3612241 2.9177988,15.4578376 3.12864464,15.4146912 L4.8562438,15.061164 C5.01256297,15.0291757 5.17476231,15.0737148 5.29282481,15.1810469 C6.03422671,15.8550648 6.91148077,16.3639561 7.86737183,16.6693432 C8.01938579,16.7179085 8.13908607,16.8361194 8.18955074,16.9875134 L8.74641757,18.6581139 C8.81447459,18.862285 9.00554402,19 9.22075922,19 L10.7792408,19 C10.994456,19 11.1855254,18.862285 11.2535824,18.6581139 L11.8104493,16.9875134 C11.8609139,16.8361194 11.9806142,16.7179085 12.1326282,16.6693432 C13.0885192,16.3639561 13.9657733,15.8550648 14.7071752,15.1810469 C14.8252377,15.0737148 14.987437,15.0291757 15.1437562,15.061164 L16.8713554,15.4146912 C17.0822012,15.4578376 17.2970006,15.3612241 17.4046082,15.1748423 L18.183849,13.8251577 C18.2914566,13.6387759 18.2677266,13.4044474 18.1249378,13.2434227 L16.9562215,11.9254476 C16.8504902,11.8062131 16.8079292,11.6437195 16.8416339,11.4879633 C16.9465811,11.0029804 17,10.5051154 17,10 C17,9.49488458 16.9465811,8.99701958 16.8416339,8.51203668 C16.8079292,8.35628053 16.8504902,8.19378694 16.9562215,8.07455244 L18.1249378,6.75657729 C18.2677266,6.59555264 18.2914566,6.36122415 18.183849,6.17484231 L17.4046082,4.82515769 C17.2970006,4.63877585 17.0822012,4.54216241 16.8713554,4.58530883 L15.1437562,4.93883595 C14.987437,4.97082432 14.8252377,4.92628523 14.7071752,4.8189531 C13.9657733,4.14493515 13.0885192,3.63604385 12.1326282,3.33065677 Z M10,14 C7.790861,14 6,12.209139 6,10 C6,7.790861 7.790861,6 10,6 C12.209139,6 14,7.790861 14,10 C14,12.209139 12.209139,14 10,14 Z M10,13 C11.6568542,13 13,11.6568542 13,10 C13,8.34314575 11.6568542,7 10,7 C8.34314575,7 7,8.34314575 7,10 C7,11.6568542 8.34314575,13 10,13 Z"
      id="settings"
      fill="#FFFFFF"
      fillRule="nonzero"
    />
  </g>
</svg>
