<?xml version="1.0" encoding="utf-8"?>
<!-- Svg Vector Icons : http://www.onlinewebfonts.com/icon -->
<!DOCTYPE svg PUBLIC "-//W3C//DTD SVG 1.1//EN" "http://www.w3.org/Graphics/SVG/1.1/DTD/svg11.dtd">
<svg viewBox="0 0 20 20" version="1.1" xmlns="http://www.w3.org/2000/svg">
  <g id="Page-1" stroke="none" strokeWidth="1" fill="none" fillRule="evenodd">
    <path
      d="M5.86872332,9.29879827 L1.81348725,11.3862352 C1.31395818,11.6433683 1,12.15809 1,12.7199144 L1,13.5 C1,14.3284353 1.67158104,15 2.50007042,15 C2.77621279,15 3.00007042,15.2238576 3.00007042,15.5 C3.00007042,15.7761424 2.77621279,16 2.50007042,16 C1.11930174,16 4.54747351e-13,14.8807255 4.54747351e-13,13.5 L4.54747351e-13,12.7199144 C4.54747351e-13,11.7835403 0.523263638,10.9256709 1.35581209,10.4971157 L4.71355663,8.76871328 C3.64186533,7.83428889 3,6.47230593 3,5 C3,2.23857625 5.23857625,0 8,0 C9.6765944,0 11.2132159,0.831947189 12.1379524,2.1925488 C12.2931758,2.42093513 12.2338655,2.73191224 12.0054791,2.88713561 C11.7770928,3.04235899 11.4661157,2.9830487 11.3108923,2.75466237 C10.5703998,1.66514623 9.34186269,1 8,1 C5.790861,1 4,2.790861 4,5 C4,6.41171278 4.73680464,7.69567406 5.92026949,8.41759125 C6.15601291,8.56139547 6.23054436,8.86907961 6.08674015,9.10482303 C6.0329088,9.1930707 5.95611316,9.25872793 5.86872332,9.29879827 L5.86872332,9.29879827 Z M9.96126583,13.5668358 L5.87929558,15.4222768 C5.34380416,15.665682 5,16.1996113 5,16.7878265 L5,17.5 C5,18.3284271 5.67157288,19 6.5,19 L17.5,19 C18.3284271,19 19,18.3284271 19,17.5 L19,16.7878265 C19,16.1996113 18.6561958,15.665682 18.1207044,15.4222768 L14.0387342,13.5668358 C13.4161054,13.8452135 12.7261289,14 12,14 C11.2738711,14 10.5838946,13.8452135 9.96126583,13.5668358 L9.96126583,13.5668358 Z M8.92215823,12.9406987 C7.75209123,12.0255364 7,10.6005984 7,9 C7,6.23857625 9.23857625,4 12,4 C14.7614237,4 17,6.23857625 17,9 C17,10.6005984 16.2479088,12.0255364 15.0778418,12.9406987 L18.5345074,14.5119103 C19.4269931,14.9175857 20,15.8074678 20,16.7878265 L20,17.5 C20,18.8807119 18.8807119,20 17.5,20 L6.5,20 C5.11928813,20 4,18.8807119 4,17.5 L4,16.7878265 C4,15.8074678 4.57300693,14.9175857 5.46549264,14.5119103 L8.92215823,12.9406987 L8.92215823,12.9406987 Z M12,13 C14.209139,13 16,11.209139 16,9 C16,6.790861 14.209139,5 12,5 C9.790861,5 8,6.790861 8,9 C8,11.209139 9.790861,13 12,13 Z"
      id="contacts"
      fill="#FFFFFF"
      fillRule="nonzero"
    />
  </g>
</svg>
