<?xml version="1.0" encoding="UTF-8"?>
<svg width="20px" height="16px" viewBox="0 0 20 16" version="1.1" xmlns="http://www.w3.org/2000/svg" xmlns:xlink="http://www.w3.org/1999/xlink">
    <!-- Generator: Sketch 58 (84663) - https://sketch.com -->
    <title>icon/media/image-wide</title>
    <desc>Created with Sketch.</desc>
    <g id="Page-1" stroke="none" stroke-width="1" fill="none" fill-rule="evenodd">
        <g id="icon/media/image-wide" transform="translate(-2.000000, -4.000000)" fill="#fff">
            <path d="M19.5,4 C20.8807119,4 22,5.11928813 22,6.5 L22,17.5 C22,18.8807119 20.8807119,20 19.5,20 L4.5,20 C3.11928813,20 2,18.8807119 2,17.5 L2,6.5 C2,5.11928813 3.11928813,4 4.5,4 L19.5,4 Z M7.5,11.2071068 L2.999,15.707 L3,17.5 C3,18.3284271 3.67157288,19 4.5,19 L19.5,19 C19.991226,19 20.4273013,18.7638722 20.7009134,18.3989292 C20.6813226,18.3860356 20.6634259,18.3705327 20.6464466,18.3535534 L16.5,14.2071068 L13.8535534,16.8535534 C13.6582912,17.0488155 13.3417088,17.0488155 13.1464466,16.8535534 L7.5,11.2071068 Z M19.5,5 L4.5,5 C3.67157288,5 3,5.67157288 3,6.5 L2.999,14.293 L7.14644661,10.1464466 C7.34170876,9.95118446 7.65829124,9.95118446 7.85355339,10.1464466 L13.5,15.7928932 L16.1464466,13.1464466 C16.3417088,12.9511845 16.6582912,12.9511845 16.8535534,13.1464466 L20.999,17.292 L21,6.5 C21,5.67157288 20.3284271,5 19.5,5 Z M18,7 C18.5522847,7 19,7.44771525 19,8 L19,10 C19,10.5522847 18.5522847,11 18,11 L16,11 C15.4477153,11 15,10.5522847 15,10 L15,8 C15,7.44771525 15.4477153,7 16,7 L18,7 Z M18,8 L16,8 L16,10 L18,10 L18,8 Z" id="Combined-Shape"></path>
        </g>
    </g>
</svg>
