<svg height="20" viewBox="0 0 20 20" width="20" xmlns="http://www.w3.org/2000/svg"><path d="m10 .00026157c5.6338028 0 10 4.12676056 10 9.70020121 0 5.57344062-4.3661972 9.70020122-10 9.70020122-1.01207243 0-1.98390342-.1327968-2.89537223-.3843059-.1416499-.0386317-.28973843-.037344-.42984306.002833l-.10335614.0374085-1.98390342.8752515c-.48667002.2131539-1.031698-.0971454-1.11284651-.6042923l-.00988991-.1039572-.05432595-1.778672c-.00804829-.2193159-.10663984-.4225352-.26961771-.5694165-1.94567404-1.7404427-3.14084507-4.2595574-3.14084507-7.17505032 0-5.57344065 4.36619718-9.70020121 10-9.70020121zm6.0040241 7.46478873c.267941-.42186452-.2089264-.89577589-.6169962-.6776237l-.0711325.04583296-3.1549296 2.39436619c-.1866197.14084507-.4348592.1599912-.6382317.05474252l-.0841023-.05273044-2.33601611-1.75251509c-.6590129-.49425968-1.58537383-.35936032-2.08125201.27553229l-.08776207.12487012-2.93762575 4.65995975c-.26794098.4218645.20892639.8957759.61699621.6776237l.07113256-.0458329 3.15492958-2.3943662c.18661971-.1408451.43485915-.1599912.63823173-.0547426l.08410227.0527305 2.33601609 1.7525151c.6590129.4942597 1.5853738.3593603 2.081252-.2755323l.0877621-.1248701z" fill="#212428" fill-rule="evenodd"/></svg>