<svg height="14" viewBox="0 0 14 14" width="14" xmlns="http://www.w3.org/2000/svg"><path d="m14.3333333 14c.1840949 0 .3333334.1492384.3333334.3333333s-.1492385.3333334-.3333334.3333334h-12.66666665c-.18409492 0-.33333333-.1492385-.33333333-.3333334s.14923841-.3333333.33333333-.3333333zm-10.99156119-8.66666667c.37130801 0 .69620253.06015961.97468354.18047882.27848101.12031922.49507736.28852057.64978903.50460406.15471167.21608348.23206751.46408839.23206751.74401473 0 .27992633-.74261603.13750767-.74261603 0s-.0421941-.27255985-.12658228-.40515654c-.08438819-.13259668-.21097047-.24309392-.37974684-.33149171s-.38255977-.13259669-.64135021-.13259669c-.30942335 0-.56821378.0650706-.77637131.19521179-.20815752.13014119-.31223628.30816452-.31223628.53406998 0 .17188459.0464135.31675875.1392405.43462247.09282701.11786372.24613221.22467772.45991562.32044199.2137834.09576427.50351617.19766728.86919831.30570902.34317862.09821977.6371308.21240025.88185654.34254144s.43319268.29097606.56540084.4825046c.13220816.19152855.19831224.42971148.19831224.71454881 0 .27992633-.08157525.52793124-.24472574.74401473-.16315049.21608347-.39099859.38674037-.6835443.51197057s-.6329114.1878453-1.02109705.1878453c-.41631505 0-.77777778-.0687539-1.08438819-.2062615-.3066104-.1375077-.54289732-.3290363-.70886076-.57458568-.16596343-.24554942-.25175808-.53284223-.25738396-.86187845s.73699015-.2946593.74261603 0 .11954993.54880294.34177215.76243094c.22222223.21362799.5443038.32044199.96624473.32044199.38818565 0 .68776371-.0822591.89873418-.24677717.21097046-.16451811.31645569-.36218539.31645569-.59300184 0-.19152854-.05063291-.35236341-.15189873-.4825046s-.26582279-.24554942-.49367089-.34622468-.53305204-.20503376-.91561181-.31307551c-.54008439-.14241866-.93389592-.3364027-1.1814346-.58195212-.24753868-.24554941-.37130802-.55003069-.37130802-.91344383 0-.24554941.07313643-.46654389.21940928-.66298342.14627286-.19643953.35724332-.35113567.6329114-.4640884.27566807-.11295273.61040787-.1694291 1.00421941-.1694291zm9.33339659 0c.371308 0 .6962025.06015961.9746836.18047882.278481.12031922.4950773.28852057.649789.50460406.1547117.21608348.2320675.46408839.2320675.74401473 0 .27992633-.742616.13750767-.742616 0s-.0421941-.27255985-.1265823-.40515654c-.0843882-.13259668-.2109705-.24309392-.3797469-.33149171-.1687763-.08839779-.3825597-.13259669-.6413502-.13259669-.3094233 0-.5682137.0650706-.7763713.19521179-.2081575.13014119-.3122363.30816452-.3122363.53406998 0 .17188459.0464135.31675875.1392405.43462247s.2461323.22467772.4599157.32044199.5035161.19766728.8691983.30570902c.3431786.09821977.6371308.21240025.8818565.34254144s.4331927.29097606.5654009.4825046c.1322081.19152855.1983122.42971148.1983122.71454881 0 .27992633-.0815753.52793124-.2447257.74401473-.1631505.21608347-.3909986.38674037-.6835444.51197057-.2925457.1252302-.6329113.1878453-1.021097.1878453-.416315 0-.7777778-.0687539-1.0843882-.2062615-.3066104-.1375077-.5428973-.3290363-.7088607-.57458568-.1659635-.24554942-.2517581-.53284223-.257384-.86187845s.7369901-.2946593.742616 0 .11955.54880294.3417722.76243094c.2222222.21362799.5443038.32044199.9662447.32044199.3881857 0 .6877637-.0822591.8987342-.24677717.2109704-.16451811.3164557-.36218539.3164557-.59300184 0-.19152854-.0506329-.35236341-.1518988-.4825046-.1012658-.13014119-.2658227-.24554942-.4936708-.34622468s-.5330521-.20503376-.9156119-.31307551c-.5400843-.14241866-.9338959-.3364027-1.1814346-.58195212-.2475386-.24554941-.371308-.55003069-.371308-.91344383 0-.24554941.0731365-.46654389.2194093-.66298342.1462729-.19643953.3572433-.35113567.6329114-.4640884s.6104079-.1694291 1.0042194-.1694291zm-5.95516872 0 1.28 2.53714286 1.28-2.53714286h.72v5.00533337c0 .1811494-.14685061.328-.328.328-.1811494 0-.328-.1468506-.328-.328v-3.77104765l-.97267419 1.92763861c-.07072248.1401573-.2143362.22855186-.37132581.22855186-.15702678 0-.30071248-.08829775-.37165143-.22838727l-.97234857-1.92018415v3.7634286c0 .1811494-.14685061.328-.328.328-.1811494 0-.328-.1468506-.328-.328v-5.00533337zm7.61333332-4c.1840949 0 .3333334.14923842.3333334.33333334 0 .18409491-.1492385.33333333-.3333334.33333333h-12.66666665c-.18409492 0-.33333333-.14923842-.33333333-.33333333 0-.18409492.14923841-.33333334.33333333-.33333334z" fill="#212428" fill-rule="evenodd" transform="translate(-1 -1)"/></svg>