<?xml version="1.0" encoding="UTF-8"?>
<svg width="12px" height="12px" viewBox="0 0 12 12" version="1.1" xmlns="http://www.w3.org/2000/svg" xmlns:xlink="http://www.w3.org/1999/xlink">
    <!-- Generator: Sketch 55.2 (78181) - https://sketchapp.com -->
    <title>icon/interfaces/trash copy 2</title>
    <desc>Created with Sketch.</desc>
    <g id="Symbols" stroke="none" stroke-width="1" fill="none" fill-rule="evenodd">
        <g id="Tags-list-manager" transform="translate(-253.000000, -6.000000)" fill="#98A4AB">
            <g id="Icons" transform="translate(227.000000, 4.000000)">
                <g id="icon/interfaces/trash" transform="translate(24.000000, 0.000000)">
                    <path d="M12.6666667,4 L12.6666667,12.3333333 C12.6666667,13.2538079 11.9204746,14 11,14 L5,14 C4.07952542,14 3.33333333,13.2538079 3.33333333,12.3333333 L3.33333333,4 L3,4 C2.81590508,4 2.66666667,3.85076158 2.66666667,3.66666667 C2.66666667,3.48257175 2.81590508,3.33333333 3,3.33333333 L6,3.33333333 L6,3 C6,2.44771525 6.44771525,2 7,2 L9,2 C9.55228475,2 10,2.44771525 10,3 L10,3.33333333 L13,3.33333333 C13.1840949,3.33333333 13.3333333,3.48257175 13.3333333,3.66666667 C13.3333333,3.85076158 13.1840949,4 13,4 L12.6666667,4 Z M4,4 L4,12.3333333 C4,12.8856181 4.44771525,13.3333333 5,13.3333333 L11,13.3333333 C11.5522847,13.3333333 12,12.8856181 12,12.3333333 L12,4 L4,4 Z M9.33333333,3.33333333 L9.33333333,3 C9.33333333,2.81590508 9.18409492,2.66666667 9,2.66666667 L7,2.66666667 C6.81590508,2.66666667 6.66666667,2.81590508 6.66666667,3 L6.66666667,3.33333333 L9.33333333,3.33333333 Z M9.33333333,6.33333333 C9.33333333,6.14923842 9.48257175,6 9.66666667,6 C9.85076158,6 10,6.14923842 10,6.33333333 L10,11 C10,11.1840949 9.85076158,11.3333333 9.66666667,11.3333333 C9.48257175,11.3333333 9.33333333,11.1840949 9.33333333,11 L9.33333333,6.33333333 Z M6,6.33333333 C6,6.14923842 6.14923842,6 6.33333333,6 C6.51742825,6 6.66666667,6.14923842 6.66666667,6.33333333 L6.66666667,11 C6.66666667,11.1840949 6.51742825,11.3333333 6.33333333,11.3333333 C6.14923842,11.3333333 6,11.1840949 6,11 L6,6.33333333 Z" id="Combined-Shape"></path>
                </g>
            </g>
        </g>
    </g>
</svg>