<?xml version="1.0" encoding="UTF-8"?>
<svg width="23px" height="26px" viewBox="0 0 23 26" version="1.1" xmlns="http://www.w3.org/2000/svg" xmlns:xlink="http://www.w3.org/1999/xlink">
    <title>icon/interfaces/user-plus</title>
    <desc>Created with Sketch.</desc>
    <g id="Page-1" stroke="none" stroke-width="1" fill="none" fill-rule="evenodd">
        <g id="icon/interfaces/user-plus" transform="translate(-5.000000, -5.000000)" fill="#212428">
            <path d="M22.6666667,25.3333333 L22.6666667,22 C22.6666667,21.6318102 22.9651435,21.3333333 23.3333333,21.3333333 C23.7015232,21.3333333 24,21.6318102 24,22 L24,25.3333333 L27.3333333,25.3333333 C27.7015232,25.3333333 28,25.6318102 28,26 C28,26.3681898 27.7015232,26.6666667 27.3333333,26.6666667 L24,26.6666667 L24,30 C24,30.3681898 23.7015232,30.6666667 23.3333333,30.6666667 C22.9651435,30.6666667 22.6666667,30.3681898 22.6666667,30 L22.6666667,26.6666667 L19.3333333,26.6666667 C18.9651435,26.6666667 18.6666667,26.3681898 18.6666667,26 C18.6666667,25.6318102 18.9651435,25.3333333 19.3333333,25.3333333 L22.6666667,25.3333333 Z M18.7233514,18.0868589 C17.8918639,18.4594484 16.9701312,18.6666667 16,18.6666667 C15.0318282,18.6666667 14.1118595,18.4602846 13.2816878,18.0891144 L7.83906078,20.5630358 C7.12507221,20.887576 6.66666667,21.5994817 6.66666667,22.3837687 L6.66666667,23.3333333 C6.66666667,24.4379028 7.56209717,25.3333333 8.66666667,25.3333333 L15.3333333,25.3333333 C15.7015232,25.3333333 16,25.6318102 16,26 C16,26.3681898 15.7015232,26.6666667 15.3333333,26.6666667 L8.66666667,26.6666667 C6.8257175,26.6666667 5.33333333,25.1742825 5.33333333,23.3333333 L5.33333333,22.3837687 C5.33333333,21.0766238 6.09734257,19.8901142 7.28732352,19.3492138 L11.896211,17.254265 C10.3361216,16.0340486 9.33333333,14.1341312 9.33333333,12 C9.33333333,8.31810167 12.3181017,5.33333333 16,5.33333333 C19.6818983,5.33333333 22.6666667,8.31810167 22.6666667,12 C22.6666667,14.1238965 21.6734735,16.0158203 20.1261958,17.2366627 L23.5954792,18.72037 C23.9340094,18.8651492 24.0910758,19.2569489 23.9462966,19.5954792 C23.8015175,19.9340094 23.4097178,20.0910758 23.0711875,19.9462966 L18.7233514,18.0868589 L18.7233514,18.0868589 Z M16,17.3333333 C18.9455187,17.3333333 21.3333333,14.9455187 21.3333333,12 C21.3333333,9.05448133 18.9455187,6.66666667 16,6.66666667 C13.0544813,6.66666667 10.6666667,9.05448133 10.6666667,12 C10.6666667,14.9455187 13.0544813,17.3333333 16,17.3333333 Z" id="Combined-Shape"></path>
        </g>
    </g>
</svg>
