<?xml version="1.0" encoding="UTF-8"?>
<svg width="226px" height="85px" viewBox="0 0 226 85" version="1.1" xmlns="http://www.w3.org/2000/svg" xmlns:xlink="http://www.w3.org/1999/xlink">
    <!-- Generator: Sketch 54.1 (76490) - https://sketchapp.com -->
    <title>Logo / Airy Full inverted</title>
    <desc>Created with Sketch.</desc>
    <g id="z" stroke="none" stroke-width="1" fill="none" fill-rule="evenodd">
        <g id="Login-01" transform="translate(-608.000000, -120.000000)" fill="#FFFFFF">
            <g id="Logo-/-Airy-Full-inverted" transform="translate(608.000000, 120.000000)">
                <g id="Group" stroke-width="1">
                    <path d="M39.9211997,0.0792310571 C64.3010904,-1.3904586 84.5714211,17.7759051 84.9666892,41.7853102 C85.3513498,65.1515861 66.3924383,84.7166899 43.064921,84.9968704 C33.6666962,85.1098375 24.9635402,82.158714 17.88277,77.0819094 C17.3166657,76.6758992 16.6377872,76.4617093 15.9427183,76.4924676 L0.138135497,77.9168586 C0.050484238,77.9207733 -0.016510355,77.8396831 0.00358802286,77.754119 L3.67879974,61.2961674 C3.85354397,60.5473415 3.77147559,59.7677572 3.47167479,59.0597561 C0.856094219,52.8801249 -0.353158185,45.9583787 0.284965314,38.6876652 C2.10777653,17.9123604 19.1389187,1.33193457 39.9211997,0.0792310571 Z M69.4015748,61.391825 L50.0363696,13.3507853 L35.5905512,19.1579133 L54.9557564,67.1989529 L69.4015748,61.391825 Z M40.9291339,39.4253036 L34.1142841,22.2513089 L24.023622,46.2827225 L40.9291339,39.4253036 Z M52.0511811,68.0890052 L41.6002589,41.8324607 L24.4685039,48.7531343 L52.0511811,68.0890052 Z M32.476378,57.7775166 L21.9342392,50.2879581 L16.015748,64.5287958 L32.476378,57.7775166 Z" id="Combined-Shape"></path>
                </g>
                <path d="M151.238141,21.9033999 C148.888619,21.9033999 146.984147,20.0010061 146.984147,17.6537517 C146.984147,15.3070563 148.888619,13.4046625 151.238141,13.4046625 C153.587102,13.4046625 155.492135,15.3070563 155.492135,17.6537517 C155.492135,20.0010061 153.587102,21.9033999 151.238141,21.9033999 L151.238141,21.9033999 Z M188.570731,27.0539465 L195.043811,27.0539465 L203.771244,49.8603169 C205.686353,55.0661918 206.874269,58.8245931 207.334433,61.1355209 L207.625534,61.1355209 C207.940707,59.8953882 208.601282,57.7727996 209.60726,54.768314 C210.613238,51.7638284 213.9038,42.525706 219.479504,27.0539465 L225.952584,27.0539465 L208.825206,72.5934753 C207.128423,77.0940561 205.146696,80.2868809 202.880027,82.1719497 C200.613357,84.0575774 197.831663,84.9998323 194.534944,84.9998323 C192.69261,84.9998323 190.874348,84.7930504 189.080717,84.3794865 L189.080717,79.5262587 C190.413624,79.8185478 191.904957,79.9644129 193.553037,79.9644129 C197.698428,79.9644129 200.655903,77.6288948 202.426021,72.9584175 L204.643427,67.2657668 L188.570731,27.0539465 Z M180.713802,26.2815881 C182.48336,26.2815881 184.07154,26.4274532 185.477782,26.7191834 L184.641426,32.3341511 C182.993347,31.9697678 181.538401,31.7875762 180.27771,31.7875762 C177.053766,31.7875762 174.296143,33.0998031 172.005961,35.7248159 C169.71466,38.3503876 168.56929,41.6197775 168.56929,45.5329859 L168.56929,66.9729189 L162.533421,66.9729189 L162.533421,27.0109136 L167.938384,27.0109136 L167.938384,32.3341511 C167.938384,32.3341511 169.860771,29.2050375 173.120543,27.852013 C176.379755,26.4984297 178.21705,26.2815881 180.713802,26.2815881 L180.713802,26.2815881 Z M148.273389,66.9729189 L154.202893,66.9729189 L154.202893,27.0545054 L148.273389,27.0545054 L148.273389,66.9729189 Z M126.698882,44.5666995 L120.02763,28.0509708 C119.164403,25.9607967 118.274866,23.3961418 117.359017,20.3581241 C116.783533,22.6914067 115.959493,25.2560615 114.886337,28.0509708 L108.137272,44.5666995 L126.698882,44.5666995 Z M135.785154,66.9729189 L128.653178,50.0045054 L105.689783,50.0045054 L98.6361811,66.9729189 L91.8955124,66.9729189 L114.545973,13.4046625 L120.149668,13.4046625 L142.682569,66.9729189 L135.785154,66.9729189 Z" id="Fill-3"></path>
            </g>
        </g>
    </g>
</svg>