<?xml version="1.0" encoding="UTF-8"?>
<svg width="131px" height="131px" viewBox="0 0 131 131" version="1.1" xmlns="http://www.w3.org/2000/svg" xmlns:xlink="http://www.w3.org/1999/xlink">
    <!-- Generator: Sketch 46 (44423) - http://www.bohemiancoding.com/sketch -->
    <title>airyLogoWhite</title>
    <desc>Created with Sketch.</desc>
    <defs></defs>
    <g id="Page-1" stroke="none" stroke-width="1" fill="none" fill-rule="evenodd">
        <g id="airyLogoWhite" fill-rule="nonzero">
            <g id="Icon">
                <g id="icon" transform="translate(0.754883, 0.754883)">
                    <path d="M31.6757731,120.288852 C41.350563,126.061393 52.6605294,129.377942 64.7451172,129.377942 C100.44084,129.377942 129.377942,100.44084 129.377942,64.7451172 C129.377942,29.0493939 100.44084,0.11229276 64.7451172,0.11229276 C29.0493939,0.11229276 0.11229276,29.0493939 0.11229276,64.7451172 C0.11229276,76.5864654 3.29667326,87.6840617 8.85580414,97.228276 L3.36574776,126.056117 L31.6757731,120.288852 Z" id="Combined-Shape" fill="#17A8D7"></path>
                    <path d="M62.0817905,69.9400953 L62.0817905,81.2072 L91.0862184,81.2072 L65.3168998,55.4378813 L62.0817905,52.2027721 L62.0817905,69.9400953 Z M39.5475811,58.551091 L39.5475811,29.6685627 L57.0584308,47.1794123 L39.5475811,58.551091 Z M12.9973741,85.7809751 L94.9554896,85.7809751 L94.9554896,110.323183 L12.9973741,110.323183 L12.9973741,85.7809751 Z M57.6195708,52.2027721 L57.6195708,81.2072 L12.9973741,81.2072 L57.6195708,52.2027721 Z" id="logo-copy-14" fill="#FFFFFF" transform="translate(53.976432, 69.995873) rotate(-113.000000) translate(-53.976432, -69.995873) "></path>
                </g>
            </g>
        </g>
    </g>
</svg>